<?xml version="1.0" encoding="utf-8"?>
<!-- Generator: Adobe Illustrator 23.0.0, SVG Export Plug-In . SVG Version: 6.00 Build 0)  -->
<svg version="1.1" id="Layer_1" xmlns="http://www.w3.org/2000/svg" xmlns:xlink="http://www.w3.org/1999/xlink" x="0px" y="0px"
	 viewBox="0 0 1750 1000" style="enable-background:new 0 0 1750 1000;" xml:space="preserve">
<style type="text/css">
	.st0{display:none;clip-path:url(#SVGID_2_);fill:#F2F2F2;}
	.st1{opacity:0.3;clip-path:url(#SVGID_2_);}
	.st2{fill:none;stroke:#FFFFFF;stroke-miterlimit:10;}
	.st3{opacity:0.2;clip-path:url(#SVGID_2_);}
	.st4{clip-path:url(#SVGID_2_);}
	.st5{fill:#FFFFFF;}
	.st6{fill:#FFFFFF;stroke:#FFFFFF;stroke-width:2.4864;stroke-miterlimit:10;}
	.st7{fill:#FFFFFF;stroke:#FFFFFF;stroke-miterlimit:10;}
	.st8{fill:#FFFFFF;stroke:#FFFFFF;stroke-width:1.7556;stroke-miterlimit:10;}
	.st9{fill:#FFFFFF;stroke:#FFFFFF;stroke-width:1.984;stroke-miterlimit:10;}
	.st10{fill:#FFFFFF;stroke:#FFFFFF;stroke-width:1.8751;stroke-miterlimit:10;}
	.st11{fill:#FFFFFF;stroke:#FFFFFF;stroke-width:2.8757;stroke-miterlimit:10;}
	.st12{fill:#FFFFFF;stroke:#FFFFFF;stroke-width:2.2645;stroke-miterlimit:10;}
	.st13{fill:#FFFFFF;stroke:#FFFFFF;stroke-width:2.2889;stroke-miterlimit:10;}
	.st14{opacity:0.1;clip-path:url(#SVGID_2_);}
	.st15{display:none;}
	.st16{display:inline;fill:#00758E;}
	.st17{font-family:'MyriadPro-Bold';}
	.st18{font-size:68.2076px;}
	.st19{display:inline;}
	.st20{font-family:'MyriadPro-Regular';}
	.st21{font-size:37.0831px;}
</style>
<g>
	<g>
		<defs>
			<rect id="SVGID_1_" x="2.6" width="1744.9" height="1000"/>
		</defs>
		<clipPath id="SVGID_2_">
			<use xlink:href="#SVGID_1_"  style="overflow:visible;"/>
		</clipPath>
		<rect x="2.6" class="st0" width="1744.9" height="1000"/>
		<g class="st1">
			<polygon class="st2" points="1334.6,776.9 1015.1,808.4 1174.9,719.9 			"/>
			<polygon class="st2" points="1082.6,596.9 1015.1,808.4 1174.9,719.9 			"/>
			<polygon class="st2" points="1106.5,733.3 943.1,1071.3 1198.7,808.4 			"/>
			<polygon class="st2" points="1015.1,808.4 1082.6,596.9 947.6,776.9 			"/>
			<polygon class="st2" points="1015.1,808.4 917.8,948.7 947.6,776.9 			"/>
			<polygon class="st2" points="1015.1,808.4 917.8,948.7 1095,1036 			"/>
			<polygon class="st2" points="674.9,666.8 1082.6,596.9 947.6,776.9 			"/>
			<polygon class="st2" points="947.6,776.9 674.9,666.8 919.4,808.4 			"/>
			<polygon class="st2" points="947.6,776.9 674.9,666.8 790.1,500 			"/>
			<polygon class="st2" points="582.1,397 674.9,666.8 790.1,500 			"/>
			<polyline class="st2" points="790.1,500 821.1,582 674.9,666.8 			"/>
			<polygon class="st2" points="582.1,397 790.1,500 773.1,313 			"/>
			<polygon class="st2" points="582.1,397 670.1,295 773.1,313 			"/>
			<polygon class="st2" points="966.5,363 790.1,500 773.1,313 			"/>
			<polygon class="st2" points="966.5,363 822.1,255 773.1,313 			"/>
			<polygon class="st2" points="845.2,596.9 790.1,500 773.1,313 			"/>
			<polygon class="st2" points="947.6,776.9 869.8,973.3 726.5,856 			"/>
			<polygon class="st2" points="947.6,776.9 925.1,1040.7 847.8,808.4 			"/>
			<polygon class="st2" points="1174.9,719.9 1334.6,776.9 1082.6,596.9 			"/>
			<polygon class="st2" points="722.1,422 1119.1,666.8 1106.5,733.3 			"/>
			<polygon class="st2" points="1171,836.9 966.5,817 854.1,573 			"/>
			<polyline class="st2" points="1095,1036 1418.1,836.9 996.1,928 1095,1032 1198.7,1040.7 			"/>
			<polygon class="st2" points="1198.7,1040.7 1198.7,808.4 1431.1,1036 			"/>
			<polygon class="st2" points="1292.1,644 947.6,699 1095,1032 			"/>
			<polyline class="st2" points="947.6,699 1012.6,556 1292.1,644 			"/>
			<polygon class="st2" points="609.1,500 670.1,295 438.1,449 			"/>
			<polygon class="st2" points="438.1,449 415.1,386 636.1,353 			"/>
			<polygon class="st2" points="545.1,313 854.1,573 535.4,368 			"/>
			<polygon class="st2" points="677.6,34 545.1,313 773.1,313 			"/>
			<polygon class="st2" points="476.1,12 469.1,255 677.6,34 			"/>
			<polygon class="st2" points="476.1,12 665.5,-46 677.6,34 			"/>
			<polygon class="st2" points="795.1,111 469.1,255 300.1,116 			"/>
			<polygon class="st2" points="636.1,353 316.1,84 573.4,106 			"/>
			<polygon class="st2" points="300.1,116 415.1,386 636.1,353 			"/>
		</g>
		<g class="st3">
			<polygon class="st2" points="1465.1,258.2 1145.6,289.7 1305.4,201.2 			"/>
			<polygon class="st2" points="1213.1,78.2 1145.6,289.7 1305.4,201.2 			"/>
			<polygon class="st2" points="1237,214.7 1073.6,552.7 1329.2,289.7 			"/>
			<polygon class="st2" points="1145.6,289.7 1213.1,78.2 1078.1,258.2 			"/>
			<polygon class="st2" points="1145.6,289.7 1048.3,430 1078.1,258.2 			"/>
			<polygon class="st2" points="1145.6,289.7 1048.3,430 1225.5,517.3 			"/>
			<polygon class="st2" points="805.4,148.1 1213.1,78.2 1078.1,258.2 			"/>
			<polygon class="st2" points="1078.1,258.2 805.4,148.1 1049.9,289.7 			"/>
			<polygon class="st2" points="1078.1,258.2 805.4,148.1 920.6,-18.7 			"/>
			<polygon class="st2" points="712.6,-121.7 805.4,148.1 920.6,-18.7 			"/>
			<polyline class="st2" points="920.6,-18.7 951.6,63.3 805.4,148.1 			"/>
			<polygon class="st2" points="975.7,78.2 920.6,-18.7 903.6,-205.7 			"/>
			<polygon class="st2" points="1078.1,258.2 1000.3,454.7 856.9,337.3 			"/>
			<polygon class="st2" points="1078.1,258.2 1055.6,522.1 978.3,289.7 			"/>
			<polygon class="st2" points="1305.4,201.2 1465.1,258.2 1213.1,78.2 			"/>
			<polygon class="st2" points="852.6,-96.7 1249.6,148.1 1237,214.7 			"/>
			<polygon class="st2" points="1301.5,318.2 1097,298.3 984.6,54.3 			"/>
			<polyline class="st2" points="1225.5,517.3 1548.6,318.2 1126.6,409.3 1225.5,513.3 1329.2,522.1 			"/>
			<polygon class="st2" points="1329.2,522.1 1329.2,289.7 1561.6,517.3 			"/>
			<polygon class="st2" points="1422.6,125.3 1078.1,180.3 1225.5,513.3 			"/>
			<polyline class="st2" points="1078.1,180.3 1143.1,37.3 1422.6,125.3 			"/>
		</g>
		<g class="st3">
			<polygon class="st2" points="764.8,794.4 445.3,825.9 605,737.4 			"/>
			<polygon class="st2" points="512.8,614.4 445.3,825.9 605,737.4 			"/>
			<polygon class="st2" points="536.6,750.9 373.3,1088.9 628.8,825.9 			"/>
			<polygon class="st2" points="445.3,825.9 512.8,614.4 377.8,794.4 			"/>
			<polygon class="st2" points="445.3,825.9 347.9,966.2 377.8,794.4 			"/>
			<polygon class="st2" points="445.3,825.9 347.9,966.2 525.2,1053.6 			"/>
			<polygon class="st2" points="105.1,684.3 512.8,614.4 377.8,794.4 			"/>
			<polygon class="st2" points="377.8,794.4 105.1,684.3 349.6,825.9 			"/>
			<polygon class="st2" points="377.8,794.4 105.1,684.3 220.3,517.6 			"/>
			<polygon class="st2" points="12.3,414.6 105.1,684.3 220.3,517.6 			"/>
			<polyline class="st2" points="220.3,517.6 251.3,599.6 105.1,684.3 			"/>
			<polygon class="st2" points="12.3,414.6 220.3,517.6 203.3,330.6 			"/>
			<polygon class="st2" points="12.3,414.6 100.3,312.6 203.3,330.6 			"/>
			<polygon class="st2" points="396.6,380.6 220.3,517.6 203.3,330.6 			"/>
			<polygon class="st2" points="396.6,380.6 252.3,272.6 203.3,330.6 			"/>
			<polygon class="st2" points="275.4,614.4 220.3,517.6 203.3,330.6 			"/>
			<polygon class="st2" points="377.8,794.4 299.9,990.9 156.6,873.6 			"/>
			<polygon class="st2" points="377.8,794.4 355.3,1058.3 277.9,825.9 			"/>
			<polygon class="st2" points="605,737.4 764.8,794.4 512.8,614.4 			"/>
			<polygon class="st2" points="152.3,439.6 549.3,684.3 536.6,750.9 			"/>
			<polygon class="st2" points="601.1,854.4 396.6,834.6 284.3,590.6 			"/>
			<polyline class="st2" points="525.2,1053.6 848.3,854.4 426.3,945.6 525.2,1049.6 628.8,1058.3 			"/>
			<polygon class="st2" points="628.8,1058.3 628.8,825.9 861.3,1053.6 			"/>
			<polygon class="st2" points="722.3,661.6 377.8,716.6 525.2,1049.6 			"/>
			<polyline class="st2" points="377.8,716.6 442.7,573.6 722.3,661.6 			"/>
			<polygon class="st2" points="39.3,517.6 100.3,312.6 -131.7,466.6 			"/>
			<polygon class="st2" points="-131.7,466.6 -154.7,403.6 66.3,370.6 			"/>
			<polygon class="st2" points="-24.7,330.6 284.3,590.6 -34.4,385.6 			"/>
			<polygon class="st2" points="107.8,51.6 -24.7,330.6 203.3,330.6 			"/>
			<polygon class="st2" points="-93.7,29.6 -100.7,272.6 107.8,51.6 			"/>
			<polygon class="st2" points="-93.7,29.6 95.7,-28.4 107.8,51.6 			"/>
			<polygon class="st2" points="225.3,128.6 -100.7,272.6 -269.7,133.6 			"/>
			<polygon class="st2" points="66.3,370.6 -253.7,101.6 3.5,123.6 			"/>
			<polygon class="st2" points="-269.7,133.6 -154.7,403.6 66.3,370.6 			"/>
		</g>
		<g class="st4">
			<path class="st5" d="M720.6,856c0-3.3,2.6-5.9,5.9-5.9c3.2,0,5.9,2.6,5.9,5.9c0,3.2-2.6,5.9-5.9,5.9
				C723.2,861.9,720.6,859.2,720.6,856z"/>
			<path class="st5" d="M1007.1,808.4c0-4.4,3.6-8,8-8c4.4,0,8,3.6,8,8c0,4.4-3.6,8-8,8C1010.7,816.4,1007.1,812.8,1007.1,808.4z"/>
			<circle class="st5" cx="919.9" cy="807.6" r="6.2"/>
			<path class="st5" d="M941.4,776.9c0-3.4,2.8-6.2,6.2-6.2c3.4,0,6.2,2.8,6.2,6.2c0,3.4-2.8,6.2-6.2,6.2
				C944.2,783.1,941.4,780.3,941.4,776.9z"/>
			<circle class="st5" cx="966.5" cy="817" r="9.8"/>
			<path class="st5" d="M863.2,973.3c0-3.3,2.6-5.9,5.9-5.9c3.2,0,5.9,2.6,5.9,5.9c0,3.2-2.6,5.9-5.9,5.9
				C865.9,979.2,863.2,976.6,863.2,973.3z"/>
			<path class="st5" d="M1089.9,1034.3c0-2.8,2.3-5.1,5.1-5.1s5.1,2.3,5.1,5.1s-2.3,5.1-5.1,5.1S1089.9,1037.1,1089.9,1034.3z"/>
			
				<ellipse transform="matrix(0.7071 -0.7071 0.7071 0.7071 -176.5021 1249.1323)" class="st5" cx="1419.6" cy="837.6" rx="7.7" ry="7.7"/>
			<path class="st5" d="M941.2,699c0-3.6,2.9-6.5,6.5-6.5c3.6,0,6.5,2.9,6.5,6.5s-2.9,6.5-6.5,6.5
				C944.1,705.5,941.2,702.6,941.2,699z"/>
			<path class="st5" d="M1331.2,776.9c0-3.6,2.9-6.5,6.5-6.5s6.5,2.9,6.5,6.5c0,3.6-2.9,6.5-6.5,6.5S1331.2,780.4,1331.2,776.9z"/>
			<path class="st5" d="M1166.7,720.7c0-4,3.3-7.3,7.3-7.3s7.3,3.3,7.3,7.3c0,4.1-3.3,7.3-7.3,7.3S1166.7,724.8,1166.7,720.7z"/>
			<circle class="st5" cx="1107" cy="733.3" r="7.3"/>
			<circle class="st5" cx="1012.6" cy="556" r="7.3"/>
			<circle class="st5" cx="1121.9" cy="587.5" r="7.3"/>
			<circle class="st5" cx="1120.5" cy="671.9" r="8.7"/>
			<circle class="st5" cx="1196.2" cy="808.4" r="9"/>
			<path class="st5" d="M665.7,666.8c0-5.1,4.1-9.2,9.2-9.2c5.1,0,9.2,4.1,9.2,9.2c0,5.1-4.1,9.2-9.2,9.2
				C669.8,676,665.7,671.9,665.7,666.8z"/>
			<path class="st5" d="M848.8,573c0-5.1,4.1-9.2,9.2-9.2c5.1,0,9.2,4.1,9.2,9.2s-4.1,9.2-9.2,9.2
				C852.9,582.2,848.8,578.1,848.8,573z"/>
			<path class="st5" d="M707.4,419.3c0-6.6,5.4-12,12-12c6.6,0,12,5.4,12,12s-5.4,12-12,12C712.8,431.2,707.4,425.9,707.4,419.3z"/>
			<path class="st5" d="M766.8,313c0-3.5,2.8-6.3,6.3-6.3c3.5,0,6.3,2.8,6.3,6.3c0,3.5-2.8,6.3-6.3,6.3
				C769.6,319.3,766.8,316.5,766.8,313z"/>
			<path class="st5" d="M817.5,255c0-2.5,2.1-4.6,4.6-4.6s4.6,2.1,4.6,4.6s-2.1,4.6-4.6,4.6S817.5,257.5,817.5,255z"/>
			<path class="st5" d="M665.5,294.3c0-2.9,2.4-5.3,5.3-5.3c2.9,0,5.3,2.4,5.3,5.3c0,2.9-2.4,5.3-5.3,5.3
				C667.9,299.6,665.5,297.2,665.5,294.3z"/>
			<path class="st5" d="M575.3,397c0-3.8,3.1-6.8,6.8-6.8s6.8,3.1,6.8,6.8c0,3.8-3.1,6.8-6.8,6.8S575.3,400.8,575.3,397z"/>
			<path class="st5" d="M538.3,313c0-3.8,3.1-6.8,6.8-6.8s6.8,3.1,6.8,6.8c0,3.8-3.1,6.8-6.8,6.8S538.3,316.8,538.3,313z"/>
			<path class="st5" d="M670.8,34c0-3.8,3.1-6.8,6.8-6.8s6.8,3.1,6.8,6.8c0,3.8-3.1,6.8-6.8,6.8S670.8,37.8,670.8,34z"/>
			<path class="st5" d="M463.9,9.1c0-5.4,4.4-9.8,9.8-9.8c5.4,0,9.8,4.4,9.8,9.8c0,5.4-4.4,9.8-9.8,9.8
				C468.2,18.8,463.9,14.5,463.9,9.1z"/>
			<path class="st5" d="M306.4,84c0-5.4,4.4-9.8,9.8-9.8c5.4,0,9.8,4.4,9.8,9.8s-4.4,9.8-9.8,9.8C310.7,93.8,306.4,89.4,306.4,84z"
				/>
			<path class="st5" d="M560.6,104.5c0-6.2,5-11.3,11.3-11.3c6.2,0,11.3,5,11.3,11.3c0,6.2-5,11.3-11.3,11.3
				C565.6,115.8,560.6,110.7,560.6,104.5z"/>
			<path class="st5" d="M788.3,111c0-3.8,3.1-6.8,6.8-6.8s6.8,3.1,6.8,6.8c0,3.8-3.1,6.8-6.8,6.8S788.3,114.8,788.3,111z"/>
			<path class="st5" d="M526.5,367c0-4.3,3.5-7.9,7.9-7.9c4.3,0,7.9,3.5,7.9,7.9c0,4.3-3.5,7.9-7.9,7.9
				C530,374.9,526.5,371.3,526.5,367z"/>
			<path class="st5" d="M955.7,360.8c0-4.7,3.8-8.5,8.5-8.5c4.7,0,8.5,3.8,8.5,8.5s-3.8,8.5-8.5,8.5
				C959.6,369.3,955.7,365.5,955.7,360.8z"/>
			<path class="st5" d="M816.2,582c0-2.7,2.2-4.9,4.9-4.9s4.9,2.2,4.9,4.9c0,2.7-2.2,4.9-4.9,4.9S816.2,584.7,816.2,582z"/>
			<path class="st5" d="M760.7,614.5c0-2.7,2.2-4.9,4.9-4.9s4.9,2.2,4.9,4.9s-2.2,4.9-4.9,4.9S760.7,617.2,760.7,614.5z"/>
			<path class="st5" d="M461.7,255c0-3.9,3.3-7.1,7.5-7.1s7.5,3.2,7.5,7.1s-3.3,7.1-7.5,7.1S461.7,258.9,461.7,255z"/>
		</g>
		<g class="st1">
			<path class="st5" d="M805.4,286.6c-0.5,3.2-3.6,5.4-6.8,4.8c-3.2-0.5-5.4-3.6-4.8-6.8c0.5-3.2,3.6-5.4,6.8-4.8
				C803.8,280.3,806,283.4,805.4,286.6z"/>
			<path class="st5" d="M515,286.8c-0.7,4.4-4.9,7.3-9.2,6.6c-4.4-0.7-7.3-4.9-6.6-9.2c0.7-4.4,4.9-7.3,9.2-6.6
				C512.7,278.3,515.7,282.4,515,286.8z"/>
			<path class="st5" d="M607,302.8c-0.6,3.4-3.8,5.7-7.1,5.1c-3.4-0.6-5.7-3.8-5.1-7.1c0.6-3.4,3.8-5.7,7.1-5.1
				C605.3,296.2,607.6,299.4,607,302.8z"/>
			<path class="st5" d="M574.6,328.6c-0.6,3.4-3.8,5.7-7.1,5.1c-3.4-0.6-5.7-3.8-5.1-7.1c0.6-3.4,3.8-5.7,7.1-5.1
				C572.9,322,575.2,325.2,574.6,328.6z"/>
			<path class="st5" d="M566.2,286.5c-0.9,5.4-5.9,9-11.3,8.1c-5.4-0.9-9-5.9-8.1-11.3c0.9-5.4,5.9-9,11.3-8.1
				C563.4,276.1,567.1,281.2,566.2,286.5z"/>
			<path class="st5" d="M683.8,147.5c-0.5,3.2-3.6,5.4-6.8,4.8c-3.2-0.5-5.4-3.6-4.8-6.8c0.5-3.2,3.6-5.4,6.8-4.8
				C682.2,141.3,684.4,144.3,683.8,147.5z"/>
			<path class="st5" d="M470.2,50.4c-0.5,2.8-3.1,4.7-5.9,4.2c-2.8-0.5-4.7-3.1-4.2-5.9c0.5-2.8,3.1-4.7,5.9-4.2
				C468.8,45,470.7,47.6,470.2,50.4z"/>
			<path class="st5" d="M120.4,191.9c-0.7,4.2-4.7,7-8.9,6.3c-4.2-0.7-7-4.7-6.3-8.9c0.7-4.2,4.7-7,8.9-6.3
				C118.3,183.7,121.1,187.7,120.4,191.9z"/>
			<path class="st5" d="M562.2,405.5c-0.6,3.5-3.9,5.9-7.4,5.3c-3.5-0.6-5.9-3.9-5.3-7.4c0.6-3.5,3.9-5.9,7.4-5.3
				C560.4,398.6,562.7,401.9,562.2,405.5z"/>
			<path class="st5" d="M190.1,265c-0.6,3.5-3.9,5.9-7.4,5.3c-3.5-0.6-5.9-3.9-5.3-7.4c0.6-3.5,3.9-5.9,7.4-5.3
				C188.3,258.1,190.7,261.5,190.1,265z"/>
			<path class="st5" d="M343.2,347.2c-0.7,4-4.4,6.7-8.4,6c-4-0.7-6.7-4.4-6-8.4c0.7-4,4.4-6.7,8.4-6
				C341.2,339.4,343.9,343.2,343.2,347.2z"/>
			<path class="st5" d="M411.4,345.7c-0.7,4-4.4,6.7-8.4,6c-4-0.7-6.7-4.4-6-8.4c0.7-4,4.4-6.7,8.4-6
				C409.4,337.9,412.1,341.7,411.4,345.7z"/>
			<path class="st5" d="M475.6,536.1c-0.7,4-4.4,6.7-8.4,6c-4-0.7-6.7-4.4-6-8.4c0.7-4,4.4-6.7,8.4-6
				C473.6,528.3,476.3,532.1,475.6,536.1z"/>
			<path class="st5" d="M372.9,487.2c-0.7,4-4.4,6.7-8.4,6c-4-0.7-6.7-4.4-6-8.4c0.7-4,4.4-6.7,8.4-6
				C370.9,479.4,373.6,483.2,372.9,487.2z"/>
			<path class="st5" d="M389.4,404.4c-0.8,4.7-5.3,8-10,7.2c-4.7-0.8-8-5.3-7.2-10c0.8-4.7,5.3-8,10-7.2
				C387,395.1,390.2,399.6,389.4,404.4z"/>
			<path class="st5" d="M337.3,257.4c-0.8,4.9-5.4,8.2-10.3,7.4c-4.9-0.8-8.2-5.4-7.4-10.3c0.8-4.9,5.4-8.2,10.3-7.4
				C334.8,247.9,338.1,252.5,337.3,257.4z"/>
			<path class="st5" d="M828.7,482.2c-0.8,5-5.6,8.4-10.6,7.6c-5-0.8-8.4-5.6-7.6-10.6c0.8-5,5.6-8.4,10.6-7.6
				C826.1,472.4,829.5,477.2,828.7,482.2z"/>
			<path class="st5" d="M575.4,587.7c-0.8,5-5.6,8.4-10.6,7.6c-5-0.8-8.4-5.6-7.6-10.6c0.8-5,5.6-8.4,10.6-7.6
				C572.8,577.9,576.2,582.6,575.4,587.7z"/>
			<path class="st5" d="M747.1,719.6c-1.1,6.5-7.2,10.9-13.7,9.8c-6.5-1.1-10.9-7.2-9.8-13.7c1.1-6.5,7.2-10.9,13.7-9.8
				C743.8,706.9,748.2,713.1,747.1,719.6z"/>
			<path class="st5" d="M671.2,814.7c-0.6,3.4-3.8,5.8-7.3,5.2c-3.4-0.6-5.8-3.8-5.2-7.3c0.6-3.4,3.8-5.8,7.3-5.2
				C669.5,808,671.8,811.3,671.2,814.7z"/>
			<path class="st5" d="M611.7,863.7c-0.4,2.5-2.8,4.2-5.3,3.8c-2.5-0.4-4.2-2.8-3.8-5.3c0.4-2.5,2.8-4.2,5.3-3.8
				C610.4,858.8,612.1,861.2,611.7,863.7z"/>
			<path class="st5" d="M768.1,849.8c-0.5,2.9-3.2,4.9-6.1,4.4c-2.9-0.5-4.9-3.2-4.4-6.1c0.5-2.9,3.2-4.9,6.1-4.4
				C766.6,844.1,768.5,846.9,768.1,849.8z"/>
			<path class="st5" d="M873.9,763.1c-0.6,3.7-4.1,6.2-7.9,5.6c-3.7-0.6-6.2-4.1-5.6-7.9c0.6-3.7,4.1-6.2,7.9-5.6
				C872,755.9,874.5,759.4,873.9,763.1z"/>
			<path class="st5" d="M896.7,852c-0.6,3.7-4.1,6.2-7.9,5.6c-3.7-0.6-6.2-4.1-5.6-7.9c0.6-3.7,4.1-6.2,7.9-5.6
				C894.8,844.8,897.3,848.3,896.7,852z"/>
			<path class="st5" d="M796,801.6c-0.7,4.3-4.8,7.2-9,6.5c-4.3-0.7-7.2-4.8-6.5-9c0.7-4.3,4.8-7.2,9-6.5
				C793.9,793.3,796.8,797.3,796,801.6z"/>
			<path class="st5" d="M492.6,736.7c-0.8,4.6-5.2,7.8-9.8,7c-4.6-0.8-7.8-5.2-7-9.8c0.8-4.6,5.2-7.8,9.8-7
				C490.2,727.7,493.4,732.1,492.6,736.7z"/>
			<path class="st5" d="M666.3,541.3c-0.4,2.7-2.9,4.5-5.6,4c-2.7-0.4-4.5-2.9-4-5.6c0.4-2.7,2.9-4.5,5.6-4
				C665,536.1,666.8,538.6,666.3,541.3z"/>
			<path class="st5" d="M726.4,518.3c-0.4,2.7-2.9,4.5-5.6,4c-2.7-0.4-4.5-2.9-4-5.6c0.4-2.7,2.9-4.5,5.6-4
				C725,513.1,726.8,515.6,726.4,518.3z"/>
			<path class="st5" d="M962.8,921.8c-0.6,3.9-4.5,6.5-8.5,5.8c-4.1-0.7-6.8-4.4-6.2-8.2c0.6-3.9,4.5-6.5,8.5-5.8
				C960.7,914.2,963.4,917.9,962.8,921.8z"/>
		</g>
		<g class="st4">
			<g>
				<circle class="st6" cx="917.8" cy="948.7" r="10.2"/>
				<path class="st7" d="M917.8,942.2c3.6,0,6.5,2.9,6.5,6.5c0,3.6-2.9,6.5-6.5,6.5c-3.6,0-6.5-2.9-6.5-6.5
					C911.3,945.1,914.2,942.2,917.8,942.2z"/>
			</g>
			<g>
				<circle class="st6" cx="847.8" cy="808.4" r="10.2"/>
				<path class="st7" d="M847.8,801.9c3.6,0,6.5,2.9,6.5,6.5c0,3.6-2.9,6.5-6.5,6.5c-3.6,0-6.5-2.9-6.5-6.5
					C841.3,804.8,844.2,801.9,847.8,801.9z"/>
			</g>
			<g>
				<path class="st8" d="M852,991.9c0-4,3.2-7.2,7.2-7.2c4,0,7.2,3.2,7.2,7.2c0,4-3.2,7.2-7.2,7.2C855.3,999.1,852,995.9,852,991.9z
					"/>
				<path class="st7" d="M859.3,987.3c2.5,0,4.6,2.1,4.6,4.6c0,2.5-2.1,4.6-4.6,4.6c-2.5,0-4.6-2.1-4.6-4.6
					C854.7,989.3,856.7,987.3,859.3,987.3z"/>
			</g>
			<g>
				<circle class="st6" cx="1292.1" cy="643.2" r="10.2"/>
				<path class="st7" d="M1292.1,636.7c3.6,0,6.5,2.9,6.5,6.5c0,3.6-2.9,6.5-6.5,6.5c-3.6,0-6.5-2.9-6.5-6.5
					C1285.6,639.6,1288.5,636.7,1292.1,636.7z"/>
			</g>
			<g>
				<path class="st9" d="M988.9,591.3c0-4.5,3.7-8.2,8.2-8.2c4.5,0,8.2,3.7,8.2,8.2c0,4.5-3.7,8.2-8.2,8.2
					C992.6,599.5,988.9,595.8,988.9,591.3z"/>
				<path class="st7" d="M997.1,586.2c2.9,0,5.2,2.3,5.2,5.2c0,2.9-2.3,5.2-5.2,5.2c-2.9,0-5.2-2.3-5.2-5.2
					C991.9,588.5,994.2,586.2,997.1,586.2z"/>
			</g>
			<g>
				
					<ellipse transform="matrix(0.7071 -0.7071 0.7071 0.7071 -200.2187 607.1254)" class="st10" cx="632.8" cy="545.2" rx="7.7" ry="7.7"/>
				<path class="st7" d="M632.8,540.3c2.7,0,4.9,2.2,4.9,4.9c0,2.7-2.2,4.9-4.9,4.9c-2.7,0-4.9-2.2-4.9-4.9
					C627.9,542.5,630.1,540.3,632.8,540.3z"/>
			</g>
			<g>
				<path class="st11" d="M399.6,382.3c0-6.5,5.3-11.8,11.8-11.8c6.5,0,11.8,5.3,11.8,11.8c0,6.5-5.3,11.8-11.8,11.8
					C404.9,394.2,399.6,388.9,399.6,382.3z"/>
				<path class="st7" d="M411.4,374.8c4.1,0,7.5,3.4,7.5,7.5c0,4.1-3.4,7.5-7.5,7.5c-4.1,0-7.5-3.4-7.5-7.5
					C403.9,378.2,407.3,374.8,411.4,374.8z"/>
			</g>
			<g>
				<circle class="st12" cx="636.1" cy="353" r="9.3"/>
				<path class="st7" d="M636.1,347.1c3.3,0,5.9,2.7,5.9,5.9c0,3.3-2.7,5.9-5.9,5.9s-5.9-2.7-5.9-5.9
					C630.2,349.7,632.9,347.1,636.1,347.1z"/>
			</g>
			<g>
				<path class="st13" d="M290.7,115.8c0-5.2,4.2-9.4,9.4-9.4c5.2,0,9.4,4.2,9.4,9.4c0,5.2-4.2,9.4-9.4,9.4
					C294.9,125.2,290.7,121,290.7,115.8z"/>
				<path class="st7" d="M300.1,109.8c3.3,0,6,2.7,6,6c0,3.3-2.7,6-6,6c-3.3,0-6-2.7-6-6C294.1,112.5,296.8,109.8,300.1,109.8z"/>
			</g>
		</g>
		<g class="st14">
			<path class="st5" d="M1110.2,87.3c0,5.8-4.7,10.6-10.6,10.6c-5.8,0-10.6-4.7-10.6-10.6c0-5.8,4.7-10.6,10.6-10.6
				C1105.5,76.7,1110.2,81.4,1110.2,87.3z"/>
			<path class="st5" d="M595.4,173.9c0,8-6.4,14.5-14.4,14.5c-8,0-14.5-6.4-14.5-14.4c0-8,6.4-14.5,14.4-14.5
				C588.9,159.5,595.4,165.9,595.4,173.9z"/>
			<path class="st5" d="M763.4,174.9c0,6.2-5,11.2-11.1,11.2c-6.2,0-11.2-5-11.2-11.1c0-6.2,5-11.2,11.1-11.2
				C758.3,163.8,763.3,168.8,763.4,174.9z"/>
			<path class="st5" d="M713.6,230.3c0,6.2-5,11.2-11.1,11.2c-6.2,0-11.2-5-11.2-11.1c0-6.2,5-11.2,11.1-11.2
				C708.5,219.1,713.5,224.1,713.6,230.3z"/>
			<path class="st5" d="M686.1,158.2c0,9.8-7.9,17.7-17.6,17.7c-9.8,0-17.7-7.9-17.7-17.6c0-9.8,7.9-17.7,17.6-17.7
				C678.2,140.6,686.1,148.5,686.1,158.2z"/>
			<path class="st5" d="M445.8-231.8c0,5.1-4.1,9.2-9.2,9.3c-5.1,0-9.2-4.1-9.3-9.2c0-5.1,4.1-9.2,9.2-9.3
				C441.7-241,445.8-236.9,445.8-231.8z"/>
			<path class="st5" d="M714.3,370.2c0,6.4-5.2,11.6-11.6,11.6c-6.4,0-11.6-5.2-11.6-11.6s5.2-11.6,11.6-11.6
				C709.1,358.6,714.3,363.8,714.3,370.2z"/>
			<path class="st5" d="M13.1,231.7c0,6.4-5.2,11.6-11.6,11.6c-6.4,0-11.6-5.2-11.6-11.6c0-6.4,5.2-11.6,11.6-11.6
				C7.9,220.1,13.1,225.3,13.1,231.7z"/>
			<path class="st5" d="M308.9,332c0,7.3-5.9,13.2-13.2,13.2c-7.3,0-13.2-5.9-13.2-13.1c0-7.3,5.9-13.2,13.2-13.2
				C303,318.8,308.9,324.7,308.9,332z"/>
			<path class="st5" d="M429.3,309.1c0,7.3-5.9,13.2-13.2,13.2c-7.3,0-13.2-5.9-13.2-13.1c0-7.3,5.9-13.2,13.2-13.2
				C423.4,295.9,429.3,301.8,429.3,309.1z"/>
			<path class="st5" d="M599.7,627.5c0,7.3-5.9,13.2-13.2,13.2c-7.3,0-13.2-5.9-13.2-13.1c0-7.3,5.9-13.2,13.2-13.2
				C593.8,614.3,599.7,620.2,599.7,627.5z"/>
			<path class="st5" d="M403.1,571.3c0,7.3-5.9,13.2-13.2,13.2c-7.3,0-13.2-5.9-13.2-13.2c0-7.3,5.9-13.2,13.2-13.2
				C397.2,558.1,403.1,564,403.1,571.3z"/>
			<path class="st5" d="M287.3,443c0,8.6-7,15.7-15.6,15.7c-8.6,0-15.7-7-15.7-15.6c0-8.6,7-15.7,15.6-15.7
				C280.3,427.3,287.3,434.3,287.3,443z"/>
			<path class="st5" d="M271.7,174.6c0,8.9-7.2,16.1-16.1,16.1c-8.9,0-16.1-7.2-16.1-16.1c0-8.9,7.2-16.1,16.1-16.1
				C264.4,158.5,271.6,165.7,271.7,174.6z"/>
			<path class="st5" d="M1209.5,427.1c0,9.1-7.4,16.6-16.5,16.6c-9.1,0-16.6-7.4-16.6-16.5s7.4-16.6,16.5-16.6
				C1202.1,410.6,1209.5,418,1209.5,427.1z"/>
			<path class="st5" d="M652.7,762c0,9.1-7.4,16.6-16.5,16.6c-9.1,0-16.6-7.4-16.6-16.5c0-9.1,7.4-16.6,16.5-16.6
				C645.2,745.4,652.6,752.8,652.7,762z"/>
			<path class="st5" d="M1135.5,872.2c0,11.9-9.6,21.5-21.4,21.5c-11.9,0-21.5-9.6-21.5-21.4c0-11.9,9.6-21.5,21.4-21.5
				C1125.8,850.7,1135.4,860.3,1135.5,872.2z"/>
			<path class="st5" d="M1373,911.7c0,6.8-5.5,12.3-12.3,12.3c-6.8,0-12.3-5.5-12.3-12.3c0-6.8,5.5-12.3,12.3-12.3
				C1367.5,899.4,1373,904.9,1373,911.7z"/>
			<path class="st5" d="M1202.7,1564.4c0,6.8-5.5,12.3-12.3,12.3c-6.8,0-12.3-5.5-12.3-12.3c0-6.8,5.5-12.3,12.3-12.3
				C1197.2,1552.2,1202.7,1557.7,1202.7,1564.4z"/>
			<path class="st5" d="M1574.7,1608.5c0,9.7-7.8,17.6-17.5,17.6c-9.7,0-17.6-7.8-17.6-17.5c0-9.7,7.8-17.6,17.5-17.6
				C1566.8,1591,1574.7,1598.8,1574.7,1608.5z"/>
			<path class="st5" d="M1857.5,1473.2c0,9.7-7.8,17.6-17.5,17.6c-9.7,0-17.6-7.8-17.6-17.5c0-9.7,7.8-17.6,17.5-17.6
				C1849.6,1455.7,1857.5,1463.6,1857.5,1473.2z"/>
			<path class="st5" d="M1400.5,1437.3c0,11.2-9,20.3-20.2,20.3c-11.2,0-20.3-9-20.3-20.2c0-11.2,9-20.3,20.2-20.3
				C1391.4,1417.1,1400.4,1426.2,1400.5,1437.3z"/>
			<path class="st5" d="M991.2,1426.5c0,6.8-5.5,12.3-12.3,12.3s-12.3-5.5-12.3-12.3c0-6.8,5.5-12.3,12.3-12.3
				S991.2,1419.7,991.2,1426.5z"/>
			<path class="st5" d="M1460.8,965.4c0,7.8-6.3,14.1-14.1,14.2c-7.8,0-14.1-6.3-14.2-14.1c0-7.8,6.3-14.1,14.1-14.2
				C1454.4,951.3,1460.7,957.6,1460.8,965.4z"/>
			<path class="st5" d="M689.4,978.1c0,8.5-6.8,15.3-15.3,15.3c-8.5,0-15.3-6.8-15.4-15.3c0-8.5,6.8-15.3,15.3-15.3
				C682.5,962.8,689.3,969.7,689.4,978.1z"/>
			<path class="st5" d="M939.3,580.1c0,4.8-3.9,8.8-8.7,8.8c-4.8,0-8.8-3.9-8.8-8.7c0-4.8,3.9-8.8,8.7-8.8
				C935.3,571.3,939.3,575.2,939.3,580.1z"/>
			<path class="st5" d="M1038.9,521.4c0,4.8-3.9,8.8-8.7,8.8c-4.8,0-8.8-3.9-8.8-8.7c0-4.8,3.9-8.8,8.7-8.8
				C1035,512.7,1038.9,516.6,1038.9,521.4z"/>
		</g>
	</g>
	<g class="st15">
		<text transform="matrix(1 0 0 1 1236.8818 182.3872)" class="st16 st17 st18">TECHNOLOGY</text>
		<text transform="matrix(0.9454 0 0 1 1246.8818 236.1821)" class="st19 st20 st21">B   A   C   K   G   R   O   U   N   D</text>
	</g>
</g>
</svg>
