<?xml version="1.0" encoding="utf-8"?>
<!-- Generator: Adobe Illustrator 23.0.0, SVG Export Plug-In . SVG Version: 6.00 Build 0)  -->
<svg version="1.1" id="Layer_1" xmlns="http://www.w3.org/2000/svg" xmlns:xlink="http://www.w3.org/1999/xlink" x="0px" y="0px"
	 viewBox="0 0 612 792" style="enable-background:new 0 0 612 792;" xml:space="preserve">
<style type="text/css">
	.st0{fill-rule:evenodd;clip-rule:evenodd;fill:#FFFFFF;}
	.st1{fill:#FFFFFF;}
</style>
<g id="Layer_x0020_1">
	<g id="_2413673844288">
		<path class="st0" d="M297.3,435.5c-0.6,12-0.8,23.2-1.7,35.3c4.8,0.4,10.1,0.9,15.3,0.1l-1.5-33.7l-0.3-1.6
			C305.2,435.8,301.5,436,297.3,435.5L297.3,435.5z M267.5,401.7c-5.9,2.9-14.5,7.4-13.6,15.4c1.3,4.4,6,7.3,9.8,9
			c20.8,9.2,48.5,9.5,70.5,2.7c5.4-2.1,12.7-5.1,13.7-11.8c-0.1-5.5-5.9-9-10.1-11.1v-0.3c1.4-0.6,3.1-1.1,4.6-1.2v-0.1
			c-7.4-1.3-14.5-3.3-21.6-5.1c1.4,3.1,2.4,6.4,3.5,9.7c2.2-0.7,4.3-1.2,6.7-1.5c3.8,1.5,9.2,3.6,9.7,8.3c0.4,4.4-4.4,6.5-7.5,8.3
			c-16.1,5.9-34.3,6.4-51.1,2c-4.6-1.4-11.4-3.3-11.9-9.2c3.3-7.8,11.8-9.4,18.9-11.3c-3.7-2.4-7.4-4.5-10.9-7.1
			C274.5,398.5,271,400.2,267.5,401.7L267.5,401.7z M303.2,354.7l-2.1,6.7l-10.5,30c2.6,0.3,5.9,0,8.4,0.3v0.2l-1.5,34l0.3,0.3
			c3.3,0.3,7.5,0.5,10.9-0.1v-0.5l-1.4-32.9l0.2-1.1l9.2-0.2c-4.6-12.1-9-24.4-13.4-36.7H303.2L303.2,354.7z"/>
		<circle class="st0" cx="232.1" cy="301.1" r="17.5"/>
		<circle class="st0" cx="196.3" cy="301.2" r="11.1"/>
		<circle class="st0" cx="98" cy="404.2" r="13.6"/>
		<circle class="st0" cx="165.3" cy="468.7" r="17.5"/>
		<circle class="st0" cx="129.6" cy="468.7" r="11.1"/>
		<path class="st0" d="M388.3,326.6l18.4,0c15.6-0.2,15.6-6.1,9.6,39.1l18,0.1c0.9-14.5,2.5-27.3,2.7-42.1
			c0.2-20.6,3.3-12.2-31-14.5l-17.7-0.1l-34.2,0.4c-6.3,5.1-10.7,14.9-17.1,20.7l-188,0c-3.2-6.7-10.1-11.4-18.1-11.4
			c-11,0-20,8.9-20,20s8.9,20,20,20c7.5,0,13.9-4.1,17.4-10.1c2.5-2.1,3.9-1.2,11.9-1.2h186.4c2.4-3.5,12.5-17.7,16.3-20.4
			L388.3,326.6z"/>
		<path class="st0" d="M388.3,309l17.7,0.1l-4.5-30.4c-8.2-1.4-101.2-0.1-112.1-0.3c-8.5-0.2-12.4-6.7-16.3-11
			c-6.9-7.7-6.4-9.6-19.2-9.5c-18.5,0.2-38.7,0.6-57.2-0.5c-3.4-6.7-10.3-11.2-18.3-11.2c-11.3,0-20.5,9.2-20.5,20.5
			s9.2,20.5,20.5,20.5c8.1,0,15.2-4.7,18.5-11.6c16-1.2,35.5-0.3,51.8-0.3c18.8,0,17.7,20,32.8,20.7c29.5,1.3,69.8-1.2,99.1-0.2
			c1.3,0.1,2.4,0.1,3.7,0.3l3.1,1L388.3,309z"/>
		<path class="st0" d="M194.4,426.1c-4.9-1.4-15-1.6-19.8,0.2c2.4,14.3,33,54.6,40.3,61.6c17.3,16.7,32.1,32.1,56.1,45.5
			c8,4.5,25,15.8,35,11.2c12.2-5.6,22.8-11.6,33.2-18.4c11.3-7.3,19-14.2,28.1-22c5.2-4.5,19.5-19.8,23.7-27.2l-22.6-0.3
			c-9.8,16.1-58.9,52.1-70.6,50.3c-4.7-0.7-22.4-11.5-26.9-14.5C244.4,494.9,203,453.7,194.4,426.1z"/>
		<path class="st0" d="M168.7,408.1L188,408c0.1-0.4-0.5-1.5-0.5-1.7l-6.8-18.4c-2.6-7.9-3.1-17.3-7-23.6
			c-27.1-1.3-58.1,0.9-83.2-0.1c-1.5-0.1-2.7-0.2-3.7-0.5c-3.3-7-10.4-11.8-18.7-11.8c-11.4,0-20.7,9.3-20.7,20.7
			c0,11.4,9.3,20.7,20.7,20.7c8.2,0,15.3-4.8,18.7-11.8l74.1,0C163,389.8,167.4,400.6,168.7,408.1z"/>
		<polygon class="st0" points="406.7,326.5 388.3,326.6 385.3,365.4 403,365.8 		"/>
		<path id="ieee-1.svg" class="st0" d="M367.6,380.8h21.7v78.5h-21.7V380.8z M400.7,459.2v-78.5h59.8V396h-38v16.2h35v15.2h-35V444
			h38v15.2H400.7z M472.7,459.2v-78.5h59.8V396h-38v16.2h35v15.2h-35V444h38v15.2H472.7z M544.6,459.2v-78.5h59.8V396h-38v16.2h35
			v15.2h-35V444h38v15.2H544.6z"/>
		<path class="st1" d="M438.3,492.9l6-0.6c0.4,2,1.1,3.5,2.2,4.4c1.1,0.9,2.6,1.4,4.4,1.4c2,0,3.5-0.4,4.5-1.2
			c1-0.9,1.5-1.8,1.5-2.9c0-0.7-0.2-1.3-0.6-1.8c-0.4-0.5-1.2-1-2.2-1.3c-0.7-0.3-2.3-0.7-4.9-1.3c-3.3-0.8-5.6-1.8-6.9-3
			c-1.9-1.7-2.8-3.7-2.8-6.1c0-1.6,0.4-3,1.3-4.4c0.9-1.3,2.1-2.4,3.8-3.1c1.6-0.7,3.6-1,6-1c3.8,0,6.7,0.9,8.6,2.5
			c1.9,1.7,2.9,3.9,3,6.8l-6.2,0.2c-0.3-1.6-0.8-2.7-1.7-3.4c-0.9-0.7-2.2-1-3.9-1c-1.8,0-3.1,0.4-4.2,1.1c-0.6,0.5-1,1.1-1,1.9
			c0,0.7,0.3,1.3,0.9,1.8c0.8,0.7,2.7,1.4,5.6,2.1c3,0.7,5.2,1.4,6.6,2.2c1.4,0.7,2.6,1.8,3.4,3.1c0.8,1.3,1.2,2.9,1.2,4.8
			c0,1.8-0.5,3.4-1.4,4.9c-1,1.5-2.3,2.6-4.1,3.4c-1.8,0.7-4,1.1-6.6,1.1c-3.8,0-6.8-0.9-8.8-2.6
			C439.9,498.8,438.7,496.3,438.3,492.9z"/>
		<path class="st1" d="M468.2,472.3h12.2c2.4,0,4.2,0.1,5.4,0.3c1.2,0.2,2.2,0.6,3.2,1.2c0.9,0.7,1.7,1.5,2.3,2.5
			c0.6,1.1,0.9,2.2,0.9,3.6c0,1.4-0.4,2.7-1.2,3.9c-0.8,1.2-1.8,2.1-3.1,2.7c1.8,0.5,3.3,1.5,4.3,2.8c1,1.3,1.5,2.8,1.5,4.6
			c0,1.4-0.3,2.7-1,4c-0.6,1.3-1.5,2.4-2.6,3.1c-1.1,0.8-2.5,1.2-4.1,1.4c-1,0.1-3.5,0.2-7.4,0.2h-10.3V472.3z M474.3,477.4v7h4
			c2.4,0,3.9,0,4.5-0.1c1-0.1,1.9-0.5,2.5-1.1c0.6-0.6,0.9-1.4,0.9-2.4c0-0.9-0.3-1.7-0.8-2.3c-0.5-0.6-1.3-0.9-2.3-1.1
			c-0.6-0.1-2.4-0.1-5.2-0.1H474.3z M474.3,489.5v8.1h5.7c2.2,0,3.6-0.1,4.2-0.2c0.9-0.2,1.7-0.6,2.2-1.2c0.6-0.6,0.9-1.5,0.9-2.6
			c0-0.9-0.2-1.7-0.7-2.3c-0.5-0.6-1.1-1.1-1.9-1.4c-0.8-0.3-2.6-0.4-5.4-0.4H474.3z"/>
		<polygon class="st1" points="510.6,502.7 510.6,472.3 516.6,472.3 529.1,492.7 529.1,472.3 534.8,472.3 534.8,502.7 528.6,502.7 
			516.3,482.8 516.3,502.7 		"/>
		<polygon class="st1" points="541,502.7 541,472.3 547.2,472.3 547.2,502.7 		"/>
		<polygon class="st1" points="559.9,502.7 559.9,477.5 550.9,477.5 550.9,472.3 575,472.3 575,477.5 566,477.5 566,502.7 		"/>
		<path class="st1" d="M578.9,472.3h11.2c2.5,0,4.5,0.2,5.8,0.6c1.8,0.5,3.3,1.4,4.6,2.8c1.2,1.3,2.2,3,2.9,4.9c0.7,2,1,4.3,1,7.2
			c0,2.5-0.3,4.7-0.9,6.5c-0.8,2.2-1.8,4-3.3,5.4c-1,1-2.5,1.8-4.3,2.4c-1.4,0.4-3.2,0.7-5.4,0.7h-11.5V472.3z M585.1,477.5v20.1
			h4.6c1.7,0,2.9-0.1,3.7-0.3c1-0.3,1.8-0.7,2.5-1.3c0.7-0.6,1.2-1.6,1.6-2.9c0.4-1.4,0.6-3.2,0.6-5.6c0-2.3-0.2-4.1-0.6-5.4
			c-0.4-1.2-1-2.2-1.7-2.9c-0.8-0.7-1.7-1.2-2.8-1.4c-0.9-0.2-2.5-0.3-5-0.3H585.1z"/>
		<path class="st0" d="M174.6,426.3l19.8-0.2c19.6,0.2,12.5-1.1,21.8,13c18.7,28.4,40.9,50.9,71.2,68.5c11.3,6.5,11.1,7.2,23.9,0
			c12.4-7,35.3-23.3,39.1-30.9c-31.3-1.5-24.3,0.6-44,12.8c-11.3,6.9-21.1-4.1-36.3-16c-21.7-17-37.2-40.5-50.9-65.1l-34.8-0.5
			l-18.7,0.1c-32.9-0.2-30.5-7.4-53.1,25.9c-9.7,0-54.9,1.6-65.5-0.5c-3.2-7.2-10.5-12.2-18.9-12.2c-11.4,0-20.7,9.2-20.7,20.7
			c0,11.4,9.3,20.7,20.7,20.7c7.4,0,13.9-3.9,17.5-9.8c1.5-0.7,3.5-1.2,6.1-1.2c14.8-0.4,59.3,2.2,69.4-0.5
			c4.8-2.5,16.1-23.9,21.8-25L174.6,426.3z"/>
	</g>
</g>
</svg>
