<?xml version="1.0" encoding="utf-8"?>
<!-- Generator: Adobe Illustrator 23.0.0, SVG Export Plug-In . SVG Version: 6.00 Build 0)  -->
<svg version="1.1" id="Layer_1" xmlns="http://www.w3.org/2000/svg" xmlns:xlink="http://www.w3.org/1999/xlink" x="0px" y="0px"
	 viewBox="0 0 360 360" style="enable-background:new 0 0 360 360;" xml:space="preserve">
<style type="text/css">
	.st0{fill:#29ABE2;}
</style>
<g transform="translate(0.000000,1280.000000) scale(0.100000,-0.100000)">
	<path class="st0" d="M1612.8,12572.5v-197.8l-21.9-12.8l-22.2-13.1l-0.8-33.1l-0.8-33.1l18.2-18.2l17.9-18.2h33.7h33.7l17.9-18.2
		l17.9-18.2v-53.2v-53.5l-23.3-23.3c-22.7-23-23.3-23.5-23.3-36.6c-0.3-11.5-1.6-15-8.6-21.9c-21.9-21.7-54.5-7.2-54.5,24.6
		c0,8.8,1.6,12.6,9.1,20c7.5,7.5,11,9.1,20.8,9.1c6.4,0,14.2-1.6,17.1-3.7c5.1-3.5,6.7-2.4,25.9,16.3l20.6,20.3v48.4v48.6
		l-14.2,13.9l-14.2,13.9h-33.4h-33.1l-22.2,22.2l-22.2,22.2l0.8,39.8l0.8,39.8l22.2,13.1l21.9,13.1v192.2v192.2h-15.2
		c-8.6,0-18.2-0.8-21.4-1.6l-6.1-1.6v-177v-177l-14.7-14.4l-14.7-14.4v-56.4v-56.1l39.6-39.6l39.8-39.8l9.1,5.6
		c13.9,8.6,27.3,7.5,38.5-2.9c28.3-26.2-1.9-69.2-36.1-51.6c-10.2,5.3-16,13.9-16,24.1c0,7-6.4,14.4-44.1,52.1l-44.1,44.1v64.2v64.4
		l13.4,13.1l13.4,13.1v174.5c0,170.3,0,174.5-5.1,174.5c-14.4,0-13.6,9.4-13.6-154.8v-151.6l-10.7-10.4l-10.7-10.4v-89.8v-89.5
		l33.4-33.4l33.4-33.4v-110.1v-109.9l23.5-13.6c20.8-12,24.6-13.1,32.1-11.2c22.5,6.7,45.2-15.8,39.6-38.5
		c-4.8-19-27.8-29.7-45.4-21.4c-13.4,6.4-18.7,17.4-16.8,34.5l1.3,13.6l-23.8,13.4l-23.8,13.4v110.9v110.9l-34.7,34.7l-34.7,34.7
		v94.9v95.2l12,11.8l12,11.8v148.1v147.8l-15.2-1.6c-8.6-0.8-18.2-2.1-21.4-2.9l-6.1-1.1v-248.1c0-136.3-0.8-250.5-1.6-253.7
		c-2.1-7.8,16.8-27.8,43-45.7c32.6-22.5,39.3-42,21.7-61.5c-8.3-9.1-10.4-9.9-23-9.9c-12.6,0-14.7,0.8-23,9.9
		c-6.7,7.5-9.1,12.6-9.1,19.5c0,11.5,5.6,23.5,13.9,29.4c6.1,4.3,6.1,4.3,0.8,7.2c-2.9,1.6-13.1,10.4-22.2,20l-17.1,17.1l1.9,79.4
		c1.1,43.6,1.1,159.6,0,257.4c-1.9,162.5-2.4,178-6.4,177.2c-2.4-0.5-9.9-1.6-16.8-2.4l-12.8-1.6v-121.9v-121.9l13.4-23.3l13.4-23.3
		v-157.7v-157.4l37.2-35.8c20.3-19.8,41.2-39.3,46-43.3c8.3-6.4,9.1-8.3,9.1-21.7c0-12-1.3-16-6.4-21.7
		c-20.8-22.2-56.4-8.6-56.4,21.7c0,10.2,1.3,13.4,9.6,21.7l9.4,9.4l-32.1,32.3l-32.3,32.3v159v158.8l-13.4,23.5l-13.4,23.5v121.9
		v121.6l-12.6-1.6c-7.2-1.1-17.1-2.7-22.2-3.7l-9.4-1.9l-0.8-136.6l-0.5-136.6l11,1.3c19.2,2.7,37.2-12.3,37.2-31.3
		c0-9.6-7.5-22.7-15.8-27.5c-14.2-8.3-36.4-3.7-43.3,9.4c-2.4,4.3-2.9,47.6-2.7,161.7c0.5,153.7,0.5,155.8-4.8,155.8
		c-9.4,0-106.9-20.3-123-25.7c-2.7-0.8-0.3-5.1,8.6-13.9l12.6-12.8v-94.6v-94.9l92.2-92.2l92.2-92.2v-92.2v-92.2l12-20l12-20v-47.8
		v-47.6l21.4-22.2l21.7-21.9l16,0.3c15.5,0.3,16.6-0.3,25.4-9.6c11.2-12.3,12.3-25.9,2.9-39.8c-16-24.1-53.5-15.5-57.2,13.1
		c-1.3,9.1-5.3,14.4-30.5,39.6l-29.1,29.1v48.6v48.9l-13.4,23.5l-13.4,23.5v89.5v89.3l-90.9,90.9l-90.9,90.9v93.6v93.3l-15,15.2
		l-15,15l-19-5.3c-10.7-2.9-19.8-5.9-20.3-6.4c-0.8-0.5,8-10.2,19.2-21.7l20.6-20.6v-90.9v-90.6l92.2-92.5l92.2-92.2v-90.9v-90.6
		l22.7-23.3c21.7-22.2,22.7-23.5,22.7-35.3c0-21.9-19.8-37.7-39.8-31.8c-20.8,6.4-30.2,28.6-19.5,46.8l5.3,9.4l-10.4,10.2
		l-10.4,10.2v92.5v92.2l-92.2,92.2l-92.2,92.2v89.5v89.5l-22.5,22.5l-22.5,22.2l-25.7-8.6c-14.2-4.5-26.5-9.6-27.3-11.2
		c-1.1-1.6,18.2-22.7,42.8-47.3l44.4-44.4v-61.5v-61.5l41.4-41.4l41.4-41.4v-16.6v-16.8h8.8c11.8,0,20.6-5.1,27.8-15.8
		c14.7-21.9-1.1-48.4-28.6-48.4c-9.4,0-12.8,1.6-20.6,9.4c-8.8,8.8-9.4,9.9-7.5,23.3c0.8,7.8,2.1,24.3,2.9,36.9l1.3,22.7l-41.7,41.4
		l-41.4,41.4v62v62.3l-45.2,45.2l-44.9,45.4l-8.6-3.2c-4.5-1.6-8.3-3.7-8.3-4.5c0-0.8,21.1-22.5,46.8-48.1l46.8-46.8v-56.1v-56.1
		l40.1-40.1l40.1-40.1v-49.5v-49.5l15.8-8.6c15-8.3,17.6-8.8,42.2-8.8h26.2l23.3-23.3l23.5-23.5v-156.4v-156.1l15.2-15.5l15.2-15.5
		h238.2H1820l20.6,20.8l20.6,20.6l-2.9,10.7c-2.4,9.1-2.1,12.6,1.9,20.8c12,25.4,48.1,23.8,59.1-2.7c10.2-23.8-15.2-50.5-39-41.4
		c-6.1,2.4-8.8,0.5-31-21.1l-24.3-23.8h-243h-243.2l-19.2,19.5l-19.2,19.2v156.4v156.6l-19.5,19.2l-19.2,19.2h-25.4l-25.4,0.3
		l-21.4,12.6l-21.4,12.8l-0.8,50.8l-0.5,50.8l-38.8,38.5l-38.8,38.8v57.5v57.5l-47.6,47.6c-35.6,35.6-48.6,47-52.1,45.7
		c-2.4-0.8-4.5-1.9-4.5-2.4c0-0.3,19.2-19.8,42.8-43.3l42.8-42.8v-66.6v-66.6l38.5-38.5l38.8-38.8v-37.4l-0.3-37.7l37.7-36.4
		l37.4-36.1l16,1.1c15.5,1.1,16.6,0.8,25.7-8.3c7.8-7.8,9.4-11.2,9.4-20.3c0-15.2-5.9-25.4-17.6-31c-12.6-5.9-26.2-3.5-36.1,6.4
		c-9.1,9.4-12,19.5-8.6,31l2.9,8.8l-41.2,39.3l-41.2,39.3v39v39.3l-38.8,38.8l-38.8,38.8v65.5v65.5l-42.2,42.2
		c-41.4,41.4-42.5,42.2-50,39.3l-7.8-2.9l46-46l46-46v-64.2v-64.2l38.8-38.8l38.8-38.8v-38.8v-38.8l32.1-32.1l32.1-32.1v-104.2v-104
		l17.6-17.9l17.6-17.6l9.6,3.2c12.3,4.3,23.8,1.1,33.4-9.4c13.4-14.7,8.3-40.6-9.9-49.2c-11.2-5.3-15.2-5.3-27-0.5
		c-13.4,5.6-20.6,18.7-18.7,33.7l1.3,12l-20,20l-20,19.8v104.2v104.2l-32.1,32.3l-32.1,32.6v39.8v39.8l-38.8,38.8l-38.8,38.8v62.8
		v62.8l-44.9,44.9l-44.9,44.9l-14.2-5.9l-13.9-5.9l42.8-43l43-43v-69.5v-69.5l40.1-40.1l40.1-40.1v-63.4c0-35,1.1-63.6,2.1-63.6
		s4.3,3.7,6.9,8.3c10.2,17.1,35.3,19.8,50,5.3c20.6-20.8,6.1-53.7-23.8-53.7c-12,0-22.5,7-28.6,19c-3.2,5.9-6.1,7.8-12,7.8h-8v66.3
		v66l-41.4,41.4l-41.4,41.4v69.5v69.5l-41.2,41.2c-38,38-41.7,40.9-48.6,39.3c-6.9-1.9-5.9-3.2,38.5-48.1l46-46v-84.5v-84.5l8.8-1.6
		c21.7-4,32.6-31.3,20-49.7c-17.6-25.9-58.3-14.4-58.3,16.6c0,10.2,6.9,26.2,11.2,26.2c1.1,0,2.1,38.8,2.1,86.3v86.1l-43.6,43.6
		c-23.8,23.8-45.2,43.3-47.3,43.3s-6.7-2.1-10.2-4.8l-5.9-4.5l32.1-32.1l32.1-32.1v-112.3v-112.5l18.2-17.9l18.2-17.9h52.7h52.7
		v-68.7v-69l19-19l18.7-19l10.2,2.7c21.4,5.9,43.3-15.2,39-37.4c-5.6-30.7-46.8-36.1-61.2-7.8c-4.5,8.8-4.8,12-2.1,21.4l2.9,11
		l-19.8,20l-20,20l-0.5,65.5l-0.8,65.5l-49.5,0.8l-49.5,0.5l-21.9,22.2l-22.2,21.9v113.6v113.6l-30.7,30.7
		c-29.9,29.7-30.7,30.5-37.4,26.7l-6.9-3.7l31-31l30.7-30.7v-113.6v-113.6l48.1-46.2l48.1-46.5v-114.7v-114.7l9.1-3.7
		c16.8-7,24.1-26.2,16.3-42.5c-14.7-31.3-61.2-20.6-60.7,13.9c0.3,12.3,5.6,21.9,15.2,27l6.7,3.5v111.2v111.2l-49.5,49.5l-49.5,49.5
		v112.3v112.3l-29.4,29.4l-29.1,29.1l-9.6-5.1c-5.1-2.9-9.4-5.9-9.4-6.7s12-13.4,26.7-28.1l26.7-26.7v-114.9v-114.9l29.4-29.4
		l29.4-29.4v-159.3v-159.6l24.1-13.6l24.1-13.6h46.2h46l21.1,21.1l21.1,21.1l-4.3,9.4c-5.6,11.5-5.6,15.5-0.8,27.3
		c4.5,10.7,18.2,20,29.7,20c11.5,0,25.1-9.4,29.7-20c4.8-11.8,4.8-15.8-0.5-27c-5.3-11-16.8-17.6-30.2-17.6
		c-8.6,0.3-12.3-2.4-33.9-23.8l-24.3-24.3l-53.5,0.5l-53.7,0.3l-27,15.2l-26.7,15.2l-0.3,160.4v160.4l-29.4,29.4l-29.4,29.4v114.9
		v114.9l-27.8,27.8c-18.4,18.4-28.3,26.5-29.7,24.3c-1.3-2.1,6.9-12,22.5-27.8l24.3-24.3v-116.3v-116.3l24.1-24.1
		c13.4-13.1,24.1-25.4,24.1-27.3s2.4-7.2,5.3-12c13.4-21.9-1.9-50.3-26.7-50.3c-16.6,0-32.1,15.5-32.1,32.1
		c0,15.8,13.4,32.1,26.7,32.1c2.9,0,5.3,0.5,5.3,1.1c0,0.8-9.1,10.2-20,20.8l-20,19.5v117.6v117.6l-24.1,24.1
		c-26.2,25.9-24.9,25.7-42.8,12l-6.7-5.1l24.9-24.9l24.6-24.9v-172.4v-172.4l20.8-20.8l20.8-20.8l10.4,4.5
		c20.8,8.6,41.2-4.5,43.6-28.1c1.1-12.6,0.5-14.2-8-22.7c-16-16-31-16-46.8-0.3c-8.3,8.3-9.1,10.7-8.6,21.4
		c0.8,12,0.5,12.3-23.8,36.9l-24.6,24.6v172.4v172.4l-22.7,22.7c-21.7,21.7-22.7,22.2-29.7,19l-7.2-3.2l9.6-9.9l9.9-10.2v-67.9
		v-67.9l8.3-8.6c22.5-23.3,5.6-57.5-26.7-53.7c-16.6,1.9-27,13.4-27,29.4c0.3,6.1,1.6,13.9,3.7,17.4c4,7.5,17.1,16.6,23.8,16.6
		c4.3,0,4.5,4.8,4.5,63.6v63.6l-8.8,8.6l-9.1,8.8l-19-15l-19.2-15v-87.4v-87.4l40.4-40.1c22.2-22.2,42-43.3,44.1-47.3
		c11.5-21.7-4-47.6-28.3-47.6c-32.9,0-44.6,45.4-15.5,60.4l8.3,4.3l-31,31l-31.3,31.3l-0.5,85l-0.8,85.3l-23.3-20.6l-23.5-20.6
		v-31.8c0-29.4,0.3-31.5,5.6-33.1c7.5-2.4,15.8-16.8,15.8-27.5c0-33.1-43-44.9-59.9-16.6c-9.1,15.8-2.1,38.5,14.2,45.4l8.3,3.2v21.9
		l-0.3,21.7l-25.1-25.9l-25.4-25.9v-31.5v-31.8l8.8-8.6l8.8-8.6H592h41.4l13.9-23.8l13.9-24.1v-42.2v-42.2l20.3-20.3
		c19.8-20,20.6-20.3,31.5-19.2c21.1,2.4,36.4-11.2,36.4-32.9c0-13.9-16.6-30.5-30.5-30.5c-20.3,0-33.7,13.4-33.7,34.2
		c0,5.6,1.3,11.5,3.2,13.4c2.7,2.7-1.6,8.3-20,26.7l-23.3,23.3v44.1v43.8l-10.7,18.2l-11,18.2h-40.6H542l-12.6,12.8l-12.6,12.8v23.5
		c0,23.5,0,23.8-5.3,19c-4.8-4.5-5.3-8.3-5.3-46.5v-42l16.8-16.6c13.4-13.4,18.4-16.6,25.4-16.6c6.7,0,9.4,1.6,12.3,7.8
		c5.9,11,15.5,16.3,29.9,16.3c10.4,0,13.6-1.3,21.4-9.1c7.5-7.5,9.1-11.2,9.1-20.3c0-14.2-6.7-25.4-18.2-31
		c-12-5.6-25.9-3.5-35.3,5.6c-5.6,5.3-9.6,6.7-21.7,6.7h-14.4l-23.5,23.5l-23.3,23.3v32.1l-0.3,32.1l-7.8-9.4l-8-9.1v-37.7v-37.4
		l50.5-50.5l50.5-50.3l9.6,3.2c29.4,9.6,54.8-26.7,35-50.3c-19.2-23-53.2-13.6-56.7,16c-1.3,10.7-4.5,14.7-55.9,66.3l-54.3,54.8
		l-0.8,26.7l-0.8,26.7l-18.2-28.1l-17.9-28.1v-22.7v-23l18.7-18.4c16.6-16.6,19.8-18.4,29.9-19c23.3-1.3,36.6-28.6,24.3-49.5
		c-4.5-7.8-17.9-15.8-25.9-15.8c-22.2,0-40.6,27.5-30.7,46c2.4,4.5,0.3,8-19,27.8c-16,16.3-21.7,23.8-20.3,27c1.3,4,0.8,3.7-2.7-0.5
		c-4.5-5.6-35.8-69.2-35.8-73c0-1.1,14.2-16,31.5-33.4l31.5-31.5l53.5,1.3c29.1,0.8,59.6,1.9,67.4,2.1c13.1,0.8,15,0,22.2-8
		c6.4-7.2,7.8-11,7.8-22.2s-1.3-14.7-7.8-21.1c-4.3-4.3-10.7-8.6-14.7-9.6c-10.2-2.4-24.1,0.8-29.7,7c-4.5,5.1-8.3,5.3-61.5,5.3
		h-56.4l-31.8,32.1c-17.4,17.6-31.8,31.8-32.1,31.5c-5.1-7.5-41.4-124.6-41.4-133.7c0-4.5,3.2-4.8,54.3-4.8h54l22.5-22.5l22.5-22.5
		l10.4,5.3c13.1,6.9,25.7,4.8,36.6-5.9c25.7-25.7-2.7-67.6-35.3-52.1c-12,5.6-18.4,15.5-19,28.6c-0.3,9.4-2.4,12.6-23.3,33.1
		l-23.3,22.5l-51.6-0.5l-51.9-0.8l-2.9-9.4c-2.9-8.8-14.7-73.2-18.4-98.9l-1.6-12l24.1,23.8l23.8,23.5l-1.3,15.5
		c-1.1,11.8-0.3,16.8,3.2,22.5c10.2,15.2,29.1,19.2,44.4,8.8c30.2-20.3,14.7-60.9-21.9-57.5l-12.6,1.3l-31.3-31.3l-31-31l-2.7-27.5
		c-1.6-15.2-2.1-28.3-1.1-29.1c1.1-1.1,17.1,14.2,35.8,33.7l33.9,35.3h27.3h27.3v-72.7v-72.7l-9.4-9.6c-8.6-8.8-9.4-10.7-6.7-17.1
		c4-11,3.2-20.8-2.4-29.4c-6.9-10.7-15.2-14.7-29.4-15c-9.6,0-13.1,1.6-20.6,9.1c-7.8,7.8-9.1,11-9.1,21.4c0,22.5,15,35.6,36.9,32.6
		c10.4-1.3,12.6-0.8,19.5,6.1l7.8,7.8v61.7v61.7h-17.6H329l-38-36.6c-29.4-28.6-38.5-39-40.1-46.2c-2.7-11.8,0.3-156.4,3.2-161.7
		c1.9-3.2,5.3-1.1,16.8,10.7l14.4,14.7h52.4h52.1l23.5,23.5c17.4,17.6,23.3,25.1,23.3,30.5c0,9.6,11.8,22.7,23.8,26.5
		c19,5.6,40.4-10.7,40.4-31c0-11.8-9.4-25.1-20.8-29.9c-9.1-3.7-11-3.7-21.9,0l-12,4.3l-24.1-23.8l-24.1-24.1h-52.4h-52.1l-8.6-8.8
		l-8.6-8.8v-77.8c0-67.6,0.8-81.3,5.3-104c8.3-39.8,6.9-38,19-26.2c11.8,11.5,12.8,17.1,5.1,27c-10.4,13.1-4.8,36.9,10.7,44.9
		c10.2,5.1,26.7,5.1,34.2-0.3c8-5.6,13.9-17.6,13.9-28.9c0-11-12.3-26.7-22.7-29.4c-4-1.1-6.7-3.7-6.7-6.4s-8.8-13.6-19.8-24.3
		c-11-11-19.5-21.1-19-22.7c0.5-1.6,2.9-9.9,5.3-18.7c4.3-15,4.5-15.5,8.3-9.9c9.6,13.6,28.6,17.1,43.3,8.3
		c19.2-11.8,20.3-37.2,2.7-52.1c-7.5-6.4-10.4-7.2-22.7-6.1c-7.8,0.8-14.2,0.5-14.2-0.3c0-0.8,1.3-6.1,2.9-11.5l2.7-10.2h19.2h19.5
		l12.6,12.8l12.6,12.8v109.6v109.6l-19,19.2l-19,19.2l-12.6-1.6c-23-2.9-37.7,9.4-37.7,31.5c0,18.4,9.9,29.1,28.6,30.7
		c12.6,1.3,14.4,0.8,23.5-7.8c8.6-7.8,10.2-11.2,11.2-22.7c1.3-12.8,2.7-14.7,23.8-35.8l22.5-22.5V11213v-120.6l-18.2-17.9
		l-18.2-17.9H353c-11.2,0-20.6-1.1-20.6-2.7c0-5.6,6.4-16,9.9-16c7.5,0,19.5-8.3,23.5-16c5.6-10.7,5.1-23.8-1.3-34.2l-5.6-8.8
		l5.9-16l5.9-15.8h17.6h17.6l21.7-21.7c19.2-19.2,22.5-21.4,27.3-18.7c21.1,11.2,49.5-11.5,44.6-36.1c-4-22.2-34.5-32.9-51.9-18.4
		c-10.2,8.8-15,22.7-11.5,33.1c2.4,7.2,1.6,8.8-16.6,26.7c-17.6,17.6-20,19-30.5,19c-6.1,0-11.2-1.1-11.2-2.4
		c0-5.6,40.6-81.8,60.9-114.4c18.7-29.9,23.3-35.6,31.3-38.2c13.9-4.5,22.7-16.6,22.7-31c0-9.9,2.1-15,11.2-28.1l11.2-15.8
		l11.5,11.2l11.5,11.2v27v27.3l-9.9,6.4c-27.3,17.4-15.2,58.5,16.8,58.5c9.9,0,13.6-1.6,21.9-9.1c8.6-8,9.9-10.7,9.9-21.1
		c0-13.6-6.7-25.1-18.2-30.7c-7.2-3.5-7.2-3.7-7.2-33.4v-30.2l-13.4-14.2c-7.2-7.8-13.4-15-13.4-16c0.3-0.8,7.8-12.3,17.1-25.7
		l16.8-24.1l224.3-0.8l224.3-0.5l21.9-21.9l22.2-22.2v-129.4v-129.4l6.7-11.8l6.9-11.5h513.8h514l15.8-16l15.8-16H2241h116.3
		l38.2,38.2l38,38v41.4v41.4l46,46.2l46.2,46h109.6h109.6l24.1-24.1l24.1-24.1h48.6h48.9l17.9-18.7l17.9-18.7h37.7h37.4l21.4-21.4
		c17.4-17.4,22.2-20.8,27.3-19.8c15,4,33.7-8.8,38.5-26.2c2.4-9.1,1.9-13.1-1.6-22.7c-11-28.9-50.8-29.9-63.9-2.1
		c-4.5,9.6-4.5,13.6,0,33.4c1.3,5.9-1.1,9.4-14.7,22.2l-16,15.2h-36.9h-36.6l-17.9,17.6l-17.6,17.6l-48.9-0.5l-48.6-0.3l-25.9,25.7
		l-25.9,25.4h-100.2h-100l-38.2-38.2l-38-38v-42.8v-42.8l-46.2-46.2l-46-46H2241h-124.6l-15.8,16l-15.8,16h-516.2h-516.2l-11.2,19.8
		l-11.2,19.8v129.4v129.4l-14.2,13.9l-14.2,13.9H789h-213l17.1-26.7l16.8-27l173.2,0.3h173.2l15.5-15.2l15.5-15.2v-112.5v-112.3
		l35.6-35.6l35.3-35.3h509.7h509.5l18.7-10.7l18.4-10.7h133.4h133.4l58.3,58.3l58,58v40.1v40.1l38.2,38.2l38,38h85.5h85.5l22.7-22.7
		l22.7-22.7h40.1h40.1l21.1-21.1c20-20,21.4-21.1,31-19.8c33.4,4.5,51.3-39,25.7-62.5c-25.9-23.8-65.2,2.4-55.9,37.2l3.2,11.5
		l-15.2,15.2l-15,15.5h-41.2h-41.4l-23,22.7l-23.3,22.7h-77h-77l-31.8-29.7l-31.8-29.9v-41.7v-41.7l-63.6-63.6l-63.4-63.4h-143h-143
		l-18.4,10.7l-18.2,10.7h-511.1h-510.8l-42.2,42.2l-42,42v112.5v112.3l-8.8,8.6l-8.6,8.3l-157.7,0.3c-86.9,0-159-0.8-160.6-2.1
		c-2.1-1.3,0.8-8.8,8.8-23.3c15.8-27.8,36.6-73.5,48.1-105.6c5.1-13.9,9.6-25.9,10.4-26.5c0.5-0.5,3.5,1.1,6.7,4
		c4.3,3.7,9.6,5.1,22.5,5.1c14.4,0,17.9-1.1,24.1-6.7c11.5-10.7,15.5-20.6,13.9-35.8c-1.1-11.2-2.7-14.7-12-23.5
		c-10.2-9.4-12.3-10.2-26.5-10.2H708l0.8-37.4l0.8-37.4h112.8h112.8l37.4-37.4l37.4-37.4h491.8h491.8l27.5-16l27.8-16h124h124v-96.2
		v-96.2h-211.2h-211.2l-13.4,8.3l-13.4,8l-0.5,56.7l-0.8,56.7l-143.5,0.8l-143.8,0.5v-65.5v-65.5h-95.7h-95.4l-48.1,48.1l-48.1,48.1
		H992.7H713.1l-9.9-10.2c-8-8.3-10.4-12.8-11.8-24.3l-1.6-13.9l9.4,9.4c11.8,11.8,24.9,14.4,40.9,8.3c31-11.8,33.9-53.2,5.1-70.3
		c-18.7-11-41.2-4.8-52.7,15l-5.9,9.9l-3.2-24.1c-1.9-13.4-6.9-50.8-11.8-83.7l-8.3-59.3l8.3-7.8c14.7-13.6,17.6-31.3,8-48.4
		c-2.9-5.3-9.1-12-13.4-14.4l-7.8-4.5v-64.7v-64.4l-17.6-17.9c-16.8-17.1-17.6-18.4-21.4-37.4c-1.9-11-4.3-22.2-5.1-25.4
		c-1.1-5.1,3.5-8,39.3-24.9l40.4-19.5l6.4,8.3c8.6,11,19.5,16.3,32.9,16.3c13.9,0,24.6-5.6,32.6-16.6c4.8-7.2,6.1-12,5.9-25.1
		c-0.5-15.5,0-16.3,7.2-19l7.8-2.9v44.6v44.6l-18.7,18.4l-19,18.7l-14.2-0.8c-16.8-1.1-27.8,3.5-36.4,15.5c-11.5,16-9.4,38,4.8,51.3
		c20,19,52.9,12.3,63.6-13.1c5.1-11.8,4.8-20.6-1.3-32.6l-5.3-10.2l21.1-20.8l21.4-21.1l0.5-50.5l0.8-50.5l8.8-3.5l8.6-3.7v98.1
		v98.1l-34.2,34.2c-32.9,32.9-34.5,34.2-41.7,31.3c-24.9-9.4-52.7,9.1-52.9,35.3c-0.5,31.8,33.1,51.1,60.1,34.7
		c15.8-9.9,22.5-32.9,14.7-50c-2.9-6.7-1.9-8.3,33.4-43.6l36.6-36.6v-103.7v-103.7l6.1-2.1c3.2-1.3,6.7-1.9,7.8-1.1
		c1.3,0.5,2.1,28.3,2.1,61.7v60.7L889,9559l35.6,35.6h15c14.2,0,16,0.8,25.7,10.4c13.1,13.4,25.7,16,42.2,9.6
		c31-11.8,33.9-53.5,5.1-70c-5.6-3.5-13.6-6.1-17.6-6.1c-17.4,0-35.3,13.4-39.8,29.9c-2.4,9.6-3.2,10.2-13.9,10.2
		c-11,0-12.6-1.3-42.8-31.5l-31.3-31.3v-60.9V9394l6.9-2.7c3.7-1.6,8-2.7,9.4-2.7c1.3,0,2.4,15.8,2.4,36.6v36.9l31.3,31.3l31.5,31.5
		h50.8h51.1l16.8,17.1c16.6,16.6,16.8,17.1,14.2,26.5c-4,14.2,0.3,28.3,11.2,38.5c12,11,24.9,13.6,40.4,7.5
		c15-5.6,23.3-16.8,24.6-33.1c1.3-16-5.3-29.1-19.2-36.9c-12.6-7.2-21.9-7.8-35.3-2.1l-9.9,4.3l-19-19l-18.7-18.7h-51.1h-50.8
		l-25.9-25.9l-25.9-26.2v-38c0-36.4,0.3-38.2,5.3-38.2c2.9,0,5.3,1.6,5.3,3.5s10.2,13.4,22.5,25.7c22.2,22.2,22.5,22.5,19.8,31.8
		c-5.3,19.5,11,43.6,32.1,47.3c13.6,2.1,30.7-4.8,38.5-15.2c12-17.1,7.8-44.1-8.8-56.4c-11-7.8-29.7-9.1-40.6-2.4l-9.4,5.3
		l-20.8-21.1c-13.1-13.1-20-21.9-18.4-23.5c1.6-1.3,12-5.3,23.8-9.1c16.8-5.1,22.7-5.9,29.7-3.7c11.8,3.5,26.2,0.5,35.8-7.5
		c5.9-5.3,10.7-6.7,21.4-6.7h13.6v24.6v24.6l16,16.3c15.5,15.8,15.8,16.3,13.6,26.2c-3.2,13.9,1.1,28.1,12,38.2
		c24.9,23.5,65.2,5.1,65.2-29.9c0-27.8-31.8-47-56.7-34.2l-8.3,4.3l-14.2-14.2l-14.4-14.2v-20.8v-20.8h14.2h13.9l40.9,40.9
		l40.6,40.6v47.3v47l18.2,17.6l18.4,17.6l-1.3,14.4c-1.9,23.3,11.5,40.6,33.9,43.6c13.1,1.9,30.7-6.9,37.7-18.7
		c11.8-19,4-46-16-55.9c-12.3-6.1-23.3-6.1-36.1,0.5l-10.7,5.3l-14.2-14.2l-14.4-14.4l0.5-47.6l0.3-47.8l-38.2-38.2l-38.2-38.2h21.4
		h21.4l33.9,33.9l34.2,33.9l-7.2,7.5c-9.9,10.4-11.8,34.2-3.5,47c5.6,8.8,23.3,19.2,33.4,19.2s27.8-10.2,33.4-19.2
		c15.2-25.1-3.5-60.9-32.1-60.9c-8.6,0-12.6-3.2-40.1-30.7l-30.7-30.7h19.5c16,0,20.8,1.1,27.5,6.1c11.5,8.3,33.4,8.3,44.9,0
		c6.7-5.1,11.5-6.1,27-6.1h18.7l0.3,229.3c0,125.9,0.5,231.5,1.1,234.2c0.5,2.9,20.6,24.9,44.6,48.9l43.6,43.6h101.6h101.8
		l14.4-14.7l14.4-14.7h326.4h326.1l39.6,39.6c37.4,37.4,39.3,39.8,39.3,50c0,13.1,7.8,26.2,19.2,33.7c6.9,4.3,12,5.1,23.3,4.3
		c12.8-0.8,15.5-2.1,24.9-12c9.1-9.9,10.2-12.6,10.2-24.9c0-25.1-15.8-40.9-40.4-40.4l-12,0.3l-44.1-44.1l-43.8-43.8h-342.1h-342.4
		l-14.2,14.7l-14.2,14.7h-86.1h-85.8l-34.2-34.2l-33.9-33.9v-225.3v-225.1h9.4h9.4v214.6v214.4l32.9,32.9l32.6,32.6h80.2h80.2
		l30.2-30.2l29.9-29.9v-15.2c0-15.2,0-15.5,11-20.8c8-4.3,12.3-8.8,16.3-17.9c7.2-16.3,4.8-28.1-8.6-41.4
		c-8.8-9.1-11.5-10.2-23-10.2c-25.1,0-40.1,16.3-38,40.6c1.6,14.4,11.5,27.8,22.7,30.5c5.3,1.3,6.1,3.5,6.1,14.2
		c0,12-0.5,12.8-26.2,38.5l-25.9,25.9h-75.9h-75.9l-27.5-27.5l-27.8-27.5v-211.7v-211.7h14.7h14.7V9559v210.4l15.2,15.5l15.2,15.5
		h61.7c33.7,0,66.8-1.3,73.5-2.9c29.9-7,40.9-41.2,19.8-62.3c-20.3-20-54.8-10.4-61.7,17.1l-2.4,9.4l-37.2,0.8
		c-31.5,0.5-37.4,0-41.7-3.7c-4.8-4.3-5.1-13.1-5.1-207.4v-202.6h13.4c9.6,0,15.8,1.9,23,6.7c6.7,4.5,13.4,6.7,21.1,6.7
		s14.4-2.1,21.1-6.7c6.4-4.3,13.6-6.7,20.3-6.7h10.7v16.6v16.6l-17.6,17.9c-16.8,16.8-18.2,17.6-26.2,15.5c-12.6-3.7-25.1,0-35,9.9
		c-16,16-15,38.8,2.9,54.5c7.5,6.4,11.8,8,21.9,8c28.9,0,47-28.1,34.2-53.2c-4-7.2-3.7-7.5,16-27.3l19.8-19.5v-19.5v-19.5h13.4
		c7.5,0,13.4,1.1,13.4,2.1c0,4.8,16.3,11.2,28.9,11.2c10.4,0,15.2-1.6,21.4-6.7c6.4-5.3,11-6.7,23-6.7h15v22.2v22.2l-17.1,16.8
		l-17.1,17.1l-7.5-5.9c-9.4-7.5-28.1-7.5-39.8-0.3c-17.1,10.4-22.2,34.5-11.2,51.1c8,12,21.9,19,34.7,17.4c20-2.4,32.3-16,32.9-37.2
		c0.5-12.6,1.3-14.2,19.5-32.3l19-19v-26.2v-25.9h17.1c12.8,0,19.8,1.6,27,5.6c11.2,6.7,32.9,6.1,40.9-1.3c2.9-2.4,9.4-4.3,15.5-4.3
		h10.4l-82.9,82.9l-82.9,82.9h-44.1h-43.8l-16.6,16.3l-16.3,16.3l-11.2-3.5c-23.3-7-45.4,8-47.8,32.1c-4.3,44.6,59.3,56.1,72.2,13.1
		c2.1-7.8,2.1-12.8,0-20.3c-3.2-9.9-2.9-9.9,12-25.1l15.2-15.5h44.4h44.1l89.5-89.5c74.6-74.8,90.6-89.5,96.8-89.5
		c6.4,0,7.5,1.1,7.5,7.5c0,5.9-15.2,22.7-90.3,97.6l-90.3,90.1l-27-0.3c-28.3-0.3-33.1,1.1-43.3,11.8c-7.5,8.3-10.4,27.8-5.6,39.3
		c5.9,14.2,17.1,21.4,33.4,21.4c12.3,0,16-1.3,23.8-8c13.9-12.3,17.4-26.5,10.7-43.8c-1.3-3.2,0-4.3,5.9-4.3
		c6.7,0,22.2-14.4,103.4-95.7c91.4-91.4,95.4-96,95.4-105.6c0-9.1,0.5-9.9,8-9.9c8,0,8,0,8,15.5v15.2l-97.6,97.6l-97.6,97.6v14.7
		c0,14.7-0.3,15-16.8,31.5l-16.8,16.6h-54.3h-54.5l-13.6,13.6c-13.1,13.1-14.2,13.6-28.9,14.2c-13.9,0.3-16.3,1.1-25.4,10.4
		c-9.4,9.4-10.2,11-10.2,25.9c0,14.7,0.8,16.6,9.6,25.7c29.9,29.9,78.3-5.3,58.8-43l-5.6-10.4l11.2-11.5l11.2-11.5h55.1h55.1
		l19.5-19.8c19.8-19.8,19.8-19.8,19.8-34.5l-0.3-14.4l97.3-97.3l97.3-97.3v-19.2v-19.5h8h8v20.8v20.6l-74.8,74.8
		c-41.2,41.2-74.8,76.2-74.8,78.1s-2.9,4-6.7,5.1c-8,1.9-21.9,17.4-24.3,26.5c-8.3,33.1,32.1,59.3,58.8,38.5
		c21.1-16.6,19-51.6-3.7-61.7c-4.5-1.9-8-4-8-4.8s33.1-34.5,73.5-74.8l73.5-73.5v-24.6v-24.9h8h8v23.5v23.3l-58.8,58.8l-58.8,58.8
		v65.5v65.8l-18.7,18.4c-17.4,17.4-19,18.2-25.4,15.2c-3.7-1.9-12.3-3.2-18.7-3.2c-22.2,0-39.6,23.8-33.4,45.4
		c8.6,29.4,43.8,37.4,64.2,14.2c8.3-9.4,8.6-10.7,7.2-26.5l-1.3-16.6l19.8-19.5l19.8-19.5v-65.8V9521l58.8-58.8l58.8-58.8v-27.3
		v-27.5h18.2c12.8,0,21.1,1.6,28.6,5.3c13.1,6.7,21.7,6.7,34.7,0c12.3-6.1,38.8-7.5,38.8-1.9c0,1.9-6.4,9.6-14.2,17.4l-14.2,13.9
		h-18.4h-18.4l-63.6,63.4l-63.6,63.4v19.5c0,16.3-0.8,19.5-4.8,20.6c-17.1,5.6-27,32.3-18.2,49.5c14.4,27.8,57.2,23.3,65.5-6.9
		c4.5-15.8-4-35-18.2-40.9c-8-3.2-8.3-4-8.3-19.8v-16.3l58.3-58.3l58-58h18.7h19l19.2-19.5c12.3-12.3,19.2-21.4,19.2-25.4
		c0-4.8,1.6-5.9,8-5.9c7.2,0,8,0.8,8,8.8c0,7.8-7.5,16-74.8,83.4l-74.8,74.8v58.8v58.8l-23.3,23.3l-23.5,23.3l-10.7-2.9
		c-16.3-4.3-30.2-0.8-41.7,11c-17.4,17.4-17.4,42,0,59.3c16,16,39.8,17.4,56.7,3.2c15.2-13.1,19.5-31.5,11.5-51.3l-4.3-10.7
		l24.3-23.3l24.3-23v-59.3v-59.1l74.8-74.8l74.8-74.8v-12.6v-12.8h9.4h9.4v30.2c0,29.4-0.3,30.5-6.4,33.4
		c-10.2,4.5-20.8,20.6-22.2,33.7c-1.9,14.7,4.5,28.9,17.4,38.5c12.6,9.4,36.1,10.2,47.8,1.6c24.9-18.4,26.5-49.5,3.7-68.7
		c-4.5-3.7-11.8-7.5-16.3-8.6l-8-1.9v-29.1v-29.1h19.8c11,0,21.7,0.8,24.1,1.6c3.7,1.3,4.3,9.6,4.3,65v63.1l-17.1,18.2l-17.4,17.9
		h-34.2h-34.2l-43.6,43.6l-43.3,43.3v35.3v35.6l-8.8,3.7c-27.5,11.5-34.2,47.3-12.8,68.7c29.9,30.2,79.1,3.2,71.4-39
		c-2.1-11.5-13.4-25.1-24.9-29.7l-8.8-3.7v-34.5v-34.2l38.5-37.7l38.8-38h34.2h34.2l22.2-22.2l21.9-21.9V9420
		c0-34.7,0.3-63.4,0.8-63.4c3.5,0,30.5,8.8,32.1,10.7c1.3,1.1,3.7,11.5,5.6,23l3.5,21.1l-9.1,9.6c-9.1,9.6-9.4,9.9-9.1,34.7v25.1
		l-35,35.3c-31,31-35.8,35-40.4,32.3c-9.6-5.1-30.5-3.2-40.6,3.5c-10.4,7.2-20,24.1-20,35.8c0,11.8,10.2,29.9,19.8,36.1
		c13.1,7.8,34.7,7.5,47.3-1.1c16.8-11.5,23.5-36.1,14.4-53.5l-4.3-8l36.4-36.4l36.1-36.1v-25.7c0-18.7,1.1-26.7,3.7-28.9
		c5.6-4.5,12.3,36.4,12.3,74.6v30.7l-11.2,5.3c-28.9,13.6-29.7,55.3-1.6,69.8c7.8,4,26.5,4.3,39.3,0.8c2.4-0.8,4.8,2.1,6.4,7.8
		c2.1,7,1.9,9.6-2.1,13.9c-4.5,4.8-8.3,5.3-50.5,5.3h-45.4l-16.6,16.3c-15,15-16.8,16-22.5,13.1c-8.8-4.8-32.3-2.1-42,4.8
		c-24.1,17.1-21.1,58,5.3,71.9c12,6.1,31.5,5.3,43-1.6c10.2-6.4,20.3-24.3,20.3-35.8c0-4-1.9-11.8-4-17.1l-4.3-9.9l12.8-12.8
		l12.6-12.8h45.4c38.5,0,46-0.8,50.3-4.5c2.7-2.4,5.3-3.7,5.6-3.2c0.5,0.5,4.3,10.7,8.3,22.5c13.4,38,27,64.7,48.6,94.1l4.3,6.1
		H2361h-17.1l-16.6-16.3c-16.6-16-16.6-16.3-12.3-23c5.6-8.6,5.6-26.5,0-37.4c-10.2-19.5-41.4-26.5-58-12.6
		c-22.5,19.2-21.1,50,3.2,65.5c7.2,4.5,11.8,5.1,25.1,4l16.3-1.3l18.4,18.7l18.2,18.4h47.3c43.6,0,47.3-0.3,51.9-5.3
		c3.7-4,8.3-5.3,18.4-5.3h13.6l-1.6,48.6c-1.1,27-2.7,120.6-3.7,208l-1.9,159l51.1,50.8l51.1,50.8v44.1v44.1l26.2,26.2l25.9,25.9
		h64.2h64.4l19.5-19.8c18.4-18.7,20-19.8,29.4-18.4c30.5,4,51.6-29.9,34.2-55.6c-20-29.9-63.4-15.5-63.4,20.8
		c0,5.6,1.9,13.1,4.3,16.6c4.3,5.9,4,6.4-12.6,23.3l-16.8,17.1h-59.1h-58.8l-22.2-22.2l-21.9-21.9v-44.1v-44.1l-50.5-50.8
		l-50.5-50.8l2.7-197.8c2.9-193,2.9-198.1,8.3-204c3.7-4,8.6-5.9,14.7-5.9h9.4l-5.6,6.1l-5.9,6.1v196.5v196.2l49.5,49.5l49.5,49.5
		v42.8v43l16.8,16.6l16.8,16.6h36.4h36.4l19.2-11l19-11l-0.5-21.4c-0.5-19.8,0-21.4,6.9-28.9l7.8-8h160.4l160.6,0.3l9.6,13.9
		c5.3,7.8,20,25.4,32.3,39.3c12.6,14.2,24.1,28.1,25.7,31.3c5.6,10.4,3.7,25.7-4.8,39l-8,12.6h-83.7h-83.4l-21.4,21.4l-21.4,21.4
		h-56.1h-56.1l-46.2,46.2l-46,46v25.4v25.4l-30.7,30.7l-30.7,30.7v132.6v132.8l-10.7,10.7c-9.6,9.4-10.7,12-10.7,23.5
		c0,29.9,25.7,47,50.5,33.7c12.6-6.7,19.5-20.3,18.2-34.5c-1.6-15.2-8.3-24.6-20.8-29.9l-10.4-4.3v-129.6v-129.6l30.7-30.7
		l30.7-30.7v-25.4v-25.4l40.9-40.9l41.2-41.2l55.9,0.5l55.9,0.3l20.3-21.7l20.6-21.4h74.3h74.3l-9.1,9.4l-9.1,9.4h-57.7h-57.5
		l-24.1,24.1l-24.1,24.1h-42.8h-42.8l-20.3,20.3l-20.3,20.3l-11-3.2c-9.4-2.9-12-2.7-20.8,1.6c-31.5,15.5-28.3,59.1,4.5,67.9
		c22.5,6.1,42.5-11.2,42.5-36.4c0-12.8,0.5-13.9,18.2-31.3l18.2-17.9h42.5h42.8l22.7-22.7l22.7-22.7h47c43.8,0,47.3,0.3,48.6,5.1
		c0.5,2.7,7.5,9.9,15.2,16l13.9,11h-51.6h-51.9l-27,27c-25.9,25.9-27.3,27-30.5,21.4c-1.6-3.2-6.9-8.3-11.5-11
		c-29.4-18.2-64.7,16.8-48.6,48.1c6.7,12.8,16.6,18.7,31.5,18.7h13.6l40.4-40.1l40.4-40.1h62.3c69.5,0,64.2-1.3,75.1,19.5l5.3,9.9
		h-39c-38.5,0-39,0-44.4-6.7c-2.9-3.7-8.8-8.6-12.8-10.7c-29.1-15-62,20.3-46,49.5c13.9,25.4,48.9,25.4,62,0l5.3-10.7h38.8
		c44.4,0,43.8-0.5,33.1,24.3l-5.6,13.1H3141c-11.8,0-17.6,1.3-21.4,4.5c-4.8,4.5-17.9,4.8-180.7,5.6l-175.3,0.5l-21.9,21.9
		l-22.2,22.2v237.9v238.2l-19.2,19c-15.2,14.7-21.9,19.2-29.9,20.8c-21.9,3.7-32.6,25.4-23,45.7c9.9,20.3,34.7,24.6,50.8,8.6
		c10.2-9.9,12.6-23,6.9-34.5l-4.5-8.8l21.7-21.7l21.4-21.4v-239.2v-239.5l15.8-13.9l16-13.9h171.1c169.5,0,171.1,0,180.7-5.6
		c5.3-3.2,10.2-5.3,10.7-4.5c0.5,0.5-2.7,6.7-7.5,13.6c-8.3,12-9.1,12.3-22.2,12.6c-11,0-14.7,1.3-19.8,6.7l-6.4,6.7l-5.6-5.3
		c-14.2-13.1-38.2-11.8-50.5,2.7c-23.3,27.8,3.5,70,37.2,58.8c10.2-3.2,22.7-16.6,22.7-23.8c0-6.1,20-25.4,23.8-23
		c6.7,4-8.8,54-20.3,66c-6.9,7.2-8.3,7.5-32.9,7.5h-25.4l-38.8-38.8c-21.4-21.4-40.1-38.8-41.7-38.8c-1.9,0-4-1.9-4.8-4.3
		c-0.8-2.1-6.9-6.4-13.6-9.4c-15-6.7-29.7-3.7-39.8,8.3c-21.7,25.9,0,66,32.1,59.9c9.4-1.6,23-12.3,25.7-19.8
		c1.1-2.9,11.5,5.9,36.1,30.2l34.2,33.9h33.9c33.4,0,33.7,0,35.3,6.4c0.8,3.5,2.4,8.3,3.2,10.7c1.3,3.7-3.2,4.3-42.2,4.3h-43.6
		l-24.1-24.1l-24.1-24.1h-49.5h-49.7l-17.1-17.4c-16.8-16.8-17.1-17.4-16.3-30.5c1.1-21.7-9.4-35.3-29.4-39
		c-18.7-3.2-39.8,16-39.8,36.1c0,13.1,9.4,26.7,22.5,33.1c10.2,5.1,11,5.1,23.8,0.5l13.4-4.8l19,19l19,19h50.8h50.8l22.7,22.7
		l22.7,22.7h53.5c42.2,0.3,54.5,1.1,58.5,4c5.1,3.7,22.2,9.9,37.2,13.1c5.1,1.3,7.2,3.5,7.2,7.2c0,7.2,15.8,23,25.1,25.4
		c4.3,1.1,12,0.5,17.4-1.3l9.6-2.9l67.6,67.6c36.9,36.9,67.4,68.7,67.4,70.6c0,1.6-1.3,6.4-2.7,10.4l-2.9,7.5l-46-46l-46-46h-26.7
		h-26.7l-38.8-38.8l-38.8-38.8h-76.7h-77v-9.9c0-28.6-32.3-44.6-54.5-27.3c-22.5,17.6-18.4,49.5,7.5,62.3
		c10.2,5.1,11.2,5.1,23.3,0.8c10.4-3.7,24.3-4.5,89.5-4.5h77.3l38.8,38.8l38.8,38.8h26.7h26.7l46.2,46.2l46.2,46.5l-4.5,9.6
		c-2.7,5.3-5.3,9.9-6.1,9.9c-1.1,0-20.3-18.7-43-41.4l-41.4-41.4h-31.8h-32.1l-44.4-44.1l-44.4-44.1h-40.1h-40.1l-15.8,16l-15.8,16
		h-69.5h-69.5l-10.2,9.9c-10.2,9.9-10.2,9.9-17.9,5.3c-23.3-13.6-53.7,4.3-53.7,31.5c0,16,15.2,33.1,31.3,35.3
		c21.1,2.9,38.2-13.1,38.2-35.8c0-11.2,1.3-14.2,8.8-21.7l8.8-8.6h69.5h69.5l15.8-16l15.8-16h36.4h36.1l42.8,42.8l42.8,42.8h30.7
		h30.7l42.5,42.5l42.2,42.2l-4.3,8.6c-2.4,4.5-5.3,8.3-6.4,8.3c-1.1,0-21.7-19.8-46-44.1l-44.1-44.1h-56.1h-56.4l-8.8-9.1l-8.8-9.1
		l5.3-8c8.3-11.5,9.9-26.7,4-38c-19.2-37.2-73.2-22.2-69.5,19.5c1.6,19.2,17.9,33.9,37.2,33.9c7.2,0,11.5,2.7,22.2,13.4l13.1,13.4
		h56.4h56.1l43.8,43.8l43.6,43.6l-6.1,9.6c-3.5,5.3-6.9,9.9-7.8,9.9c-0.8,0-21.1-19.8-45.4-44.1l-44.1-44.1h-67.9h-68.2l-39-38.8
		l-39.3-38.8h-39.8h-39.8l-46.8,47c-25.7,25.7-51.3,49.2-56.9,52.1c-11.2,5.9-20.6,19-20.6,28.6c0,10.2,8,24.6,16.3,28.6
		c4,2.1,12.3,4,18.2,4c26.2,0,40.6-33.9,22.5-54c-4.3-4.8-3.2-6.4,33.9-43.6l38.8-38.8h33.4h33.4l37.4,37.4l37.4,37.4h68.2h68.2
		l43.6,43.6l43.3,43.3l-7.2,10.2l-7.2,10.2l-40.4-40.4l-40.6-40.4l-71.6,0.3l-71.6,0.3l-35-34.8l-35-35h-32.3h-32.1l-20.6,19.5
		l-20.6,19.2v65.8v65.5l-7.8,7.5l-8,7.8l-8.3-7.2c-15.5-13.1-35-12.6-46.5,1.1c-13.4,16-12.3,32.1,2.7,45.2
		c7.5,6.7,11.8,8.3,21.4,8.3c10.4,0,13.6-1.3,21.4-9.1c5.1-5.1,9.1-10.7,9.1-12.8c0-1.9,7.2-10.7,16-19.5l16-15.8v-65.8v-65.8
		l14.2-13.9l14.2-13.9h28.6h28.6l33.9,34.7l33.7,34.7h72.4h72.4l38.5,38.5l38.5,38.5l-5.1,7c-2.9,3.7-5.6,6.9-6.4,6.9
		s-16.3-15-34.7-33.4l-33.4-33.4h-86.9h-87.1l-10.2-10.4c-8.8-9.1-9.9-11.2-8.3-19.8c2.1-11.5-4-26.2-14.2-32.9
		c-9.1-5.9-26.7-5.9-35.8,0c-9.1,5.9-16,23-13.6,33.7c2.4,12,15.2,23.8,28.3,25.9c8.8,1.3,14.7,5.1,27.5,17.4l16.3,15.5h85.3h85.3
		l31.3,31.3l31.3,31.3l-5.6,7.8l-5.6,7.8l-29.7-29.7l-29.7-29.7h-100c-97.8,0-100.2,0-111.7,5.9c-21.4,10.7-28.6,27.5-19.5,46.2
		c8,16.6,24.6,22.2,42.5,14.7c9.6-4,15.2-12,17.6-25.1l1.9-9.6h79.4h79.1l25.1,25.1c25.4,25.7,25.9,26.5,16.8,37.2
		c-3.7,4.3-5.9,2.9-29.9-20.8l-25.9-25.4h-58.5h-58.5l-44.1,44.1l-44.1,44.1h-86.9h-87.1l-13.1-13.4l-13.1-13.4h-43h-43l-15.2,15.5
		l-15.2,15.5v46.5v46.8l24.9,24.9l25.1,24.9l-5.3,10.7c-4.5,9.4-4.8,12.3-2.1,21.1c9.6,31.8,52.4,32.1,62,0.3
		c5.9-19.5-10.7-40.4-32.3-40.4c-8.3,0-12.3-2.9-32.9-23.5l-23.3-23.3v-41.4v-41.2l11.2-11.5l11.2-11.5h35h35l14.4,14.7l14.4,14.7
		h92.5h92.2l44.1-44.1l44.1-44.1h53.5h53.5l23.8,23.8l23.5,23.5l-6.7,7.5l-6.4,7.8l-22.5-23.3l-22.2-23.3h-42.8h-42.8l-47,46.8
		l-47,46.8h-112.5h-112.5l-5.3-9.1c-14.4-24.3-52.7-15.8-58.3,13.1c-4,21.7,19.8,42.8,40.4,36.1c9.6-3.2,22.7-16.3,22.7-23
		c0-3.2,17.6-3.7,117.1-3.7h116.8l45.4-45.4l45.4-45.4h37.4h37.4l20.8,20.8c19.2,19.2,20.3,21.1,16.8,25.9
		c-3.7,5.1-4.8,4.5-24.9-15.2l-20.8-20.8h-29.4h-29.4l-22.2,22.2l-21.9,21.9v31v30.7l-12.8,12.6l-12.8,12.6h-46.5h-46.8l-23.3,23.3
		c-23,23-23.3,23-31.3,19.5c-16-6.7-33.7,0.3-42,16.6c-4.8,9.4-4.8,16.6,0.5,27.8s15.8,17.1,30.7,17.1c9.1,0,12.6-1.6,20.3-9.4
		c8.3-8.3,9.1-10.4,8.6-22.7l-0.8-13.6l21.1-21.1l21.4-21.4h46.8h47l17.9-18.2l17.9-18.2v-30.7v-30.7l18.2-17.9l18.2-17.9h21.4h21.4
		l19.5,19.8l19.8,19.8l-13.1,16.8l-13.1,16.6l-1.3-11.8c-2.1-15.8-6.1-22.2-17.1-27.5c-11.2-5.3-15.2-5.3-27-0.5
		c-10.7,4.5-20,18.2-20,29.1c0,20.6,20.8,36.9,40.1,31.3c4.5-1.3,8-1.6,8-0.8c0,0.5-4.3,6.7-9.6,13.1c-9.1,11.2-10.4,11.8-23.5,11.8
		h-13.6l-32.1,32.1c-17.6,17.6-33.4,32.1-35.3,32.1s-5.1-3.5-7.5-8c-11-21.1-45.2-21.1-56.1,0c-6.7,13.1-5.1,25.7,4.8,36.1
		c15,16.6,39.8,14.7,51.1-4c2.9-5.1,6.7-8,10.4-8c4,0,16.8-10.7,39.3-33.4c28.6-28.6,40.1-38,40.1-32.1c0,0.8-12.8,17.9-28.6,38.2
		c-16,20-37.2,47.8-47.3,61.5l-18.2,24.6h-134.2h-133.9l-66.8,66.8l-66.8,66.8h-21.4h-21.4l-59.3-59.3l-59.6-59.6v-71.4v-71.6h25.4
		h25.4v-70.8v-70.6l-24.6-0.8l-24.9-0.8l-0.8-83.7c-0.3-46.2,0.3-83.4,1.3-82.9c19.5,9.9,23.5,10.7,34.2,7.2
		c6.4-2.4,12.8-7.2,16.6-12.8c21.7-32.3-23.3-67.4-50-39c-5.3,5.9-8.6,6.7-23.3,6.7h-16.8v102.9v102.9h-49.5H2249v-119.5v-119.8
		l28.9-29.9l28.9-30.2h121.6H2550l17.9-18.2l17.9-18.2V10858v-132.8h-18.7h-19l0.8-24.6l0.8-24.9l31.3-21.7l31.5-21.9l10.7,5.3
		c34.2,17.1,66-26.7,41.2-56.7c-14.2-16.6-40.4-15.8-53.7,1.9c-5.9,7.8-7.2,12-7.2,23.8l0.3,14.2l-34.2,23.3l-34.5,23.5v28.9v28.9
		h-18.7h-18.7l-0.5,63.4l-0.8,63.4l-28.1,7.5l-28.1,7.5l-27.3-27.3l-27.5-27.5v-161.7v-161.7l-38.8-38.8l-38.8-38.8v-33.9v-34.2
		h-24.1h-24.1v44.9v44.6l22.7,22.7c12.6,12.6,22.7,23.3,22.7,24.1s-9.4,1.3-20.6,1.3h-20.8l-0.8,65.8l-0.5,65.8l-17.6,4.8l-17.6,4.8
		l-35.8-35.8l-35.8-35.8v-81.5v-81.8l-15.5-15.2l-15.5-15.2h-511.1h-511.1v125.9v126.2l-27.3,27.5l-27.3,27.8H861.2H674.6v136.3
		v136.3h6.9h6.9l-1.3,27.5c-0.8,15-2.4,31.3-3.2,36.1c-2.7,12.6,4.8,31,16.8,40.1c13.1,9.9,37.4,10.4,51.1,0.8
		c15.2-11,19.8-25.7,21.1-67.6l1.1-36.9h10.4c9.9,0,10.2-0.3,11.5-11.2c0.8-6.4,1.9-46.8,2.7-89.8c0.5-43.3,1.9-79.1,2.9-80.2
		c0.8-0.8,23.3,20,49.5,46.2l48.1,48.1v231.2v231.2l40.1,40.1l40.1,40.1v23.3v23.5h-73.5h-73.5v24.1v24.1h-58.8h-58.5l-9.4,8.3
		c-11.5,9.9-14.4,21.7-8.6,35.3c7.5,18.2,13.6,19.8,67.6,18.4l47.6-1.1l14.7,15l14.4,15h287.9h287.9l2.9,8.3
		c1.6,4.8,2.9,10.2,2.9,12c0,4.5-36.9,25.4-47.6,26.7c-24.6,3.2-37.2,27.8-24.6,48.4c8.6,14.4,16.8,16.8,55.3,16.8h34.2l26.2-26.2
		l25.9-25.9v-28.9v-28.6h14.7h14.7v-73.5v-73.5h-72.4c-39.8,0-71.9-0.8-71.4-1.9c0.5-1.3,2.7-5.3,4.5-9.4l3.7-7.5h83.9h83.7v92.8v93
		l22.2-22.2l21.9-21.9h182.3h182l28.6,16.8l28.3,16.6l-86.9,0.8l-87.1,0.5v17.4v17.4h-44.1h-44.1v30.7v30.7h33.9h34.2l19.2,19.2
		l19.5,19.2v36.4v36.1l40.1,40.1l40.1,40.1v29.4v29.4l-44.1,44.1l-44.1,44.1v367.8v367.8l-12.3,1.9c-6.9,0.8-18.4,1.6-25.4,1.6
		h-13.1v-155.3v-155.6l16-27.8l16-28.1v-150v-150.2l-21.9-21.9l-21.7-21.9l-0.3-14.7c-0.3-16.8-6.9-26.2-22.2-31
		c-12.6-4.3-23.3-1.1-32.9,9.6c-15.5,17.9-8,44.4,15,51.9c5.1,1.9,10.2,2.4,11.2,1.6c0.8-1.1,11,7.5,22.5,19l20.8,20.8v139.3v139.5
		l-16,27.8l-16,27.5v160.6v160.6l-15.2,1.6c-8.3,0.8-16,1.1-17.4,0.3c-1.1-0.8-2.1-86.3-2.1-190.1v-188.7l10.7-19.2
		c8-14.7,10.7-22.2,10.7-31.8c0-9.4,1.1-12.3,4-12.3c7.8,0,20-8,24.1-16c15-28.9-15.2-59.1-44.1-44.1c-19.5,10.2-21.1,44.9-2.7,54.8
		c9.4,5.1,7.2,22.2-5.3,43l-10.7,17.9v194.1v194.1h-13.4H1701v-250.7v-250.7l39.6-39.3c21.9-21.7,41.2-39.3,42.8-39.3
		c5.1,0,13.9-16.6,13.9-26.2c0-25.1-28.6-40.9-49.2-27.5c-10.2,6.7-14.7,15.2-15,27c0,11.2,8,25.7,16,28.1
		c5.3,1.6,2.1,5.6-29.1,37.2l-35,35.6v252.9v253.1h-14.7h-14.7v-194.3v-194.3l-11.2-11.5l-11.2-11.5l3.7-13.9
		c2.1-9.4,6.4-16.6,12.3-22.2c22.7-21.7,9.1-54.8-22.5-54.8c-9.9,0-13.4,1.6-20.8,9.1c-7.5,7.5-9.1,11.2-9.1,20
		c0,15.2,5.9,25.4,17.4,31c8,3.7,9.6,5.6,8.3,10.2c-1.1,3.2-2.4,10.7-3.2,16.6c-1.3,9.9-0.5,11.5,9.4,21.4l11,10.4v191.9v191.9
		h-13.4h-13.4V12572.5z M1390.1,11937.7c11.5-12.6,12.3-29.1,1.9-41.4c-20.6-24.3-59.9-8.3-56.4,23.3
		C1338.8,11948.4,1370.9,11958.8,1390.1,11937.7z M1778.8,11943.3c16.6-11.2,20.3-28.9,9.6-44.9c-11.8-17.6-37.2-18.7-51.1-2.1
		c-12.8,15-7.5,40.4,10.2,48.9C1759.3,11951,1768.4,11950.5,1778.8,11943.3z M863,11678.9c23-21.1,9.1-55.6-22.2-55.6
		c-30.7,0-42.5,40.9-16.8,58C837.6,11690.4,851.5,11689.6,863,11678.9z M996.7,11679.5c21.7-20.3,8-56.1-21.4-56.1
		c-21.4,0-37.4,21.4-30.7,41.2c2.9,8.8,11,18.2,18.7,21.1C971.6,11689.1,990.3,11685.3,996.7,11679.5z M1114.3,11684.8
		c12.8-4.8,20-15.5,20-29.4c0-29.7-32.1-44.1-53.5-24.1c-15.5,14.4-12.6,39.6,5.9,50.8C1096.6,11688,1103.9,11688.8,1114.3,11684.8z
		 M1258.9,11679.2c21.4-20,7.2-55.9-21.9-55.9c-21.1,0-37.2,21.4-30.5,41.2c2.9,8.8,11,18.2,18.7,21.1
		C1233.5,11689.1,1252.2,11685.3,1258.9,11679.2z M620.9,11672.5c8-8.8,8.8-10.7,7.8-22.7c-2.9-30.7-37.2-41.4-56.9-18.2
		c-12.8,15.5-5.9,42.5,13.1,50.8C596,11687.2,611.2,11683.2,620.9,11672.5z M2562,11554.6c17.1-10.2,20-34.7,6.1-49.2
		c-13.1-13.6-33.1-13.6-46.8,0.3c-6.7,6.4-7.8,9.9-7.8,21.4c0,12.3,1.1,15,9.1,23c7.5,7.5,11.2,9.1,20.3,9.1
		C2549.2,11559.2,2557.7,11557,2562,11554.6z M620.3,11544.2c17.1-10.7,19-36.1,3.7-49.7c-15.2-13.6-29.9-13.1-44.9,1.9
		c-7.5,7.5-8.8,10.7-8.8,20.8C570.3,11543.4,597.9,11558.1,620.3,11544.2z M2559.9,11429c8-4,15.2-17.6,15.2-28.1
		c0-9.4-9.6-23.3-19.8-27.8c-17.4-8.6-36.4,0-42.8,18.7c-6.1,17.9,3.2,36.4,20.8,41.4C2542.5,11436,2548.4,11434.9,2559.9,11429z
		 M740.3,11425.8c21.1-9.6,25.1-39.6,7.5-53.5c-27.5-21.7-65.2,7.2-50.3,38.5c3.2,7,8,11.5,15.5,15
		C726.4,11431.9,727,11431.9,740.3,11425.8z M618.4,11424.2c4.3-2.4,9.6-7.8,12-12c11.5-22.5-3.5-48.1-28.1-48.1
		c-24.6,0-39.6,25.7-28.1,48.1C582.1,11426.9,602.4,11432.5,618.4,11424.2z M744.6,11284.1c10.7-5.9,17.1-23.5,12.8-36.1
		c-5.6-17.4-23.8-26.2-41.4-20.3c-27.5,9.1-29.4,47-2.9,59.1C724.8,11291.9,732.3,11291.3,744.6,11284.1z M618.4,11285.2
		c4.3-2.4,9.6-7.8,12-12c11.5-22.5-3.5-48.1-28.1-48.1c-24.6,0-39.6,25.7-28.1,48.1C582.1,11287.9,602.4,11293.5,618.4,11285.2z
		 M2561.7,11161.2c3.7-2.7,8.3-9.6,10.4-15.5c7.8-21.7-7.2-41.7-30.5-41.7c-10.2,0-13.9,1.3-20.3,7.8c-10.7,10.7-13.4,21.7-8.8,34.5
		C2519.8,11167.3,2543.5,11174.5,2561.7,11161.2z M2694.6,11162.2c3.7-2.4,8.3-8.8,10.7-13.9c13.4-32.6-27.5-60.1-52.4-35.3
		C2625.1,11140.9,2661.4,11183.9,2694.6,11162.2z M486.7,11028.6c8.8-5.9,15-21.4,12.8-32.3c-0.8-4.8-5.1-12.3-9.4-16.6
		c-13.4-13.6-32.1-13.4-45.4,0C416.9,11007.2,453.8,11050.2,486.7,11028.6z M741.4,10518.8c13.6-7.2,21.4-19.8,21.4-35
		c0-36.6-44.6-52.4-69.2-24.6c-6.9,8-8.3,11.8-8.3,23c0,15.5,5.1,26.7,15.2,33.9C714.4,10526.1,725.6,10526.9,741.4,10518.8z
		 M909.8,10518.6c33.1-17.6,25.7-67.1-11.2-73c-13.4-2.4-21.7,0.3-32.9,9.9c-27.3,24.1-10.4,67.4,27,69
		C895.6,10524.7,903.4,10522.1,909.8,10518.6z M911.9,10385.7c24.3-14.7,25.7-46,3.2-65.2c-6.7-5.6-11.2-6.9-22.2-6.9
		c-17.9,0-29.9,7.2-36.6,22.2c-6.4,13.9-6.4,17.6-1.1,31.3C864.1,10388.9,891.6,10398,911.9,10385.7z M2432.9,10129.1
		c9.1-5.6,19.2-23.3,19.2-33.4s-10.2-27.8-19.2-33.4c-19.2-11.8-46.2-4-56.1,16C2359.1,10113.1,2399.5,10149.4,2432.9,10129.1z
		 M1781.2,10009.4c28.6-14.2,28.6-55.3,0-70.3c-25.7-13.6-56.1,5.3-56.1,35c0,21.7,17.9,40.1,38.8,40.1
		C1768.4,10014.2,1776.1,10012,1781.2,10009.4z M880.4,10003.8c28.6-15,28.6-56.1,0-70.3c-26.2-13.4-56.1,5.6-56.1,35.3
		c0,21.1,18.2,40.1,38.8,40.1C867.6,10008.8,875.3,10006.7,880.4,10003.8z M1005.2,10003.8c28.1-12.8,29.1-53.5,1.9-69
		c-16.6-9.6-32.6-7.2-47.3,6.7c-19.8,19-12,54,14.2,64.4C984.1,10009.9,992.9,10009.4,1005.2,10003.8z M1139.4,10001.6
		c12.6-9.6,17.6-19,17.6-32.9c0-20-14.7-36.6-35.3-39.3c-21.4-2.9-43.6,17.4-43.6,39.6C1078.2,9998.7,1116.2,10018.7,1139.4,10001.6
		z M1257.3,10003.8c28.6-15,28.6-55.1,0-70c-25.7-13.9-56.1,5.1-56.1,35S1231.6,10017.7,1257.3,10003.8z M1642.2,10004
		c13.4-6.7,21.4-20,21.4-35.3s-8-28.6-21.4-35.3c-26.2-13.4-56.1,5.6-56.1,35.3C1586.1,9998.1,1616.3,10017.1,1642.2,10004z
		 M744.1,9872c42.2-21.9,15.2-86.9-29.9-71.9c-42.2,13.9-32.1,75.6,12.6,77.5C729.9,9877.9,737.7,9875.2,744.1,9872z M879.6,9872.5
		c29.4-13.1,29.9-55.6,0.8-70c-25.9-13.1-56.1,5.6-56.1,34.5c0,14.2,5.3,25.1,15.2,32.3C853.1,9878.9,864.1,9879.7,879.6,9872.5z
		 M1005.2,9872.2c40.6-19.8,19.8-81.8-24.6-73.5c-30.5,5.9-42.8,45.4-20.6,66.6C973.7,9878.4,988.1,9880.5,1005.2,9872.2z
		 M1139.4,9870.6c17.9-13.6,23-31.3,13.9-49.7c-14.2-29.1-53.2-30.7-69-2.9c-7.5,13.1-7.8,23-0.5,37.4
		C1093.7,9876.3,1121.5,9883.7,1139.4,9870.6z M1259.2,9746.6c19.2-7.2,30.2-28.1,24.9-47.6c-3.5-12.8-17.6-26.2-30.7-28.6
		c-13.1-2.4-31.8,5.1-39.3,15.8c-8.6,11.8-8.6,34.5-0.3,46.2C1224.2,9747.1,1242.6,9753,1259.2,9746.6z"/>
	<path class="st0" d="M1901.5,12399.3v-357.6l44.1-44.1l44.1-44.1v-46.8v-46.8l-40.1-40.1l-40.1-40.1v-27.3v-27.5h145.1h144.9
		l24.9-24.9l24.6-24.6v-103.7v-103.4h49.5h49.5v79.7v79.4l70.3,70.3l70,70h37.4h37.4l66.8-66.8l66.8-66.8h113.1
		c111.2,0,113.1,0,110.1,5.1c-2.1,4-1.3,8.6,2.7,18.7l5.3,13.6h-90.3h-90.1l-44.1,44.1c-24.3,24.3-45.7,44.1-47.6,44.1
		c-2.1,0-7.8,4-12.6,8.8c-15,15-15.5,29.7-1.9,44.9c13.4,15,39,12.8,50.3-4.3c4.8-7.5,5.6-25.1,1.3-32.9
		c-2.1-4.3,2.4-10.2,32.6-40.1l35.3-35.3h87.4c53.2,0,87.9,1.1,89,2.7c0.8,1.3,3.2,13.1,5.1,25.9c4,27.5,2.4,31.5-10.7,28.9
		c-10.4-1.9-24.1,3.2-31.8,12c-8,9.1-7.5,32.1,1.1,41.2c9.1,9.6,22.2,13.6,32.9,9.9c4.5-1.6,8.6-2.9,8.8-2.9
		c1.1,0-3.7,26.7-5.3,29.4c-0.8,1.6-13.6,2.7-28.9,2.7h-27.3l-26.2-26.2c-23.8-23.8-25.9-27-25.9-36.4c0-8-1.9-12-9.1-19.2
		c-7.8-7.8-11-9.1-21.4-9.1c-22.5,0-39.3,22.7-31,42.5c7.8,19.2,29.4,27,46.2,16.8l9.4-5.3l24.9,25.1l25.1,25.1h31.3h31.5l-1.6,7.5
		c-0.8,4-1.9,8.6-2.4,10.2s-5.1,3.7-10.4,4.8c-19.5,3.7-31.8,22.2-27,40.9c0.8,4,5.9,11.2,11,16c8,7.5,9.4,10.2,7.8,16.8l-1.9,8
		h-20.6h-20.3l-20.8-20.8c-18.2-18.2-20.6-21.9-20.6-30.5c0-18.2-19.8-33.1-38.5-29.7c-10.2,2.1-22.5,15.2-24.6,26.7
		c-2.4,13.1,5.1,27,18.2,34.2c8.6,4.5,11.2,4.8,21.4,2.1l11.5-3.2l21.4,21.4l21.4,21.1h22.2c25.9,0,25.1-5.6,6.7,44.9l-12,32.6
		h-15.2h-15l-72.4-72.7c-60.1-60.7-73-74.8-75.4-83.9c-7.2-25.4-36.1-34.5-54-16.8c-15,15-12.3,39.6,5.9,50.5
		c10.4,6.4,19.5,6.7,29.9,1.1l8-4l75.1,75.1l74.8,74.8h14.2h13.9l-20.6,41.2l-20.6,41.2l-4.5-10.2c-8-17.9-29.7-24.1-47-13.4
		c-12,7.2-15,14.4-13.4,30.7l1.3,13.9l-25.1,25.1l-25.1,25.1v48.1l-0.3,48.1l-13.1,14.7l-13.1,14.7l-0.3-49.5v-49.5l-32.1-32.1
		l-32.1-32.1v-47.8v-48.1l-92.8-92.8c-92.2-92.2-92.8-93-92.2-103.2c2.4-30.5-36.9-45.7-56.7-21.9c-10.7,12.6-9.6,28.9,2.1,42
		c8.8,9.4,10.2,9.9,25.4,9.9h16.3l86.9,86.9l86.9,86.9v48.1v48.1l33.4,33.4l33.4,33.4v56.1v56.4l-13.4,13.1l-13.4,13.1v-66.8v-66.6
		l-40.1-40.1c-37.7-37.7-40.1-40.6-40.1-50.3c0-6.4,1.9-12.3,5.3-15.8c23-24.9-9.1-65-39.6-49.2c-22.5,11.8-21.4,48.1,1.9,57.7
		c7.5,2.9,8.3,4.5,8.3,14.4c0,10.7,1.3,12.3,41.4,52.4l41.4,41.4v71.1v71.1l-6.7,6.1l-6.7,6.1v-51.9v-52.1l-19.8-19.5
		c-18.7-18.7-19.8-20-17.1-27.5c9.4-26.7-20.3-51.6-46-38.2c-11.2,5.9-16,14.2-16,28.1c0,19.2,13.1,32.1,32.6,32.1
		c7.5,0,11.8,2.9,25.7,16.8l16.6,16.8v58.5v58.8l-22.2,17.6c-29.1,23.5-59.1,45.2-62.5,45.2c-1.3,0-5.1-2.7-8.3-6.1l-5.9-6.1v-148.1
		v-148.4l-23.3-23.3c-21.9-22.2-23-23.5-20-30.2c7.2-15.5,1.6-33.9-12.8-42.5c-20.6-12-48.1,4-48.1,27.8c0,17.1,13.9,32.1,29.9,32.1
		c4.3,0,13.6,7.5,29.7,23.5l23.3,23.3v148.4v148.1l8.3,8.6l8,8.3l-13.1,8.6c-7.2,4.5-14.2,8.3-15.5,8.3c-1.3,0-10.2-7.5-19.2-16.8
		l-16.6-16.8v-105.3V12325l8.8-4.8c29.9-16.3,19.5-60.7-14.2-60.7c-18.2,0-32.1,14.2-32.1,32.6c0,9.1,8.6,26.2,13.4,26.2
		c1.9,0,2.7,38.8,2.7,114.4v114.4l17.4,17.1c9.6,9.4,17.4,17.9,17.4,18.7c0,0.8-6.7,5.3-15,10.4l-15,9.1l-21.1-21.1l-21.1-21.1
		V12333v-226.9l19-19.2c18.7-19,19.8-19.5,32.1-19.2c21.9,0.5,36.4-15,33.7-36.1c-3.7-27.8-36.6-37.4-55.3-16
		c-7.8,8.6-8.6,11-7.5,22.5l1.3,12.6l-23.8,23.8l-23.5,23.5v235.2v235.2l21.4,21.4c11.8,11.8,21.4,22.2,21.4,23.5
		c0,1.3-12.3,8-27.3,15.2l-27.5,13.1l-13.9-13.9l-14.2-13.6v-144.6v-144.9l6.7-6.1c13.4-12.6,10.7-38.8-5.1-48.4
		c-4.8-2.9-13.1-5.1-19.8-5.1c-9.9,0-13.4,1.6-20.8,9.1s-9.1,11-9.1,20.6c0,14.4,8,28.3,17.4,30.7l6.7,1.6v147.3v147.3l15,15.2
		l15,15l-23.3,9.9c-12.8,5.3-24.6,9.6-26.5,9.6c-1.6,0-9.4-6.4-17.1-14.2l-13.9-14.2V12460v-183.1l41.7-41.4
		c50.8-50.5,58.8-64.4,47.8-85.5c-10.4-20-42.8-21.1-55.9-2.1c-8.6,12.3-3.2,38.5,9.4,45.2c5.3,2.7,3.7,5.1-29.4,38.2l-35,35v193.8
		v193.5l13.6,13.9l13.6,13.9l-15.5,5.9c-8.6,3.2-19,6.4-23,7.2l-7.5,1.6v-221.6v-221.6l22.7-24.1l22.5-24.1l0.3-52.7v-52.4
		l23.8-13.6c12.8-7.5,26.7-13.6,30.7-13.6c18.2,0,33.1-18.2,29.9-36.9c-3.2-20.6-28.1-33.1-46.5-23.5c-12,6.1-17.6,18.2-15.8,35
		l1.3,13.6l-22.5,12.8l-22.5,12.8v54.8v55.1l-22.7,23l-22.7,23.3v230.4v230.4l-7.2,2.9c-4.3,1.6-10.7,3.5-14.7,4.3l-7.5,1.6v-230.7
		v-230.7l17.4-29.9l17.4-29.9v-66.6v-66.8l56.9-56.7c40.1-39.8,58.8-56.7,62.8-56.7c13.4,0,27.3-15.8,27.3-30.7
		c0-15.8-16.8-33.4-31.5-33.4c-10.2,0-24.6,8-28.6,16.3c-5.3,9.9-5.1,26.5,0.3,33.9c4,5.9,2.7,7.2-52.1,61.5l-56.4,55.3v67.9v67.9
		l-17.4,30.2l-17.4,30.2v238.2c0,236,0,237.9-5.3,237.9c-5.3,0-5.3-1.9-5.3-312.2v-312.2l-20-19.8c-19.8-19.8-20-20-20-33.7
		c0-11.5-1.3-15.2-7.5-21.9c-25.7-27.3-68.4,1.6-52.7,35.3c5.9,12.3,16.8,18.2,32.3,17.4c11.2-0.8,12.6,0,29.1,16.3l17.4,17.1v310.6
		v310.6l-11.8,2.9c-6.7,1.6-12.6,2.9-13.4,2.9s-1.6-93.6-1.6-207.7c0.3-178.6,0.8-208.8,4-213c2.1-2.9,4-10.7,4-17.1
		c0-9.9-1.6-13.4-9.1-20.8c-7.5-7.5-11.2-9.1-20-9.1c-28.3,0-43.6,24.6-29.7,47.6c5.3,8.6,5.3,13.6,5.3,219.5v210.6l-9.9,1.9
		c-5.6,0.8-12.8,1.6-16,1.6h-6.1v-250.7v-250.5l23.5-23.5c19.8-19.8,24.6-23.3,32.1-23.3c19.5,0,32.6-13.4,32.6-33.7
		c0-10.4-1.3-13.6-9.1-21.4c-7.5-7.5-11.2-9.1-20.3-9.1c-21.1,0-37.2,16.8-33.9,36.1c1.3,8-0.5,10.4-26.5,36.4l-27.8,27.8v258.5
		c0,142.2-0.8,259-1.9,259.5c-1.3,0.8-8.6,2.1-16,3.2l-14.2,1.9V12399.3z M2040.8,11817.7c25.9-17.4,13.6-58-17.9-58
		c-9.6,0-13.6,1.6-21.4,8.8c-12.8,11.5-15,25.9-5.9,39.3C2007.1,11824.6,2024.7,11828.6,2040.8,11817.7z M2171.2,11820.1
		c11-5.9,16.3-15.8,16.3-29.9c0-10.4-1.3-13.6-9.1-21.4c-7.5-7.5-11.2-9.1-20-9.1c-22.7,0-36.9,15-34.2,35.6
		C2127.1,11817.7,2151.2,11830.2,2171.2,11820.1z M2295.5,11820.1c14.4-5.9,21.1-16.8,19.5-31.8c-2.7-30.2-36.9-40.9-56.7-17.6
		c-13.4,16-6.7,40.6,13.1,49.5C2282.1,11824.6,2284.5,11824.6,2295.5,11820.1z M2433.4,11819.8c14.7-7.5,21.1-32.9,11.8-46.2
		c-5.3-7.8-17.6-13.9-27.8-13.9c-26.7,0-42,30.7-24.9,50.8C2403.8,11824.1,2418.7,11827.3,2433.4,11819.8z"/>
	<path class="st0" d="M2735.5,12280.9v-28.1l22.5-22.5c21.1-21.1,23-22.2,34.7-22.7c6.7-0.3,12.3,0,12.3,0.8
		c0,2.1-55.1,83.4-62.5,92.5l-6.7,8L2735.5,12280.9z"/>
	<path class="st0" d="M3292.8,10957.5l-56.1-56.7l26.5,13.9c39.8,21.1,55.1,32.6,71.9,54.5c8.6,11.2,17.1,35.3,14.7,42
		C3349.5,11012.5,3323.5,10988.5,3292.8,10957.5z"/>
	<path class="st0" d="M2625.1,10372.9l-12.6-12.8v-42.5v-42.8l-49.5-49.5l-49.5-49.5v-188.4v-188.7l10.2-9.9
		c8.8-8.8,11.8-9.9,23.3-9.9h13.1l-16.6,16.8l-16.6,16.8v148.1v148.4l28.3,28.3l28.3,28.6l-3.2,9.9c-4.5,14.2-1.9,29.7,6.9,39
		c15.8,16.6,36.4,15.8,51.9-1.9c15.5-17.6,8.8-46-13.4-55.9c-8.6-4-12.6-4.3-19.8-2.1c-9.1,2.7-9.1,2.7-37.4-25.7l-28.3-28.3v-140.3
		v-140.3l20.8-20.8l20.6-20.6h17.4h17.4l-24.9,24.9l-24.6,24.6v123v123l90.3,90.3l90.1,90.1H2902c84.7,0,154.2,0.8,154.2,2.1
		c0,1.1,0.8,4.5,1.6,8l1.6,5.9h-163.9h-163.9l-17.9,17.6l-17.9,17.9l-11.8-5.9c-13.9-6.7-17.9-7-30.2-1.9c-12,5.1-20,18.4-20,33.1
		c0,15.2,6.7,26.2,20,32.6c24.1,11.5,49.5-6.1,49.5-34.5c0-9.4,1.9-12.8,16.3-28.3l16.3-17.4h162.5H3061l2.7,7.5
		c1.3,4,3.5,9.4,4.5,12c1.9,4.3-6.7,4.5-158,4.5h-159.8l-11.5,11.2l-11.5,11.2v20.6v20.6l-11.8,7c-11,6.4-14.2,6.9-44.9,6.9h-33.1
		L2625.1,10372.9z"/>
	<path class="st0" d="M2666.8,10155l-86.3-86.3v-116.3v-116l28.9-28.9l28.6-28.6h18.2h17.9v63.9v64.2l9.4,16l9.4,15.8v81.3v81
		l44.9,44.9l44.6,44.6h145.4h145.1l-1.6,6.1c-0.8,3.2-1.6,6.7-1.6,8c0,1.1-66.6,1.9-147.8,1.9h-147.6l-65-65l-64.7-64.7v-36.4v-36.1
		l9.6-4.5c18.7-9.1,24.6-37.2,11.5-53.7c-19.8-25.4-55.9-15.8-62.5,16.3c-2.7,13.1,6.7,31.5,18.4,37.4l9.6,4.5v38.8v39l70.3,70.3
		l70,70h145.1c156.9,0,149.7-0.8,142.2,13.6c-2.7,4.8-7.2,5.1-154.5,5.1h-151.6L2666.8,10155z"/>
	<path class="st0" d="M2746.7,10133.7l-40.6-40.6v-79.9v-79.9l-9.4-16.8l-9.4-16.8l0.5-59.6l0.8-59.6h8h8l0.8,64.4l0.5,64.2l12,11.8
		l12,11.8v39l0.3,38.8l19.8,11.5l20,11.2H2887h116.8l17.6-17.4c16.8-16.8,17.6-17.4,26.5-14.7c14.7,4,31-4.5,38-20
		c6.9-15.5,4.5-28.9-6.9-40.6c-11.2-11.2-24.6-13.6-37.7-7.2c-19,9.4-27,29.9-18.7,46.8l4.3,8.8l-15.2,15.5l-15.2,15.5H2887h-109.3
		l-17.1-9.6l-17.1-9.6v-38v-38l-12-11.8l-12-12l0.5-60.1c0.8-68.4-1.1-63.6,25.7-60.1l14.4,1.9l-11,11.2l-11,11.2v41.2v41.4
		l24.3,24.3l24.3,24.3l-5.6,9.1c-6.7,11-7.2,28.6-1.6,39.8c8.3,15.8,34.7,21.9,48.9,11.5c28.3-20.6,17.1-62.3-17.6-66.8
		c-9.1-1.3-14.2-5.1-33.9-24.9l-23.3-23.5l0.3-35.6l0.5-35.8l13.9-13.9l13.6-14.2h26.7h26.7l-9.1,9.4c-6.1,6.4-11.5,9.4-16.6,9.4
		c-10.2,0-21.7,6.1-28.6,15c-4.3,5.3-5.6,11-5.6,21.9c0,13.4,0.8,15.5,10.4,24.9c8.8,8.8,12,10.4,21.9,10.4
		c30.7,0,47.3-33.1,29.7-58.3l-5.6-7.8l12.6-12.3c12-12,13.4-12.6,27.8-12.6c8.3,0,15.8,1.1,16.6,2.1c0.8,1.3-5.9,9.4-14.4,17.9
		l-16,15.8v49.7v49.7l20,14.7l19.8,14.4l-1.6,13.6c-4.3,37.4,36.1,56.9,60.4,28.9c6.7-7.5,8.3-11.8,8.3-21.4
		c0-6.7-1.9-15.5-3.7-19.5c-8-15-27-21.9-42.8-15.2l-9.9,4l-18.4-13.9l-18.7-13.9l1.6-42.8l1.6-42.8l17.6-17.9l17.9-17.6l21.4,7.2
		c11.8,4,28.6,10.4,37.2,14.4l15.8,7.2l-6.1,6.7c-8.3,8.8-11.5,8.6-16.8-2.7c-8.6-17.6-30.2-24.9-47.6-16
		c-24.6,12.8-24.1,51.6,0.5,64.4c17.9,9.1,44.6-1.3,48.9-19.2c1.3-4.8,3.5-6.4,8.8-6.4c4.5,0,10.7-3.5,16.8-9.4l9.6-9.4l9.9,6.7
		c5.3,3.7,9.9,8.3,9.9,9.6c0,1.6,2.1,7.2,4.5,12.3c5.1,10.7,17.6,19.5,28.1,19.5c8.3,0,22.2,14.7,42.2,44.6
		c15,22.5,24.1,44.6,25.9,64.4l1.6,14.4l-43.8,43.8l-43.8,43.8h-37.4l-37.4-0.3l-4.5-9.9c-2.7-5.6-8.6-12.3-13.1-15
		c-10.7-6.4-28.1-6.1-36.9,0.5c-8.8,6.1-16.3,20.8-16.3,31.3c0,16,19,36.1,34.2,36.1c11.2,0,24.6-7.5,30.2-17.4l5.6-9.4h40.4h40.6
		l40.9-40.6l41.2-40.9l-1.9,16c-2.4,20.3-9.4,48.4-21.9,86.3l-9.6,29.9h-109.9h-109.9l-21.1-21.1c-19.2-19.5-20.6-21.4-17.6-27
		c1.9-3.7,2.7-11.8,1.9-19.5c-1.1-11.2-2.7-15-11-22.5c-8-7.5-11.5-8.8-23-8.8s-15,1.3-23.3,8.8c-8.3,7.8-9.9,11-10.7,23.5
		c-1.1,12-0.3,16,5.1,23.8c8.3,12.3,25.1,18.7,37.4,13.9c8.8-3.2,8.8-3.2,31.5,19.5l22.7,22.7h110.4c108.3,0,110.1,0,110.1,5.3
		s-1.9,5.3-146.5,5.3h-146.2L2746.7,10133.7z"/>
	<path class="st0" d="M631.3,9599.9c-0.8-4.3-0.3-8,1.1-8c1.1,0,2.1,3.7,2.1,8c0,4.5-0.5,8-1.1,8S631.8,9604.4,631.3,9599.9z"/>
	<path class="st0" d="M597.1,9417.6c-6.4-31.3-12-59.6-12.8-62.8l-1.1-6.1l166.5,0.3h166.8l-44.1,15.5
		c-86.3,30.5-151,56.9-225.6,92.2c-20.3,9.6-37.4,17.6-37.7,17.6C608.8,9474.2,603.5,9448.6,597.1,9417.6z"/>
</g>
<g>
	<path class="st0" d="M131.1,184.7c1.4-0.2,2.3-1.4,2.2-2.8c-0.2-1.4-1.4-2.3-2.8-2.2c-15.1,1.9-25.9,15.7-24,30.8
		c0.1,0.7,0.4,1.3,0.9,1.6c0.5,0.4,1.1,0.6,1.8,0.5c1.4-0.2,2.3-1.4,2.2-2.8C109.9,197.6,118.7,186.2,131.1,184.7z"/>
	<path class="st0" d="M161.4,203.7c-0.2-1.4-1.4-2.3-2.8-2.2c-1.4,0.2-2.3,1.4-2.2,2.8c0.7,6-0.9,12-4.6,16.7
		c-3.7,4.8-9.1,7.8-15.1,8.6c-1.4,0.2-2.3,1.4-2.2,2.8c0.1,0.7,0.4,1.3,0.9,1.6c0.5,0.4,1.1,0.6,1.8,0.5c7.3-0.9,13.9-4.6,18.4-10.4
		C160.3,218.3,162.3,211.1,161.4,203.7z"/>
	<path class="st0" d="M115.9,209.4c0.1,0.7,0.4,1.3,0.9,1.6c0.5,0.4,1.1,0.6,1.8,0.5c1.4-0.2,2.3-1.4,2.2-2.8
		c-0.9-7.3,4.3-13.9,11.5-14.8c1.4-0.2,2.3-1.4,2.2-2.8c-0.2-1.4-1.4-2.3-2.8-2.2C121.7,190.3,114.6,199.5,115.9,209.4z"/>
	<path class="st0" d="M133.4,223.1c0.1,0.7,0.4,1.3,0.9,1.6c0.5,0.4,1.1,0.6,1.8,0.5c4.8-0.6,9.1-3,12.1-6.9c3-3.8,4.3-8.6,3.7-13.4
		c-0.2-1.4-1.4-2.3-2.8-2.2c-1.4,0.2-2.3,1.4-2.2,2.8c0.4,3.5-0.5,7-2.7,9.8s-5.3,4.6-8.8,5C134.2,220.5,133.3,221.7,133.4,223.1z"
		/>
	<path class="st0" d="M130.1,212.1c2.7,2.1,6.7,1.6,8.8-1.1c2.1-2.7,1.6-6.7-1.1-8.8c-2.7-2.1-6.7-1.6-8.8,1.1
		C126.9,206,127.3,210,130.1,212.1z"/>
</g>
<g>
	<path class="st0" d="M164.8,190.4c-0.3,0-0.5,0.1-0.7,0.3c-0.2,0.2-0.3,0.4-0.3,0.7c0,0.3,0.1,0.5,0.3,0.7c0.2,0.2,0.4,0.3,0.7,0.3
		c0.3,0,0.5-0.1,0.7-0.3c0.2-0.2,0.3-0.4,0.3-0.7c0-0.3-0.1-0.5-0.3-0.7C165.3,190.5,165.1,190.4,164.8,190.4z"/>
	<path class="st0" d="M218.3,180.2l-7.6,7.6c-0.6-0.4-1.3-0.6-2.1-0.6s-1.5,0.2-2.1,0.6l-1.7-1.7c0.9-1.6,0.7-3.7-0.7-5.1l-3.8-3.8
		c-2.1-2.1-3.2-4.8-3.2-7.8c0-2.9,1.1-5.7,3.2-7.8l3.8-3.8c1.4-1.4,1.7-3.5,0.7-5.1l1.7-1.7c0.6,0.4,1.3,0.6,2.1,0.6
		s1.5-0.2,2.1-0.6l7.6,7.6c0.2,0.2,0.4,0.3,0.7,0.3s0.5-0.1,0.7-0.3c0.4-0.4,0.4-1,0-1.4l-7.6-7.6c0.4-0.6,0.6-1.3,0.6-2.1
		c0-2.3-1.8-4.1-4.1-4.1c-0.8,0-1.5,0.2-2.1,0.6l-7.6-7.6c-0.4-0.4-1-0.4-1.4,0c-0.4,0.4-0.4,1,0,1.4l7.6,7.6
		c-0.4,0.6-0.6,1.3-0.6,2.1c0,0.8,0.2,1.5,0.6,2.1l-1.7,1.7c-0.6-0.4-1.4-0.6-2.1-0.6c-1.1,0-2.1,0.4-2.9,1.2l-3.9,3.9
		c-2.1,2.1-4.8,3.2-7.8,3.2c-2.9,0-5.7-1.1-7.8-3.2L175,152c-0.8-0.8-1.8-1.2-2.9-1.2c-0.8,0-1.5,0.2-2.1,0.6l-1.7-1.7
		c0.4-0.6,0.6-1.3,0.6-2.1c0-0.8-0.2-1.5-0.6-2.1l7.6-7.6c0.4-0.4,0.4-1,0-1.4c-0.4-0.4-1-0.4-1.4,0l-7.6,7.6
		c-0.6-0.4-1.3-0.6-2.1-0.6c-2.3,0-4.1,1.8-4.1,4.1c0,0.8,0.2,1.5,0.6,2.1l-7.6,7.6c-0.4,0.4-0.4,1,0,1.4c0.2,0.2,0.4,0.3,0.7,0.3
		s0.5-0.1,0.7-0.3l7.6-7.6c0.6,0.4,1.3,0.6,2.1,0.6c0.8,0,1.5-0.2,2.1-0.6l1.7,1.7c-0.9,1.6-0.7,3.7,0.7,5.1l3.8,3.8
		c2.1,2.1,3.2,4.8,3.2,7.8s-1.1,5.7-3.2,7.8l-3.8,3.8c-1.4,1.4-1.7,3.5-0.7,5.1l-1.7,1.7c-0.6-0.4-1.3-0.6-2.1-0.6
		c-0.8,0-1.5,0.2-2.1,0.6l-7.6-7.6c-0.4-0.4-1-0.4-1.4,0c-0.4,0.4-0.4,1,0,1.4l7.6,7.6c-0.4,0.6-0.6,1.3-0.6,2.1
		c0,2.3,1.8,4.1,4.1,4.1c0.8,0,1.5-0.2,2.1-0.6l7.6,7.6c0.2,0.2,0.4,0.3,0.7,0.3c0.2,0,0.5-0.1,0.7-0.3c0.4-0.4,0.4-1,0-1.4
		l-7.6-7.6c0.4-0.6,0.6-1.3,0.6-2.1s-0.2-1.5-0.6-2.1l1.7-1.7c0.6,0.4,1.4,0.6,2.1,0.6c1.1,0,2.1-0.4,2.9-1.2l3.9-3.9
		c2.1-2.1,4.8-3.2,7.8-3.2c2.9,0,5.7,1.1,7.8,3.2l3.9,3.9c0.8,0.8,1.8,1.2,2.9,1.2c0.8,0,1.5-0.2,2.1-0.6l1.7,1.7
		c-0.4,0.6-0.6,1.3-0.6,2.1s0.2,1.5,0.6,2.1l-7.6,7.6c-0.4,0.4-0.4,1,0,1.4c0.2,0.2,0.4,0.3,0.7,0.3s0.5-0.1,0.7-0.3l7.6-7.6
		c0.6,0.4,1.3,0.6,2.1,0.6c2.3,0,4.1-1.8,4.1-4.1c0-0.8-0.2-1.5-0.6-2.1l7.6-7.6c0.4-0.4,0.4-1,0-1.4
		C219.3,179.9,218.6,179.9,218.3,180.2z M208.5,145.5c1.2,0,2.1,1,2.1,2.1c0,1.2-1,2.1-2.1,2.1s-2.1-1-2.1-2.1
		C206.4,146.4,207.4,145.5,208.5,145.5z M162.7,147.6c0-1.2,1-2.1,2.1-2.1s2.1,1,2.1,2.1c0,1.2-1,2.1-2.1,2.1
		S162.7,148.8,162.7,147.6z M164.8,193.5c-1.2,0-2.1-1-2.1-2.1c0-1.2,1-2.1,2.1-2.1s2.1,1,2.1,2.1C167,192.5,166,193.5,164.8,193.5z
		 M199.7,185.6l-3.9-3.9c-2.2-2.2-5.1-3.5-8.2-3.8v-5.3c0-0.5-0.4-1-1-1c-0.5,0-1,0.4-1,1v5.3c-3.1,0.2-6,1.5-8.2,3.8l-3.9,3.9
		c-0.4,0.4-0.9,0.6-1.5,0.6c-0.6,0-1.2-0.3-1.6-0.8c-0.7-0.8-0.6-2.2,0.2-3l3.8-3.8c2.2-2.2,3.5-5.1,3.8-8.2h5.3c0.5,0,1-0.4,1-1
		c0-0.5-0.4-1-1-1h-5.3c-0.2-3.1-1.5-6-3.8-8.2l-3.8-3.8c-0.8-0.8-0.9-2.2-0.2-3c0.4-0.5,1-0.8,1.6-0.8c0.6,0,1.1,0.2,1.5,0.6
		l3.9,3.9c2.2,2.2,5.1,3.5,8.2,3.8v5.3c0,0.5,0.4,1,1,1s1-0.4,1-1V161c3.1-0.2,6-1.5,8.2-3.8l3.9-3.9c0.4-0.4,0.9-0.6,1.5-0.6
		c0.6,0,1.2,0.3,1.6,0.8c0.7,0.8,0.6,2.2-0.2,3l-3.8,3.8c-2.2,2.2-3.5,5.1-3.8,8.2h-5.3c-0.5,0-1,0.4-1,1c0,0.5,0.4,1,1,1h5.3
		c0.2,3.1,1.5,6,3.8,8.2l3.8,3.8c0.8,0.8,0.9,2.2,0.2,3c-0.4,0.5-1,0.8-1.6,0.8C200.7,186.2,200.1,186,199.7,185.6z M208.5,193.5
		c-1.2,0-2.1-1-2.1-2.1c0-1.2,1-2.1,2.1-2.1s2.1,1,2.1,2.1C210.7,192.5,209.7,193.5,208.5,193.5z"/>
	<path class="st0" d="M208.5,190.4c-0.3,0-0.5,0.1-0.7,0.3c-0.2,0.2-0.3,0.4-0.3,0.7c0,0.3,0.1,0.5,0.3,0.7c0.2,0.2,0.4,0.3,0.7,0.3
		s0.5-0.1,0.7-0.3c0.2-0.2,0.3-0.4,0.3-0.7c0-0.3-0.1-0.5-0.3-0.7C209,190.5,208.8,190.4,208.5,190.4z"/>
	<path class="st0" d="M208.5,148.6c0.3,0,0.5-0.1,0.7-0.3c0.2-0.2,0.3-0.4,0.3-0.7c0-0.3-0.1-0.5-0.3-0.7c-0.2-0.2-0.4-0.3-0.7-0.3
		s-0.5,0.1-0.7,0.3c-0.2,0.2-0.3,0.4-0.3,0.7c0,0.3,0.1,0.5,0.3,0.7C208,148.5,208.3,148.6,208.5,148.6z"/>
	<path class="st0" d="M164.8,146.6c-0.3,0-0.5,0.1-0.7,0.3c-0.2,0.2-0.3,0.4-0.3,0.7c0,0.3,0.1,0.5,0.3,0.7c0.2,0.2,0.4,0.3,0.7,0.3
		c0.3,0,0.5-0.1,0.7-0.3c0.2-0.2,0.3-0.4,0.3-0.7c0-0.3-0.1-0.5-0.3-0.7C165.3,146.7,165.1,146.6,164.8,146.6z"/>
</g>
<g>
	<path class="st0" d="M104.1,141.3c0.2,0.7,0.5,1.4,0.8,2l-1,1.3c-0.3,0.4-0.3,1,0.1,1.4l1.7,1.7c0.4,0.4,1,0.4,1.4,0.1l1.3-1
		c0.7,0.4,1.3,0.7,2.1,0.9l0.2,1.6c0.1,0.5,0.5,0.9,1,0.9h2.5c0.5,0,1-0.4,1-0.9l0.2-1.6c0.8-0.2,1.5-0.5,2.2-0.9l1.2,1
		c0.4,0.3,1,0.3,1.4-0.1l1.7-1.7c0.4-0.4,0.4-1,0.1-1.4l-1-1.2c0.4-0.7,0.7-1.4,0.9-2.2l1.5-0.2c0.5-0.1,0.9-0.5,0.9-1v-2.5
		c0-0.5-0.4-1-0.9-1l-1.4-0.2c-0.2-0.8-0.5-1.5-0.9-2.1l0.9-1.1c0.3-0.4,0.3-1-0.1-1.4l-1.7-1.7c-0.4-0.4-1-0.4-1.4-0.1l-1.1,0.9
		c-0.7-0.4-1.5-0.7-2.3-0.9l-0.2-1.4c-0.1-0.5-0.5-0.9-1-0.9h-2.5c-0.5,0-1,0.4-1,0.9l-0.2,1.4c-0.8,0.2-1.6,0.5-2.3,1l-1.1-0.9
		c-0.4-0.3-1-0.3-1.4,0.1l-1.7,1.7c-0.4,0.4-0.4,1-0.1,1.4l0.9,1.2c-0.4,0.7-0.7,1.4-0.9,2.2l-1.5,0.2c-0.5,0.1-0.9,0.5-0.9,1v2.5
		c0,0.5,0.4,1,0.9,1L104.1,141.3z M113,134.7c2.2,0,4.1,1.8,4.1,4.1s-1.8,4.1-4.1,4.1c-2.2,0-4.1-1.8-4.1-4.1S110.7,134.7,113,134.7
		z"/>
	<path class="st0" d="M137.3,141.9l-1.3-1.1c-0.4-0.3-1-0.3-1.4,0l-0.7,0.7c-0.6-0.3-1.2-0.5-1.9-0.6l-0.2-1
		c-0.1-0.5-0.6-0.9-1.1-0.8l-1.7,0.1c-0.5,0-0.9,0.5-0.9,1l0,1c-0.7,0.2-1.3,0.6-1.8,1l-0.9-0.6c-0.4-0.3-1-0.2-1.4,0.2l-1.1,1.3
		c-0.3,0.4-0.3,1,0,1.4l0.7,0.8c-0.3,0.6-0.4,1.2-0.6,1.8l-1.1,0.2c-0.5,0.1-0.9,0.6-0.8,1.1l0.1,1.7c0,0.5,0.5,0.9,1,0.9l1.2,0
		c0.2,0.6,0.5,1.1,0.8,1.6l-0.6,1c-0.3,0.4-0.2,1,0.2,1.4l1.3,1.1c0.4,0.3,1,0.3,1.4,0l0.8-0.8c0.6,0.3,1.1,0.5,1.7,0.6l0.2,1.2
		c0.1,0.5,0.6,0.9,1.1,0.8l1.7-0.1c0.5,0,0.9-0.5,0.9-1l0-1.1c0.6-0.2,1.2-0.5,1.7-0.9l0.9,0.6c0.4,0.3,1,0.2,1.4-0.2l1.1-1.3
		c0.3-0.4,0.3-1,0-1.4l-0.8-0.8c0.3-0.6,0.5-1.2,0.6-1.8l1-0.2c0.5-0.1,0.9-0.6,0.8-1.1l-0.1-1.7c0-0.5-0.5-0.9-1-0.9l-1,0
		c-0.2-0.6-0.5-1.2-0.9-1.7l0.6-0.8C137.8,142.9,137.7,142.3,137.3,141.9z M130.9,151.7c-1.8,0.2-3.4-1.2-3.6-3
		c-0.2-1.8,1.2-3.4,3-3.6c1.8-0.2,3.4,1.2,3.6,3C134.1,150,132.7,151.6,130.9,151.7z"/>
	<path class="st0" d="M110,156.3c-0.5,0.1-0.9,0.5-0.9,1l0,1c0,0.5,0.4,1,0.9,1l0.8,0.1c0.1,0.5,0.3,0.9,0.5,1.3l-0.5,0.6
		c-0.3,0.4-0.3,1,0.1,1.4l0.7,0.7c0.4,0.4,1,0.4,1.4,0.1l0.6-0.5c0.4,0.3,0.9,0.5,1.4,0.6l0.1,0.8c0.1,0.5,0.5,0.9,1,0.9l1,0
		c0.5,0,1-0.4,1-0.9l0.1-0.7c0.5-0.1,1-0.3,1.5-0.6l0.6,0.5c0.4,0.3,1,0.3,1.4-0.1l0.7-0.7c0.4-0.4,0.4-1,0.1-1.4L122,161
		c0.3-0.5,0.5-0.9,0.6-1.4l0.7-0.1c0.5-0.1,0.9-0.5,0.9-1l0-1c0-0.5-0.4-1-0.9-1l-0.7-0.1c-0.1-0.5-0.3-1-0.6-1.4l0.4-0.5
		c0.3-0.4,0.3-1-0.1-1.4l-0.7-0.7c-0.4-0.4-1-0.4-1.4-0.1l-0.5,0.4c-0.5-0.3-1-0.5-1.5-0.7l-0.1-0.6c-0.1-0.5-0.5-0.9-1-0.9l-1,0
		c-0.5,0-1,0.4-1,0.9l-0.1,0.6c-0.5,0.1-1.1,0.4-1.6,0.6l-0.5-0.4c-0.4-0.3-1-0.3-1.4,0.1l-0.7,0.7c-0.4,0.4-0.4,1-0.1,1.4l0.4,0.6
		c-0.3,0.5-0.5,0.9-0.6,1.4L110,156.3z M116.7,155.1c1.5,0,2.7,1.2,2.7,2.7c0,1.5-1.2,2.7-2.7,2.7c-1.5,0-2.7-1.2-2.7-2.7
		C114,156.3,115.2,155.1,116.7,155.1z"/>
</g>
</svg>
