<?xml version="1.0" encoding="utf-8"?>
<!-- Generator: Adobe Illustrator 23.0.0, SVG Export Plug-In . SVG Version: 6.00 Build 0)  -->
<svg version="1.1" id="Layer_1" xmlns="http://www.w3.org/2000/svg" xmlns:xlink="http://www.w3.org/1999/xlink" x="0px" y="0px"
	 viewBox="0 0 512.5 512.5" style="enable-background:new 0 0 512.5 512.5;" xml:space="preserve">
<style type="text/css">
	.st0{display:none;fill:#FF757C;}
	.st1{display:none;}
	.st2{display:inline;fill:#666666;}
	.st3{display:none;fill:#F0B97D;}
	.st4{display:none;fill:#FED198;}
	.st5{display:none;fill:#FFBA1B;}
	.st6{display:none;fill:#807D7D;}
	.st7{display:inline;fill:#FFFFFF;}
	.st8{fill:#29ABE2;}
	.st9{fill:#FFFFFF;stroke:#29ABE2;stroke-width:0.75;stroke-miterlimit:10;}
	.st10{fill:#FFFFFF;stroke:#29ABE2;stroke-miterlimit:10;}
	.st11{fill-rule:evenodd;clip-rule:evenodd;fill:#FFFFFF;}
	.st12{fill-rule:evenodd;clip-rule:evenodd;fill:#29ABE2;}
</style>
<path class="st0" d="M256.3,512.5c141.2,0,256.3-115.1,256.3-256.3C512.5,115.1,397.4,0,256.3,0C115.1,0,0,115.1,0,256.3
	C0,397.4,115.1,512.5,256.3,512.5z"/>
<g class="st1">
	<path class="st2" d="M365.6,224.8l65.9,29.9l62-28.1l-65.9-29.9L365.6,224.8z"/>
	<path class="st2" d="M384,328.8c6.5-10.9,16.7-23.5,6.3-42.7c-15.3-66.7,55-80.2,65.7-52.7c17.3,6.5,16.8,42.4,7.9,61.2
		c-0.4,7.7-8.4,14.5,6.1,34.4l1-0.2h0C452.2,334.2,403.9,331.7,384,328.8L384,328.8z"/>
</g>
<path class="st3" d="M416.3,314.7c-0.6,11.9-4.9,16.5-10.8,19.6c-3,2.6-29.2,5.8-32.8,15.4c-1,2.7-4.6,112.2-7.2,138.4
	c52.5-24.8,95.3-67,120.8-119.1c-0.4-12.2-0.7-20.4-0.9-20.7c-6-9.3-30.6-11.3-33.3-13.6c-5.8-3.2-9.9-7.9-10.5-19.9
	c0,0-8.6,6.7-13.9,5.6C422.4,319.3,416.3,314.7,416.3,314.7L416.3,314.7z"/>
<path class="st4" d="M402.5,295.1c5.3,11.4,7.3,15.8,13.8,20.9c0,0,6.1,4.7,11.4,5.8c5.3,1,13.9-5.8,13.9-5.8
	c6.6-5.1,8.5-9.5,13.8-20.9c1.3,0.7,2.7,1.6,3.7,0.4c1.1-1.2,6.1-16.9,5.2-19c-0.9-2.1-1.8-0.8-3.1,0.2c0.1-0.5-1.1,5.7-1,4.7
	c0.1-7.4-5.1-8.6-6.7-28.2c-24,23.8-46.5,12.9-54.3,14.5c-2.3,0.5-2.9,6.3-2.5,9c-8.5-6.1,1.8,18.6,2,18.8
	C399.8,296.7,401.2,295.8,402.5,295.1L402.5,295.1z"/>
<path class="st5" d="M405.6,334.3c-9.9,4.2-25.4,4.3-33.1,14.5c-2,2.6-14.3,129.1-18.2,143.1c0.4,0.3,0.8,0.5,1.2,0.8
	C413.7,468.2,461,422.8,488,365.9c-1.3-10.5-2.2-17.4-2.4-17.7c-7.7-10.8-25.1-9.7-33.2-14l-22.5,46.1L405.6,334.3z"/>
<path class="st6" d="M393.1,227.8c17-11.4,58.3-10.9,73.4,0.6l1.6,19c-26.4-6.9-49.7-6.5-76.7,0.4L393.1,227.8z"/>
<g class="st1">
	<path class="st7" d="M416.2,354.4c7,2.5,18.9,2.5,26.3,0l-12.7,25.9L416.2,354.4L416.2,354.4z"/>
	<path class="st7" d="M380.4,218.3l0.1,32.4v1h-1.9v-1v-31.8C378.7,217.1,380.3,216.8,380.4,218.3L380.4,218.3z"/>
</g>
<path class="st5" d="M376,256.7c0,8.8-1.8,16.3-1.9,16.8c-0.1,0.5,1.7,2.2,2,0.5c0.3-1.7,0,0,1.5,0.1c1.5,0.1,1.9-0.7,1.9-0.7
	c0,0,0.3,0.8,1.9,0.7c1.6-0.1,1.2-1.8,1.5-0.1c0.3,1.7,2.1,0,2-0.5c-0.1-0.5-1.9-8-1.9-16.8c-0.1-3.4-1.4-4.9-3.5-5.4
	C377.4,251.7,376.1,253.3,376,256.7L376,256.7z"/>
<path class="st6" d="M379.5,251.2c3.4,0,3.5,2.2,3.4,4.2c-0.8-0.7-2-1.1-3.4-1.1c-1.4,0-2.6,0.4-3.4,1.1
	C376,253.1,376.1,251.2,379.5,251.2z"/>
<g class="st1">
	<path class="st2" d="M19.7,224.8l65.9,29.9l62-28.1l-65.9-29.9L19.7,224.8z"/>
	<path class="st2" d="M38.1,328.8c6.5-10.9,16.7-23.5,6.3-42.7c-15.3-66.7,55-80.2,65.7-52.7c17.3,6.5,16.8,42.4,7.9,61.2
		c-0.4,7.7-8.4,14.5,6.1,34.4l1-0.2h0C106.3,334.2,58,331.7,38.1,328.8L38.1,328.8z"/>
</g>
<path class="st3" d="M70.4,314.7c-0.6,11.9-4.9,16.5-10.8,19.6c-3,2.6-29.2,5.8-32.8,15.4c-0.2,0.7-0.6,7.8-1.2,18.5
	c25.2,51.7,67.2,93.7,118.9,118.8c-2.2-27-4.1-137.4-5-138.7c-6-9.3-30.6-11.3-33.3-13.6c-5.8-3.2-9.9-7.9-10.5-19.9
	c0,0-8.6,6.7-13.9,5.6C76.5,319.3,70.4,314.7,70.4,314.7L70.4,314.7L70.4,314.7z"/>
<path class="st4" d="M56.5,295.1c5.3,11.4,7.3,15.8,13.8,20.9c0,0,6.1,4.7,11.4,5.8c5.3,1,13.9-5.8,13.9-5.8
	c6.6-5.1,8.5-9.5,13.8-20.9c1.3,0.7,2.7,1.6,3.7,0.4c1.1-1.2,6.1-16.9,5.2-19c-0.9-2.1-1.8-0.8-3.1,0.2c0.1-0.5-1.1,5.7-1,4.7
	c0.1-7.4-5.1-8.6-6.7-28.2c-24,23.8-46.5,12.9-54.3,14.5c-2.3,0.5-2.9,6.3-2.5,9c-8.5-6.1,1.8,18.6,2,18.8
	C53.9,296.7,55.3,295.8,56.5,295.1z"/>
<path class="st5" d="M59.6,334.3c-9.9,4.2-25.4,4.3-33.1,14.5c-0.4,0.6-1.3,6.7-2.5,16c26.5,56.7,73.2,102,130.8,126.9
	c1.2-0.7,2.4-1.5,3.5-2.3c-3.8-13.8-17.8-139.9-18.7-141.1c-7.7-10.8-25.1-9.7-33.2-14l-22.5,46.1L59.6,334.3L59.6,334.3z"/>
<path class="st6" d="M47.1,227.8c17-11.4,58.3-10.9,73.4,0.6l1.6,19c-26.4-6.9-49.7-6.5-76.7,0.4L47.1,227.8z"/>
<g class="st1">
	<path class="st7" d="M70.3,354.4c7,2.5,18.9,2.5,26.3,0l-12.7,25.9L70.3,354.4z"/>
	<path class="st7" d="M34.5,218.3l0.1,32.4v1h-1.9v-1v-31.8C32.7,217.1,34.4,216.8,34.5,218.3z"/>
</g>
<path class="st5" d="M30.1,256.7c0,8.8-1.8,16.3-1.9,16.8c-0.1,0.5,1.7,2.2,2,0.5s0,0,1.5,0.1c1.5,0.1,1.9-0.7,1.9-0.7
	c0,0,0.3,0.8,1.9,0.7c1.6-0.1,1.2-1.8,1.5-0.1c0.3,1.7,2.1,0,2-0.5c-0.1-0.5-1.9-8-1.9-16.8c-0.1-3.4-1.4-4.9-3.5-5.4
	C31.5,251.7,30.2,253.3,30.1,256.7z"/>
<path class="st6" d="M33.6,251.2c3.4,0,3.5,2.2,3.4,4.2c-0.8-0.7-2-1.1-3.4-1.1s-2.6,0.4-3.4,1.1C30.1,253.1,30.1,251.2,33.6,251.2z
	"/>
<g>
	<g>
		<g>
			<path class="st8" d="M76.9,74.7l162.6,73.8l153-69.5L229.9,5.3L76.9,74.7z"/>
			<path class="st8" d="M122.2,331.4c16-26.9,41.2-58,15.6-105.4C100.2,61.3,273.7,28,299.9,95.9c42.7,16.1,41.6,104.7,19.6,151.1
				c-1,19.1-20.8,35.7,15,84.9l2.6-0.6l0,0C290.6,344.8,171.4,338.6,122.2,331.4L122.2,331.4L122.2,331.4z"/>
		</g>
		<path class="st9" d="M202,296.7c-1.6,29.5-12.1,40.6-26.6,48.4c-7.4,6.5-62.9,8.3-79.2,34.5c-1.8,2.9-14.5,49.4-20.7,82.9
			c44.4,28.4,97.2,44.8,153.9,44.8c58,0,112-17.3,157.1-46.9c-6-35-11.3-77.2-13.6-80.8c-17.1-27.7-75.5-28-82.3-33.7
			c-14.2-7.9-24.4-19.6-26-49.2c0,0-21.2,16.5-34.4,13.9C217,308.1,202,296.7,202,296.7z"/>
		<path class="st10" d="M167.8,248.3c13.1,28,17.9,39,34.2,51.5c0,0,15,11.6,28.2,14.2c13.2,2.6,34.4-14.2,34.4-14.2
			c16.2-12.6,21.1-23.5,34.2-51.5c3.2,1.7,6.6,4,9.2,1c2.6-3,15-41.7,12.8-47c-2.2-5.2-4.4-1.9-7.7,0.5c0.2-1.1-2.6,14-2.6,11.7
			c0.3-18.3-12.5-21.2-16.6-69.6c-59.3,58.8-114.7,31.8-134,35.8c-5.6,1.1-7.2,15.5-6.2,22.1c-20.9-14.9,4.5,45.9,5,46.5
			C161.3,252.4,164.6,250,167.8,248.3z"/>
		<path class="st8" d="M144.6,82.3c41.9-28.1,143.9-26.9,181.3,1.5l3.9,47c-65.2-17-122.7-16.2-189.4,1.1L144.6,82.3L144.6,82.3z"/>
		<path class="st8" d="M199.9,397.3c17.5,6.2,47.3,6.3,65.8,0l-31.7,64.8L199.9,397.3L199.9,397.3z"/>
		<path class="st8" d="M113.4,58.8l0.3,80v2.5h-4.8v-2.5V60.3C109.1,55.7,113.1,55.1,113.4,58.8z"/>
		<path class="st8" d="M102.5,153.4c0,21.6-4.5,40.2-4.8,41.5c-0.3,1.2,4.1,5.3,5,1.2c0.8-4.1-0.1,0.1,3.8,0.3
			c3.8,0.3,4.6-1.6,4.6-1.7c0,0.1,0.8,1.9,4.6,1.7c3.9-0.3,2.9-4.4,3.8-0.3c0.8,4.1,5.2,0,5-1.2c-0.3-1.2-4.8-19.9-4.8-41.5
			c-0.2-8.3-3.4-12.2-8.6-13.4C106,141.2,102.7,145.1,102.5,153.4z"/>
		<path class="st8" d="M111.1,140c8.5,0,8.7,5.4,8.3,10.4c-1.9-1.6-4.9-2.7-8.3-2.7c-3.4,0-6.4,1.1-8.3,2.7
			C102.5,144.6,102.6,140,111.1,140z"/>
		<path class="st8" d="M229.4,507.3c58,0,112.1-17.4,157.3-47.3c-5.5-45.8-9.6-78.9-10.3-79.9c-19.6-27.7-59.1-25.2-85.2-34.9
			L234,462l-61.2-116.4c-25.4,10.6-58.1,8.1-77.8,33.9c-0.9,1.2-14.3,53-19.8,82.5C119.7,490.6,172.7,507.3,229.4,507.3z"/>
	</g>
	<g>
		<rect x="300.9" y="317" class="st11" width="123.8" height="155.2"/>
		<path class="st12" d="M349.1,364.5c-2.2-1.1-4.7-2-7.3-2.6c-2.9-0.7-6-1-9.2-1c-3.2,0-6.3,0.4-9.2,1c-2.7,0.6-5.1,1.5-7.3,2.6v5.7
			h33.1V364.5z M332.6,337.9c2.1,0,3.9,0.9,5.3,2.4c1.4,1.5,2.2,3.5,2.2,5.7c0,2.2-0.8,4.3-2.2,5.7c-1.4,1.5-3.2,2.4-5.3,2.4
			c-2.1,0-3.9-0.9-5.3-2.4l-0.1-0.1c-1.3-1.5-2.1-3.5-2.1-5.6c0-2.2,0.8-4.3,2.2-5.7C328.6,338.8,330.5,337.9,332.6,337.9z
			 M316,361.2c2.1-1,4.4-1.7,6.8-2.3c3.1-0.7,6.4-1.1,9.8-1.1c3.4,0,6.7,0.4,9.8,1.1c2.4,0.6,4.7,1.3,6.8,2.3v-26.9H316V361.2z
			 M335.9,342.4c-0.9-0.9-2-1.5-3.3-1.5c-1.3,0-2.5,0.6-3.3,1.5c-0.9,0.9-1.4,2.2-1.4,3.6c0,1.4,0.5,2.6,1.3,3.6l0.1,0.1
			c0.9,0.9,2,1.5,3.3,1.5c1.3,0,2.5-0.6,3.3-1.5c0.9-0.9,1.4-2.2,1.4-3.6C337.3,344.6,336.8,343.3,335.9,342.4z M405.6,391.6h-85.5
			v9.8h85.5V391.6z M314.7,331.3h35.8c0.8,0,1.4,0.7,1.4,1.5v38.9c0,0.8-0.6,1.5-1.4,1.5h-35.8c-0.8,0-1.4-0.7-1.4-1.5v-8.1v0v-30.7
			C313.3,331.9,313.9,331.3,314.7,331.3z M318.7,388.7H407c0.8,0,1.4,0.7,1.4,1.5V403c0,0.8-0.6,1.5-1.4,1.5h-88.3
			c-0.8,0-1.4-0.7-1.4-1.5v-12.8C317.3,389.3,317.9,388.7,318.7,388.7z M417.8,465.8c-0.2,2.3-0.9,4.4-1.9,6.4h8.6V352.8h-31.6
			c-0.8,0-1.4-0.7-1.4-1.5V317h-90.3v155.2h89.5c-1-1.9-1.7-4.1-1.9-6.4v-0.1l0-0.2v0v0l0-0.1v-0.1v0l0-0.1v-0.1l0,0V465l0-0.1v0
			v-0.1v-0.1v0v0l0-0.1v-0.1v0v-0.1v-0.1c0-4.3,1.6-8.3,4.3-11.2c2.6-2.9,6.3-4.6,10.3-4.6c4,0,7.6,1.8,10.3,4.6
			c2.6,2.9,4.3,6.8,4.3,11.2v0.1v0.1v0v0.1v0.1v0v0v0.1l0,0.1v0v0.1l0,0.1l0,0v0.1v0.1v0l0,0.1v0.1l0,0v0L417.8,465.8L417.8,465.8z
			 M412.1,472.8L412.1,472.8L412.1,472.8L412.1,472.8l0.1-0.2l0,0l0,0l0,0l0,0l0.2-0.2v0l0.1-0.1l0,0l0.1-0.2l0,0l0,0l0-0.1
			c1.2-1.7,1.9-3.7,2.2-5.9v0v0l0-0.1l0-0.1l0,0v-0.1l0-0.1v0v-0.1l0-0.1v0l0,0v-0.1v0v0l0-0.1v-0.1v0l0-0.1V465l0,0v-0.1v-0.1l0,0
			v0v-0.1v0v0v-0.1v-0.1v0v-0.1v-0.1c0-3.5-1.3-6.7-3.4-9.1c-2.1-2.3-5.1-3.7-8.3-3.7c-3.2,0-6.2,1.4-8.3,3.7
			c-2.1,2.3-3.4,5.5-3.4,9.1v0.1v0.1v0v0.1v0.1v0l0,0v0.1v0v0v0.1v0.1l0,0l0,0.1v0.1v0l0,0.1v0.1v0l0,0v0.1v0l0,0v0.1l0,0.1v0v0.1
			l0,0.1l0,0l0,0.1v0.1l0,0v0c0.2,2.1,0.9,4,2,5.6l0,0l0,0l0.2,0.3l0,0l0,0.1l0.1,0.2h0l0,0l0,0.1v0l0,0l0,0.1l0,0l0,0l0,0l0,0l0,0
			l0,0l0,0l0,0c0.2,0.2,0.4,0.4,0.6,0.7c0.5,0.5,0.9,0.9,1.5,1.3l0,0h0l0,0l0,0l0,0l0.1,0l0,0l0,0l0,0l0,0h0l0,0l0,0l0,0l0,0l0,0
			l0,0l0,0l0,0l0,0l0,0l0,0l0,0c1.4,0.9,2.9,1.6,4.6,1.8l0,0l0.1,0l0,0l0.1,0h0l0.1,0h0.1h0l0,0h0.1h0.1h0l0.1,0h0.1h0l0,0h0.1h0.1
			h0l0,0h0.1h0h0h0.1l0.1,0h0h0h0.1h0h0h0.1h0.1h0l0,0h0.1h0.1h0.1h0.1l0,0h0h0.1h0.1l0,0h0.1h0.1h0h0l0.1,0h0.1h0h0h0.1l0.1,0l0,0
			h0.1h0.1l0,0h0h0.1l0.1,0h0h0h0.1l0,0h0h0.1l0.1,0h0l0,0l0.1,0l0,0l0.1,0h0.1l0,0c1.7-0.3,3.3-0.9,4.7-1.9h0l0.2-0.2v0l0,0
			l0.1-0.1l0,0l0,0l0,0c0.5-0.4,1.1-0.9,1.5-1.4C411.8,473.2,412,473,412.1,472.8z M409.5,478.6c-1.5,0.8-3.1,1.3-4.7,1.4l0,0
			l-0.4,0h-0.1h-0.1l-0.1,0h0h-0.1h-0.1l0,0h0h-0.1h-0.1l0,0l-0.1,0h-0.1h0h0h-0.1h-0.1h0h0h-0.1h-0.1h-0.1h-0.1h0h0H403h-0.1h0
			h-0.1h-0.1l-0.1,0h0h-0.1h-0.1h0l0,0h-0.1h-0.1h0l-0.1,0h-0.1h-0.1l-0.4,0h0c-1.7-0.2-3.3-0.7-4.7-1.4v1.6v0v0v10.4l6-4.4
			c0.5-0.4,1.2-0.4,1.7,0l4.8,4.1v-10.1v0v0V478.6z M318.3,417.5c-0.8,0-1.4-0.7-1.4-1.5c0-0.8,0.6-1.5,1.4-1.5h55.9
			c0.8,0,1.4,0.7,1.4,1.5c0,0.8-0.6,1.5-1.4,1.5H318.3z M318.3,429.5c-0.8,0-1.4-0.7-1.4-1.5c0-0.8,0.6-1.5,1.4-1.5h40.6
			c0.8,0,1.4,0.7,1.4,1.5c0,0.8-0.6,1.5-1.4,1.5H318.3z M318.3,441.5c-0.8,0-1.4-0.7-1.4-1.5c0-0.8,0.6-1.5,1.4-1.5h55.9
			c0.8,0,1.4,0.7,1.4,1.5c0,0.8-0.6,1.5-1.4,1.5H318.3z M318.3,452.1c-0.8,0-1.4-0.7-1.4-1.5c0-0.8,0.6-1.5,1.4-1.5h55.9
			c0.8,0,1.4,0.7,1.4,1.5c0,0.8-0.6,1.5-1.4,1.5H318.3z M404.2,457.6c-0.7,0.2-1.5-0.4-1.6-1.2c-0.2-0.8,0.3-1.6,1.1-1.7
			c0,0,7.2-1.4,8.1,6.9c0.1,0.8-0.5,1.6-1.2,1.7c-0.7,0.1-1.4-0.5-1.5-1.3C408.4,456.8,404.2,457.6,404.2,457.6z M388.7,480.2
			c0.8,0,1.4,0.7,1.4,1.5c0,0.8-0.6,1.5-1.4,1.5h-95.1c-0.8,0-1.4-0.7-1.4-1.5v-33c0-0.8,0.6-1.5,1.4-1.5c0.8,0,1.4,0.7,1.4,1.5
			v31.5H388.7z M430.7,448.7c0-0.8,0.6-1.5,1.4-1.5c0.8,0,1.4,0.7,1.4,1.5v33c0,0.8-0.6,1.5-1.4,1.5h-14.3c-0.8,0-1.4-0.7-1.4-1.5
			c0-0.8,0.6-1.5,1.4-1.5h13V448.7z M293.7,490.4c-0.8,0-1.4-0.7-1.4-1.5c0-0.8,0.6-1.5,1.4-1.5h94.2c0.8,0,1.4,0.7,1.4,1.5
			c0,0.8-0.6,1.5-1.4,1.5H293.7z M348.9,499.7c-0.8,0-1.4-0.7-1.4-1.5c0-0.8,0.6-1.5,1.4-1.5h65.2c0.8,0,1.4,0.7,1.4,1.5
			c0,0.8-0.6,1.5-1.4,1.5H348.9z M420.8,499.7c-0.8,0-1.4-0.7-1.4-1.5c0-0.8,0.6-1.5,1.4-1.5h8.2c0.8,0,1.4,0.7,1.4,1.5
			c0,0.8-0.6,1.5-1.4,1.5H420.8z M290,499.5c-0.8,0-1.4-0.7-1.4-1.5c0-0.8,0.6-1.5,1.4-1.5h30.9c0.8,0,1.4,0.7,1.4,1.5
			c0,0.8-0.6,1.5-1.4,1.5H290z M394.3,349.8h28.3L406,331.9h28.6v96.2c0,0.8,0.6,1.5,1.4,1.5c0.8,0,1.4-0.7,1.4-1.5v-97.7
			c0-0.8-0.6-1.5-1.4-1.5h-32.8l-9-9.8V349.8z"/>
	</g>
</g>
</svg>
