<svg xmlns="http://www.w3.org/2000/svg" xmlns:xlink="http://www.w3.org/1999/xlink" id="Layer_1" x="0" y="0" enable-background="new 0 0 360 360" version="1.1" viewBox="0 0 360 360" xml:space="preserve"><style type="text/css">.st0{clip-path:url(#SVGID_2_)}.st1{fill:#29abe2}.st2,.st3{fill:#fff;stroke:#29abe2;stroke-miterlimit:10}.st3{fill:none}.st4{fill:#fff}</style><g><g><defs><rect id="SVGID_1_" width="345" height="345" x="6" y="6"/></defs><clipPath id="SVGID_2_"><use overflow="visible" xlink:href="#SVGID_1_"/></clipPath><g class="st0"><g><g><g><g><g><path d="M21.4,143.7l26.1,3.2c0.7,0.1,1.3,0,2-0.2c0.8-0.3,1.6-0.8,2.1-1.5c1-1.2,1.3-2.9,0.8-4.4v-0.1 c-0.6-1.7-2.1-2.9-3.8-3.2l-16.3-2l12-11.2c1.3-1.2,1.8-3.1,1.2-4.8v-0.1c-0.5-1.5-1.7-2.7-3.2-3c-0.9-0.2-1.7-0.2-2.6,0.1 c-0.6,0.2-1.2,0.6-1.7,1l-19.2,17.9c-1.3,1.2-1.8,3.1-1.2,4.8l0.1,0.3C18.1,142.3,19.6,143.5,21.4,143.7z" class="st1"/></g></g><g><g><path d="M57.5,155.7c1.2,0.9,2.7,1.1,4.1,0.7h0.1c1.9-0.6,3.2-2.4,3.2-4.4l-0.1-51.1c0-1.5-0.7-2.9-1.9-3.7 c-1.2-0.9-2.7-1.1-4.1-0.7h-0.1c-1.9,0.6-3.2,2.4-3.2,4.4l0.1,51.1C55.5,153.4,56.3,154.8,57.5,155.7z" class="st1"/></g></g><g><g><path d="M68,112.3c0.6,1.7,2.1,2.9,3.8,3.2l16.3,2l-12,11.2c-1.3,1.2-1.8,3.1-1.2,4.8v0.1 c0.5,1.5,1.7,2.6,3.2,3c0.9,0.2,1.8,0.2,2.6-0.1c0.6-0.2,1.2-0.5,1.7-1l19.2-17.9c1.3-1.2,1.8-3.1,1.2-4.8l-0.1-0.3 c-0.6-1.7-2.1-2.9-3.8-3.2L73,106.1c-0.7-0.1-1.3,0-2,0.2c-0.8,0.3-1.6,0.8-2.1,1.5c-1,1.2-1.3,2.9-0.8,4.4L68,112.3 L68,112.3z" class="st1"/></g></g></g></g></g><g><ellipse cx="165.9" cy="196.9" class="st2" rx="87.3" ry="87.3"/><path d="M167,110.7c0,0-88.8,86-0.1,172.6" class="st2"/><path d="M166.6,110.7c0,0,86.6,86.5,0.1,174.2" class="st2"/><path d="M119.7,124.6c14.4,9,31.3,14.2,49.5,14.2c17.3,0,33.4-4.7,47.3-12.8c-14.1-9.6-31.2-15.2-49.5-15.2 C149.6,110.7,133.4,115.9,119.7,124.6z" class="st3"/><path d="M117.2,268.2c14.4-9,34.2-12,52.4-12c17.3,0,34.3,2.7,48.2,10.8c-14.1,9.6-32,17.2-50.3,17.2 C150,284.1,130.9,276.9,117.2,268.2z" class="st3"/><line x1="78" x2="253.3" y1="196.2" y2="196.2" class="st3"/><path d="M84.1,166.3c0,0,39.6,6.9,82.8,6.5c37.6-0.4,80.8-6.5,80.8-6.5" class="st2"/><path d="M84.1,226.5c0,0,39.6-6.9,82.8-6.5c37.6,0.4,80.8,6.5,80.8,6.5" class="st2"/></g><path d="M213.5,85.9c0-15.1-12.2-27.3-27.3-27.3s-27.3,12.2-27.3,27.3c0,0.7,0.1,1.4,0.1,2.1l0,0 c1.3,20.1,27.8,49.6,27.8,49.6c26.7-28.5,26.7-49.8,26.7-49.8l0,0C213.5,87.1,213.5,86.5,213.5,85.9z M186.3,101.5 c-8.9,0-16.2-7.3-16.2-16.2s7.2-16.2,16.2-16.2c8.9,0,16.2,7.2,16.2,16.2C202.5,94.2,195.3,101.5,186.3,101.5z" class="st1"/><g><path d="M276,159.1v-8.5l-16.1,9.3l-16.1,9.3l16.1,9.3l16.1,9.3V180c14.7,1.1,26.5,13.3,26.7,28.3 c0.2,15.7-12.1,28.7-27.8,29.3l0,0c21.4-0.7,38.4-18.4,38.1-39.9C312.7,177.1,296.4,160.3,276,159.1z" class="st1"/><path d="M241.9,245.5v7l13.7-7.7l13.7-7.7l-13.7-7.6l-13.7-7.6v6.4c-12.5-0.9-22.4-10.9-22.6-23.2 c-0.2-12.9,10.3-23.5,23.5-24l0,0c-18.1,0.6-32.5,15.1-32.3,32.8C210.8,230.8,224.6,244.5,241.9,245.5z" class="st1"/></g></g></g></g><g><rect width="83.6" height="68.1" x="66.7" y="214" class="st4"/><g><path d="M80.7,208.5c0-8.2,6.7-14.9,14.9-14.9c8.2,0,14.9,6.7,14.9,14.9s-6.7,14.9-14.9,14.9 C87.4,223.4,80.7,216.7,80.7,208.5z M102.8,233.5c0.1-3.2,1.3-6.3,3.1-8.7c-1.3-0.3-2.6-0.4-3.9-0.4H89.3c-1.3,0-2.6,0.1-3.9,0.4 c1.9,2.7,3.1,5.9,3.1,9.4c2.3-1.3,5-2,7.8-2C98.6,232.2,100.8,232.7,102.8,233.5z M105.3,234.9c4.3,2.7,7.4,7.3,7.9,12.6 c1.8,0.8,3.7,1.3,5.8,1.3c7.6,0,13.7-6.2,13.7-13.7c0-7.6-6.2-13.7-13.7-13.7C111.5,221.4,105.4,227.4,105.3,234.9z M96.3,263 c7.6,0,13.7-6.2,13.7-13.7c0-7.6-6.2-13.7-13.7-13.7c-7.6,0-13.7,6.2-13.7,13.7C82.6,256.9,88.7,263,96.3,263z M102.2,264H90.5 c-9.7,0-17.6,7.9-17.6,17.6v14.3l0,0.2l1,0.3c9.3,2.9,17.3,3.9,23.9,3.9c12.9,0,20.4-3.7,20.9-3.9l0.9-0.5h0.1v-14.3 C119.7,271.8,111.9,264,102.2,264z M124.9,249.8h-11.6c-0.1,4.6-2.1,8.8-5.2,11.8c8.6,2.6,14.9,10.6,14.9,20v4.4 c11.4-0.4,18-3.7,18.4-3.9l0.9-0.5h0.1v-14.3C142.5,257.7,134.6,249.8,124.9,249.8z M128,221.1c4.3,2.7,7.4,7.3,7.9,12.6 c1.8,0.8,3.7,1.3,5.8,1.3c7.6,0,13.7-6.2,13.7-13.7c0-7.6-6.2-13.7-13.7-13.7C134.2,207.5,128.1,213.6,128,221.1z M147.5,235.9 H136c-0.1,4.6-2.1,8.8-5.2,11.8c8.6,2.6,14.9,10.6,14.9,20v4.4c11.4-0.4,18-3.7,18.4-3.9l0.9-0.5h0.1v-14.3 C165.1,243.8,157.2,235.9,147.5,235.9z M72.2,248.8c2.7,0,5.2-0.8,7.3-2.1c0.7-4.4,3-8.2,6.4-10.8c0-0.3,0-0.5,0-0.8 c0-7.6-6.2-13.7-13.7-13.7c-7.6,0-13.7,6.2-13.7,13.7C58.5,242.7,64.6,248.8,72.2,248.8z M84.6,261.6c-3.1-3-5.1-7.1-5.2-11.7 c-0.4,0-0.9-0.1-1.3-0.1H66.4c-9.7,0-17.6,7.9-17.6,17.6v14.3l0,0.2l1,0.3c7.4,2.3,14.1,3.4,19.8,3.7v-4.3 C69.6,272.1,75.9,264.1,84.6,261.6z" class="st1"/></g></g></svg>