<svg xmlns="http://www.w3.org/2000/svg" xmlns:xlink="http://www.w3.org/1999/xlink" id="Layer_1" x="0" y="0" enable-background="new 0 0 589 589" version="1.1" viewBox="0 0 589 589" xml:space="preserve"><style type="text/css">.st0{clip-path:url(#SVGID_2_)}.st1{clip-path:url(#SVGID_4_)}.st2{opacity:.5}.st2,.st3{fill:#173d7a}.st4{fill:#396caa}.st5{fill:#274f89}.st6{fill:#d4ecff}.st7{fill:#fff}.st8{fill:#5793ce}.st9{fill:#ff2c9c}.st10{clip-path:url(#SVGID_4_)}.st10,.st11{opacity:.3}.st12{clip-path:url(#SVGID_6_)}.st13{fill:#79b1e0}.st14{fill:#d3008d}.st15{fill:#e573b5}.st16{clip-path:url(#SVGID_8_)}.st17{opacity:.5;clip-path:url(#SVGID_4_);fill:#173d7a}.st18{fill:#b70083}</style><g><defs><circle id="SVGID_1_" cx="294.5" cy="294.5" r="294.5"/></defs><use fill="#00748A" overflow="visible" xlink:href="#SVGID_1_"/><clipPath id="SVGID_2_"><use overflow="visible" xlink:href="#SVGID_1_"/></clipPath><g class="st0"><defs><rect id="SVGID_3_" width="499.5" height="449.9" x="44.9" y="70"/></defs><clipPath id="SVGID_4_"><use overflow="visible" xlink:href="#SVGID_3_"/></clipPath><g class="st1"><path d="M350.9,459l-167-99.8c-4.7-2.8-4.1-7.8,1.3-11l113.7-67.9c5.5-3.3,13.7-3.6,18.4-0.8l167,99.8 c4.7,2.8,4.1,7.8-1.3,11l-113.7,67.9C363.9,461.5,355.6,461.8,350.9,459z" class="st2"/><path d="M531.2,186.5L357.4,82.7c-2-1.2-4.1-1.4-5.9-0.7l0,0l-0.3,0.1c0,0-0.1,0-0.1,0l-6.3,2.5l5.6,2.9 c0,0.1-0.1,0.2-0.1,0.3l-28.3,133.3c-1.4,6.7,1.4,14.5,6.3,17.4L498,339.8l-0.6,7.4l6.9-2.8c2.3-1.1,4.2-3.6,4.9-7.2l28.3-133.3 C538.9,197.2,536.1,189.4,531.2,186.5z" class="st3"/><path d="M531.2,186.5L357.4,82.7c-2-1.2-4.1-1.4-5.9-0.7l0,0l-0.3,0.1c0,0-0.1,0-0.1,0l-6.3,2.5l5.6,2.9 c0,0.1-0.1,0.2-0.1,0.3l-18.7,87.9l85,68.5l119.9-50.5C535.5,190.6,533.6,188,531.2,186.5z" class="st4"/><path d="M524.6,207l13.2-5.8c0.2-5.3-1.9-10.8-5.4-13.7l-20.9,9.1L524.6,207z" class="st5"/><path d="M491.4,346.5L317.6,242.7c-4.9-2.9-7.8-10.7-6.3-17.4L339.6,92c1.4-6.7,6.6-9.7,11.5-6.8L524.8,189 c4.9,2.9,7.8,10.7,6.3,17.4l-28.3,133.3C501.4,346.4,496.3,349.4,491.4,346.5z" class="st6"/><path d="M526.5,188.4L352.7,84.6c-2.4-1.4-4.8-1.4-6.8-0.3c1.6-0.4,3.4-0.1,5.2,0.9L524.8,189 c4.9,2.9,7.8,10.7,6.3,17.4l-28.3,133.3c-0.7,3.4-2.5,5.9-4.6,7.1c2.9-0.7,5.4-3.4,6.3-7.7l28.3-133.3 C534.3,199.1,531.4,191.3,526.5,188.4z" class="st7"/><path d="M487.6,336.6L324.2,239c-4.5-2.7-7.1-9.8-5.8-15.9l25.9-122c1.3-6.1,6-8.9,10.5-6.2l163.5,97.6 c4.5,2.7,7.1,9.8,5.8,15.9l-25.9,122C496.8,336.5,492.1,339.3,487.6,336.6z" class="st7"/><path d="M487.6,336.6L324.2,239c-4.5-2.7-7.1-9.8-5.8-15.9l25.9-122c1.3-6.1,6-8.9,10.5-6.2l163.5,97.6 c4.5,2.7,7.1,9.8,5.8,15.9l-25.9,122C496.8,336.5,492.1,339.3,487.6,336.6z" class="st3"/><path d="M489.1,336l-163.5-97.6c-4.5-2.7-7.1-9.8-5.8-15.9l25.9-122c0.7-3.1,2.2-5.3,4.1-6.4c-2.6,0.7-4.7,3.2-5.5,7 l-25.9,122c-1.3,6.1,1.3,13.2,5.8,15.9l163.5,97.6c2.2,1.3,4.5,1.3,6.4,0.2C492.4,337.2,490.7,337,489.1,336z" class="st8"/><path d="M493.8,351l-23.8-3.2l-153.4-91.6c-4.9-2.9-13.5-2.6-19.2,0.8l-108.7,64.9l-14.4-2v8.4l0,0 c-0.1,1.9,1,3.8,3.3,5.2l173.8,103.8c4.9,2.9,13.5,2.6,19.2-0.8l118.3-70.7c3.2-1.9,4.8-4.4,4.7-6.7l0,0V351z" class="st3"/><path d="M378.6,293.1l-10.9-6.5H247.9l-59.1,35.2l-14.4-2v8.4l0,0c-0.1,1.9,1,3.8,3.3,5.2l173.8,103.8 c2.6,1.6,6.2,2.2,9.9,1.9L378.6,293.1z" class="st4"/><path d="M180.8,320.8l-6.4-0.9v8.4l0,0c-0.1,1.9,1,3.8,3.3,5.2l3.1,1.8V320.8z" class="st8"/><path d="M353.3,438.2c4.7,1.8,11.3,1.4,16.3-1v-18.8h-16.3V438.2z" class="st5"/><path d="M351.6,428.9L177.8,325.1c-4.9-2.9-4.3-8.1,1.4-11.5L297.5,243c5.7-3.4,14.3-3.8,19.2-0.8L490.5,346 c4.9,2.9,4.3,8.1-1.4,11.5l-118.3,70.7C365.1,431.5,356.5,431.9,351.6,428.9z" class="st6"/><path d="M489.1,354.4L370.8,425c-5.7,3.4-14.3,3.8-19.2,0.8L177.8,322.1c-1.6-1-2.6-2.2-3.1-3.5 c-0.8,2.4,0.2,4.8,3.1,6.5l173.8,103.8c4.9,2.9,13.5,2.6,19.2-0.8l118.3-70.7c3.8-2.3,5.3-5.3,4.4-8 C493,351.2,491.5,352.9,489.1,354.4z" class="st7"/><g><path d="M251.7,290.8l-7.9-4.7c-0.6-0.4-0.6-1,0.2-1.5l9.3-5.5c0.7-0.4,1.8-0.5,2.5-0.1l7.9,4.7 c0.6,0.4,0.6,1-0.2,1.5l-9.3,5.5C253.4,291.1,252.3,291.1,251.7,290.8z" class="st8"/><path d="M263.8,298l-7.9-4.7c-0.6-0.4-0.6-1,0.2-1.5l9.3-5.5c0.7-0.4,1.8-0.5,2.5-0.1l7.9,4.7 c0.6,0.4,0.6,1-0.2,1.5l-9.3,5.5C265.6,298.4,264.5,298.4,263.8,298z" class="st8"/><path d="M276,305.3l-7.9-4.7c-0.6-0.4-0.6-1,0.2-1.5l9.3-5.5c0.7-0.4,1.8-0.5,2.5-0.1l7.9,4.7 c0.6,0.4,0.6,1-0.2,1.5l-9.3,5.5C277.7,305.6,276.6,305.7,276,305.3z" class="st8"/><path d="M292.8,299.3l-7.9-4.7c-0.6-0.4-0.6-1,0.2-1.5l7.8-4.7c0.7-0.4,1.8-0.5,2.5-0.1l7.9,4.7 c0.6,0.4,0.6,1-0.2,1.5l-7.8,4.7C294.5,299.6,293.4,299.7,292.8,299.3z" class="st8"/><path d="M304.9,306.5l-7.9-4.7c-0.6-0.4-0.6-1,0.2-1.5l7.8-4.7c0.7-0.4,1.8-0.5,2.5-0.1l7.9,4.7 c0.6,0.4,0.6,1-0.2,1.5l-7.8,4.7C306.6,306.9,305.5,306.9,304.9,306.5z" class="st8"/><path d="M317.1,313.8l-7.9-4.7c-0.6-0.4-0.6-1,0.2-1.5l7.8-4.7c0.7-0.4,1.8-0.5,2.5-0.1l7.9,4.7 c0.6,0.4,0.6,1-0.2,1.5l-7.8,4.7C318.8,314.1,317.7,314.2,317.1,313.8z" class="st8"/><path d="M329.2,321l-7.9-4.7c-0.6-0.4-0.6-1,0.2-1.5l7.8-4.7c0.7-0.4,1.8-0.5,2.5-0.1l7.9,4.7 c0.6,0.4,0.6,1-0.2,1.5l-7.8,4.7C330.9,321.4,329.8,321.4,329.2,321z" class="st8"/><path d="M341.3,328.3l-7.9-4.7c-0.6-0.4-0.6-1,0.2-1.5l7.8-4.7c0.7-0.4,1.8-0.5,2.5-0.1l7.9,4.7 c0.6,0.4,0.6,1-0.2,1.5l-7.8,4.7C343.1,328.6,342,328.7,341.3,328.3z" class="st8"/><path d="M353.5,335.6l-7.9-4.7c-0.6-0.4-0.6-1,0.2-1.5l7.8-4.7c0.7-0.4,1.8-0.5,2.5-0.1l7.9,4.7 c0.6,0.4,0.6,1-0.2,1.5l-7.8,4.7C355.2,335.9,354.1,335.9,353.5,335.6z" class="st8"/><path d="M365.6,342.8l-7.9-4.7c-0.6-0.4-0.6-1,0.2-1.5l7.8-4.7c0.7-0.4,1.8-0.5,2.5-0.1l7.9,4.7 c0.6,0.4,0.6,1-0.2,1.5l-7.8,4.7C367.4,343.1,366.3,343.2,365.6,342.8z" class="st8"/><path d="M377.8,350.1l-7.9-4.7c-0.6-0.4-0.6-1,0.2-1.5l7.8-4.7c0.7-0.4,1.8-0.5,2.5-0.1l7.9,4.7 c0.6,0.4,0.6,1-0.2,1.5l-7.8,4.7C379.5,350.4,378.4,350.4,377.8,350.1z" class="st8"/><path d="M389.9,357.3l-7.9-4.7c-0.6-0.4-0.6-1,0.2-1.5l7.8-4.7c0.7-0.4,1.8-0.5,2.5-0.1l7.9,4.7 c0.6,0.4,0.6,1-0.2,1.5l-7.8,4.7C391.7,357.6,390.6,357.7,389.9,357.3z" class="st8"/><path d="M402.1,364.6l-7.9-4.7c-0.6-0.4-0.6-1,0.2-1.5l7.8-4.7c0.7-0.4,1.8-0.5,2.5-0.1l7.9,4.7 c0.6,0.4,0.6,1-0.2,1.5l-7.8,4.7C403.8,364.9,402.7,364.9,402.1,364.6z" class="st8"/><path d="M310.7,295.9l-7.9-4.7c-0.6-0.4-0.6-1,0.2-1.5l7.8-4.7c0.7-0.4,1.8-0.5,2.5-0.1l7.9,4.7 c0.6,0.4,0.6,1-0.2,1.5l-7.8,4.7C312.4,296.2,311.3,296.2,310.7,295.9z" class="st8"/><path d="M298.3,288.5l-7.9-4.7c-0.6-0.4-0.6-1,0.2-1.5l7.8-4.7c0.7-0.4,1.8-0.5,2.5-0.1l7.9,4.7 c0.6,0.4,0.6,1-0.2,1.5l-7.8,4.7C300.1,288.8,299,288.9,298.3,288.5z" class="st8"/><path d="M286,281.1L269.1,271c-0.6-0.4-0.6-1,0.2-1.5l7.8-4.7c0.7-0.4,1.8-0.5,2.5-0.1l16.9,10.1 c0.6,0.4,0.6,1-0.2,1.5l-7.8,4.7C287.7,281.4,286.6,281.5,286,281.1z" class="st8"/><path d="M294.6,272.2l-13.7-8.2c-0.6-0.4-0.6-1,0.2-1.5l7.8-4.7c0.7-0.4,1.8-0.5,2.5-0.1l13.7,8.2 c0.6,0.4,0.6,1-0.2,1.5l-7.8,4.7C296.4,272.5,295.3,272.5,294.6,272.2z" class="st8"/><path d="M322.8,303.1l-7.9-4.7c-0.6-0.4-0.6-1,0.2-1.5l7.8-4.7c0.7-0.4,1.8-0.5,2.5-0.1l7.9,4.7 c0.6,0.4,0.6,1-0.2,1.5l-7.8,4.7C324.5,303.4,323.4,303.5,322.8,303.1z" class="st8"/><path d="M335,310.4l-7.9-4.7c-0.6-0.4-0.6-1,0.2-1.5l7.8-4.7c0.7-0.4,1.8-0.5,2.5-0.1l7.9,4.7 c0.6,0.4,0.6,1-0.2,1.5l-7.8,4.7C336.7,310.7,335.6,310.7,335,310.4z" class="st8"/><path d="M347.1,317.6l-7.9-4.7c-0.6-0.4-0.6-1,0.2-1.5l7.8-4.7c0.7-0.4,1.8-0.5,2.5-0.1l7.9,4.7 c0.6,0.4,0.6,1-0.2,1.5l-7.8,4.7C348.8,317.9,347.7,318,347.1,317.6z" class="st8"/><path d="M359.2,324.9l-7.9-4.7c-0.6-0.4-0.6-1,0.2-1.5l7.8-4.7c0.7-0.4,1.8-0.5,2.5-0.1l7.9,4.7 c0.6,0.4,0.6,1-0.2,1.5l-7.8,4.7C361,325.2,359.9,325.2,359.2,324.9z" class="st8"/><path d="M371.4,332.1l-7.9-4.7c-0.6-0.4-0.6-1,0.2-1.5l7.8-4.7c0.7-0.4,1.8-0.5,2.5-0.1l7.9,4.7 c0.6,0.4,0.6,1-0.2,1.5l-7.8,4.7C373.1,332.4,372,332.5,371.4,332.1z" class="st8"/><path d="M383.5,339.4l-7.9-4.7c-0.6-0.4-0.6-1,0.2-1.5l7.8-4.7c0.7-0.4,1.8-0.5,2.5-0.1l7.9,4.7 c0.6,0.4,0.6,1-0.2,1.5l-7.8,4.7C385.3,339.7,384.2,339.7,383.5,339.4z" class="st8"/><path d="M395.7,346.6l-7.9-4.7c-0.6-0.4-0.6-1,0.2-1.5l7.8-4.7c0.7-0.4,1.8-0.5,2.5-0.1l7.9,4.7 c0.6,0.4,0.6,1-0.2,1.5l-7.8,4.7C397.4,347,396.3,347,395.7,346.6z" class="st8"/><path d="M407.8,353.9l-7.9-4.7c-0.6-0.4-0.6-1,0.2-1.5l7.8-4.7c0.7-0.4,1.8-0.5,2.5-0.1l7.9,4.7 c0.6,0.4,0.6,1-0.2,1.5l-7.8,4.7C409.6,354.2,408.5,354.3,407.8,353.9z" class="st8"/><path d="M420,361.1l-7.9-4.7c-0.6-0.4-0.6-1,0.2-1.5l7.8-4.7c0.7-0.4,1.8-0.5,2.5-0.1l7.9,4.7 c0.6,0.4,0.6,1-0.2,1.5l-7.8,4.7C421.7,361.5,420.6,361.5,420,361.1z" class="st8"/><path d="M441.6,374l-17.2-10.2c-0.6-0.4-0.6-1,0.2-1.5l7.8-4.7c0.7-0.4,1.8-0.5,2.5-0.1l17.2,10.2 c0.6,0.4,0.6,1-0.2,1.5l-7.8,4.7C443.3,374.4,442.2,374.4,441.6,374z" class="st8"/><path d="M465.2,359.9l-14.5-8.6c-0.6-0.4-0.6-1,0.2-1.5l7.8-4.7c0.7-0.4,1.8-0.5,2.5-0.1l14.5,8.6 c0.6,0.4,0.6,1-0.2,1.5l-7.8,4.7C466.9,360.2,465.8,360.3,465.2,359.9z" class="st8"/><path d="M344.1,301.7l-7.9-4.7c-0.6-0.4-0.6-1,0.2-1.5l7.8-4.7c0.7-0.4,1.8-0.5,2.5-0.1l7.9,4.7 c0.6,0.4,0.6,1-0.2,1.5l-7.8,4.7C345.8,302,344.7,302.1,344.1,301.7z" class="st8"/><path d="M331.6,294.3l-7.9-4.7c-0.6-0.4-0.6-1,0.2-1.5l7.8-4.7c0.7-0.4,1.8-0.5,2.5-0.1l7.9,4.7 c0.6,0.4,0.6,1-0.2,1.5l-7.8,4.7C333.4,294.6,332.3,294.6,331.6,294.3z" class="st8"/><path d="M319.2,286.8l-7.9-4.7c-0.6-0.4-0.6-1,0.2-1.5l7.8-4.7c0.7-0.4,1.8-0.5,2.5-0.1l7.9,4.7 c0.6,0.4,0.6,1-0.2,1.5l-7.8,4.7C320.9,287.1,319.8,287.2,319.2,286.8z" class="st8"/><path d="M306.7,279.4l-7.9-4.7c-0.6-0.4-0.6-1,0.2-1.5l7.8-4.7c0.7-0.4,1.8-0.5,2.5-0.1l7.9,4.7 c0.6,0.4,0.6,1-0.2,1.5l-7.8,4.7C308.5,279.7,307.4,279.8,306.7,279.4z" class="st8"/><path d="M356.2,308.9l-7.9-4.7c-0.6-0.4-0.6-1,0.2-1.5l7.8-4.7c0.7-0.4,1.8-0.5,2.5-0.1l7.9,4.7 c0.6,0.4,0.6,1-0.2,1.5l-7.8,4.7C358,309.3,356.9,309.3,356.2,308.9z" class="st8"/><path d="M368.4,316.2l-7.9-4.7c-0.6-0.4-0.6-1,0.2-1.5l7.8-4.7c0.7-0.4,1.8-0.5,2.5-0.1l7.9,4.7 c0.6,0.4,0.6,1-0.2,1.5l-7.8,4.7C370.1,316.5,369,316.6,368.4,316.2z" class="st8"/><path d="M380.5,323.4l-7.9-4.7c-0.6-0.4-0.6-1,0.2-1.5l7.8-4.7c0.7-0.4,1.8-0.5,2.5-0.1l7.9,4.7 c0.6,0.4,0.6,1-0.2,1.5l-7.8,4.7C382.2,323.8,381.1,323.8,380.5,323.4z" class="st8"/><path d="M392.7,330.7l-7.9-4.7c-0.6-0.4-0.6-1,0.2-1.5l7.8-4.7c0.7-0.4,1.8-0.5,2.5-0.1l7.9,4.7 c0.6,0.4,0.6,1-0.2,1.5l-7.8,4.7C394.4,331,393.3,331.1,392.7,330.7z" class="st8"/><path d="M404.8,338l-7.9-4.7c-0.6-0.4-0.6-1,0.2-1.5l7.8-4.7c0.7-0.4,1.8-0.5,2.5-0.1l7.9,4.7 c0.6,0.4,0.6,1-0.2,1.5l-7.8,4.7C406.5,338.3,405.4,338.3,404.8,338z" class="st8"/><path d="M416.9,345.2l-7.9-4.7c-0.6-0.4-0.6-1,0.2-1.5l7.8-4.7c0.7-0.4,1.8-0.5,2.5-0.1l7.9,4.7 c0.6,0.4,0.6,1-0.2,1.5l-7.8,4.7C418.7,345.5,417.6,345.6,416.9,345.2z" class="st8"/><path d="M429.1,352.5l-7.9-4.7c-0.6-0.4-0.6-1,0.2-1.5l7.8-4.7c0.7-0.4,1.8-0.5,2.5-0.1l7.9,4.7 c0.6,0.4,0.6,1-0.2,1.5l-7.8,4.7C430.8,352.8,429.7,352.8,429.1,352.5z" class="st8"/><path d="M441.2,359.7l-7.9-4.7c-0.6-0.4-0.6-1,0.2-1.5l7.8-4.7c0.7-0.4,1.8-0.5,2.5-0.1l7.9,4.7 c0.6,0.4,0.6,1-0.2,1.5l-7.8,4.7C443,360,441.9,360.1,441.2,359.7z" class="st8"/><path d="M453.4,367l-7.9-4.7c-0.6-0.4-0.6-1,0.2-1.5l7.8-4.7c0.7-0.4,1.8-0.5,2.5-0.1l7.9,4.7 c0.6,0.4,0.6,1-0.2,1.5l-7.8,4.7C455.1,367.3,454,367.3,453.4,367z" class="st8"/><path d="M337.7,283.7l-7.9-4.7c-0.6-0.4-0.6-1,0.2-1.5l7.8-4.7c0.7-0.4,1.8-0.5,2.5-0.1l7.9,4.7 c0.6,0.4,0.6,1-0.2,1.5l-7.8,4.7C339.4,284.1,338.3,284.1,337.7,283.7z" class="st8"/><path d="M325.6,276.5l-7.9-4.7c-0.6-0.4-0.6-1,0.2-1.5l7.8-4.7c0.7-0.4,1.8-0.5,2.5-0.1l7.9,4.7 c0.6,0.4,0.6,1-0.2,1.5l-7.8,4.7C327.3,276.9,326.2,276.9,325.6,276.5z" class="st8"/><path d="M313.5,269.3l-7.9-4.7c-0.6-0.4-0.6-1,0.2-1.5l7.8-4.7c0.7-0.4,1.8-0.5,2.5-0.1l7.9,4.7 c0.6,0.4,0.6,1-0.2,1.5l-7.8,4.7C315.2,269.6,314.1,269.7,313.5,269.3z" class="st8"/><path d="M301.4,262.1l-7.9-4.7c-0.6-0.4-0.6-1,0.2-1.5l7.8-4.7c0.7-0.4,1.8-0.5,2.5-0.1l7.9,4.7 c0.6,0.4,0.6,1-0.2,1.5l-7.8,4.7C303.2,262.4,302.1,262.5,301.4,262.1z" class="st8"/><path d="M313.9,254.7L306,250c-0.6-0.4-0.6-1,0.2-1.5l2.6-1.5c0.7-0.4,1.8-0.5,2.5-0.1l7.9,4.7 c0.6,0.4,0.6,1-0.2,1.5l-2.6,1.5C315.6,255,314.5,255.1,313.9,254.7z" class="st8"/><path d="M329.6,264.1l-7.9-4.7c-0.6-0.4-0.6-1,0.2-1.5l2.6-1.5c0.7-0.4,1.8-0.5,2.5-0.1l7.9,4.7 c0.6,0.4,0.6,1-0.2,1.5l-2.6,1.5C331.4,264.4,330.3,264.5,329.6,264.1z" class="st8"/><path d="M341.7,271.3l-7.9-4.7c-0.6-0.4-0.6-1,0.2-1.5l2.6-1.5c0.7-0.4,1.8-0.5,2.5-0.1l7.9,4.7 c0.6,0.4,0.6,1-0.2,1.5l-2.6,1.5C343.4,271.6,342.3,271.7,341.7,271.3z" class="st8"/><path d="M353.7,278.5l-7.9-4.7c-0.6-0.4-0.6-1,0.2-1.5l2.6-1.5c0.7-0.4,1.8-0.5,2.5-0.1l7.9,4.7 c0.6,0.4,0.6,1-0.2,1.5l-2.6,1.5C355.4,278.8,354.3,278.8,353.7,278.5z" class="st8"/><path d="M365.7,285.7l-7.9-4.7c-0.6-0.4-0.6-1,0.2-1.5l2.6-1.5c0.7-0.4,1.8-0.5,2.5-0.1l7.9,4.7 c0.6,0.4,0.6,1-0.2,1.5l-2.6,1.5C367.5,286,366.4,286,365.7,285.7z" class="st8"/><path d="M432.9,325.8l-7.9-4.7c-0.6-0.4-0.6-1,0.2-1.5l2.6-1.5c0.7-0.4,1.8-0.5,2.5-0.1l7.9,4.7 c0.6,0.4,0.6,1-0.2,1.5l-2.6,1.5C434.6,326.1,433.5,326.2,432.9,325.8z" class="st8"/><path d="M444.9,333l-7.9-4.7c-0.6-0.4-0.6-1,0.2-1.5l2.6-1.5c0.7-0.4,1.8-0.5,2.5-0.1l7.9,4.7 c0.6,0.4,0.6,1-0.2,1.5l-2.6,1.5C446.7,333.3,445.6,333.3,444.9,333z" class="st8"/><path d="M457,340.2l-7.9-4.7c-0.6-0.4-0.6-1,0.2-1.5l2.6-1.5c0.7-0.4,1.8-0.5,2.5-0.1l7.9,4.7 c0.6,0.4,0.6,1-0.2,1.5l-2.6,1.5C458.7,340.5,457.6,340.5,457,340.2z" class="st8"/><path d="M469,347.3l-7.9-4.7c-0.6-0.4-0.6-1,0.2-1.5l2.6-1.5c0.7-0.4,1.8-0.5,2.5-0.1l7.9,4.7 c0.6,0.4,0.6,1-0.2,1.5l-2.6,1.5C470.7,347.7,469.6,347.7,469,347.3z" class="st8"/><path d="M349.8,291l-7.9-4.7c-0.6-0.4-0.6-1,0.2-1.5l7.8-4.7c0.7-0.4,1.8-0.5,2.5-0.1l7.9,4.7 c0.6,0.4,0.6,1-0.2,1.5l-7.8,4.7C351.6,291.3,350.5,291.4,349.8,291z" class="st8"/><path d="M362,298.3l-7.9-4.7c-0.6-0.4-0.6-1,0.2-1.5l7.8-4.7c0.7-0.4,1.8-0.5,2.5-0.1l7.9,4.7 c0.6,0.4,0.6,1-0.2,1.5l-7.8,4.7C363.7,298.6,362.6,298.6,362,298.3z" class="st8"/><path d="M374.1,305.5l-7.9-4.7c-0.6-0.4-0.6-1,0.2-1.5l7.8-4.7c0.7-0.4,1.8-0.5,2.5-0.1l7.9,4.7 c0.6,0.4,0.6,1-0.2,1.5l-7.8,4.7C375.8,305.8,374.7,305.9,374.1,305.5z" class="st8"/><path d="M386.3,312.8l-7.9-4.7c-0.6-0.4-0.6-1,0.2-1.5l7.8-4.7c0.7-0.4,1.8-0.5,2.5-0.1l7.9,4.7 c0.6,0.4,0.6,1-0.2,1.5l-7.8,4.7C388,313.1,386.9,313.1,386.3,312.8z" class="st8"/><path d="M398.4,320l-7.9-4.7c-0.6-0.4-0.6-1,0.2-1.5l7.8-4.7c0.7-0.4,1.8-0.5,2.5-0.1l7.9,4.7 c0.6,0.4,0.6,1-0.2,1.5l-7.8,4.7C400.1,320.3,399,320.4,398.4,320z" class="st8"/><path d="M410.5,327.3l-7.9-4.7c-0.6-0.4-0.6-1,0.2-1.5l7.8-4.7c0.7-0.4,1.8-0.5,2.5-0.1l7.9,4.7 c0.6,0.4,0.6,1-0.2,1.5l-7.8,4.7C412.3,327.6,411.2,327.6,410.5,327.3z" class="st8"/><path d="M422.7,334.5l-7.9-4.7c-0.6-0.4-0.6-1,0.2-1.5l7.8-4.7c0.7-0.4,1.8-0.5,2.5-0.1l7.9,4.7 c0.6,0.4,0.6,1-0.2,1.5l-7.8,4.7C424.4,334.8,423.3,334.9,422.7,334.5z" class="st8"/><path d="M434.8,341.8l-7.9-4.7c-0.6-0.4-0.6-1,0.2-1.5l7.8-4.7c0.7-0.4,1.8-0.5,2.5-0.1l7.9,4.7 c0.6,0.4,0.6,1-0.2,1.5l-7.8,4.7C436.6,342.1,435.5,342.1,434.8,341.8z" class="st8"/><path d="M447,349l-7.9-4.7c-0.6-0.4-0.6-1,0.2-1.5l7.8-4.7c0.7-0.4,1.8-0.5,2.5-0.1l7.9,4.7c0.6,0.4,0.6,1-0.2,1.5 l-7.8,4.7C448.7,349.4,447.6,349.4,447,349z" class="st8"/><path d="M280.4,291.9l-23.2-13.8c-0.6-0.4-0.6-1,0.2-1.5l7.8-4.7c0.7-0.4,1.8-0.5,2.5-0.1l23.2,13.8 c0.6,0.4,0.6,1-0.2,1.5l-7.8,4.7C282.1,292.2,281,292.3,280.4,291.9z" class="st8"/><path d="M429.6,381l-23.2-13.8c-0.6-0.4-0.6-1,0.2-1.5l7.8-4.7c0.7-0.4,1.8-0.5,2.5-0.1l23.2,13.8 c0.6,0.4,0.6,1-0.2,1.5l-7.8,4.7C431.3,381.3,430.2,381.4,429.6,381z" class="st8"/><path d="M381,368l-7.9-4.7c-0.6-0.4-0.6-1,0.2-1.5l9.3-5.5c0.7-0.4,1.8-0.5,2.5-0.1l7.9,4.7c0.6,0.4,0.6,1-0.2,1.5 l-9.3,5.5C382.8,368.3,381.7,368.4,381,368z" class="st8"/><path d="M292.8,315.3l-12.6-7.5c-0.6-0.4-0.6-1,0.2-1.5l9.3-5.5c0.7-0.4,1.8-0.5,2.5-0.1l12.6,7.5 c0.6,0.4,0.6,1-0.2,1.5l-9.3,5.5C294.6,315.7,293.5,315.7,292.8,315.3z" class="st8"/><path d="M369.3,361l-12.6-7.5c-0.6-0.4-0.6-1,0.2-1.5l9.3-5.5c0.7-0.4,1.8-0.5,2.5-0.1l12.6,7.5 c0.6,0.4,0.6,1-0.2,1.5l-9.3,5.5C371.1,361.4,370,361.4,369.3,361z" class="st8"/><path d="M310.4,325.8l-12.6-7.5c-0.6-0.4-0.6-1,0.2-1.5l9.3-5.5c0.7-0.4,1.8-0.5,2.5-0.1l12.6,7.5 c0.6,0.4,0.6,1-0.2,1.5l-9.3,5.5C312.1,326.1,311,326.2,310.4,325.8z" class="st8"/><path d="M309.8,311.2l54.7,32.7c0.7,0.4,0.7,1.1,0,1.5L355,351c-0.7,0.4-1.8,0.4-2.5,0l-54.7-32.7L309.8,311.2z" class="st8"/><path d="M415,381.2l8.8,5.2c0.5,0.3,0.5,0.8-0.1,1.2l-3.8,2.3c-0.6,0.4-1.5,0.4-2,0.1l-8.8-5.2 c-0.5-0.3-0.5-0.8,0.1-1.2l3.8-2.3C413.5,380.9,414.4,380.9,415,381.2z" class="st8"/><path d="M402.7,373.9l8.8,5.2c0.5,0.3,0.5,0.8-0.1,1.2l-3.8,2.3c-0.6,0.4-1.5,0.4-2,0.1l-8.8-5.2 c-0.5-0.3-0.5-0.8,0.1-1.2l3.8-2.3C401.3,373.6,402.2,373.5,402.7,373.9z" class="st8"/><path d="M390.6,366.6l8.8,5.2c0.5,0.3,0.5,0.8-0.1,1.2l-3.8,2.3c-0.6,0.4-1.5,0.4-2,0.1l-8.8-5.2 c-0.5-0.3-0.5-0.8,0.1-1.2l3.8-2.3C389.2,366.3,390.1,366.3,390.6,366.6z" class="st8"/><path d="M409.4,369.8l8.8,5.2c0.5,0.3,0.5,0.8-0.1,1.2l-3.8,2.3c-0.6,0.4-1.5,0.4-2,0.1l-8.8-5.2 c-0.5-0.3-0.5-0.8,0.1-1.2l3.8-2.3C408,369.6,408.9,369.5,409.4,369.8z" class="st8"/></g><g><polygon points="457.4 228.3 392 189.3 392.8 184.9 458.2 223.9" class="st6"/><polygon points="434 235.7 388.3 208.5 389.1 204.1 434.8 231.3" class="st6"/><polygon points="429.6 222.5 390.1 198.9 391 194.5 430.5 218.1" class="st7"/><polygon points="455.6 237.9 435.8 226.1 436.7 221.7 456.4 233.5" class="st9"/><polygon points="385 150.9 365.3 139.1 366.1 134.7 385.9 146.5" class="st6"/><polygon points="382.9 161.1 363.1 149.3 364 144.9 383.7 156.7" class="st7"/><polygon points="479.8 302.9 460.1 291.1 460.9 286.7 480.7 298.5" class="st6"/><polygon points="378.6 181.5 358.8 169.7 359.7 165.3 379.4 177.1" class="st6"/></g><g><path d="M421.3,184.7c-0.6,1.4-2.2,1.9-3.6,1.1c-1.3-0.8-1.9-2.6-1.3-4c0.6-1.4,2.2-1.9,3.6-1.1 C421.3,181.5,421.9,183.3,421.3,184.7z" class="st9"/><path d="M429.8,189.8c-0.6,1.4-2.2,1.9-3.6,1.1s-1.9-2.6-1.3-4c0.6-1.4,2.2-1.9,3.6-1.1 C429.8,186.6,430.4,188.4,429.8,189.8z" class="st7"/><path d="M438.3,194.9c-0.6,1.4-2.2,1.9-3.6,1.1c-1.3-0.8-1.9-2.6-1.3-4c0.6-1.4,2.2-1.9,3.6-1.1 C438.3,191.7,438.9,193.5,438.3,194.9z" class="st6"/><path d="M446.8,200c-0.6,1.4-2.2,1.9-3.6,1.1s-1.9-2.6-1.3-4c0.6-1.4,2.2-1.9,3.6-1.1 C446.8,196.7,447.4,198.5,446.8,200z" class="st9"/></g><path d="M305.4,383.1l-54.2-32.4c-1.6-0.9-1.4-2.6,0.4-3.7l32.7-19.5c1.8-1.1,4.6-1.2,6.2-0.3l54.2,32.4 c1.6,0.9,1.4,2.6-0.4,3.7l-32.7,19.5C309.7,383.9,307,384,305.4,383.1z" class="st7"/></g><g class="st10"><defs><path id="SVGID_5_" d="M452.6,304.7l26.6-112.3l-100.5-61.6l58-27.7l74.6,29.8c0,0,0.5,136,0,137.4 s-27.6,47-27.6,47L452.6,304.7z" class="st11"/></defs><clipPath id="SVGID_6_"><use overflow="visible" xlink:href="#SVGID_5_"/></clipPath><g class="st12"><g><g><path d="M423.1,237.2c3.7,2.2,3.7,5.9,0,8.1l-63.5,37.9c-1,0.6-2.7,0.6-3.7,0c-1-0.6-1-1.6,0-2.2l63.5-37.9 c1.7-1,1.7-2.6,0-3.6l-6.2-3.7c0.7-1.1,1.3-2.2,1.9-3.3L423.1,237.2z" class="st6"/><path d="M333.1,267.4l63.5-37.9c3.7-2.2,9.8-2.2,13.5,0l4.9,2.9c-0.6,1.1-1.2,2.2-1.9,3.3l-6.7-4 c-1.7-1-4.4-1-6.1,0l-63.5,37.9c-1,0.6-2.7,0.6-3.7,0C332.1,269,332.1,268.1,333.1,267.4z" class="st8"/></g><polygon points="332.4 268.6 332.4 176.3 398.9 137.9 408.2 137.3 417.2 143.3 422.7 148.3 357.9 254.6 336.7 267.5" class="st8"/><polygon points="357 280.3 337.1 268.4 337.1 179.2 357.6 189" class="st13"/><polygon points="425.9 149 425.9 241.2 356 282.5 355.1 282.1 355.1 189.8" class="st6"/><g><path d="M386.6,149.7l13.9-8.3c1.7-0.8,4.2-0.8,5.7,0.2l12.9,7.7c1,0.6,1.4,1.4,1.2,2.2l-35.1,21.7L357,191.1 l-20-12L386.6,149.7z" class="st7"/></g><path d="M357.6,188.3V280v1.9v1.8c-0.6,0-1.3-0.2-1.7-0.5c-0.5-0.3-0.8-0.7-0.8-1.1l0,0v0v0v-92.3L357.6,188.3z" class="st8"/><polygon points="332.4 177.4 332.4 176.3 332.7 176.3 332.8 177" class="st7"/><polygon points="355.1 191 355.1 189.8 355.4 190.3" class="st7"/><g><path d="M359.6,190.9l63.5-37.9c3.7-2.2,3.7-5.9,0-8.1l-12.9-7.7c-3.7-2.2-9.8-2.2-13.5,0l-63.5,37.9 c-1,0.6-1,1.6,0,2.2c1,0.6,2.7,0.6,3.7,0l63.5-37.9c1.7-1,4.4-1,6.1,0l12.9,7.7c1.7,1,1.7,2.6,0,3.6l-63.5,37.9 c-1,0.6-1,1.6,0,2.2C356.9,191.5,358.5,191.5,359.6,190.9z" class="st6"/></g><polygon points="376.1 234.6 409.1 214.9 409.1 180.7 376.1 200.4" class="st7"/><g><path d="M333.1,177.3c1,0.6,2.7,0.6,3.7,0l63.5-37.9c1.7-1,4.4-1,6.1,0l12.9,7.7c1.1,0.7,1.5,1.6,1.1,2.4 c-0.2-0.4-0.6-0.9-1.1-1.2l-12.9-7.7c-1.7-1-4.4-1-6.1,0l-63.5,37.9c-1,0.6-2.7,0.6-3.7,0c-0.8-0.5-1-1.1-0.6-1.7 C332.7,177,332.9,177.2,333.1,177.3z" class="st7"/><path d="M355.8,190.9c1,0.6,2.7,0.6,3.7,0l63.5-37.9c1.6-1,2.5-2.2,2.7-3.4c0.3,1.7-0.6,3.4-2.7,4.7l-63.5,37.9 c-1,0.6-2.7,0.6-3.7,0c-0.8-0.5-1-1.1-0.6-1.7C355.4,190.6,355.6,190.7,355.8,190.9z" class="st7"/></g></g><g><g><path d="M452.3,255.1c3.7,2.2,3.7,5.9,0,8.1l-63.5,37.9c-1,0.6-2.7,0.6-3.7,0c-1-0.6-1-1.6,0-2.2l63.5-37.9 c1.7-1,1.7-2.6,0-3.6l-6.2-3.7c0.7-1.1,1.3-2.2,1.9-3.3L452.3,255.1z" class="st9"/><path d="M362.3,285.3l63.5-37.9c3.7-2.2,9.8-2.2,13.5,0l4.9,2.9c-0.6,1.1-1.2,2.2-1.9,3.3l-6.7-4 c-1.7-1-4.4-1-6.1,0L366,287.5c-1,0.6-2.7,0.6-3.7,0C361.3,286.9,361.3,285.9,362.3,285.3z" class="st14"/></g><polygon points="361.6 286.5 361.5 194.1 428.1 155.8 437.4 155.1 446.4 161.2 451.9 166.1 387.1 272.5 365.9 285.4" class="st14"/><polygon points="386.2 298.2 366.3 286.3 366.3 197 386.8 206.9" class="st15"/><polygon points="455.1 166.9 455.1 259.1 385.2 300.4 384.3 300 384.3 207.7" class="st9"/><g><path d="M415.8,167.6l13.9-8.3c1.7-0.8,4.2-0.8,5.7,0.2l12.9,7.7c1,0.6,1.4,1.4,1.2,2.2l-35.1,21.7L386.2,209 l-20-12L415.8,167.6z" class="st7"/></g><path d="M386.8,206.2v91.6v1.9v1.8c-0.6,0-1.3-0.2-1.7-0.5c-0.5-0.3-0.8-0.7-0.8-1.1l0,0v0v0v-92.3L386.8,206.2z" class="st14"/><polygon points="361.5 195.3 361.5 194.1 361.9 194.1 362 194.9" class="st7"/><polygon points="384.3 208.9 384.3 207.7 384.6 208.2" class="st7"/><g><path d="M388.8,208.8l63.5-37.9c3.7-2.2,3.7-5.9,0-8.1l-12.9-7.7c-3.7-2.2-9.8-2.2-13.5,0L362.3,193 c-1,0.6-1,1.6,0,2.2c1,0.6,2.7,0.6,3.7,0l63.5-37.9c1.7-1,4.4-1,6.1,0l12.9,7.7c1.7,1,1.7,2.6,0,3.6L385,206.5 c-1,0.6-1,1.6,0,2.2C386.1,209.4,387.7,209.4,388.8,208.8z" class="st9"/></g><polygon points="405.3 252.5 438.3 232.8 438.3 198.6 405.3 218.3" class="st7"/><g><path d="M362.3,195.2c1,0.6,2.7,0.6,3.7,0l63.5-37.9c1.7-1,4.4-1,6.1,0l12.9,7.7c1.1,0.7,1.5,1.6,1.1,2.4 c-0.2-0.4-0.6-0.9-1.1-1.2l-12.9-7.7c-1.7-1-4.4-1-6.1,0L366,196.4c-1,0.6-2.7,0.6-3.7,0c-0.8-0.5-1-1.1-0.6-1.7 C361.9,194.9,362.1,195,362.3,195.2z" class="st7"/><path d="M385,208.8c1,0.6,2.7,0.6,3.7,0l63.5-37.9c1.6-1,2.5-2.2,2.7-3.4c0.3,1.7-0.6,3.4-2.7,4.7L388.8,210 c-1,0.6-2.7,0.6-3.7,0c-0.8-0.5-1-1.1-0.6-1.7C384.6,208.4,384.8,208.6,385,208.8z" class="st7"/></g></g><g><g><path d="M482.2,274.2c3.7,2.2,3.7,5.9,0,8.1l-63.5,37.9c-1,0.6-2.7,0.6-3.7,0c-1-0.6-1-1.6,0-2.2l63.5-37.9 c1.7-1,1.7-2.6,0-3.6l-6.2-3.7c0.7-1.1,1.3-2.2,1.9-3.3L482.2,274.2z" class="st6"/><path d="M392.3,304.4l63.5-37.9c3.7-2.2,9.8-2.2,13.5,0l4.9,2.9c-0.6,1.1-1.2,2.2-1.9,3.3l-6.7-4 c-1.7-1-4.4-1-6.1,0L396,306.6c-1,0.6-2.7,0.6-3.7,0C391.3,306,391.3,305,392.3,304.4z" class="st8"/></g><polygon points="391.6 305.6 391.5 213.3 458.1 174.9 467.4 174.2 476.4 180.3 481.9 185.2 417.1 291.6 395.9 304.5" class="st8"/><polygon points="416.2 317.3 396.3 305.4 396.3 216.1 416.8 226" class="st13"/><polygon points="485 186 485 278.2 415.2 319.5 414.3 319.1 414.3 226.8" class="st6"/><g><path d="M445.8,186.7l13.9-8.3c1.7-0.8,4.2-0.8,5.7,0.2l12.9,7.7c1,0.6,1.4,1.4,1.2,2.2l-35.1,21.7l-28.2,17.9 l-20-12L445.8,186.7z" class="st7"/></g><path d="M416.8,225.3v91.6v1.9v1.8c-0.6,0-1.3-0.2-1.7-0.5c-0.5-0.3-0.8-0.7-0.8-1.1l0,0v0v0v-92.3L416.8,225.3z" class="st8"/><polygon points="391.5 214.4 391.5 213.3 391.9 213.3 392 214" class="st7"/><polygon points="414.3 228 414.3 226.8 414.6 227.3" class="st7"/><g><path d="M418.7,227.9l63.5-37.9c3.7-2.2,3.7-5.9,0-8.1l-12.9-7.7c-3.7-2.2-9.8-2.2-13.5,0l-63.5,37.9 c-1,0.6-1,1.6,0,2.2c1,0.6,2.7,0.6,3.7,0l63.5-37.9c1.7-1,4.4-1,6.1,0l12.9,7.7c1.7,1,1.7,2.6,0,3.6L415,225.6 c-1,0.6-1,1.6,0,2.2C416.1,228.5,417.7,228.5,418.7,227.9z" class="st6"/></g><polygon points="435.3 271.6 468.3 251.9 468.3 217.7 435.3 237.4" class="st7"/><g><path d="M392.3,214.3c1,0.6,2.7,0.6,3.7,0l63.5-37.9c1.7-1,4.4-1,6.1,0l12.9,7.7c1.1,0.7,1.5,1.6,1.1,2.4 c-0.2-0.4-0.6-0.9-1.1-1.2l-12.9-7.7c-1.7-1-4.4-1-6.1,0L396,215.5c-1,0.6-2.7,0.6-3.7,0c-0.8-0.5-1-1.1-0.6-1.7 C391.9,214,392.1,214.2,392.3,214.3z" class="st7"/><path d="M415,227.9c1,0.6,2.7,0.6,3.7,0l63.5-37.9c1.6-1,2.5-2.2,2.7-3.4c0.3,1.7-0.6,3.4-2.7,4.7l-63.5,37.9 c-1,0.6-2.7,0.6-3.7,0c-0.8-0.5-1-1.1-0.6-1.7C414.6,227.5,414.8,227.7,415,227.9z" class="st7"/></g></g></g></g><g class="st1"><defs><path id="SVGID_7_" d="M452.6,304.7l26.6-112.3l-100.5-61.6l-122.6,47.1l94,126.9c0,0,77.6,45.8,77.2,47.1 c-0.5,1.4,56.3-34.7,56.3-34.7L452.6,304.7z"/></defs><clipPath id="SVGID_8_"><use overflow="visible" xlink:href="#SVGID_7_"/></clipPath><g class="st16"><g><g><path d="M423.1,237.2c3.7,2.2,3.7,5.9,0,8.1l-63.5,37.9c-1,0.6-2.7,0.6-3.7,0c-1-0.6-1-1.6,0-2.2l63.5-37.9 c1.7-1,1.7-2.6,0-3.6l-6.2-3.7c0.7-1.1,1.3-2.2,1.9-3.3L423.1,237.2z" class="st6"/><path d="M333.1,267.4l63.5-37.9c3.7-2.2,9.8-2.2,13.5,0l4.9,2.9c-0.6,1.1-1.2,2.2-1.9,3.3l-6.7-4 c-1.7-1-4.4-1-6.1,0l-63.5,37.9c-1,0.6-2.7,0.6-3.7,0C332.1,269,332.1,268.1,333.1,267.4z" class="st8"/></g><polygon points="332.4 268.6 332.4 176.3 398.9 137.9 408.2 137.3 417.2 143.3 422.7 148.3 357.9 254.6 336.7 267.5" class="st8"/><polygon points="357 280.3 337.1 268.4 337.1 179.2 357.6 189" class="st13"/><polygon points="425.9 149 425.9 241.2 356 282.5 355.1 282.1 355.1 189.8" class="st6"/><g><path d="M386.6,149.7l13.9-8.3c1.7-0.8,4.2-0.8,5.7,0.2l12.9,7.7c1,0.6,1.4,1.4,1.2,2.2l-35.1,21.7L357,191.1 l-20-12L386.6,149.7z" class="st7"/></g><path d="M357.6,188.3V280v1.9v1.8c-0.6,0-1.3-0.2-1.7-0.5c-0.5-0.3-0.8-0.7-0.8-1.1l0,0v0v0v-92.3L357.6,188.3z" class="st8"/><polygon points="332.4 177.4 332.4 176.3 332.7 176.3 332.8 177" class="st7"/><polygon points="355.1 191 355.1 189.8 355.4 190.3" class="st7"/><g><path d="M359.6,190.9l63.5-37.9c3.7-2.2,3.7-5.9,0-8.1l-12.9-7.7c-3.7-2.2-9.8-2.2-13.5,0l-63.5,37.9 c-1,0.6-1,1.6,0,2.2c1,0.6,2.7,0.6,3.7,0l63.5-37.9c1.7-1,4.4-1,6.1,0l12.9,7.7c1.7,1,1.7,2.6,0,3.6l-63.5,37.9 c-1,0.6-1,1.6,0,2.2C356.9,191.5,358.5,191.5,359.6,190.9z" class="st6"/></g><polygon points="376.1 234.6 409.1 214.9 409.1 180.7 376.1 200.4" class="st7"/><g><path d="M333.1,177.3c1,0.6,2.7,0.6,3.7,0l63.5-37.9c1.7-1,4.4-1,6.1,0l12.9,7.7c1.1,0.7,1.5,1.6,1.1,2.4 c-0.2-0.4-0.6-0.9-1.1-1.2l-12.9-7.7c-1.7-1-4.4-1-6.1,0l-63.5,37.9c-1,0.6-2.7,0.6-3.7,0c-0.8-0.5-1-1.1-0.6-1.7 C332.7,177,332.9,177.2,333.1,177.3z" class="st7"/><path d="M355.8,190.9c1,0.6,2.7,0.6,3.7,0l63.5-37.9c1.6-1,2.5-2.2,2.7-3.4c0.3,1.7-0.6,3.4-2.7,4.7l-63.5,37.9 c-1,0.6-2.7,0.6-3.7,0c-0.8-0.5-1-1.1-0.6-1.7C355.4,190.6,355.6,190.7,355.8,190.9z" class="st7"/></g></g><g><g><path d="M452.3,255.1c3.7,2.2,3.7,5.9,0,8.1l-63.5,37.9c-1,0.6-2.7,0.6-3.7,0c-1-0.6-1-1.6,0-2.2l63.5-37.9 c1.7-1,1.7-2.6,0-3.6l-6.2-3.7c0.7-1.1,1.3-2.2,1.9-3.3L452.3,255.1z" class="st9"/><path d="M362.3,285.3l63.5-37.9c3.7-2.2,9.8-2.2,13.5,0l4.9,2.9c-0.6,1.1-1.2,2.2-1.9,3.3l-6.7-4 c-1.7-1-4.4-1-6.1,0L366,287.5c-1,0.6-2.7,0.6-3.7,0C361.3,286.9,361.3,285.9,362.3,285.3z" class="st14"/></g><polygon points="361.6 286.5 361.5 194.1 428.1 155.8 437.4 155.1 446.4 161.2 451.9 166.1 387.1 272.5 365.9 285.4" class="st14"/><polygon points="386.2 298.2 366.3 286.3 366.3 197 386.8 206.9" class="st15"/><polygon points="455.1 166.9 455.1 259.1 385.2 300.4 384.3 300 384.3 207.7" class="st9"/><g><path d="M415.8,167.6l13.9-8.3c1.7-0.8,4.2-0.8,5.7,0.2l12.9,7.7c1,0.6,1.4,1.4,1.2,2.2l-35.1,21.7L386.2,209 l-20-12L415.8,167.6z" class="st7"/></g><path d="M386.8,206.2v91.6v1.9v1.8c-0.6,0-1.3-0.2-1.7-0.5c-0.5-0.3-0.8-0.7-0.8-1.1l0,0v0v0v-92.3L386.8,206.2z" class="st14"/><polygon points="361.5 195.3 361.5 194.1 361.9 194.1 362 194.9" class="st7"/><polygon points="384.3 208.9 384.3 207.7 384.6 208.2" class="st7"/><g><path d="M388.8,208.8l63.5-37.9c3.7-2.2,3.7-5.9,0-8.1l-12.9-7.7c-3.7-2.2-9.8-2.2-13.5,0L362.3,193 c-1,0.6-1,1.6,0,2.2c1,0.6,2.7,0.6,3.7,0l63.5-37.9c1.7-1,4.4-1,6.1,0l12.9,7.7c1.7,1,1.7,2.6,0,3.6L385,206.5 c-1,0.6-1,1.6,0,2.2C386.1,209.4,387.7,209.4,388.8,208.8z" class="st9"/></g><polygon points="405.3 252.5 438.3 232.8 438.3 198.6 405.3 218.3" class="st7"/><g><path d="M362.3,195.2c1,0.6,2.7,0.6,3.7,0l63.5-37.9c1.7-1,4.4-1,6.1,0l12.9,7.7c1.1,0.7,1.5,1.6,1.1,2.4 c-0.2-0.4-0.6-0.9-1.1-1.2l-12.9-7.7c-1.7-1-4.4-1-6.1,0L366,196.4c-1,0.6-2.7,0.6-3.7,0c-0.8-0.5-1-1.1-0.6-1.7 C361.9,194.9,362.1,195,362.3,195.2z" class="st7"/><path d="M385,208.8c1,0.6,2.7,0.6,3.7,0l63.5-37.9c1.6-1,2.5-2.2,2.7-3.4c0.3,1.7-0.6,3.4-2.7,4.7L388.8,210 c-1,0.6-2.7,0.6-3.7,0c-0.8-0.5-1-1.1-0.6-1.7C384.6,208.4,384.8,208.6,385,208.8z" class="st7"/></g></g><g><g><path d="M482.2,274.2c3.7,2.2,3.7,5.9,0,8.1l-63.5,37.9c-1,0.6-2.7,0.6-3.7,0c-1-0.6-1-1.6,0-2.2l63.5-37.9 c1.7-1,1.7-2.6,0-3.6l-6.2-3.7c0.7-1.1,1.3-2.2,1.9-3.3L482.2,274.2z" class="st6"/><path d="M392.3,304.4l63.5-37.9c3.7-2.2,9.8-2.2,13.5,0l4.9,2.9c-0.6,1.1-1.2,2.2-1.9,3.3l-6.7-4 c-1.7-1-4.4-1-6.1,0L396,306.6c-1,0.6-2.7,0.6-3.7,0C391.3,306,391.3,305,392.3,304.4z" class="st8"/></g><polygon points="391.6 305.6 391.5 213.3 458.1 174.9 467.4 174.2 476.4 180.3 481.9 185.2 417.1 291.6 395.9 304.5" class="st8"/><polygon points="416.2 317.3 396.3 305.4 396.3 216.1 416.8 226" class="st13"/><polygon points="485 186 485 278.2 415.2 319.5 414.3 319.1 414.3 226.8" class="st6"/><g><path d="M445.8,186.7l13.9-8.3c1.7-0.8,4.2-0.8,5.7,0.2l12.9,7.7c1,0.6,1.4,1.4,1.2,2.2l-35.1,21.7l-28.2,17.9 l-20-12L445.8,186.7z" class="st7"/></g><path d="M416.8,225.3v91.6v1.9v1.8c-0.6,0-1.3-0.2-1.7-0.5c-0.5-0.3-0.8-0.7-0.8-1.1l0,0v0v0v-92.3L416.8,225.3z" class="st8"/><polygon points="391.5 214.4 391.5 213.3 391.9 213.3 392 214" class="st7"/><polygon points="414.3 228 414.3 226.8 414.6 227.3" class="st7"/><g><path d="M418.7,227.9l63.5-37.9c3.7-2.2,3.7-5.9,0-8.1l-12.9-7.7c-3.7-2.2-9.8-2.2-13.5,0l-63.5,37.9 c-1,0.6-1,1.6,0,2.2c1,0.6,2.7,0.6,3.7,0l63.5-37.9c1.7-1,4.4-1,6.1,0l12.9,7.7c1.7,1,1.7,2.6,0,3.6L415,225.6 c-1,0.6-1,1.6,0,2.2C416.1,228.5,417.7,228.5,418.7,227.9z" class="st6"/></g><polygon points="435.3 271.6 468.3 251.9 468.3 217.7 435.3 237.4" class="st7"/><g><path d="M392.3,214.3c1,0.6,2.7,0.6,3.7,0l63.5-37.9c1.7-1,4.4-1,6.1,0l12.9,7.7c1.1,0.7,1.5,1.6,1.1,2.4 c-0.2-0.4-0.6-0.9-1.1-1.2l-12.9-7.7c-1.7-1-4.4-1-6.1,0L396,215.5c-1,0.6-2.7,0.6-3.7,0c-0.8-0.5-1-1.1-0.6-1.7 C391.9,214,392.1,214.2,392.3,214.3z" class="st7"/><path d="M415,227.9c1,0.6,2.7,0.6,3.7,0l63.5-37.9c1.6-1,2.5-2.2,2.7-3.4c0.3,1.7-0.6,3.4-2.7,4.7l-63.5,37.9 c-1,0.6-2.7,0.6-3.7,0c-0.8-0.5-1-1.1-0.6-1.7C414.6,227.5,414.8,227.7,415,227.9z" class="st7"/></g></g></g></g><g class="st1"><path d="M509.4,422.5c-2.5-1.5-6.6-1.5-9.1,0L383,492.6c-2.5,1.5-2.5,3.9,0,5.4c2.5,1.5,6.6,1.5,9.1,0l117.3-70.1 C511.9,426.4,511.9,424,509.4,422.5z" class="st2"/><g><g><path d="M529.4,384.5L529.4,384.5c-0.1-0.2-0.3-0.3-0.6-0.3l-7.1,1.6l2.8,4.9l4.8-5.6 C529.5,385,529.5,384.7,529.4,384.5z" class="st6"/><g><path d="M526.6,388.2c0-1.1-0.7-2.3-1.6-2.9c-0.4-0.2-0.8-0.3-1.1-0.1c-8.2-0.1-16.3,2.2-23.3,6.5l-0.5,0.3 l8.8,15.5l2.6-1.8c5.5-3.8,10.1-8.8,13.6-14.6l1.1-1.9C526.4,389,526.6,388.6,526.6,388.2z" class="st8"/><path d="M510.6,403.3c0-4.1-2.8-9-6.2-11c-3.4-2-6.2-0.3-6.1,3.7c0,4.1,2.8,9,6.2,11 C507.9,409,510.7,407.4,510.6,403.3z" class="st6"/><polygon points="456.6 441.1 508.9 407.4 500.1 391.9 446.2 422.8" class="st6"/><path d="M458.7,436.3c0-4.8-3.3-10.6-7.4-13c-4-2.4-7.3-0.4-7.2,4.4c0,4.8,3.3,10.6,7.4,13 C455.5,443,458.7,441.1,458.7,436.3z" class="st6"/></g><g><path d="M455.7,438.1c0-4.8-3.3-10.6-7.4-13c-4-2.4-7.3-0.4-7.2,4.4c0,4.8,3.3,10.6,7.4,13 C452.5,444.8,455.7,442.9,455.7,438.1z" class="st6"/><polygon points="384.4 485 453.6 443 443.2 424.6 374 466.7" class="st6"/><path d="M386.5,480.1c0-4.8-3.3-10.6-7.4-13c-4-2.4-7.3-0.4-7.2,4.4c0,4.8,3.3,10.6,7.4,13 C383.3,486.9,386.5,484.9,386.5,480.1z" class="st6"/><path d="M383.9,478.6c-0.2-2.8-2.4-6.4-5-7.9c-2.6-1.5-4.6-0.5-4.4,2.4c0.2,2.8,2.4,6.4,5,7.9 C382.1,482.5,384,481.4,383.9,478.6z" class="st4"/></g><g><path d="M459.2,435.9c0-4.8-3.3-10.6-7.4-13c-1.6-1-3.1-1.2-4.3-0.8c1.3-1.4,3.5-1.6,5.9-0.1 c4,2.4,7.3,8.2,7.4,13c0,2.9-1.1,4.7-2.9,5.2C458.7,439.3,459.2,437.8,459.2,435.9z" class="st7"/><path d="M459.2,435.9c0-4.8-3.3-10.6-7.4-13c-2-1.2-3.8-1.3-5.1-0.5l-3.9,2.4l1.9,3.3c0.3,4.4,3.2,9.3,6.7,11.7 l1.9,3.3l3.9-2.4l0,0C458.4,440,459.2,438.3,459.2,435.9z" class="st8"/><path d="M455.3,438.3c0-4.8-3.3-10.6-7.4-13c-4-2.4-7.3-0.4-7.2,4.4c0,4.8,3.3,10.6,7.4,13 C452.1,445.1,455.3,443.1,455.3,438.3z" class="st6"/></g><g><path d="M380.6,480.7l-4.5-7.9l-14.7,8.9c-2.1,1.3-2.8,4.1-1.6,6.3l0,0c1.2,2.2,4,2.9,6.1,1.6L380.6,480.7z" class="st9"/><path d="M381.5,478.6c0-2.1-1.4-4.6-3.2-5.6s-3.1-0.2-3.1,1.9c0,2.1,1.4,4.6,3.2,5.6 C380.2,481.6,381.5,480.7,381.5,478.6z" class="st9"/></g><g><path d="M397.8,450.7l-2.2-1.3c-1.3-0.7-2.9-0.6-4.7,0.5l-7.5,4.6c-1.4,0.9-2.6,3-2.6,4.7l0,3.9 c0,0.7-0.3,1.4-0.8,2l0.3,1.8l-1.9-1.1l0,0c-0.3-0.1-0.4-0.5-0.4-0.9l0-3.9c0-3.6,2.4-7.9,5.3-9.7l7.5-4.6 c2.5-1.5,4.9-1.8,6.7-0.7l2.2,1.3c1.3,0.7,2.9,0.6,4.7-0.5l30.4-18.5c0.4-0.2,0.7-0.3,1-0.1l0,0l1.9,1.1l-1.6,0.6 c-0.2,0.7-0.7,1.4-1.2,1.7L404.5,450C402,451.5,399.6,451.8,397.8,450.7z" class="st8"/><path d="M397.5,450.6c-1.3-0.7-2.9-0.6-4.7,0.5l-7.5,4.6c-1.4,0.9-2.6,3-2.6,4.7l0,3.9c0,0.9-0.6,2.1-1.4,2.5 c-0.8,0.5-1.4,0.1-1.4-0.8l0-3.9c0-3.6,2.4-7.9,5.3-9.7l7.5-4.6c2.5-1.5,4.9-1.8,6.7-0.7l2.2,1.3c1.3,0.7,2.9,0.6,4.7-0.5 l30.4-18.5c0.8-0.5,1.4-0.1,1.4,0.8c0,0.9-0.6,2.1-1.4,2.5l-30.4,18.5c-2.5,1.5-4.9,1.8-6.7,0.7L397.5,450.6z" class="st8"/><g><path d="M382.6,461l0,3.9c0,0,0,0.1,0,0.1c0.1-0.2,0.1-0.5,0.1-0.7l0-3.9c0-0.1,0-0.2,0-0.3 C382.7,460.3,382.6,460.7,382.6,461z" class="st7"/></g></g></g></g></g><g class="st1"><g><ellipse cx="356.3" cy="384.4" class="st2" rx="23.9" ry="14.2"/><path d="M383.5,372.2v-7.9H382c-1.3-2.3-3.4-4.5-6.5-6.3c-10.6-6.3-27.8-6.3-38.4,0c-3.1,1.8-5.2,4-6.5,6.3h-1.4 v7.8h0c0,4.2,2.6,8.3,7.9,11.5c10.6,6.3,27.8,6.3,38.4,0C380.8,380.5,383.5,376.3,383.5,372.2z" class="st9"/><ellipse cx="356.3" cy="364.3" class="st9" rx="27.1" ry="16.2"/><path d="M375.5,375.8c-10.6,6.3-27.8,6.3-38.4,0c-5.1-3-7.7-7-7.9-10.9c-0.2,4.3,2.4,8.7,7.9,12 c10.6,6.3,27.8,6.3,38.4,0c5.5-3.3,8.1-7.7,7.9-12C383.2,368.8,380.6,372.7,375.5,375.8z" class="st7"/></g><g><path d="M343.2,369.7c-0.5-0.3-0.7-0.6-0.7-1l0-10.6c0-0.8,1.1-1.5,2.4-1.5c1.3,0,2.4,0.7,2.4,1.5l0,8.8l24.6-3.1 c1.3-0.2,2.6,0.3,2.9,1.1c0.3,0.8-0.6,1.6-1.9,1.7l-27.5,3.5c-0.7,0.1-1.5,0-2-0.3C343.4,369.8,343.3,369.7,343.2,369.7z" class="st7"/></g></g><g class="st1"><g><polygon points="216.1 282.5 195.9 270.5 216.1 258.4 236.2 270.5" class="st2"/><polygon points="236.2 255.2 216.1 267.2 216.1 243.1 236.2 231.1" class="st14"/><polygon points="216.1 243.1 195.9 231.1 216.1 219 236.2 231.1" class="st9"/><polygon points="216.1 267.2 195.9 255.2 195.9 231.1 216.1 243.1" class="st9"/></g><polygon points="208.8 254.2 203.2 250.8 203.2 244.1 208.8 247.5" class="st7"/></g><g class="st1"><g><polygon points="90.7 498.4 69.7 485.8 90.7 473.3 111.7 485.8" class="st2"/><polygon points="111.7 469.9 90.7 482.5 90.7 457.4 111.7 444.9" class="st3"/><polygon points="90.7 457.4 69.7 444.9 90.7 432.3 111.7 444.9" class="st6"/><polygon points="90.7 482.5 69.7 469.9 69.7 444.9 90.7 457.4" class="st8"/></g><polygon points="83.1 468.9 77.2 465.4 77.2 458.4 83.1 461.9" class="st7"/></g><path d="M167,469.1l-78.2-46.7c-1.8-1-1.8-3.7,0-4.7l74.4-44.4l83.2,49.7c1.8,1,1.8,3.7,0,4.7L177,469.1 C173.9,471,170.1,471,167,469.1z" class="st17"/><g class="st1"><g><path d="M164.7,340.9c0-5.1-3.5-7.2-7.8-4.7l-73.1,43.6c-1.2,0.7-2.1,2.4-2.1,3.8c0,1.4,1,2,2.1,1.3l73.1-43.6 c1.9-1.2,3.5-0.2,3.5,2.1l0,8.5c1.4-0.1,2.8-0.1,4.3-0.1L164.7,340.9z" class="st9"/><path d="M83.8,400.2l73.1-27.6c4.3-2.6,7.8-8.8,7.8-14l0-6.8c-1.4,0-2.9,0-4.3,0.1l0,9.3c0,2.3-1.6,5.1-3.5,6.3 L83.8,395c-1.2,0.7-2.1,2.4-2.1,3.8C81.6,400.3,82.6,400.9,83.8,400.2z" class="st14"/></g><polygon points="82.2 400.3 171.2 453.5 246.5 407 252.5 397.8 251.9 401.1 250.3 392.5 110.4 398 85.8 396.4" class="st14"/><polygon points="85.1 384.2 85.1 395.5 171.1 447 173.4 436.2" class="st15"/><polygon points="251.4 388.9 162.5 335.7 82.4 383.9 82.3 385.1 171.2 438.3" class="st9"/><g><path d="M223,416.2l20.9-12.8c1.8-1.3,3.1-3.9,3.1-6l0-1.7c0-1.4-0.6-2.3-1.4-2.5l-41.1,23.7l-33.5,18.7l0,11.5 L223,416.2z" class="st7"/></g><path d="M174.1,436.6l-88.3-52.8l-1.9-1.1l-1.7-1c-0.3,0.7-0.6,1.4-0.6,2.1c0,0.7,0.2,1.2,0.6,1.4l0,0l0,0l0,0 l89,53.2L174.1,436.6z" class="st14"/><polygon points="170.1 452.9 171.2 453.5 171.4 453.1 170.7 452.6" class="st7"/><polygon points="170.1 437.6 171.2 438.3 170.9 437.7" class="st7"/><g><path d="M172.8,433.1l73.1-43.6c4.3-2.6,7.8-0.5,7.8,4.7l0,1.7c0,5.1-3.5,11.4-7.8,14l-73.1,43.6 c-1.2,0.7-2.1,0.1-2.1-1.3s1-3.1,2.1-3.8l73.1-43.6c1.9-1.2,3.5-4,3.5-6.3l0-1.7c0-2.3-1.6-3.3-3.5-2.1l-73.1,43.6 c-1.2,0.7-2.1,0.1-2.1-1.3C170.6,435.5,171.6,433.8,172.8,433.1z" class="st9"/></g><g><path d="M170.6,452.1c0-1.4,1-3.1,2.1-3.8l73.1-43.6c1.9-1.2,3.5-4,3.5-6.3l0-1.7c0-1.5-0.7-2.4-1.7-2.6 c0.3,0.4,0.5,1.1,0.5,1.9l0,1.7c0,2.3-1.6,5.1-3.5,6.3l-73.1,43.6c-1.2,0.7-2.1,2.4-2.1,3.8c0,1.1,0.6,1.7,1.3,1.6 C170.7,452.7,170.6,452.5,170.6,452.1z" class="st7"/><path d="M170.6,436.9c0-1.4,1-3.1,2.1-3.8l73.1-43.6c1.9-1.1,3.6-1.3,4.9-0.8c-1.4-1.3-3.6-1.3-6.1,0.1l-73.1,43.6 c-1.2,0.7-2.1,2.4-2.1,3.8c0,1.1,0.6,1.7,1.3,1.6C170.7,437.5,170.6,437.2,170.6,436.9z" class="st7"/></g><polygon points="136.8 389.9 177.2 365.9 212.2 386.8 171.8 410.9" class="st7"/></g><g class="st1"><path d="M236.6,506.3c16.2,9.6,42.4,9.6,58.5,0c16.2-9.6,16.2-25.3,0-34.9c-16.2-9.6-42.4-9.6-58.5,0 C220.4,481,220.4,496.6,236.6,506.3z M252.4,480.8c7.4-4.4,19.5-4.4,26.9,0c7.4,4.4,7.4,11.6,0,16.1c-7.4,4.4-19.5,4.4-26.9,0 C245,492.4,245,485.2,252.4,480.8z" class="st2"/><g><g><path d="M301.2,465.6l-14.8,0.2c-1.1-1.5-2.6-2.8-4.7-4.1c-8.1-4.8-20.9-5.2-29.7-1.1l-8.8-8.5l-13.5,0.2 c0.7-0.5,1.4-0.9,2.1-1.3c18.8-11.2,49.2-11.2,68,0c3.5,2.1,6.3,4.4,8.4,6.8L301.2,465.6z" class="st18"/><polygon points="229.8 430.2 229.8 452.3 243.3 452.1 243.3 430" class="st14"/><polygon points="252.1 438.5 252.1 460.7 243.3 452.1 243.3 430" class="st18"/><path d="M286.5,443.7v22.2L267,449.5l-15,11.2v-22.2l13.8-6.9c0,0,19,6,20,6.3 C286.8,438.1,286.5,443.7,286.5,443.7z" class="st18"/><polygon points="301.2 443.4 301.2 465.6 286.5 465.8 286.5 443.7" class="st18"/><polygon points="308.3 435.6 308.3 457.8 301.2 465.6 301.2 443.4" class="st14"/><path d="M301.2,443.4l-14.8,0.2c-1.1-1.5-2.6-2.8-4.7-4.1c-8.1-4.8-20.9-5.2-29.7-1.1l-8.8-8.5l-13.5,0.2 c0.7-0.5,1.4-0.9,2.1-1.3c18.8-11.2,49.2-11.2,68,0c3.5,2.1,6.3,4.4,8.4,6.8L301.2,443.4z" class="st9"/></g><g><path d="M247.6,441.2v20.4l-12.8-3.2c0,0,0.7-11.9,1-12.2C236.2,445.9,247.6,441.2,247.6,441.2z" class="st8"/><g><path d="M257.3,461.6v22.2l-1.4,1.5l-9-5.4c0,0,1.4-16.9,1.6-17.3C248.6,462.3,257.3,461.6,257.3,461.6z" class="st3"/><path d="M239.9,455.9l7.7,7.5c-6.4,5.3-5.7,12.7,2.3,17.4c2.2,1.3,4.7,2.3,7.4,2.9l-8,8.8l7.1,6.9 c-9-1.1-17.5-3.7-24.5-7.8c-16.1-9.6-18.4-24.4-6.8-35.5L239.9,455.9z" class="st4"/><polygon points="256.4 477.3 256.4 499.4 238.9 492.4 217.8 471.7 217.9 448.1 240.2 466.4" class="st4"/><path d="M239.9,433.7l7.7,7.5c-6.4,5.3-5.7,12.7,2.3,17.4c2.2,1.3,4.7,2.3,7.4,2.9l-8,8.8l7.1,6.9 c-9-1.1-17.5-3.7-24.5-7.8c-16.1-9.6-18.4-24.4-6.8-35.5L239.9,433.7z" class="st6"/></g></g><g><path d="M256.4,492.4l7-7.8c6.5,0.4,13.3-0.9,18.3-3.9c5.2-3.1,7.3-7.3,6.4-11.3l16.8-0.3l6.4-7.1 c5.6,10,1.8,21.5-11.6,29.5c-9.8,5.9-22.8,8.6-35.6,8.4L256.4,492.4z" class="st4"/><polygon points="264.2 477.8 264.2 500 313.9 471.5 313.9 449.3 306.6 452.3" class="st4"/><polygon points="256.4 470.3 256.4 492.4 264.2 500 264.2 477.8" class="st3"/><path d="M256.4,470.3l7-7.8c6.5,0.4,13.3-0.9,18.3-3.9c5.2-3.1,7.3-7.3,6.4-11.3l16.8-0.3l6.4-7.1 c5.6,10,1.8,21.5-11.6,29.5c-9.8,5.9-22.8,8.6-35.6,8.4L256.4,470.3z" class="st8"/></g></g></g></g></g></svg>