<svg xmlns="http://www.w3.org/2000/svg" xmlns:xlink="http://www.w3.org/1999/xlink" id="Layer_1" x="0" y="0" enable-background="new 0 0 595.3 595.3" version="1.1" viewBox="0 0 595.3 595.3" xml:space="preserve"><style type="text/css">.st0{clip-path:url(#SVGID_2_)}.st1,.st2{clip-path:url(#SVGID_4_);fill:#4358a3}.st2{fill:#5368b5}.st2,.st3,.st4{display:none}.st3{clip-path:url(#SVGID_4_);fill:#4b60ab}.st4{fill:#6a81c9}.st4,.st5{clip-path:url(#SVGID_4_)}.st6{fill:#fff}.st7{fill:#6b83d7}.st8{fill:#eb9cde}.st10,.st9{opacity:.5;fill:#a8a8a8}.st10{display:none}.st11{fill:#02010c}.st12{fill:#e59677}.st13{fill:#ffffa3}.st14{fill:#ffff97}.st15{fill:#0d0d37}.st16{fill:#13123c}.st17{fill:#616a91}.st18{fill:#f9a781}.st19{fill:#1d2975}.st20{fill:#1b2875}.st21{fill:#ff715a}.st22{fill:#030316}.st23{fill:#a8a8a8}.st24{fill:#3e5596}.st25{fill:#20335e}.st26{fill:#dce7ff}.st27{fill:#7990dc}.st28{fill:#96adea}.st29{display:none}.st30{fill:#caab67}.st30,.st31,.st32{display:inline}.st31{fill:#efd571}.st32{fill:#ffe0a1}.st33{fill:#514a38}.st33,.st34,.st35{display:inline}.st34{fill:#ff5757}.st35{opacity:.4}.st36{fill:#ffca55}.st37{display:inline}.st38{fill:#514a38}.st39{display:inline;fill:#feeba6}.st40{fill:#b267b0}.st41{fill:#efd571}.st42{fill:#4b60ab}.st43{fill:#aec6ff}.st44{fill:#5b72b8}.st45{fill:#869ee4}.st46{fill:#cb6bb4}.st47{fill:#4358a3}.st48{fill:#9b77c5}.st49{fill:#a9c1fc}.st50{fill:#d992c7}.st51{clip-path:url(#SVGID_4_);fill:#fff}</style><g><defs><circle id="SVGID_1_" cx="300.4" cy="294.9" r="294.9"/></defs><clipPath id="SVGID_2_"><use overflow="visible" xlink:href="#SVGID_1_"/></clipPath><g class="st0"><defs><rect id="SVGID_3_" width="595.3" height="595.3" y="0"/></defs><clipPath id="SVGID_4_"><use overflow="visible" xlink:href="#SVGID_3_"/></clipPath><rect width="595.3" height="595.3" y="0" class="st1"/><rect width="321" height="243" x="245.6" y="308.6" class="st2"/><rect width="321" height="112.9" x="155.6" y="186.7" class="st3"/><rect width="480" height="156.9" x="25.6" y="18.7" class="st2"/><rect width="50" height="156.9" x="521.6" y="18.7" class="st4"/><rect width="85" height="113.3" x="486.6" y="184.3" class="st3"/><g class="st5"><ellipse cx="448.8" cy="119.3" class="st6" rx="37.5" ry="37.5" transform="matrix(2.628867e-02 -0.9997 0.9997 2.628867e-02 317.7942 564.8229)"/><path d="M478.1,117.7c-0.3,0.7,0.3,3-0.1,3.3l-1.4,2.3c-0.5,2.3,0,2.5-0.5,4.3c-0.3,1.2-2.2,6.1-2.2,6.3l-2.9,2.4 c0,0-1.3,0.9-2.3,0.3c-1.1-0.5-0.9-0.3-1.3-0.7l-0.1-4.5v-5c0,0-2.2-3.1-2-3.8c0.3-0.7-1-0.7-1.7-1.7c-0.7-1-1.3,0.1-1.8,0.3 c-0.5,0.2-3.2,1-4,0.8c-0.8-0.1-1.6-2.7-2.1-3.5c-0.5-0.8,0.7-2.9,0.7-3.5c0.1-0.6,1.9-1.4,2.2-1.7l1.1-2.5l5.2-1.5l2.6,0.9 l2,1.2l4.4,0.8l1.2-3.3c-0.9-0.3-2-0.7-2.3-0.7c-0.4,0-2.2,0.5-3.6,0.1c-1.4-0.3-0.8-1.3-0.8-1.3l-0.7-2.6l-0.7,1.1l-2.7,0.1 c-0.3-0.1-1.2,0.6-1.5,1.1c-0.3,0.5-1.7,1.6-3.1,2.2c-1.4,0.6-1.9-1.6-1.9-1.6l1.2-2.3l1.9-0.9l1.3-0.9c0-0.2,0.8-1.2,1.8-1.4 c1.1-0.3,3.2,0,4.3-0.4c1.2-0.4,0.8-1,0.8-1l2.7-1.3C466.2,93,458.2,89,449.1,89c-7.9,0-15.1,3.1-20.4,8.1l0.4,0.1l6.6-2.3 c0,0,0.3,1,2.1-0.7c1.9-1.7,2.6,0,3.1,0l2.6,3.1c0,0-7.3-0.1-8.1,0c-0.8,0.1-3.4,2.4-3.4,2.4s3.4,2.3,4.8,0.8 c1.5-1.5,3.7-0.7,6.2,0c2.4,0.7,0.2,4.3-2.9,4.4c-3.1,0.1-6.2,3.5-6.2,3.5l-5.2,3.3c0,0-2.3-1.2-3.6,1.4c-1.3,2.6,3,3.7,3.7,4 c0.7,0.3,3.6,0.8,4.2,1c0.6,0.3,2.3,0.4,3.5,0.7c1.2,0.3,3.6,2,5.8,2.6c2.2,0.6,4.7,4.5,4.7,4.5l-2.4,7.1c0,0,0,0.5-0.9,1.3 c-0.9,0.8-4,4.6-4,4.6l0.2,7c0,0-2.6-0.3-3.8-1.2c-1.2-0.9-2-6-2-6s0.1-8.1-0.8-8.7c-0.9-0.6-3.8-5.5-4-6.9 c-0.2-1.4,1.2-1.7,1.2-1.7v-2.1l-6.3-2.4c0,0-3.8-1.3-3.8-2.6c0-0.5-0.3-1.1-0.7-1.6c-0.4,2-0.6,4-0.6,6.1c0,16.6,13.4,30,30,30 c16.6,0,30-13.4,30-30c0-1.2-0.1-2.4-0.2-3.6C478.6,116.4,478.2,117.4,478.1,117.7z M467.2,97.2l1,1.3c0,0-1.6,1.2-2.2,1.3 c-0.5,0.1-1.7,0.9-1.9,0.9c-0.2,0-0.5-0.5-0.7-1.8C463.3,97.6,467.2,97.2,467.2,97.2z" class="st7"/></g><g class="st5"><path d="M318.9,110.9c0,9.2-7.5,16.7-16.7,16.7c-9.2,0-16.7-7.5-16.7-16.7s7.5-16.7,16.7-16.7 C311.5,94.3,318.9,101.7,318.9,110.9z" class="st6"/><path d="M312.7,103.7c-2.7-2.7-5.5-2.6-10.6,2.5c-5.2-5.2-8-5.2-10.6-2.5c-2.7,2.7-1.7,7-0.8,8.7 c3.2,6.1,11.4,11.5,11.4,11.5s8.2-5.4,11.4-11.5C314.4,110.8,315.4,106.4,312.7,103.7z" class="st8"/></g><g class="st5"><path d="M514.2,455.3c0.4-1.4,0.6-2.9,0.6-4.4c0-8.8-6.8-15.9-15.1-15.9c-1.1,0-2.2,0.1-3.3,0.4 c-5-19.2-21.7-33.4-41.6-33.4c-3.3,0-6.5,0.4-9.5,1.1c-10.6-8-23.6-12.6-37.6-12.6c-12.4,0-24,3.7-33.9,10.1 c-9.9-6.4-21.5-10.1-33.9-10.1c-12.8,0-24.8,3.9-34.9,10.7c-7.2-4.9-15.7-7.8-24.9-7.8c-13.3,0-25.3,6-33.7,15.5 c-2.1-0.6-4.3-0.9-6.6-0.9c-14,0-25.4,12-25.4,26.8c0,14.2,10.5,25.9,23.8,26.7c7.2,16.8,23.2,28.5,41.8,28.5c0.6,0,1.2,0,1.9,0 c10.7,22.2,32.7,37.5,57.9,37.5c12.4,0,24-3.7,33.9-10.1c9.9,6.4,21.5,10.1,33.9,10.1c15.1,0,28.9-5.4,39.9-14.5 c6.6,6.8,15.6,11,25.6,11c8.7,0,16.8-3.2,23.1-8.6c1.8,0.4,3.7,0.6,5.7,0.6c16.6,0,30-14.2,30-31.7 C532.1,471.3,524.7,460.2,514.2,455.3z" class="st6"/><path d="M508.3,502.1c-1.9,0-3.8-0.2-5.6-0.6c-6.2,5.4-14,8.6-22.6,8.6c-9.8,0-18.6-4.2-25.1-11 c-10.8,9.1-24.4,14.5-39.1,14.5c-12.2,0-23.6-3.7-33.2-10.1c-9.7,6.4-21.1,10.1-33.2,10.1c-24.8,0-46.3-15.2-56.8-37.5 c-0.6,0-1.2,0-1.8,0c-18.2,0-33.9-11.7-41-28.5c-13-0.8-23.4-12.5-23.4-26.7c0-3.6,0.7-7,1.8-10.1c-8.2,4.4-13.9,13.4-13.9,23.9 c0,14.2,10.5,25.9,23.8,26.7c7.2,16.8,23.2,28.5,41.8,28.5c0.6,0,1.2,0,1.9,0c10.7,22.2,32.7,37.5,57.9,37.5 c12.4,0,24-3.7,33.9-10.1c9.9,6.4,21.5,10.1,33.9,10.1c15.1,0,28.9-5.4,39.9-14.5c6.6,6.8,15.6,11,25.6,11 c8.7,0,16.8-3.2,23.1-8.6c1.8,0.4,3.7,0.6,5.7,0.6c14.8,0,27-11.2,29.6-26C526.2,497.3,517.8,502.1,508.3,502.1z" class="st9"/><path d="M760.3,441.5c0,4.8-20.3,8.6-45.3,8.6c-25,0-45.3-3.9-45.3-8.6c0-4.8,20.3-8.6,45.3-8.6 C740,432.9,760.3,436.8,760.3,441.5z" class="st10"/><path d="M418.7,417.2c0,4.8-26.3,8.6-58.6,8.6c-32.4,0-58.6-3.9-58.6-8.6c0-4.8,26.3-8.6,58.6-8.6 C392.4,408.6,418.7,412.4,418.7,417.2z" class="st9"/><path d="M297.7,518.2l26.4-6.2c0,0,4.5,9.9,4.5,15.3l-58.2,19.8C270.5,547.1,267.6,533.5,297.7,518.2z" class="st11"/><g><path d="M307.7,361.4c0,0-3-6.7-14.4-9.5c0,0-6.8-1.8-12.1-3.5c0,0,0.2,3.8,12.2,6.8c0,0-12,2.5-21.9-1.7 c0,0-2.1-2.2-5.1,0.6c0,0,9.7,5.9,25.8,5.8c0,0,1.4,1.5-3.2,2c0,0-13.5,2-20.4,0.7c0,0-1-1.6-3.9,1.4c0,0,12.8,3.5,24.1,1.3 c0,0,1.8-0.3,2.4,0.7c0,0-8.4,4.7-18.2,3.4c0,0-2.8-1.3-4.8,1.7c0,0,9.4,3.4,22.7-1.9c0,0,1.8-1,2.2,0.1c0,0-5.2,5-16.1,6.9 c0,0-1.8-0.4-2.5,2c0,0,11.7-1.7,20.3-5c0,0,11.1-1.2,13.7-4.7C308.4,368.4,310.7,364.8,307.7,361.4z" class="st12"/><path d="M302,358.4c0,0,42.9-24.8,58.7-45.2c0,0,17.3-8.3,30.9,2.2c0,0,2.3,0.6-1.6,8.7c0,0-35.2,27.6-86.7,46.8 L302,358.4z" class="st12"/></g><path d="M360.8,312.9c0,0,9.8-1.3,15.6,11.9c5.8,13.2,5.8,2.5,5.8,2.5l5.8-25.6l-10.7-61.1l-3.3-9.9l-8.3,1.6 C365.6,232.3,348.7,251.2,360.8,312.9z" class="st13"/><path d="M373.6,222.8c0,0-9.9,0.6-13.6,23.5c0,0-3.7,30.3,11.8,60.7c0,0,10.5,33.4-1.2,52.6c0,0,61.9,5.6,73.1,32.2 c0,0,22.3-103.7-35.3-168.7C408.3,223.2,395.4,208.5,373.6,222.8z" class="st14"/><path d="M267.5,379.7c0,0,34.7-17.3,104.7-19.8c0,0,42.7,6.8,53.3,27.9c0,0-3.1,26.6-34.7,28.5 c0,0-63.2,10.5-86.7-2.5c0,0,19.2,37.8,20.4,101.6l-27.9,6.2c0,0-28.5-109.6-34.7-120.1C262,401.4,254.5,383.4,267.5,379.7z" class="st15"/><path d="M287.4,380.5c0,0,34.7-17.3,104.7-19.8c0,0,42.7,6.8,53.3,27.9c0,0-3.1,26.6-34.7,28.5 c0,0-63.2,10.5-86.7-2.5c0,0,19.2,37.8,20.4,101.6l-27.9,6.2c0,0-28.5-109.6-34.7-120.1C281.8,402.2,274.4,384.2,287.4,380.5z" class="st16"/><g><path d="M368.8,245.4l-7.3-8.3c0,0,9.6-15.4,8.7-18.6c-0.8-3.2,8.2,2.1,8.2,2.1L368.8,245.4z" class="st17"/><polygon points="352.9 220.3 376.9 247.9 389.3 224.8 370.6 207.3" class="st18"/><path d="M320.5,186.5c0,0,5.8,16.9,6.5,23c0,0,3.4,16.1,13.9,20.8c0,0,8.4,5.8,23.3-0.6c0,0,15.8-6.4,10.8-28.3 c0,0,7.5-0.5,0.6-16.2c0,0-3-5.5-5,0.4c0,0-15.7-29.3-27.8-29.2c0,0-13.5-2.5-21.1,16.3C321.7,172.6,316.9,177.2,320.5,186.5z" class="st18"/><path d="M352.2,191.7c0.3,1.2-0.4,2.5-1.6,2.8c-1.2,0.3-2.5-0.4-2.8-1.6c-0.3-1.2,0.4-2.5,1.6-2.8 C350.6,189.8,351.9,190.5,352.2,191.7z" class="st19"/><path d="M330.8,196.5c0.3,1.2-0.4,2.5-1.6,2.8c-1.2,0.3-2.5-0.4-2.8-1.6c-0.3-1.2,0.4-2.5,1.6-2.8 C329.3,194.6,330.5,195.3,330.8,196.5z" class="st19"/><path d="M373.4,201.8c0,0-1.4,2.9-3-0.1c0,0-3.9-9.7-3.8-18.5c0,0-4.9-12.7-10.8-16.4c0,0-24.2,16.7-33.1,12 c0,0-2.3-1.2-4,0.8c0,0-10.5,2.3-10.5-10.5c0,0-2.6-11.5,10.9-16c0,0,19.5-11.1,32.9-4.8c0,0,18.4,5,21.8,33c0,0-2.6-0.9-3.5,3 C370.3,184.3,368.4,191,373.4,201.8z" class="st20"/><g><path d="M340.8,217.1c2.8-0.5,5.7-0.8,8.5-1.7c2.6-0.8,4.9-2.4,6.7-4.4c0.3-0.3-0.2-0.7-0.4-0.4 c-3.9,4.5-9.3,5.1-14.9,6.2C340.5,216.9,340.6,217.1,340.8,217.1L340.8,217.1z" class="st19"/></g><g><path d="M343.8,184.7c1.8-1.5,4.1-2.2,6.3-2.8c1-0.3,2.1-0.6,3.1-0.8c0.6-0.1,1.5-0.2,1.9-0.6 c0.1-0.1,0.1-0.3-0.1-0.4c-0.7-0.2-1.6,0.2-2.3,0.4c-1.2,0.3-2.4,0.6-3.5,1c-2,0.6-4.2,1.4-5.7,3 C343.3,184.6,343.6,184.9,343.8,184.7L343.8,184.7z" class="st19"/></g><g><path d="M320.6,187.9c3.5-0.6,6.8,0.1,10,1.3c0.3,0.1,0.6-0.4,0.2-0.6c-3-1.6-7-2-10.3-1 C320.4,187.6,320.4,187.9,320.6,187.9L320.6,187.9z" class="st19"/></g><path d="M375,201.4c-2.9,0.3-3.8-3.2-4.7-1.6c-3.9,6.8-4.9,9-4.9,9c-2.9-4.4-12.7-1.3-12.7-1.3 c-7.7,4.6-16.8,4.4-16.8,4.4c-9,1.5-6.6,9-6.6,9c9.5,19.7,27.4,13.2,27.4,13.2C379.8,228.8,378,201.1,375,201.4z M356.1,225.1 c0,0-4.6,2.7-6.4-2.6c0,0-2.7,0.9-4.6,0.4c0,0,0.7,4.9-2.9,5c0,0-5.2-1.2-7.1-9.2c0,0-2.4-4.1,6.9-4.4c0,0,7.7,0.1,13.7-4.1 c0,0,5-1.3,6.4,2.4C362,212.6,366,220.3,356.1,225.1z" class="st20"/><g><path d="M347.5,189.5c0.5-1.6,1.7-2.6,3.2-3.1c1.6-0.6,3.1-0.2,4.7,0.1c0.1,0,0.2-0.2,0.1-0.2 c-2.9-1.8-7.5-0.1-8.4,3.2C347.1,189.6,347.4,189.7,347.5,189.5L347.5,189.5z" class="st20"/></g><g><path d="M325.3,193.1c0.4-1.1,1-2,2-2.5c1-0.6,1.9-0.3,2.9,0c0.1,0,0.2-0.1,0.1-0.2c-0.7-0.7-2.1-0.6-2.9-0.2 c-1.2,0.6-2,1.6-2.3,2.9C325.1,193.2,325.3,193.3,325.3,193.1L325.3,193.1z" class="st20"/></g><path d="M366.3,200.6c0.5,1.9-1.8,4.2-5.2,5.1c-3.4,0.9-6.5,0.1-7-1.8c-0.5-1.9,1.8-4.2,5.2-5.1 C362.6,197.9,365.8,198.7,366.3,200.6z" class="st21"/><path d="M339.7,206.1c0.5,1.9-1.8,4.2-5.2,5.1c-3.4,0.9-6.5,0.1-7-1.8c-0.5-1.9,1.8-4.2,5.2-5.1 C336.1,203.4,339.2,204.2,339.7,206.1z" class="st21"/><g><path d="M335.4,192.4c2.4,4-0.3,8.4-0.9,12.5c-0.2,1.2-0.1,2.5,1.1,3.2c1.7,1.1,4.8,0.3,6.6-0.3 c0.1,0,0.1-0.3,0-0.2c-1.9,0.2-5,1.4-6.7-0.1c-1.2-1-0.4-3.3-0.1-4.5c0.9-3.4,2.3-7.3,0.3-10.6 C335.5,192.1,335.3,192.2,335.4,192.4L335.4,192.4z" class="st19"/></g><path d="M352,202.3c-5.3,1.4-10.9-2.1-12.4-7.9c-1.5-5.8,1.6-11.6,6.9-13c5.3-1.4,10.9,2.1,12.4,7.9 C360.4,195.1,357.3,200.9,352,202.3z M346.6,182c-5,1.3-7.9,6.9-6.5,12.3c1.4,5.5,6.7,8.8,11.7,7.5c5-1.3,7.9-6.9,6.5-12.3 C356.9,184,351.6,180.6,346.6,182z" class="st20"/><path d="M329,207.5c-5.3,1.4-10.9-2.1-12.4-7.9c-1.5-5.8,1.6-11.6,6.9-13c5.3-1.4,10.9,2.1,12.4,7.9 C337.5,200.3,334.4,206.1,329,207.5z M323.7,187.2c-5,1.3-7.9,6.9-6.5,12.3c1.4,5.5,6.7,8.8,11.7,7.5c5-1.3,7.9-6.9,6.5-12.3 C333.9,189.2,328.7,185.9,323.7,187.2z" class="st20"/><polygon points="370.7 185.8 358.7 188.1 358.6 187.6 370.6 185.3" class="st20"/><path d="M339.6,194.5c-0.7-0.7-1.3-1-2-1c-1.1,0.1-1.8,1.2-1.8,1.2l-0.5-0.3c0-0.1,0.9-1.3,2.2-1.5 c0.8-0.1,1.7,0.3,2.4,1.2L339.6,194.5z" class="st20"/><g><path d="M317,158c8.8-6.7,19.8-10.4,30.7-7.8c0.1,0,0.2-0.1,0.1-0.2c-10.6-3.5-22.5,1.3-30.9,7.7 C316.8,157.9,316.9,158.1,317,158L317,158z" class="st6"/></g><path d="M383.4,245.8l-7.3-8.3c0,0,9.6-15.4,8.7-18.6c-0.8-3.2,8.2,2.1,8.2,2.1L383.4,245.8z" class="st17"/></g><path d="M317.5,520.7l26.4-6.2c0,0,4.5,9.9,4.5,15.3l-58.2,19.8C290.3,549.6,287.4,536,317.5,520.7z" class="st22"/><path d="M368.8,380.2l-0.1-6.7l-0.2,0c-0.1-0.6-0.7-1-1.8-1.1l-51.7-6.3l0-0.2c-31.7,5.9-47.4,13.8-47.4,13.8 c-11.7,3.4-6.8,18.3-5.8,21.2l55.5,6.7c0.2,0,0.4,0,0.6,0c0.1,0,0.1,0,0.2,0c0.1,0,0.3,0,0.4,0c0.1,0,0.2,0,0.3,0 c0.1,0,0.3,0,0.4,0c0.1,0,0.2,0,0.3,0c0.1,0,0.2,0,0.3,0c0.3,0,0.5-0.1,0.8-0.1c0.1,0,0.1,0,0.2,0c0.2,0,0.4-0.1,0.5-0.1 c0.1,0,0.1,0,0.2,0c3-0.6,6.6-2,9.4-3.8l32.9-20C365.4,382.7,367.8,381,368.8,380.2z" class="st23"/><g><path d="M373.9,364l-83.9-5.3c-3.1-0.4-9.2,1.5-13.6,4.1l-32.9,20c-4.4,2.6-5.4,5.1-2.2,5.5l81.2,9.8 c3.1,0.4,9.2-1.5,13.6-4.1l32.9-20c1.6-0.8,4.1-2.5,5-3.4L373.9,364z" class="st24"/><path d="M331.6,361.7l-41.6-3c-3.1-0.4-9.2,1.5-13.6,4.1l-32.9,20c-4.4,2.6-5.4,5.1-2.2,5.5l81.2,9.8 c1.2,0.1,2.9,0,4.7-0.5L331.6,361.7z" class="st25"/><path d="M336.7,388.4c-4.4,2.6-10.4,4.5-13.6,4.1l-81.2-9.8c-3.1-0.4-2.1-2.8,2.2-5.5l32.9-20 c4.4-2.6,10.4-4.5,13.6-4.1l81.2,9.8c3.1,0.4,2.1,2.8-2.2,5.5L336.7,388.4z" class="st26"/><path d="M320.8,386.1c-3.2,1.9-7.6,3.3-9.9,3l-59.3-7.2c-2.3-0.3-1.6-2.1,1.6-4l24-14.6c3.2-1.9,7.6-3.3,9.9-3 l59.3,7.2c2.3,0.3,1.6,2.1-1.6,4L320.8,386.1z" class="st27"/></g><g><path d="M307.7,361.4c0,0-3-6.7-14.4-9.5c0,0-6.8-1.8-12.1-3.5c0,0,0.2,3.8,12.2,6.8c0,0-12,2.5-21.9-1.7 c0,0-2.1-2.2-5.1,0.6c0,0,9.7,5.9,25.8,5.8c0,0,1.4,1.5-3.2,2c0,0-13.5,2-20.4,0.7c0,0-1-1.6-3.9,1.4c0,0,12.8,3.5,24.1,1.3 c0,0,1.8-0.3,2.4,0.7c0,0-8.4,4.7-18.2,3.4c0,0-2.8-1.3-4.8,1.7c0,0,9.4,3.4,22.7-1.9c0,0,1.8-1,2.2,0.1c0,0-5.2,5-16.1,6.9 c0,0-1.8-0.4-2.5,2c0,0,11.7-1.7,20.3-5c0,0,11.1-1.2,13.7-4.7C308.4,368.4,310.7,364.8,307.7,361.4z" class="st12"/><path d="M352.3,345.6v-23.2c-19,18-50.2,36-50.2,36l1.3,12.6c21.1-7.9,39.5-17.1,53.8-25.4H352.3z" class="st12"/></g><g><path d="M339.9,361.4c0,0-3-6.7-14.4-9.5c0,0-6.8-1.8-12.1-3.5c0,0,0.2,3.8,12.2,6.8c0,0-12,2.5-21.9-1.7 c0,0-2.1-2.2-5.1,0.6c0,0,9.7,5.9,25.8,5.8c0,0,1.4,1.5-3.2,2c0,0-13.5,2-20.4,0.7c0,0-1-1.6-3.9,1.4c0,0,12.8,3.5,24.1,1.3 c0,0,1.8-0.3,2.4,0.7c0,0-8.4,4.7-18.2,3.4c0,0-2.8-1.3-4.8,1.7c0,0,9.4,3.4,22.7-1.9c0,0,1.8-1,2.2,0.1c0,0-5.2,5-16.1,6.9 c0,0-1.8-0.4-2.5,2c0,0,11.7-1.7,20.3-5c0,0,11.1-1.2,13.7-4.7C340.6,368.4,342.9,364.8,339.9,361.4z" class="st18"/><path d="M334.2,358.4c0,0,42.9-24.8,58.7-45.2c0,0,17.3-8.3,30.9,2.2c0,0,2.3,0.6-1.7,8.7c0,0-35.2,27.6-86.7,46.8 L334.2,358.4z" class="st18"/></g><g><g><path d="M324.6,390.5l-8.7-66.8c-0.4-2.9-1.9-5.5-3.9-5.7l-80.7-9.6c-2-0.2-3.3,1.9-2.9,4.8l8.1,62.3h80.2v19.1 l4.9,0.6C323.6,395.6,325,393.5,324.6,390.5z" class="st24"/><path d="M282.1,324.2L310,325l4.7-4.7c-0.7-1.1-1.5-1.9-2.6-2.1l-80.9-9.6c-2-0.2-3.3,1.9-2.9,4.8l8.7,66.8 c0.4,2.9,2.3,5.5,4.3,5.7l39.5,4.7L282.1,324.2z" class="st28"/><path d="M319.2,390.2c0.4,2.7-0.9,4.8-2.8,4.6l-76-9.1c-1.9-0.2-3.7-2.6-4.1-5.4l-8.2-63 c-0.4-2.7,0.9-4.8,2.8-4.6l76,9.1c1.9,0.2,3.7,2.6,4.1,5.4L319.2,390.2z" class="st27"/></g><path d="M273.8,352c1.5,6-1.2,10.7-6,10.6c-4.8-0.1-9.9-5.1-11.4-11c-1.5-6,1.2-10.7,6-10.6 C267.2,341.1,272.3,346,273.8,352z" class="st6"/></g><g class="st29"><path d="M736.6,393c-13.3,3.4-5.1,13.2-2.4,20.5c-3.4,1.4-19.2,4.4-13.6,8.6c2.5,1.7,16.3-0.8,19.2-1.4 c8.9-1.5,8.8-5.4,9.1-12.9c0.4-5.7,0.2-12.2-7.8-14.2" class="st30"/><path d="M812.4,321c-9.2-8.6-23.8-2.2-29.4,6.9c-5.6,11.1-0.3,19.8,1,30.6c1.5,8.9,3.5,21.3,1,31.4 c-4.7-4.9-11.5-10.6-17.7-16.7c-4-7.8-9.2-7.6-12.1-26.7c2.4-4.4,2.1-9.7-0.1-14.4c2.1-5.1,3.3-13.5,2.7-16.2 c-2.6-10.9-10.5-1.4-14.7,5.7c-1.5-0.4-3.2-0.6-4.9-0.6c-1.8-3.1-3.8-5.8-5-6.8c-8.6-6.4-8.9,4.8-7.7,12.8 c-1.6,2.2-2.6,4.7-3.1,7.4c-0.5,0.2-0.9,0.5-1.2,0.7c-3.3,3.5,0,9.6,3.5,12.5c2,3.5,5.3,6.1,9.5,7.1c-2.3,6.8-2.8,15.4-2.5,18.7 c1.9,12.5,0.8,8,0.9,21.1c0.1,16.5,12.5,30.8,26.4,29c2.4-0.3,4.5-0.6,6.4-1c0.6,0,1.3,0,2-0.1c1.3,0.3,2.9,0.4,4.7,0.3 c18-1.2,22.3-18,16.8-27.8c7.3-15.4,4.3-33-0.5-49.4c-3.4-11.6,1.2-22.8,15.1-20.3c5,0.8,7.5,17.5,13.2,10.4 C819.7,332.6,814.5,322.9,812.4,321z" class="st31"/><path d="M753.1,330.8c0,0-1.8-6.2-7.8-8.7c0,0,4-11,9.7-8.8C755,313.3,760,315.1,753.1,330.8z" class="st32"/><path d="M726.5,325.3c0,0,4.3-4.6,8.5-4.7c0,0-2.1-6.4-6.6-6.8C728.4,313.9,725.7,314.9,726.5,325.3z" class="st32"/><path d="M725.5,333.9c0,0,4.2-1.6,5.2,0.4c0,0-1.4,1.8-3.4,1.8C727.2,336.1,725.3,335.4,725.5,333.9z" class="st33"/><path d="M773.6,422.6c-0.7-5.9-7.5-12.8-11.5-18.9c-6.6-8.7-16.2-15.9-19-26.7c-1.6-4.9,0.2-10.9-1.4-16.3 c-1-3.6-5-10.1-8.6-6.3c0.4,0.1,0.8,0.3,1.2,0.4c-2.3,6.8-2.8,15.4-2.5,18.7c1.9,12.5,0.8,8,0.9,21.1 c0.1,16.5,12.5,30.8,26.4,29c2.4-0.3,4.5-0.6,6.4-1c0.6,0,1.3,0,2-0.1c1.3,0.3,2.9,0.4,4.7,0.3 C772.7,422.7,773.1,422.6,773.6,422.6z" class="st32"/><path d="M735.3,333.5c0,0,1.5-6.1,9-5.2c0,0-5.9-0.2-7.3,4.3c0,0,5.4-0.5,7.2,0.7 C744.2,333.2,737.5,332.9,735.3,333.5z" class="st33"/><path d="M726.7,333.1c0,0,0.2-3.7-2.7-4c0,0,1.6,0.9,2,2.9c0,0-1.8-0.6-2.6-0.1C723.4,332,725.9,332.5,726.7,333.1 z" class="st33"/><path d="M727,338.5c-1.8,0.4-3.1,2.9-2.5,4.8c0.5,1.5,2.4,2.9,3.6,1.1c1.1-1.3-0.2-2.8,1.5-4 c-0.7-0.5-1.3-1.1-2-1.4" class="st34"/><path d="M722,339c0,0,3.8,1.7,4.9-2.1c0,0,3.1,4.9,7,2.6c0,0-3.2,2.7-6.9-0.5C727,339,725.1,341,722,339z" class="st33"/><g class="st35"><path d="M740.8,356c2.9-1.1,4.3-3.2,2.4-5.1c-0.7-0.6-1.8-0.9-2.3-1.4c-0.7-0.6-0.5-1.6-1.5-2.3 c-1.8-1.3-3.5-0.2-5.3-0.4c-6.5-0.3-13.4-3.8-13.7-10.5c-1.6,3.5,1.3,8.6,4.4,11.2c2,3.5,5.3,6.1,9.5,7.1 c-0.4,1.1-0.7,2.2-1,3.3C736.7,356.6,739.1,356.7,740.8,356z" class="st36"/></g><path d="M730.5,346.2c-13.2,1.8-10.8,5.3-3.7,23.1c0.9,6,13.4,10.6,11,4c-1.1-2.9-7.9-15.9-9.5-20.6 C747.5,353.7,739.1,345,730.5,346.2z" class="st31"/><g class="st35"><path d="M735.2,351c-3.4,1.1-7.8-2.9-10.3,0.5l0.2,0c-0.1,4.2,1.9,6.6,4,10c2.3,4.6,1.5,9.5,2.8,13.8 c0,0,0.1,0,0.1,0.1c1.4-2.5,2.4-5.6,2.7-8.5c-2.4-4.9-5.5-11.2-6.5-14.2c7.5,0.4,10.9-0.7,11.6-2.1 C739.2,350.1,737.6,350.1,735.2,351z" class="st36"/></g><path d="M732.7,394.6c0,1,0.1,2,0.2,2.9l23.4-0.6c-5.5-6.1-11.2-12-13.2-19.9c-1.3-4-0.3-8.8-0.8-13.3l-3.7,0.1 l-0.1-3.7l-5.6,0.1c-1.1,5.4-1.3,10.8-1.1,13.3C733.7,386,732.6,381.5,732.7,394.6z" class="st32"/><path d="M748.6,379.3c-3.3,6-2.6,14.9-3.9,21.3c-0.4,4.5-1.2,9.9-3.6,13.9c-1.9,4-8.1,6.8-8,11.2 c15.3,4.2,18.8-14,20.5-21.4c2.7-8.5,11.8-23-0.7-27.6" class="st31"/><g class="st35"><path d="M753.7,404.4c2.7-8.4,11.7-22.9-0.5-27.6l0.8,6.8c0.2,9.6-2.5,18.3-4.5,27.5c-1.3,6-3.9,11.5-10.1,12.4 c-1.3,0.2-3.8-0.2-5.7,0c-0.3,0.7-0.5,1.5-0.5,2.3C748.4,430,751.9,411.8,753.7,404.4z" class="st36"/></g><g class="st35"><path d="M813.8,332.5c-3-2.2-3.5-7.2-7.2-9.4c-3.3-1.9-6.6-1.2-9.9-0.4c-16.7,3.4-12.9,22.1-8,34.1 c4.1,11.3,3.2,24.5-1.9,34.8l0.7,1.1v0.1l0.5,0.9l1.1,1c7.2-15.4,4.2-32.9-0.6-49.2c-3.4-11.6,1.2-22.8,15.1-20.3 c5,0.8,7.5,17.5,13.2,10.4c0.5-0.5,0.7-1.2,0.8-2C816.4,333.8,815.1,333.7,813.8,332.5z" class="st36"/></g><path d="M770.7,392.1c-13.2,3.9-8,16.1-5.3,24.8c-12.8-0.2-16.2,4.6-10.6,9.6c2.5,2,16.3-0.9,19.2-1.5 c8.8-1.8,8.7-6.4,9-15.2c0.3-6.7,0.1-14.5-7.8-16.8" class="st31"/><g class="st35"><path d="M774,425c6.9-1.4,8.4-4.5,8.8-10.1c-1.7,0.3-2.4,3.1-5,3.1c0.8,5.6-21.3,10-25.4,5.2 c0.3,1,1.1,2.2,2.4,3.3C757.2,428.6,771,425.6,774,425z" class="st36"/></g><g class="st37"><path d="M733.4,336c0,0,8.7-3.9,16.6,0.3C750,336.3,744.3,333.2,733.4,336z" class="st38"/><path d="M733.6,337c0,0,7.9-0.5,11.6,6.2C745.2,343.1,742.5,338.3,733.6,337z" class="st38"/><path d="M733.8,336.6c0,0,10.1-2.1,17.5,4.2C751.4,340.8,746,336.3,733.8,336.6z" class="st38"/></g><g class="st37"><path d="M724.6,336.5c0,0-6.9-6.5-15.8-5.1C708.8,331.4,715.2,330.4,724.6,336.5z" class="st38"/><path d="M724,337.4c0,0-7.3-3-13,2.1C711,339.4,715.2,335.8,724,337.4z" class="st38"/><path d="M724,337c0,0-8.9-5.2-18-1.7C706,335.3,712.6,332.8,724,337z" class="st38"/></g><path d="M774.7,389.5c2.7,2.6-1.4,7.9,4.5,6.8c4.3-0.8,3.8-5.4,3.4-8.3c0-0.2,0-0.3-0.1-0.5 c-4.4-4.3-10-9.2-15.2-14.3c-2.4-4.7-5.3-6.5-7.8-11.4c-2.6,2.3-1.3,10.4,0.7,12.9c1,1.6,3,2.6,4.1,4.5c1,1.6,0.7,3.6,1.8,5.6 C768.4,389,772.7,386.9,774.7,389.5z" class="st39"/></g></g><g class="st5"><ellipse cx="61" cy="94.1" class="st6" rx="40.5" ry="40.5" transform="matrix(0.7071 -0.7071 0.7071 0.7071 -48.6911 70.7285)"/><g><polygon points="85.5 79.4 75.8 69.6 75.8 79.1 76.1 79.4" class="st40"/><path d="M73.1,79.1V68.2l0-0.2H44.9c-2.6,0-4.7,2.1-4.7,4.7v41.9c0,2.6,2.1,4.7,4.7,4.7h36.9 c2.6,0,4.7-2.1,4.7-4.7V82l-0.4,0.1h-10C74.4,82.1,73.1,80.7,73.1,79.1z M69.7,109.9H49.5c-0.5,0-1-0.6-1-1.3l1-1.3h20.1l1,1.3 C70.6,109.3,70.2,109.9,69.7,109.9z M76.3,102.3H49.8l-1.3-1.3c0-0.7,0.6-1.3,1.3-1.3h26.4c0.7,0,1.3,0.6,1.3,1.3L76.3,102.3z M76.3,92.2l1.3,1.3l-1.3,1.3H49.8l-1.3-1.3l1.3-1.3H76.3z" class="st40"/></g></g><g class="st5"><ellipse cx="126.7" cy="139.7" class="st6" rx="27" ry="27" transform="matrix(0.1553 -0.9879 0.9879 0.1553 -30.9387 243.199)"/><g><polygon points="147.1 152 147.1 129.8 134.8 139.2 147 152.3" class="st41"/><path d="M107.6,127.3l19.5,14.8l19.5-14.9c-0.4-0.4-0.9-0.6-1.5-0.6h-35.8C108.5,126.6,108,126.9,107.6,127.3z" class="st41"/><polygon points="107.1 129.9 107.1 152 107.2 152.4 119.4 139.3" class="st41"/><polygon points="145.9 153.6 133.5 140.2 127.8 144.6 127.1 144.8 126.4 144.6 120.7 140.3 108.3 153.6 109.2 153.8 145 153.8" class="st41"/></g></g><g class="st5"><ellipse cx="108.1" cy="37.9" class="st6" rx="19.1" ry="19.1" transform="matrix(0.6876 -0.7261 0.7261 0.6876 6.2163 90.3279)"/><path d="M117.1,32.9c0-4.5-4.8-8.5-8.9-8.5c-4.1,0-8.9,4-8.9,8.5c0,4.4,8.9,18.8,8.9,18.8S117.1,37.3,117.1,32.9z M102.7,32.6c0-3,2.4-5.5,5.5-5.5c3,0,5.5,2.4,5.5,5.5c0,3-2.5,5.5-5.5,5.5C105.1,38.1,102.7,35.6,102.7,32.6z" class="st42"/></g><g class="st5"><ellipse cx="542.6" cy="142.1" class="st6" rx="45" ry="45" transform="matrix(0.2161 -0.9764 0.9764 0.2161 286.5827 641.1594)"/><g><path d="M542.6,123.9c-9.1,0-16.6,7.4-16.6,16.6c0,9.1,7.4,16.6,16.6,16.6c9.1,0,16.6-7.4,16.6-16.6 C559.1,131.3,551.7,123.9,542.6,123.9z" class="st43"/><path d="M542.6,105.4c-19.3,0-35,15.7-35,35c0,19.3,15.7,35,35,35c19.3,0,35-15.7,35-35 C577.6,121.1,561.9,105.4,542.6,105.4z M542.6,165c-13.5,0-24.6-11-24.6-24.6c0-13.5,11-24.6,24.6-24.6 c13.5,0,24.5,11,24.5,24.6C567.1,153.9,556.1,165,542.6,165z" class="st43"/></g></g><g class="st5"><circle cx="76.2" cy="168.3" r="18" class="st6"/><g><path d="M88.7,161.9H82v8.5c0,1.5-1.3,2.8-2.9,2.8h-8.9v0.1c0,1,0.9,1.7,1.9,1.7h13l3.5,3.8l-0.3-3.8h0.5 c1.1,0,1.9-0.8,1.9-1.7v-9.7C90.7,162.7,89.8,161.9,88.7,161.9z" class="st27"/><path d="M79.1,172c1,0,1.7-0.7,1.7-1.6v-8.7c0-0.9-0.8-1.6-1.7-1.6h-15c-1,0-1.7,0.7-1.7,1.6v8.7 c0,0.9,0.8,1.6,1.7,1.6h0.4l-0.3,3.4l3.2-3.4H79.1z" class="st27"/></g></g><g class="st5"><ellipse cx="328.1" cy="63.1" class="st6" rx="23" ry="23" transform="matrix(0.9996 -2.778168e-02 2.778168e-02 0.9996 -1.6271 9.1394)"/><path d="M340.9,67l6-2.2V60l-6-2.2c-0.1-0.4-0.3-0.7-0.4-1l2.7-5.8l-3.4-3.4l-5.8,2.7c-0.3-0.2-0.7-0.3-1-0.4 l-2.2-6h-4.8l-2.2,6c-0.4,0.1-0.7,0.3-1,0.4l-5.8-2.7l-3.4,3.4l2.7,5.8c-0.2,0.3-0.3,0.7-0.4,1l-6,2.2v4.8l6,2.2 c0.1,0.4,0.3,0.7,0.4,1l-2.7,5.8l3.4,3.4l5.8-2.7c0.3,0.2,0.7,0.3,1,0.4l2.2,6h4.8l2.2-6c0.3-0.1,0.7-0.3,1-0.4l5.8,2.7l3.4-3.4 l-2.7-5.8C340.6,67.7,340.8,67.3,340.9,67z M328.4,70.4c-4.4,0-7.9-3.5-7.9-7.9c0-4.4,3.5-7.9,7.9-7.9c4.4,0,7.9,3.5,7.9,7.9 C336.3,66.8,332.7,70.4,328.4,70.4z" class="st41"/></g><g class="st5"><ellipse cx="197.1" cy="91.1" class="st6" rx="45" ry="45" transform="matrix(0.2254 -0.9743 0.9743 0.2254 63.8905 262.6078)"/><g><rect width="9.6" height="19.4" x="163.3" y="97.9" class="st44"/><rect width="9.6" height="28.4" x="176" y="89" class="st44"/><rect width="9.6" height="38.9" x="188.7" y="78.5" class="st44"/><polyline points="211 69.3 201.4 69.3 201.4 117.4 211 117.4 211 69.3" class="st44"/><polyline points="223.7 58.5 214.1 58.5 214.1 117.4 223.7 117.4 223.7 58.5" class="st44"/></g></g><g class="st5"><ellipse cx="129.7" cy="206.6" class="st6" rx="32.9" ry="32.9" transform="matrix(0.9333 -0.3592 0.3592 0.9333 -65.5558 60.3681)"/><g><polygon points="120.3 196.3 148.4 196.3 151 215.6 151 192.1 123.1 192.1 123.1 187.5 114.1 187.5 114.1 191.8 118 191.8" class="st45"/><polygon points="119.1 198.2 116.8 193.7 109.5 193.7 114.8 221.7 150 221.7 146.8 198.2" class="st45"/></g></g><g class="st5"><ellipse cx="395.6" cy="47.3" class="st6" rx="29" ry="29" transform="matrix(0.5943 -0.8042 0.8042 0.5943 122.4639 337.3644)"/><polygon points="384 26.8 419.9 47.5 384 68.2" class="st46"/></g><g class="st5"><ellipse cx="529.9" cy="227.9" class="st6" rx="34.5" ry="34.5" transform="matrix(0.9997 -2.493301e-02 2.493301e-02 0.9997 -5.5172 13.2839)"/><g><path d="M529.2,236.1c3.4,0,6.6,1.4,8.9,3.5l4.2-5c-3.5-3.1-8.1-5.1-13.1-5.1c-5.1,0-9.6,1.9-13.1,5.1l4.2,5 C522.6,237.5,525.7,236.1,529.2,236.1" class="st47"/><path d="M529.2,219.1c-7.6,0-14.5,2.8-19.8,7.4l4.3,5.1c4.2-3.6,9.6-5.9,15.5-5.9c6,0,11.4,2.3,15.5,5.9l4.3-5.1 C543.6,221.9,536.7,219.1,529.2,219.1" class="st47"/><path d="M529.2,209c-10,0-19.2,3.7-26.3,9.8l4.2,5.1c5.9-5.1,13.6-8.2,22.1-8.2c8.4,0,16.1,3.1,22.1,8.2l4.2-5.1 C548.3,212.7,539.2,209,529.2,209" class="st47"/><path d="M533.1,245.6c-1-1-2.4-1.7-3.9-1.7c-1.6,0-2.9,0.6-3.9,1.7l3.9,4.7L533.1,245.6z" class="st47"/></g></g><g class="st5"><ellipse cx="215" cy="244.4" class="st6" rx="45" ry="45" transform="matrix(0.2343 -0.9722 0.9722 0.2343 -72.9847 396.1151)"/><g><line x1="191.6" x2="191.6" y1="223.5" y2="223.5" class="st48"/><line x1="240.8" x2="240.8" y1="223.5" y2="223.5" class="st48"/><path d="M233.5,215.2h-4v2.4c0,1.4-1.4,2.6-3.1,2.6c-1.7,0-3.1-1.2-3.1-2.6v-2.4h-14.3v2.4c0,1.4-1.4,2.6-3.1,2.6 c-1.7,0-3.1-1.2-3.1-2.6v-2.4h-4c-4,0-7.3,3.3-7.3,7.3h49.2C240.8,218.5,237.5,215.2,233.5,215.2z" class="st48"/><path d="M191.6,225.3v45.5h49.2v-45.5H191.6z M226.4,235.6h2.9v24.8H226v-21.7h-0.1l-4.3,2.3l-0.7-2.6L226.4,235.6 z M202.1,256.6c1,0.6,3.2,1.6,5.5,1.6c4.3,0,5.7-2.8,5.6-4.8c0-3.5-3.2-5-6.4-5h-1.9v-2.5h1.9c2.4,0,5.5-1.3,5.5-4.2 c0-2-1.3-3.7-4.3-3.7c-2,0-3.9,0.9-5,1.6l-0.9-2.5c1.3-1,3.8-1.9,6.5-1.9c4.9,0,7.1,2.9,7.1,5.9c0,2.6-1.5,4.7-4.6,5.8v0.1 c3.1,0.6,5.5,2.9,5.5,6.4c0,4-3.1,7.4-9.1,7.4c-2.8,0-5.2-0.9-6.5-1.7L202.1,256.6z" class="st48"/><path d="M204.3,217.6c0,0.7,0.8,1.2,1.7,1.2c1,0,1.7-0.6,1.7-1.2v-7.3c0-0.7-0.8-1.2-1.7-1.2 c-0.9,0-1.7,0.6-1.7,1.2V217.6z" class="st48"/><path d="M224.7,217.6c0,0.7,0.8,1.2,1.7,1.2c0.9,0,1.7-0.6,1.7-1.2v-7.3c0-0.7-0.8-1.2-1.7-1.2 c-0.9,0-1.7,0.6-1.7,1.2V217.6z" class="st48"/></g></g><g class="st5"><ellipse cx="186.2" cy="171.2" class="st6" rx="21" ry="21" transform="matrix(0.7071 -0.7071 0.7071 0.7071 -66.5452 181.7841)"/><g><path d="M170.7,177.8h3.6c1.9,3.9,4.3,6.6,8.9,6.6h2.4v-9.3h0.3c1,0,1.8-0.8,1.8-1.8v-1.4c0-1-0.8-1.8-1.8-1.8 h-0.3v-9.3h-2.4c-4.7,0-7,2.7-8.9,6.6h-3.6c-0.6,0-0.9,0.6-0.9,1.4v7.5C169.8,177.1,170.1,177.8,170.7,177.8z" class="st49"/><path d="M193.1,172.6c0-2.3-1-4.3-2.6-5.7l-0.7,0.6c1.4,1.2,2.3,3.1,2.3,5.1c0,2-0.9,3.8-2.3,5.1l0.7,0.6 C192.1,176.9,193.1,174.9,193.1,172.6z" class="st49"/><path d="M197.6,172.6c0-3.5-1.5-6.6-3.8-8.8l-0.7,0.6c2.2,2.1,3.5,5,3.5,8.2c0,3.2-1.4,6.1-3.5,8.2l0.7,0.6 C196.1,179.2,197.6,176.1,197.6,172.6z" class="st49"/><path d="M202.5,172.6c0-4.8-2-9.1-5.1-12.2l-0.7,0.6c3,2.9,4.9,7,4.9,11.6c0,4.5-1.9,8.6-4.9,11.6l0.7,0.6 C200.5,181.7,202.5,177.4,202.5,172.6z" class="st49"/></g></g><g class="st5"><ellipse cx="260.3" cy="161.4" class="st6" rx="32" ry="32" transform="matrix(0.7071 -0.7071 0.7071 0.7071 -37.9223 231.3255)"/><path d="M260.4,134.8c-15.1,0-27.3,12.2-27.3,27.3c0,15.1,12.2,27.3,27.3,27.3c15.1,0,27.3-12.2,27.3-27.3 C287.6,147,275.4,134.8,260.4,134.8z M272.7,153.6c2.5,0,4.5,2,4.5,4.5c0,2.5-2,4.5-4.5,4.5c-2.5,0-4.5-2-4.5-4.5 C268.2,155.6,270.2,153.6,272.7,153.6z M260.4,150.9c3.3,0,5.9,2.7,5.9,5.9c0,3.3-2.7,6-5.9,6c-3.3,0-5.9-2.7-5.9-6 C254.5,153.6,257.1,150.9,260.4,150.9z M248.6,153.6c2.5,0,4.5,2,4.5,4.5c0,2.5-2,4.5-4.5,4.5c-2.5,0-4.5-2-4.5-4.5 C244,155.6,246.1,153.6,248.6,153.6z M238.9,169.5c0-3.2,4.3-5.9,9.6-5.9c2,0,3.9,0.4,5.5,1.1c-3,1-5.2,2.8-6.2,4.8H238.9z M248.2,171.3c0.4-3.8,5.7-6.8,12.2-6.8c6.5,0,11.8,3,12.2,6.8H248.2z M272.9,169.5c-0.9-2-3-3.7-5.9-4.7 c1.6-0.7,3.5-1.1,5.7-1.1c5.3,0,9.6,2.6,9.6,5.9H272.9z" class="st7"/></g><g class="st5"><ellipse cx="509.7" cy="60.5" class="st6" rx="31.5" ry="31.5" transform="matrix(0.9996 -2.769668e-02 2.769668e-02 0.9996 -1.4805 14.1413)"/><g><path d="M519.4,48.6l-3.9-5.4h-11.8l-3.9,5.4h-10.2v25.9h39.9V48.6H519.4z M497,54.6h-5.3v-3h5.3V54.6z M509.6,72 c-5.7,0-10.4-4.7-10.4-10.4c0-1.8,0.4-3.5,1.2-4.9c1.8-3.3,5.2-5.5,9.2-5.5c4,0,7.4,2.2,9.2,5.5c0.8,1.5,1.2,3.1,1.2,4.9 C520,67.3,515.3,72,509.6,72z" class="st27"/><path d="M509.6,53c-3.7,0-6.8,2.4-8,5.6c-0.3,0.9-0.5,1.9-0.5,2.9c0,4.7,3.8,8.6,8.6,8.6c4.7,0,8.6-3.8,8.6-8.6 c0-1-0.2-2-0.5-2.9C516.4,55.4,513.3,53,509.6,53z" class="st27"/></g></g><g class="st5"><ellipse cx="451.1" cy="54.3" class="st6" rx="15" ry="15" transform="matrix(0.9997 -2.495722e-02 2.495722e-02 0.9997 -1.2144 11.2762)"/><g><path d="M442.7,61.6c0,0.5,0.4,0.9,1,0.9h13.9c0.5,0,1-0.4,1-0.9v-11h-15.9V61.6z" class="st50"/><polygon points="458.2 45.9 457.6 43.4 454 44.2 456 46.5" class="st50"/><polygon points="442.1 47.1 442.8 49.7 446.2 48.9 444.2 46.6" class="st50"/><polygon points="445.4 46.4 447.4 48.6 450.6 47.8 448.5 45.6" class="st50"/><polygon points="452.9 44.5 449.7 45.3 451.7 47.5 454.9 46.7" class="st50"/></g></g><g class="st5"><ellipse cx="367.1" cy="113.1" class="st6" rx="25.5" ry="25.5" transform="matrix(0.9996 -2.778556e-02 2.778556e-02 0.9996 -3.0015 10.2436)"/><path d="M350.9,96.7v23.9v7v1.3H384v-1.3v-5.1V96.7H350.9z M377.4,111.7l-5.2,8.4l-10.4-16.7l-9.1,14.6V98.4h29.8 v21.4L377.4,111.7z" class="st43"/></g><g class="st5"><ellipse cx="476.5" cy="186.7" class="st6" rx="24" ry="24" transform="matrix(0.7071 -0.7071 0.7071 0.7071 7.5365 391.5833)"/><g><path d="M488.5,179.1c-0.2,0.5-0.5,0.9-0.7,1.4l3.6,0.9l-5.8,17.6l-8.3-3.1l2.3-6.6l0.9-2.7 c-0.3-0.5-0.6-1.1-1-1.7l-1.5,4.3l-2.3,6.5l-8.1,1.4l7.3-15.8l2.3-0.6c-0.2-0.5-0.5-0.9-0.7-1.4l-2.1,0.6l-8-2.6l-9.9,18.9 l8.8,2.5l1,0.3l0.5-0.1l9.3-1.6l10.3,3.9l6.7-20.6L488.5,179.1z M458.9,194.9l8.5-16.1l6.2,2l-5.9,12.9l-1.5,3.3L458.9,194.9z" class="st41"/><path d="M478.2,178.9c0.2,0.5,0.5,0.9,0.7,1.4c0.5,0.9,1,1.9,1.5,2.7c0.3,0.6,0.7,1.2,1,1.7 c0.8,1.3,1.3,2.2,1.3,2.2s2-3.2,3.8-6.6c0.2-0.5,0.5-0.9,0.7-1.4c1.1-2.2,1.9-4.2,1.9-5.3c0-3.2-3.4-6-6.3-6 c-2.9,0-6.3,2.8-6.3,6C476.3,174.7,477.1,176.7,478.2,178.9z M482.6,169.5c2.1,0,3.9,1.7,3.9,3.9c0,2.1-1.7,3.9-3.9,3.9 c-2.1,0-3.9-1.7-3.9-3.9C478.7,171.2,480.5,169.5,482.6,169.5z" class="st41"/></g></g><path d="M226.9,371.1c-8.7,0-15.8-7.1-15.8-15.8l0-0.5l0-62.1h1v62.1l0,0.5c0,8.2,6.7,14.8,14.8,14.8l3.8-0.1v1h-0.3 L226.9,371.1z" class="st51"/><path d="M512.3,371.1l-3.8-0.1v-1h0.3l3.4,0.1c8.2,0,14.8-6.7,14.8-14.8l0-0.5V270h1v84.8l0,0.5 C528.2,364,521.1,371.1,512.3,371.1z" class="st51"/><path d="M491.9,285.1c-8.7,0-15.8-7.1-15.8-15.8l0-0.5V219h1v49.8l0,0.5c0,8.2,6.7,14.8,14.8,14.8l3.4-0.1H527v1 h-31.7L491.9,285.1z" class="st51"/><path d="M557.3,313.1l-2.9-0.1h-26.3v-1h26.3l2.9,0.1c6.7,0,12.2-6.7,12.2-14.8l0-0.5V181.5h1v115.3l0,0.5 C570.5,306,564.6,313.1,557.3,313.1z" class="st51"/><path d="M454.8,260.1c-7.3,0-13.3-7.1-13.3-15.8l0-0.5V162h1v81.8l0,0.5c0,8.2,5.5,14.8,12.2,14.8l2.8-0.1h18.8v1 h-18.8L454.8,260.1z" class="st51"/><path d="M415,218.1c-9.2,0-16.7-7.1-16.7-15.8l0-0.5l0-122.1h1v122.1l0,0.5c0,8.2,7,14.8,15.7,14.8l3.6-0.1h23.9v1 h-23.9L415,218.1z" class="st51"/><path d="M146.9,327.1c-8.7,0-15.8-7.1-15.8-15.8l0-0.5l0-62.1h1v62.1l0,0.5c0,8.2,6.7,14.8,14.8,14.8l3.4-0.1H212v1 h-61.7L146.9,327.1z" class="st51"/><path d="M86.4,254.4c-6.2,0-11.3-5.9-11.3-13.2l0-0.4l0-51.4h1l0,51.9c0,6.7,4.6,12.2,10.3,12.2l2.4-0.1H132v1H88.7 L86.4,254.4z" class="st51"/><path d="M278.7,254.4c-7.5,0-13.6-5.3-13.6-11.9l0-0.4l0-46.1h1l0,46.5c0,6,5.6,10.9,12.6,10.9l2.9-0.1H303v1h-21.4 L278.7,254.4z" class="st51"/><path d="M66.5,243.1c-11.4,0-20.7-7.1-20.7-15.8l0-0.5l0-89.1h1v89.1l0,0.5c0,8.2,8.8,14.8,19.7,14.8l4.5-0.1h4.4v1 h-4.4L66.5,243.1z" class="st51"/><path d="M283.1,298.4l-4.5-0.1H213v-1h65.6l4.5,0.1c10.8,0,19.7-6.7,19.7-14.8l0-0.5l0-150.5h1v150.4l0,0.5 C303.8,291.3,294.6,298.4,283.1,298.4z" class="st51"/><path d="M188.6,554.1c0,9.4-5.3,16.9-11.8,16.9H33.9c-6.5,0-11.8-7.6-11.8-16.9V372c0-9.4,5.3-16.9,11.8-16.9h142.9 c6.5,0,11.8,7.6,11.8,16.9V554.1z" class="st51"/><path d="M175.1,388.1c0,0,15,19.5,46.5,7.5c0,0-12,24-52.5,15L175.1,388.1z" class="st51"/><rect width="127.5" height="4.5" x="41.6" y="383.6" class="st1"/><rect width="127.5" height="4.5" x="41.6" y="406.1" class="st1"/><rect width="127.5" height="4.5" x="41.6" y="428.6" class="st1"/><rect width="127.5" height="4.5" x="41.6" y="451.1" class="st1"/><rect width="127.5" height="4.5" x="41.6" y="473.6" class="st1"/><rect width="127.5" height="4.5" x="41.6" y="496.1" class="st1"/><rect width="127.5" height="4.5" x="41.6" y="518.6" class="st1"/><rect width="127.5" height="4.5" x="41.6" y="541.1" class="st1"/><circle cx="507.7" cy="370.3" r="6" class="st51"/><circle cx="507.7" cy="370.3" r="3.8" class="st1"/><circle cx="227.6" cy="370.3" r="6" class="st51"/><circle cx="227.6" cy="370.3" r="4" class="st1"/></g></g></svg>