<svg xmlns="http://www.w3.org/2000/svg" xmlns:xlink="http://www.w3.org/1999/xlink" id="Ñëîé_1" x="0" y="0" enable-background="new 0 0 600 450" version="1.1" viewBox="0 0 600 450" xml:space="preserve"><style type="text/css">.st0{fill:#d4ecff}.st0,.st1{display:none}.st2{fill:#ff2c9c}.st2,.st3{display:inline}.st4{fill:#fff}.st5{display:inline;fill:#173d7a}.st6{display:none;opacity:.6}.st7{display:inline;fill:#396caa}.st8{clip-path:url(#SVGID_2_)}.st9{opacity:.5}.st10,.st9{fill:#173d7a}.st11{fill:#396caa}.st12{fill:#274f89}.st13{fill:#d4ecff}.st14{fill:#5793ce}.st15{fill:#ff2c9c}.st16{clip-path:url(#SVGID_2_)}.st16,.st17{opacity:.3}.st18{clip-path:url(#SVGID_4_)}.st19{fill:#79b1e0}.st20{fill:#d3008d}.st21{fill:#e573b5}.st22{clip-path:url(#SVGID_6_)}.st23{opacity:.5;clip-path:url(#SVGID_2_);fill:#173d7a}.st24{fill:#b70083}</style><path d="M0,72.1C3.4,72.7,6.9,73,10.5,73c34.1,0,61.8-27.7,61.8-61.8c0-3.8-0.3-7.6-1-11.2H0V72.1z" class="st0"/><path d="M27.9,450c10.5-8.3,17.2-21,17.2-35.4c0-24.9-20.2-45.1-45.1-45.1V450H27.9z" class="st0"/><g class="st1"><path d="M149.8,203.2H76c-5.7,0-10.3-4.6-10.3-10.3l0,0c0-5.7,4.6-10.3,10.3-10.3h73.8c5.7,0,10.3,4.6,10.3,10.3l0,0 C160.1,198.5,155.5,203.2,149.8,203.2z" class="st2"/><g class="st3"><path d="M90.4,197.4v-7.5h-1.5v-1.2h4.5v1.2H92v7.5H90.4z" class="st4"/><path d="M94.1,197.4v-8.7h2c0.5,0,0.9,0,1.2,0.1c0.3,0.1,0.6,0.2,0.9,0.4c0.2,0.2,0.4,0.4,0.5,0.7 c0.1,0.3,0.2,0.7,0.2,1.1c0,0.5-0.1,1-0.2,1.3c-0.2,0.3-0.4,0.6-0.8,0.8l1.2,4.3h-1.6l-1-4h-0.7v4H94.1z M95.7,192.5h0.4 c0.5,0,0.8-0.1,1-0.3c0.2-0.2,0.3-0.5,0.3-1c0-0.5-0.1-0.8-0.3-1c-0.2-0.2-0.5-0.3-0.9-0.3h-0.5V192.5z" class="st4"/><path d="M101.3,197.4v-3.3l-1.8-5.4h1.5l1.1,3.5l1-3.5h1.5l-1.8,5.4v3.3H101.3z" class="st4"/><path d="M108,197.4v-8.7h1.6v8.7H108z" class="st4"/><path d="M111.7,197.4v-7.5h-1.5v-1.2h4.5v1.2h-1.4v7.5H111.7z" class="st4"/><path d="M118,197.4v-8.7h1.1l2.1,4.9v-4.9h1.3v8.7h-1l-2.2-5.2v5.2H118z" class="st4"/><path d="M126.2,197.5c-0.9,0-1.5-0.2-1.9-0.7c-0.4-0.5-0.6-1.2-0.6-2.1v-3.2c0-0.5,0-0.9,0.1-1.2 c0.1-0.3,0.2-0.6,0.4-0.9c0.2-0.2,0.5-0.4,0.8-0.6c0.3-0.1,0.7-0.2,1.2-0.2c0.9,0,1.5,0.2,1.9,0.7c0.4,0.5,0.6,1.2,0.6,2.1v3.2 c0,0.5,0,0.9-0.1,1.2c-0.1,0.3-0.2,0.6-0.4,0.9c-0.2,0.3-0.5,0.4-0.8,0.6C127.1,197.5,126.7,197.5,126.2,197.5z M125.8,196.3 c0.1,0,0.2,0.1,0.4,0.1c0.2,0,0.3,0,0.4-0.1c0.1,0,0.2-0.1,0.3-0.2c0.1-0.1,0.1-0.2,0.2-0.3c0-0.1,0.1-0.2,0.1-0.4 c0-0.1,0-0.3,0-0.4v-3.9c0-0.2,0-0.4,0-0.5c0-0.1-0.1-0.3-0.1-0.4c-0.1-0.1-0.2-0.2-0.3-0.3c-0.1-0.1-0.3-0.1-0.5-0.1 c-0.2,0-0.3,0-0.5,0.1c-0.1,0.1-0.2,0.2-0.3,0.3c-0.1,0.1-0.1,0.3-0.1,0.4c0,0.1,0,0.3,0,0.5v3.9c0,0.2,0,0.3,0,0.4 c0,0.1,0,0.2,0.1,0.4c0,0.1,0.1,0.2,0.1,0.3C125.6,196.2,125.7,196.3,125.8,196.3z" class="st4"/><path d="M130.8,197.4l-1.2-8.7h1.3l0.7,5.6l0.9-5.6h1.1l0.9,5.6l0.7-5.6h1.3l-1.2,8.7h-1.3l-1-5.8l-1,5.8H130.8z" class="st4"/></g></g><g class="st1"><path d="M72.2,129.1c-2.3,0-4-0.6-5-1.9c-1-1.3-1.5-3.1-1.5-5.6v-8.4c0-1.2,0.1-2.2,0.3-3.1c0.2-0.9,0.6-1.7,1.1-2.3 c0.5-0.6,1.2-1.1,2-1.5c0.8-0.3,1.9-0.5,3.1-0.5c2.3,0,4,0.6,5,1.9c1,1.2,1.5,3.1,1.5,5.5v8.4c0,1.2-0.1,2.2-0.3,3.1 c-0.2,0.9-0.6,1.7-1.1,2.3c-0.5,0.7-1.2,1.2-2,1.5C74.4,129,73.4,129.1,72.2,129.1z M71.1,125.9c0.3,0.1,0.6,0.2,1,0.2 c0.4,0,0.7-0.1,1-0.2c0.3-0.1,0.5-0.3,0.7-0.5c0.2-0.2,0.3-0.4,0.4-0.8c0.1-0.3,0.2-0.6,0.2-0.9c0-0.3,0-0.7,0-1.1v-10.3 c0-0.5,0-1-0.1-1.4c-0.1-0.4-0.2-0.7-0.3-1c-0.2-0.3-0.4-0.6-0.7-0.7c-0.3-0.2-0.7-0.2-1.2-0.2c-0.5,0-0.9,0.1-1.2,0.2 c-0.3,0.2-0.6,0.4-0.7,0.7c-0.2,0.3-0.3,0.7-0.3,1c-0.1,0.4-0.1,0.8-0.1,1.4v10.3c0,0.4,0,0.8,0,1.1c0,0.3,0.1,0.6,0.2,0.9 c0.1,0.3,0.2,0.6,0.4,0.8C70.6,125.6,70.9,125.8,71.1,125.9z" class="st5"/><path d="M81.7,128.9v-22.7h2.8l5.6,12.8v-12.8h3.4v22.7h-2.7l-5.6-13.5v13.5H81.7z" class="st5"/><path d="M97,128.9v-22.7h4.1V126h5.4v2.9H97z" class="st5"/><path d="M108.8,128.9v-22.7h4.1v22.7H108.8z" class="st5"/><path d="M116.4,128.9v-22.7h2.8l5.6,12.8v-12.8h3.4v22.7h-2.7l-5.6-13.5v13.5H116.4z" class="st5"/><path d="M131.6,128.9v-22.7h9.5v2.9h-5.4v6.5h4.2v2.9h-4.2v7.5h5.4v2.9H131.6z" class="st5"/><path d="M150.4,128.9v-22.7h4.1V126h5.4v2.9H150.4z" class="st5"/><path d="M162.1,128.9v-22.7h9.5v2.9h-5.4v6.5h4.2v2.9h-4.2v7.5h5.4v2.9H162.1z" class="st5"/><path d="M172.9,128.9l4.6-22.7h4.3l4.6,22.7h-3.8l-0.9-5.3h-3.9l-0.9,5.3H172.9z M178.2,120.9h3l-1.5-9.3L178.2,120.9z" class="st5"/><path d="M188.6,128.9v-22.7h5.2c1.2,0,2.2,0.1,3.1,0.3c0.9,0.2,1.6,0.5,2.2,1c0.6,0.5,1.1,1.1,1.4,1.9 c0.3,0.8,0.5,1.8,0.5,2.9c0,1.4-0.2,2.6-0.6,3.5c-0.4,0.9-1.1,1.6-2.1,2l3.1,11.2h-4.1l-2.7-10.4h-1.8v10.4H188.6z M192.8,115.9h1 c1.2,0,2.1-0.3,2.6-0.8c0.5-0.5,0.8-1.4,0.8-2.7c0-1.2-0.2-2.1-0.7-2.6c-0.4-0.5-1.3-0.8-2.5-0.8h-1.2V115.9z" class="st5"/><path d="M204.2,128.9v-22.7h2.8l5.6,12.8v-12.8h3.4v22.7h-2.7l-5.6-13.5v13.5H204.2z" class="st5"/><path d="M219.5,128.9v-22.7h4.1v22.7H219.5z" class="st5"/><path d="M227.1,128.9v-22.7h2.8l5.6,12.8v-12.8h3.4v22.7h-2.7l-5.6-13.5v13.5H227.1z" class="st5"/><path d="M248,129.2c-2.1,0-3.7-0.7-4.6-2c-0.9-1.3-1.4-3.3-1.4-5.9v-7.4c0-1.3,0.1-2.4,0.3-3.4c0.2-0.9,0.5-1.8,1-2.5 c0.5-0.7,1.1-1.2,2-1.6c0.8-0.4,1.9-0.5,3.1-0.5c2.2,0,3.9,0.5,4.8,1.6c1,1.1,1.5,2.8,1.5,5v1.1h-4v-1.2c0-0.5,0-0.9,0-1.2 c0-0.3-0.1-0.6-0.2-1c-0.1-0.3-0.2-0.6-0.4-0.7c-0.2-0.2-0.4-0.3-0.7-0.4c-0.3-0.1-0.6-0.2-1-0.2c-0.3,0-0.6,0-0.8,0.1 c-0.2,0.1-0.4,0.2-0.6,0.3c-0.2,0.1-0.3,0.3-0.4,0.5c-0.1,0.2-0.2,0.4-0.3,0.6c-0.1,0.2-0.1,0.4-0.1,0.8c0,0.3-0.1,0.6-0.1,0.8 c0,0.2,0,0.5,0,0.9v9.2c0,1.4,0.2,2.4,0.5,3c0.3,0.6,1,1,1.9,1c0.5,0,0.9-0.1,1.2-0.3c0.3-0.2,0.6-0.5,0.8-0.8 c0.2-0.4,0.3-0.8,0.4-1.3c0.1-0.5,0.1-1.1,0.1-1.8V120h-2.4v-2.7h6.2v11.5h-2.7l-0.3-2.3C251.1,128.3,249.8,129.2,248,129.2z" class="st5"/></g><g class="st6"><path d="M65.8,154v-9h0.8v8.3h2.6v0.6H65.8z" class="st7"/><path d="M72.3,153.9c-0.2,0.1-0.5,0.2-0.8,0.2c-0.3,0-0.6-0.1-0.8-0.2c-0.2-0.1-0.4-0.3-0.5-0.5 c-0.1-0.2-0.2-0.5-0.3-0.8c-0.1-0.3-0.1-0.6-0.1-1v-1.8c0-0.8,0.1-1.4,0.4-1.8c0.3-0.4,0.7-0.6,1.3-0.6c0.6,0,1.1,0.2,1.3,0.6 c0.3,0.4,0.4,1,0.4,1.8v1.8c0,0.4,0,0.7-0.1,1c-0.1,0.3-0.1,0.5-0.3,0.8C72.7,153.7,72.5,153.8,72.3,153.9z M71.5,153.5 c0.2,0,0.3,0,0.4-0.1c0.1-0.1,0.2-0.1,0.3-0.2c0.1-0.1,0.1-0.2,0.1-0.4c0-0.2,0.1-0.3,0.1-0.5c0-0.2,0-0.3,0-0.6v-1.9 c0-0.2,0-0.4,0-0.6c0-0.2,0-0.3-0.1-0.5c0-0.2-0.1-0.3-0.1-0.4c-0.1-0.1-0.2-0.2-0.3-0.2c-0.1-0.1-0.2-0.1-0.4-0.1 c-0.1,0-0.3,0-0.4,0.1c-0.1,0-0.2,0.1-0.2,0.2c-0.1,0.1-0.1,0.2-0.2,0.3c0,0.1-0.1,0.2-0.1,0.4c0,0.1,0,0.3,0,0.4 c0,0.1,0,0.3,0,0.5v1.9c0,0.2,0,0.4,0,0.5c0,0.1,0,0.3,0,0.4c0,0.1,0,0.3,0.1,0.4c0,0.1,0.1,0.2,0.2,0.3c0.1,0.1,0.1,0.1,0.2,0.2 C71.2,153.5,71.3,153.5,71.5,153.5z" class="st7"/><path d="M74.3,154v-6.4h0.8v0.9c0.2-0.3,0.4-0.6,0.7-0.7c0.3-0.2,0.5-0.2,0.8-0.2c0.1,0,0.1,0,0.1,0v0.9 c-0.1,0-0.2-0.1-0.4-0.1c-0.5,0-0.9,0.2-1.2,0.7v4.9H74.3z" class="st7"/><path d="M79.2,154.1c-0.6,0-1.1-0.2-1.3-0.6c-0.3-0.4-0.4-1-0.4-1.9V150c0-0.6,0.1-1.1,0.2-1.5 c0.1-0.4,0.3-0.6,0.6-0.8c0.2-0.1,0.6-0.2,1-0.2c0.3,0,0.5,0,0.7,0.1s0.3,0.2,0.5,0.3c0.1,0.1,0.2,0.3,0.3,0.5 c0.1,0.2,0.1,0.5,0.2,0.7c0,0.3,0,0.6,0,1l0,0.6h-2.6v1c0,0.7,0.1,1.1,0.2,1.4c0.1,0.3,0.4,0.4,0.7,0.4c0.3,0,0.5-0.1,0.6-0.3 c0.2-0.2,0.2-0.5,0.2-1v-0.4h0.8v0.4c0,0.6-0.1,1.1-0.4,1.4C80.2,153.9,79.8,154.1,79.2,154.1z M78.3,150.2h1.8v-0.5 c0-0.2,0-0.4,0-0.6c0-0.1,0-0.3-0.1-0.4c0-0.1-0.1-0.3-0.1-0.3c-0.1-0.1-0.1-0.1-0.3-0.2c-0.1-0.1-0.2-0.1-0.4-0.1 c-0.3,0-0.6,0.1-0.7,0.4c-0.1,0.2-0.2,0.7-0.2,1.4V150.2z" class="st7"/><path d="M81.9,154v-6.4h0.8v0.6c0.4-0.5,0.9-0.8,1.5-0.8c0.5,0,0.9,0.3,1,0.8c0.4-0.6,1-0.8,1.6-0.8 c0.3,0,0.6,0.1,0.8,0.3c0.2,0.2,0.3,0.6,0.3,1.1v5.1h-0.8v-5c0-0.3-0.1-0.6-0.2-0.7c-0.1-0.1-0.3-0.2-0.5-0.2 c-0.4,0-0.8,0.2-1.2,0.7c0,0.1,0,0.2,0,0.2v5.1h-0.8v-5c0-0.3-0.1-0.6-0.2-0.7c-0.1-0.1-0.3-0.2-0.5-0.2c-0.4,0-0.8,0.2-1.2,0.7 v5.3H81.9z" class="st7"/><path d="M91.4,146.7v-1.1h0.8v1.1H91.4z M91.4,154v-6.4h0.8v6.4H91.4z" class="st7"/><path d="M93.6,156.1v-8.5h0.8v0.5c0.3-0.4,0.8-0.6,1.2-0.6c0.2,0,0.4,0,0.6,0.1c0.2,0.1,0.3,0.2,0.4,0.4 c0.1,0.2,0.2,0.3,0.2,0.6c0.1,0.2,0.1,0.5,0.1,0.7c0,0.2,0,0.5,0,0.8v1.4c0,0.3,0,0.6,0,0.9c0,0.3-0.1,0.5-0.2,0.7 c-0.1,0.2-0.2,0.4-0.3,0.6c-0.1,0.2-0.3,0.3-0.4,0.4c-0.2,0.1-0.4,0.1-0.6,0.1c-0.4,0-0.8-0.2-1.1-0.6v2.6H93.6z M95.4,153.4 c0.1,0,0.3,0,0.4-0.1c0.1-0.1,0.2-0.1,0.2-0.2c0.1-0.1,0.1-0.2,0.1-0.4c0-0.2,0.1-0.4,0.1-0.6c0-0.2,0-0.4,0-0.7V150 c0-0.7-0.1-1.2-0.2-1.5c-0.1-0.3-0.3-0.4-0.7-0.4c-0.3,0-0.7,0.2-1,0.5v4.4C94.7,153.3,95.1,153.4,95.4,153.4z" class="st7"/><path d="M99.7,154.1c-0.5,0-0.9-0.2-1.2-0.5c-0.3-0.3-0.5-0.8-0.5-1.3l0.7-0.2c0,0.5,0.2,0.8,0.3,1.1 c0.2,0.2,0.4,0.3,0.8,0.3c0.3,0,0.5-0.1,0.7-0.2c0.2-0.2,0.2-0.4,0.2-0.6c0,0,0,0,0,0c0-0.4-0.3-0.9-0.8-1.3l-0.9-0.7 c-0.3-0.3-0.5-0.5-0.7-0.8c-0.1-0.2-0.2-0.5-0.2-0.8c0-0.5,0.1-0.8,0.4-1.1c0.3-0.3,0.6-0.4,1.1-0.4c0.5,0,0.8,0.2,1.1,0.5 c0.3,0.3,0.4,0.7,0.4,1.2l-0.6,0.2c0-0.4-0.1-0.7-0.3-1c-0.2-0.2-0.4-0.3-0.6-0.3c-0.3,0-0.5,0.1-0.6,0.2c-0.1,0.1-0.2,0.3-0.2,0.6 c0,0.2,0,0.4,0.1,0.5c0.1,0.1,0.2,0.3,0.4,0.5l0.9,0.8c0.2,0.1,0.3,0.3,0.4,0.4c0.1,0.1,0.2,0.2,0.3,0.4c0.1,0.2,0.2,0.3,0.3,0.5 c0.1,0.2,0.1,0.4,0.1,0.6c0,0.5-0.1,0.9-0.4,1.1C100.6,154,100.2,154.1,99.7,154.1z" class="st7"/><path d="M103.2,154.1c-0.3,0-0.6-0.1-0.7-0.4c-0.2-0.2-0.3-0.6-0.3-1v-5.1h0.8v5c0,0.3,0,0.6,0.1,0.7 c0.1,0.1,0.3,0.2,0.5,0.2c0.4,0,0.7-0.2,1.1-0.6v-5.2h0.8v6.4h-0.8v-0.7C104.3,153.8,103.8,154.1,103.2,154.1z" class="st7"/><path d="M106.8,154v-6.4h0.8v0.6c0.4-0.5,0.9-0.8,1.5-0.8c0.5,0,0.9,0.3,1,0.8c0.4-0.6,1-0.8,1.6-0.8 c0.3,0,0.6,0.1,0.8,0.3c0.2,0.2,0.3,0.6,0.3,1.1v5.1H112v-5c0-0.3-0.1-0.6-0.2-0.7c-0.1-0.1-0.3-0.2-0.5-0.2 c-0.4,0-0.8,0.2-1.2,0.7c0,0.1,0,0.2,0,0.2v5.1h-0.8v-5c0-0.3-0.1-0.6-0.2-0.7c-0.1-0.1-0.3-0.2-0.5-0.2c-0.4,0-0.8,0.2-1.2,0.7 v5.3H106.8z" class="st7"/><path d="M117.6,154.1c-0.6,0-0.9-0.2-1.2-0.6c-0.2-0.4-0.4-1.1-0.4-2.1v-1.2c0-0.4,0-0.7,0-0.9c0-0.3,0.1-0.5,0.1-0.8 c0.1-0.2,0.2-0.4,0.3-0.6c0.1-0.1,0.3-0.3,0.4-0.3c0.2-0.1,0.4-0.1,0.6-0.1c0.4,0,0.8,0.2,1.1,0.6v-3h0.8v9h-0.8v-0.5 C118.4,153.9,118,154.1,117.6,154.1z M117.8,153.4c0.3,0,0.6-0.1,0.9-0.4v-4.4c-0.3-0.3-0.6-0.5-1-0.5c-0.3,0-0.6,0.1-0.7,0.4 c-0.1,0.3-0.2,0.8-0.2,1.4v1.5c0,0.7,0.1,1.2,0.2,1.5C117.2,153.3,117.4,153.4,117.8,153.4z" class="st7"/><path d="M123.2,153.9c-0.2,0.1-0.5,0.2-0.8,0.2c-0.3,0-0.6-0.1-0.8-0.2c-0.2-0.1-0.4-0.3-0.5-0.5 c-0.1-0.2-0.2-0.5-0.3-0.8c-0.1-0.3-0.1-0.6-0.1-1v-1.8c0-0.8,0.1-1.4,0.4-1.8c0.3-0.4,0.7-0.6,1.3-0.6c0.6,0,1.1,0.2,1.3,0.6 c0.3,0.4,0.4,1,0.4,1.8v1.8c0,0.4,0,0.7-0.1,1c-0.1,0.3-0.1,0.5-0.3,0.8C123.6,153.7,123.4,153.8,123.2,153.9z M122.4,153.5 c0.2,0,0.3,0,0.4-0.1c0.1-0.1,0.2-0.1,0.3-0.2c0.1-0.1,0.1-0.2,0.1-0.4c0-0.2,0.1-0.3,0.1-0.5c0-0.2,0-0.3,0-0.6v-1.9 c0-0.2,0-0.4,0-0.6c0-0.2,0-0.3-0.1-0.5c0-0.2-0.1-0.3-0.1-0.4c-0.1-0.1-0.2-0.2-0.3-0.2c-0.1-0.1-0.2-0.1-0.4-0.1 c-0.1,0-0.3,0-0.4,0.1c-0.1,0-0.2,0.1-0.2,0.2c-0.1,0.1-0.1,0.2-0.2,0.3c0,0.1-0.1,0.2-0.1,0.4c0,0.1,0,0.3,0,0.4 c0,0.1,0,0.3,0,0.5v1.9c0,0.2,0,0.4,0,0.5c0,0.1,0,0.3,0,0.4c0,0.1,0,0.3,0.1,0.4c0,0.1,0.1,0.2,0.2,0.3c0.1,0.1,0.1,0.1,0.2,0.2 C122.1,153.5,122.2,153.5,122.4,153.5z" class="st7"/><path d="M125.3,154v-9h0.8v9H125.3z" class="st7"/><path d="M129.8,153.9c-0.2,0.1-0.5,0.2-0.8,0.2c-0.3,0-0.6-0.1-0.8-0.2c-0.2-0.1-0.4-0.3-0.5-0.5 c-0.1-0.2-0.2-0.5-0.3-0.8c-0.1-0.3-0.1-0.6-0.1-1v-1.8c0-0.8,0.1-1.4,0.4-1.8c0.3-0.4,0.7-0.6,1.3-0.6c0.6,0,1.1,0.2,1.3,0.6 c0.3,0.4,0.4,1,0.4,1.8v1.8c0,0.4,0,0.7-0.1,1c-0.1,0.3-0.1,0.5-0.3,0.8C130.2,153.7,130.1,153.8,129.8,153.9z M129,153.5 c0.2,0,0.3,0,0.4-0.1c0.1-0.1,0.2-0.1,0.3-0.2c0.1-0.1,0.1-0.2,0.1-0.4c0-0.2,0.1-0.3,0.1-0.5c0-0.2,0-0.3,0-0.6v-1.9 c0-0.2,0-0.4,0-0.6c0-0.2,0-0.3-0.1-0.5c0-0.2-0.1-0.3-0.1-0.4c-0.1-0.1-0.2-0.2-0.3-0.2c-0.1-0.1-0.2-0.1-0.4-0.1 c-0.1,0-0.3,0-0.4,0.1c-0.1,0-0.2,0.1-0.2,0.2c-0.1,0.1-0.1,0.2-0.2,0.3c0,0.1-0.1,0.2-0.1,0.4c0,0.1,0,0.3,0,0.4 c0,0.1,0,0.3,0,0.5v1.9c0,0.2,0,0.4,0,0.5c0,0.1,0,0.3,0,0.4c0,0.1,0,0.3,0.1,0.4c0,0.1,0.1,0.2,0.2,0.3c0.1,0.1,0.1,0.1,0.2,0.2 C128.8,153.5,128.9,153.5,129,153.5z" class="st7"/><path d="M131.9,154v-6.4h0.8v0.9c0.2-0.3,0.4-0.6,0.7-0.7c0.3-0.2,0.5-0.2,0.8-0.2c0.1,0,0.1,0,0.1,0v0.9 c-0.1,0-0.2-0.1-0.4-0.1c-0.5,0-0.9,0.2-1.2,0.7v4.9H131.9z" class="st7"/><path d="M138.9,154.1c-0.5,0-0.9-0.2-1.2-0.5c-0.3-0.3-0.5-0.8-0.5-1.3l0.7-0.2c0,0.5,0.2,0.8,0.3,1.1 c0.2,0.2,0.4,0.3,0.8,0.3c0.3,0,0.5-0.1,0.7-0.2c0.2-0.2,0.2-0.4,0.2-0.6c0,0,0,0,0,0c0-0.4-0.3-0.9-0.8-1.3l-0.9-0.7 c-0.3-0.3-0.5-0.5-0.7-0.8c-0.1-0.2-0.2-0.5-0.2-0.8c0-0.5,0.1-0.8,0.4-1.1c0.3-0.3,0.6-0.4,1.1-0.4c0.5,0,0.8,0.2,1.1,0.5 c0.3,0.3,0.4,0.7,0.4,1.2l-0.6,0.2c0-0.4-0.1-0.7-0.3-1c-0.2-0.2-0.4-0.3-0.6-0.3c-0.3,0-0.5,0.1-0.6,0.2c-0.1,0.1-0.2,0.3-0.2,0.6 c0,0.2,0,0.4,0.1,0.5c0.1,0.1,0.2,0.3,0.4,0.5l0.9,0.8c0.2,0.1,0.3,0.3,0.4,0.4c0.1,0.1,0.2,0.2,0.3,0.4c0.1,0.2,0.2,0.3,0.3,0.5 c0.1,0.2,0.1,0.4,0.1,0.6c0,0.5-0.1,0.9-0.4,1.1C139.8,154,139.4,154.1,138.9,154.1z" class="st7"/><path d="M141.5,146.7v-1.1h0.8v1.1H141.5z M141.5,154v-6.4h0.8v6.4H141.5z" class="st7"/><path d="M145.2,154.1c-0.4,0-0.7-0.1-0.9-0.4c-0.2-0.2-0.3-0.6-0.3-1.1v-4.5h-0.8v-0.5h0.8v-2h0.8v2h1.1v0.5h-1.1v4.5 c0,0.3,0,0.5,0.1,0.7c0.1,0.1,0.2,0.2,0.5,0.2c0.1,0,0.3,0,0.5,0v0.6C145.6,154,145.4,154.1,145.2,154.1z" class="st7"/><path d="M150.1,154.1c-0.4,0-0.7-0.1-0.9-0.4c-0.2-0.3-0.4-0.6-0.4-1c0-0.2,0-0.4,0.1-0.6c0-0.2,0.1-0.3,0.2-0.5 c0.1-0.1,0.2-0.3,0.3-0.4c0.1-0.1,0.3-0.2,0.5-0.4c0.2-0.1,0.4-0.2,0.6-0.4c0.2-0.1,0.5-0.2,0.8-0.4v-0.5c0-0.6-0.1-1-0.2-1.2 c-0.1-0.2-0.3-0.3-0.6-0.3c-0.6,0-0.9,0.4-0.9,1.1v0.2l-0.8,0c0-0.1,0-0.2,0-0.2c0-0.6,0.2-1,0.5-1.3c0.3-0.3,0.7-0.4,1.3-0.4 c0.6,0,1,0.2,1.2,0.5c0.2,0.3,0.4,0.9,0.4,1.6v3.1c0,0.5,0,0.9,0.1,1.3h-0.7l-0.1-0.9c-0.1,0.3-0.3,0.5-0.5,0.7 C150.7,154,150.5,154.1,150.1,154.1z M150.4,153.4c0.2,0,0.4-0.1,0.6-0.2c0.2-0.1,0.3-0.3,0.4-0.5v-2c0,0-0.1,0-0.1,0.1 c-0.2,0.1-0.3,0.2-0.4,0.2c-0.1,0.1-0.2,0.1-0.3,0.2c-0.1,0.1-0.2,0.1-0.3,0.2c-0.1,0-0.1,0.1-0.2,0.2c-0.1,0.1-0.1,0.1-0.2,0.2 c0,0.1-0.1,0.1-0.1,0.2c0,0.1-0.1,0.2-0.1,0.3c0,0.1,0,0.2,0,0.3c0,0.3,0.1,0.5,0.2,0.7C150,153.3,150.2,153.4,150.4,153.4z" class="st7"/><path d="M153.4,154v-6.4h0.8v0.6c0.4-0.5,0.9-0.8,1.5-0.8c0.5,0,0.9,0.3,1,0.8c0.4-0.6,1-0.8,1.6-0.8 c0.3,0,0.6,0.1,0.8,0.3c0.2,0.2,0.3,0.6,0.3,1.1v5.1h-0.8v-5c0-0.3-0.1-0.6-0.2-0.7c-0.1-0.1-0.3-0.2-0.5-0.2 c-0.4,0-0.8,0.2-1.2,0.7c0,0.1,0,0.2,0,0.2v5.1H156v-5c0-0.3-0.1-0.6-0.2-0.7c-0.1-0.1-0.3-0.2-0.5-0.2c-0.4,0-0.8,0.2-1.2,0.7v5.3 H153.4z" class="st7"/><path d="M162.2,154.1c-0.6,0-1.1-0.2-1.3-0.6c-0.3-0.4-0.4-1-0.4-1.9V150c0-0.6,0.1-1.1,0.2-1.5 c0.1-0.4,0.3-0.6,0.6-0.8c0.2-0.1,0.6-0.2,1-0.2c0.3,0,0.5,0,0.7,0.1c0.2,0.1,0.3,0.2,0.5,0.3c0.1,0.1,0.2,0.3,0.3,0.5 c0.1,0.2,0.1,0.5,0.2,0.7c0,0.3,0,0.6,0,1l0,0.6h-2.6v1c0,0.7,0.1,1.1,0.2,1.4c0.1,0.3,0.4,0.4,0.7,0.4c0.3,0,0.5-0.1,0.7-0.3 c0.2-0.2,0.2-0.5,0.2-1v-0.4h0.8v0.4c0,0.6-0.1,1.1-0.4,1.4C163.2,153.9,162.8,154.1,162.2,154.1z M161.3,150.2h1.8v-0.5 c0-0.2,0-0.4,0-0.6c0-0.1,0-0.3-0.1-0.4c0-0.1-0.1-0.3-0.1-0.3c-0.1-0.1-0.1-0.1-0.3-0.2c-0.1-0.1-0.2-0.1-0.4-0.1 c-0.3,0-0.6,0.1-0.7,0.4c-0.1,0.2-0.2,0.7-0.2,1.4V150.2z" class="st7"/><path d="M166.5,154.1c-0.4,0-0.7-0.1-0.9-0.4c-0.2-0.2-0.3-0.6-0.3-1.1v-4.5h-0.8v-0.5h0.8v-2h0.8v2h1.1v0.5h-1.1v4.5 c0,0.3,0,0.5,0.1,0.7c0.1,0.1,0.2,0.2,0.5,0.2c0.1,0,0.3,0,0.5,0v0.6C166.9,154,166.7,154.1,166.5,154.1z" class="st7"/><path d="M168.1,155.3l-0.2-0.4c0.2-0.1,0.3-0.2,0.4-0.4c0.1-0.1,0.1-0.3,0.1-0.6H168v-1.2h0.9v1.1 c0,0.4-0.1,0.6-0.2,0.9C168.6,155,168.4,155.1,168.1,155.3z" class="st7"/><path d="M173.9,154.1c-0.3,0-0.5,0-0.8-0.1c-0.2-0.1-0.4-0.2-0.5-0.3c-0.1-0.1-0.2-0.3-0.3-0.5 c-0.1-0.2-0.1-0.5-0.1-0.7c0-0.2,0-0.5,0-0.8v-1.5c0-0.5,0-0.9,0.1-1.2c0-0.3,0.1-0.6,0.3-0.8c0.1-0.2,0.3-0.4,0.5-0.5 c0.2-0.1,0.5-0.1,0.8-0.1c0.3,0,0.5,0,0.7,0.1c0.2,0.1,0.4,0.2,0.5,0.3c0.1,0.1,0.2,0.3,0.3,0.4c0.1,0.2,0.1,0.4,0.1,0.6 c0,0.2,0,0.4,0,0.7v0.3h-0.8v-0.3c0-0.5-0.1-0.9-0.2-1.1c-0.1-0.2-0.4-0.3-0.7-0.3c-0.4,0-0.6,0.1-0.7,0.4 c-0.1,0.3-0.2,0.7-0.2,1.4v1.8c0,0.7,0.1,1.1,0.2,1.4c0.1,0.3,0.4,0.4,0.7,0.4c0.2,0,0.3,0,0.4-0.1c0.1,0,0.2-0.1,0.3-0.2 c0.1-0.1,0.1-0.2,0.1-0.3c0-0.1,0.1-0.3,0.1-0.4c0-0.1,0-0.3,0-0.6v-0.4h0.8v0.3c0,0.3,0,0.5,0,0.7c0,0.2-0.1,0.4-0.1,0.6 c-0.1,0.2-0.2,0.3-0.3,0.5c-0.1,0.1-0.3,0.2-0.5,0.3C174.4,154.1,174.2,154.1,173.9,154.1z" class="st7"/><path d="M179,153.9c-0.2,0.1-0.5,0.2-0.8,0.2c-0.3,0-0.6-0.1-0.8-0.2c-0.2-0.1-0.4-0.3-0.5-0.5 c-0.1-0.2-0.2-0.5-0.3-0.8c-0.1-0.3-0.1-0.6-0.1-1v-1.8c0-0.8,0.1-1.4,0.4-1.8c0.3-0.4,0.7-0.6,1.3-0.6c0.6,0,1.1,0.2,1.3,0.6 c0.3,0.4,0.4,1,0.4,1.8v1.8c0,0.4,0,0.7-0.1,1c-0.1,0.3-0.1,0.5-0.3,0.8C179.4,153.7,179.2,153.8,179,153.9z M178.2,153.5 c0.2,0,0.3,0,0.4-0.1c0.1-0.1,0.2-0.1,0.3-0.2c0.1-0.1,0.1-0.2,0.1-0.4c0-0.2,0.1-0.3,0.1-0.5c0-0.2,0-0.3,0-0.6v-1.9 c0-0.2,0-0.4,0-0.6c0-0.2,0-0.3-0.1-0.5c0-0.2-0.1-0.3-0.1-0.4c-0.1-0.1-0.2-0.2-0.3-0.2c-0.1-0.1-0.3-0.1-0.4-0.1 c-0.1,0-0.3,0-0.4,0.1s-0.2,0.1-0.2,0.2c-0.1,0.1-0.1,0.2-0.2,0.3c0,0.1-0.1,0.2-0.1,0.4c0,0.1,0,0.3,0,0.4c0,0.1,0,0.3,0,0.5v1.9 c0,0.2,0,0.4,0,0.5c0,0.1,0,0.3,0,0.4c0,0.1,0,0.3,0.1,0.4c0,0.1,0.1,0.2,0.2,0.3c0.1,0.1,0.1,0.1,0.2,0.2 C177.9,153.5,178.1,153.5,178.2,153.5z" class="st7"/><path d="M181,154v-6.4h0.8v0.7c0.5-0.5,1-0.8,1.5-0.8c0.3,0,0.6,0.1,0.7,0.4c0.2,0.2,0.3,0.6,0.3,1v5.1h-0.8v-5 c0-0.3,0-0.6-0.1-0.7c-0.1-0.1-0.3-0.2-0.5-0.2c-0.3,0-0.7,0.2-1.1,0.6v5.3H181z" class="st7"/><path d="M187,154.1c-0.5,0-0.9-0.2-1.2-0.5c-0.3-0.3-0.5-0.8-0.5-1.3l0.7-0.2c0,0.5,0.2,0.8,0.3,1.1 c0.2,0.2,0.4,0.3,0.8,0.3c0.3,0,0.5-0.1,0.7-0.2c0.2-0.2,0.2-0.4,0.2-0.6c0,0,0,0,0,0c0-0.4-0.3-0.9-0.8-1.3l-0.9-0.7 c-0.3-0.3-0.5-0.5-0.7-0.8c-0.1-0.2-0.2-0.5-0.2-0.8c0-0.5,0.1-0.8,0.4-1.1c0.3-0.3,0.6-0.4,1.1-0.4c0.5,0,0.8,0.2,1.1,0.5 c0.3,0.3,0.4,0.7,0.4,1.2l-0.6,0.2c0-0.4-0.1-0.7-0.3-1c-0.2-0.2-0.4-0.3-0.6-0.3c-0.3,0-0.5,0.1-0.6,0.2c-0.1,0.1-0.2,0.3-0.2,0.6 c0,0.2,0,0.4,0.1,0.5c0.1,0.1,0.2,0.3,0.4,0.5l0.9,0.8c0.2,0.1,0.3,0.3,0.4,0.4c0.1,0.1,0.2,0.2,0.3,0.4c0.1,0.2,0.2,0.3,0.3,0.5 c0.1,0.2,0.1,0.4,0.1,0.6c0,0.5-0.1,0.9-0.4,1.1C187.9,154,187.5,154.1,187,154.1z" class="st7"/><path d="M191.2,154.1c-0.6,0-1.1-0.2-1.3-0.6c-0.3-0.4-0.4-1-0.4-1.9V150c0-0.6,0.1-1.1,0.2-1.5 c0.1-0.4,0.3-0.6,0.6-0.8c0.2-0.1,0.6-0.2,1-0.2c0.3,0,0.5,0,0.7,0.1c0.2,0.1,0.3,0.2,0.5,0.3c0.1,0.1,0.2,0.3,0.3,0.5 c0.1,0.2,0.1,0.5,0.2,0.7c0,0.3,0,0.6,0,1l0,0.6h-2.6v1c0,0.7,0.1,1.1,0.2,1.4c0.1,0.3,0.4,0.4,0.7,0.4c0.3,0,0.5-0.1,0.6-0.3 c0.2-0.2,0.2-0.5,0.2-1v-0.4h0.8v0.4c0,0.6-0.1,1.1-0.4,1.4C192.2,153.9,191.8,154.1,191.2,154.1z M190.3,150.2h1.8v-0.5 c0-0.2,0-0.4,0-0.6c0-0.1,0-0.3-0.1-0.4c0-0.1-0.1-0.3-0.1-0.3c-0.1-0.1-0.1-0.1-0.3-0.2c-0.1-0.1-0.2-0.1-0.4-0.1 c-0.3,0-0.6,0.1-0.7,0.4c-0.1,0.2-0.2,0.7-0.2,1.4V150.2z" class="st7"/><path d="M195.5,154.1c-0.3,0-0.5,0-0.8-0.1c-0.2-0.1-0.4-0.2-0.5-0.3c-0.1-0.1-0.2-0.3-0.3-0.5 c-0.1-0.2-0.1-0.5-0.1-0.7c0-0.2,0-0.5,0-0.8v-1.5c0-0.5,0-0.9,0.1-1.2c0-0.3,0.1-0.6,0.3-0.8c0.1-0.2,0.3-0.4,0.5-0.5 c0.2-0.1,0.5-0.1,0.8-0.1c0.3,0,0.5,0,0.7,0.1c0.2,0.1,0.4,0.2,0.5,0.3c0.1,0.1,0.2,0.3,0.3,0.4c0.1,0.2,0.1,0.4,0.1,0.6 c0,0.2,0,0.4,0,0.7v0.3h-0.8v-0.3c0-0.5-0.1-0.9-0.2-1.1c-0.1-0.2-0.4-0.3-0.7-0.3c-0.4,0-0.6,0.1-0.7,0.4 c-0.1,0.3-0.2,0.7-0.2,1.4v1.8c0,0.7,0.1,1.1,0.2,1.4c0.1,0.3,0.4,0.4,0.7,0.4c0.2,0,0.3,0,0.4-0.1c0.1,0,0.2-0.1,0.3-0.2 c0.1-0.1,0.1-0.2,0.1-0.3c0-0.1,0.1-0.3,0.1-0.4c0-0.1,0-0.3,0-0.6v-0.4h0.8v0.3c0,0.3,0,0.5,0,0.7c0,0.2-0.1,0.4-0.1,0.6 c-0.1,0.2-0.2,0.3-0.3,0.5c-0.1,0.1-0.3,0.2-0.5,0.3C196,154.1,195.8,154.1,195.5,154.1z" class="st7"/><path d="M199.8,154.1c-0.4,0-0.7-0.1-0.9-0.4c-0.2-0.2-0.3-0.6-0.3-1.1v-4.5h-0.8v-0.5h0.8v-2h0.8v2h1.1v0.5h-1.1v4.5 c0,0.3,0,0.5,0.1,0.7c0.1,0.1,0.2,0.2,0.5,0.2c0.1,0,0.3,0,0.5,0v0.6C200.2,154,200,154.1,199.8,154.1z" class="st7"/><path d="M203,154.1c-0.6,0-1.1-0.2-1.3-0.6c-0.3-0.4-0.4-1-0.4-1.9V150c0-0.6,0.1-1.1,0.2-1.5c0.1-0.4,0.3-0.6,0.6-0.8 c0.2-0.1,0.6-0.2,1-0.2c0.3,0,0.5,0,0.7,0.1c0.2,0.1,0.3,0.2,0.5,0.3c0.1,0.1,0.2,0.3,0.3,0.5c0.1,0.2,0.1,0.5,0.2,0.7 c0,0.3,0,0.6,0,1l0,0.6H202v1c0,0.7,0.1,1.1,0.2,1.4c0.1,0.3,0.4,0.4,0.7,0.4c0.3,0,0.5-0.1,0.7-0.3c0.2-0.2,0.2-0.5,0.2-1v-0.4 h0.8v0.4c0,0.6-0.1,1.1-0.4,1.4C204,153.9,203.6,154.1,203,154.1z M202,150.2h1.8v-0.5c0-0.2,0-0.4,0-0.6c0-0.1,0-0.3-0.1-0.4 c0-0.1-0.1-0.3-0.1-0.3c-0.1-0.1-0.1-0.1-0.3-0.2s-0.2-0.1-0.4-0.1c-0.3,0-0.6,0.1-0.7,0.4c-0.1,0.2-0.2,0.7-0.2,1.4V150.2z" class="st7"/><path d="M207.2,154.1c-0.4,0-0.7-0.1-0.9-0.4c-0.2-0.2-0.3-0.6-0.3-1.1v-4.5h-0.8v-0.5h0.8v-2h0.8v2h1.1v0.5h-1.1v4.5 c0,0.3,0,0.5,0.1,0.7c0.1,0.1,0.2,0.2,0.5,0.2c0.1,0,0.3,0,0.5,0v0.6C207.7,154,207.5,154.1,207.2,154.1z" class="st7"/><path d="M209.8,154.1c-0.3,0-0.6-0.1-0.7-0.4c-0.2-0.2-0.3-0.6-0.3-1v-5.1h0.8v5c0,0.3,0,0.6,0.1,0.7 c0.1,0.1,0.3,0.2,0.5,0.2c0.4,0,0.7-0.2,1.1-0.6v-5.2h0.8v6.4h-0.8v-0.7C210.9,153.8,210.3,154.1,209.8,154.1z" class="st7"/><path d="M213.5,154v-6.4h0.8v0.9c0.2-0.3,0.4-0.6,0.7-0.7c0.3-0.2,0.5-0.2,0.8-0.2c0.1,0,0.1,0,0.1,0v0.9 c-0.1,0-0.2-0.1-0.4-0.1c-0.5,0-0.9,0.2-1.2,0.7v4.9H213.5z" class="st7"/><path d="M220.1,154.1c-0.4,0-0.7-0.1-0.9-0.4c-0.2-0.3-0.4-0.6-0.4-1c0-0.2,0-0.4,0.1-0.6c0-0.2,0.1-0.3,0.2-0.5 c0.1-0.1,0.2-0.3,0.3-0.4c0.1-0.1,0.3-0.2,0.5-0.4c0.2-0.1,0.4-0.2,0.7-0.4c0.2-0.1,0.5-0.2,0.8-0.4v-0.5c0-0.6-0.1-1-0.2-1.2 c-0.1-0.2-0.3-0.3-0.6-0.3c-0.6,0-0.9,0.4-0.9,1.1v0.2l-0.8,0c0-0.1,0-0.2,0-0.2c0-0.6,0.2-1,0.5-1.3c0.3-0.3,0.7-0.4,1.3-0.4 c0.6,0,1,0.2,1.2,0.5c0.2,0.3,0.4,0.9,0.4,1.6v3.1c0,0.5,0,0.9,0.1,1.3h-0.7l-0.1-0.9c-0.1,0.3-0.3,0.5-0.5,0.7 C220.7,154,220.4,154.1,220.1,154.1z M220.3,153.4c0.2,0,0.4-0.1,0.6-0.2c0.2-0.1,0.3-0.3,0.4-0.5v-2c0,0-0.1,0-0.1,0.1 c-0.2,0.1-0.3,0.2-0.4,0.2c-0.1,0.1-0.2,0.1-0.3,0.2c-0.1,0.1-0.2,0.1-0.3,0.2c-0.1,0-0.1,0.1-0.2,0.2c-0.1,0.1-0.1,0.1-0.2,0.2 c0,0.1-0.1,0.1-0.1,0.2c0,0.1-0.1,0.2-0.1,0.3c0,0.1,0,0.2,0,0.3c0,0.3,0.1,0.5,0.2,0.7C219.9,153.3,220.1,153.4,220.3,153.4z" class="st7"/><path d="M224.8,154.1c-0.6,0-0.9-0.2-1.2-0.6c-0.2-0.4-0.4-1.1-0.4-2.1v-1.2c0-0.4,0-0.7,0-0.9c0-0.3,0.1-0.5,0.1-0.8 c0.1-0.2,0.2-0.4,0.3-0.6c0.1-0.1,0.3-0.3,0.4-0.3c0.2-0.1,0.4-0.1,0.6-0.1c0.4,0,0.8,0.2,1.1,0.6v-3h0.8v9h-0.8v-0.5 C225.5,153.9,225.2,154.1,224.8,154.1z M224.9,153.4c0.3,0,0.6-0.1,0.9-0.4v-4.4c-0.3-0.3-0.6-0.5-1-0.5c-0.3,0-0.6,0.1-0.7,0.4 c-0.1,0.3-0.2,0.8-0.2,1.4v1.5c0,0.7,0.1,1.2,0.2,1.5C224.3,153.3,224.6,153.4,224.9,153.4z" class="st7"/><path d="M228,146.7v-1.1h0.8v1.1H228z M228,154v-6.4h0.8v6.4H228z" class="st7"/><path d="M230.2,156.1v-8.5h0.8v0.5c0.3-0.4,0.8-0.6,1.2-0.6c0.2,0,0.4,0,0.6,0.1c0.2,0.1,0.3,0.2,0.4,0.4 c0.1,0.2,0.2,0.3,0.2,0.6c0.1,0.2,0.1,0.5,0.1,0.7c0,0.2,0,0.5,0,0.8v1.4c0,0.3,0,0.6,0,0.9c0,0.3-0.1,0.5-0.2,0.7 c-0.1,0.2-0.2,0.4-0.3,0.6c-0.1,0.2-0.3,0.3-0.4,0.4c-0.2,0.1-0.4,0.1-0.6,0.1c-0.4,0-0.8-0.2-1.1-0.6v2.6H230.2z M232,153.4 c0.1,0,0.3,0,0.4-0.1c0.1-0.1,0.2-0.1,0.2-0.2c0.1-0.1,0.1-0.2,0.1-0.4c0-0.2,0.1-0.4,0.1-0.6c0-0.2,0-0.4,0-0.7V150 c0-0.7-0.1-1.2-0.2-1.5c-0.1-0.3-0.3-0.4-0.7-0.4c-0.3,0-0.7,0.2-1,0.5v4.4C231.3,153.3,231.6,153.4,232,153.4z" class="st7"/><path d="M234.9,146.7v-1.1h0.8v1.1H234.9z M234.9,154v-6.4h0.8v6.4H234.9z" class="st7"/><path d="M238.5,154.1c-0.5,0-0.9-0.2-1.2-0.5c-0.3-0.3-0.5-0.8-0.5-1.3l0.7-0.2c0,0.5,0.2,0.8,0.3,1.1 c0.2,0.2,0.4,0.3,0.8,0.3c0.3,0,0.5-0.1,0.7-0.2c0.2-0.2,0.2-0.4,0.2-0.6c0,0,0,0,0,0c0-0.4-0.3-0.9-0.8-1.3l-0.9-0.7 c-0.3-0.3-0.5-0.5-0.7-0.8c-0.1-0.2-0.2-0.5-0.2-0.8c0-0.5,0.1-0.8,0.4-1.1c0.3-0.3,0.6-0.4,1.1-0.4c0.5,0,0.8,0.2,1.1,0.5 c0.3,0.3,0.4,0.7,0.4,1.2l-0.6,0.2c0-0.4-0.1-0.7-0.3-1c-0.1-0.2-0.4-0.3-0.6-0.3c-0.3,0-0.5,0.1-0.6,0.2c-0.1,0.1-0.2,0.3-0.2,0.6 c0,0.2,0,0.4,0.1,0.5c0.1,0.1,0.2,0.3,0.4,0.5l0.9,0.8c0.2,0.1,0.3,0.3,0.4,0.4c0.1,0.1,0.2,0.2,0.3,0.4c0.1,0.2,0.2,0.3,0.3,0.5 c0.1,0.2,0.1,0.4,0.1,0.6c0,0.5-0.1,0.9-0.4,1.1C239.4,154,239,154.1,238.5,154.1z" class="st7"/><path d="M242.7,154.1c-0.3,0-0.5,0-0.8-0.1c-0.2-0.1-0.4-0.2-0.5-0.3c-0.1-0.1-0.2-0.3-0.3-0.5 c-0.1-0.2-0.1-0.5-0.1-0.7c0-0.2,0-0.5,0-0.8v-1.5c0-0.5,0-0.9,0.1-1.2c0.1-0.3,0.1-0.6,0.3-0.8c0.1-0.2,0.3-0.4,0.5-0.5 c0.2-0.1,0.5-0.1,0.8-0.1c0.3,0,0.5,0,0.7,0.1c0.2,0.1,0.4,0.2,0.5,0.3c0.1,0.1,0.2,0.3,0.3,0.4c0.1,0.2,0.1,0.4,0.1,0.6 c0,0.2,0,0.4,0,0.7v0.3h-0.8v-0.3c0-0.5-0.1-0.9-0.2-1.1c-0.1-0.2-0.4-0.3-0.7-0.3c-0.4,0-0.6,0.1-0.7,0.4 c-0.1,0.3-0.2,0.7-0.2,1.4v1.8c0,0.7,0.1,1.1,0.2,1.4c0.1,0.3,0.4,0.4,0.7,0.4c0.2,0,0.3,0,0.4-0.1c0.1,0,0.2-0.1,0.3-0.2 c0.1-0.1,0.1-0.2,0.1-0.3c0-0.1,0.1-0.3,0.1-0.4c0-0.1,0-0.3,0-0.6v-0.4h0.8v0.3c0,0.3,0,0.5,0,0.7c0,0.2-0.1,0.4-0.1,0.6 c-0.1,0.2-0.2,0.3-0.3,0.5c-0.1,0.1-0.3,0.2-0.5,0.3C243.2,154.1,242.9,154.1,242.7,154.1z" class="st7"/><path d="M245.5,146.7v-1.1h0.8v1.1H245.5z M245.5,154v-6.4h0.8v6.4H245.5z" class="st7"/><path d="M247.6,154v-6.4h0.8v0.7c0.5-0.5,1-0.8,1.5-0.8c0.3,0,0.6,0.1,0.7,0.4c0.2,0.2,0.3,0.6,0.3,1v5.1h-0.8v-5 c0-0.3,0-0.6-0.1-0.7c-0.1-0.1-0.3-0.2-0.5-0.2c-0.3,0-0.7,0.2-1.1,0.6v5.3H247.6z" class="st7"/><path d="M253.9,156.1c-0.3,0-0.6,0-0.9-0.1c-0.3,0-0.5-0.1-0.7-0.2c-0.2-0.1-0.3-0.2-0.5-0.3c-0.1-0.1-0.2-0.3-0.2-0.5 c0-0.3,0.1-0.6,0.3-0.9c0.2-0.3,0.5-0.5,0.8-0.6c-0.2-0.1-0.4-0.1-0.5-0.2c-0.1-0.1-0.2-0.2-0.2-0.3c0-0.3,0.3-0.8,0.8-1.3 c-0.5-0.4-0.8-1-0.8-2c0-0.3,0-0.6,0.1-0.9c0.1-0.3,0.2-0.5,0.3-0.7c0.1-0.2,0.3-0.4,0.6-0.5c0.2-0.1,0.5-0.2,0.8-0.2 c0.6,0,1.1,0.3,1.4,0.8c0.1-0.1,0.2-0.2,0.3-0.4c0.2-0.1,0.3-0.2,0.5-0.3l0.2-0.1l0.2,0.6c-0.2,0-0.4,0.1-0.6,0.2 c-0.2,0.1-0.4,0.2-0.5,0.3c0.1,0.1,0.1,0.3,0.1,0.5c0,0.2,0.1,0.4,0.1,0.6c0,0.7-0.1,1.2-0.4,1.6c-0.3,0.4-0.7,0.6-1.3,0.6 c-0.1,0-0.2,0-0.4,0c-0.1,0-0.2,0-0.3-0.1c0,0-0.1,0.1-0.1,0.2c-0.1,0.1-0.1,0.2-0.2,0.2c0,0.1-0.1,0.1-0.1,0.2 c0,0.1-0.1,0.1-0.1,0.2c0,0.1,0.2,0.2,0.5,0.2c0.1,0,0.3,0.1,0.5,0.1c0.3,0,0.4,0.1,0.5,0.1c0.5,0.1,0.9,0.3,1.2,0.5 c0.3,0.2,0.4,0.6,0.4,1c0,0.5-0.2,0.9-0.5,1.1C255,156,254.5,156.1,253.9,156.1z M253.9,155.4c0.4,0,0.7-0.1,1-0.2 c0.2-0.1,0.4-0.3,0.4-0.6c0-0.2-0.1-0.4-0.2-0.5s-0.5-0.2-1-0.3l-0.8-0.1c-0.5,0.3-0.8,0.7-0.8,1.1c0,0.2,0.1,0.4,0.3,0.5 C253,155.4,253.4,155.4,253.9,155.4z M253.8,151.4c0.2,0,0.3,0,0.5-0.1c0.1-0.1,0.2-0.2,0.3-0.3c0.1-0.1,0.1-0.2,0.2-0.4 c0-0.2,0.1-0.3,0.1-0.4c0-0.1,0-0.3,0-0.5c0-1.1-0.3-1.7-1-1.7c-0.2,0-0.3,0-0.5,0.1c-0.1,0.1-0.2,0.2-0.3,0.3 c-0.1,0.1-0.1,0.2-0.2,0.4c0,0.2-0.1,0.3-0.1,0.4c0,0.1,0,0.3,0,0.5C252.8,150.8,253.1,151.4,253.8,151.4z" class="st7"/><path d="M67.2,167.4c-0.6,0-1.1-0.2-1.3-0.6c-0.3-0.4-0.4-1-0.4-1.9v-1.6c0-0.6,0.1-1.1,0.2-1.5 c0.1-0.4,0.3-0.6,0.6-0.8c0.2-0.1,0.6-0.2,1-0.2c0.3,0,0.5,0,0.7,0.1c0.2,0.1,0.3,0.2,0.5,0.3c0.1,0.1,0.2,0.3,0.3,0.5 c0.1,0.2,0.1,0.5,0.2,0.7c0,0.3,0,0.6,0,1l0,0.6h-2.6v1c0,0.7,0.1,1.1,0.2,1.4c0.1,0.3,0.4,0.4,0.7,0.4c0.3,0,0.5-0.1,0.6-0.3 c0.2-0.2,0.2-0.5,0.2-1v-0.4h0.8v0.4c0,0.6-0.1,1.1-0.4,1.4C68.3,167.2,67.8,167.4,67.2,167.4z M66.3,163.5h1.8V163 c0-0.2,0-0.4,0-0.6c0-0.1,0-0.3-0.1-0.4c0-0.1-0.1-0.3-0.1-0.3c-0.1-0.1-0.1-0.1-0.3-0.2c-0.1-0.1-0.2-0.1-0.4-0.1 c-0.3,0-0.6,0.1-0.7,0.4c-0.1,0.2-0.2,0.7-0.2,1.4V163.5z" class="st7"/><path d="M70.1,167.3v-9h0.8v9H70.1z" class="st7"/><path d="M72.3,160v-1.1h0.8v1.1H72.3z M72.3,167.3v-6.4h0.8v6.4H72.3z" class="st7"/><path d="M76,167.4c-0.4,0-0.7-0.1-0.9-0.4c-0.2-0.2-0.3-0.6-0.3-1.1v-4.5h-0.8v-0.5h0.8v-2h0.8v2h1.1v0.5h-1.1v4.5 c0,0.3,0,0.5,0.1,0.7c0.1,0.1,0.2,0.2,0.5,0.2c0.1,0,0.3,0,0.5,0v0.6C76.5,167.3,76.2,167.4,76,167.4z" class="st7"/><path d="M77.7,168.6l-0.2-0.4c0.2-0.1,0.3-0.2,0.4-0.4c0.1-0.1,0.1-0.3,0.1-0.6h-0.5v-1.2h0.9v1.1 c0,0.4-0.1,0.6-0.2,0.9C78.2,168.2,78,168.4,77.7,168.6z" class="st7"/><path d="M83.3,167.4c-0.5,0-0.9-0.2-1.2-0.5c-0.3-0.3-0.5-0.8-0.5-1.3l0.7-0.2c0,0.5,0.2,0.8,0.3,1.1 c0.2,0.2,0.4,0.3,0.8,0.3c0.3,0,0.5-0.1,0.7-0.2c0.2-0.2,0.2-0.4,0.2-0.6c0,0,0,0,0,0c0-0.4-0.3-0.9-0.8-1.3l-0.9-0.7 c-0.3-0.3-0.5-0.5-0.7-0.8c-0.1-0.2-0.2-0.5-0.2-0.8c0-0.5,0.1-0.8,0.4-1.1c0.3-0.3,0.6-0.4,1.1-0.4c0.5,0,0.8,0.2,1.1,0.5 c0.3,0.3,0.4,0.7,0.4,1.2l-0.6,0.2c0-0.4-0.1-0.7-0.3-1c-0.1-0.2-0.4-0.3-0.6-0.3c-0.3,0-0.5,0.1-0.6,0.2c-0.1,0.1-0.2,0.3-0.2,0.6 c0,0.2,0,0.4,0.1,0.5c0.1,0.2,0.2,0.3,0.4,0.5l0.9,0.8c0.2,0.1,0.3,0.3,0.4,0.4c0.1,0.1,0.2,0.2,0.3,0.4c0.1,0.2,0.2,0.3,0.3,0.5 c0.1,0.2,0.1,0.4,0.1,0.6c0,0.5-0.1,0.9-0.4,1.1C84.2,167.2,83.8,167.4,83.3,167.4z" class="st7"/><path d="M87.5,167.4c-0.6,0-1.1-0.2-1.3-0.6c-0.3-0.4-0.4-1-0.4-1.9v-1.6c0-0.6,0.1-1.1,0.2-1.5 c0.1-0.4,0.3-0.6,0.6-0.8c0.2-0.1,0.6-0.2,1-0.2c0.3,0,0.5,0,0.7,0.1c0.2,0.1,0.3,0.2,0.5,0.3c0.1,0.1,0.2,0.3,0.3,0.5 c0.1,0.2,0.1,0.5,0.2,0.7c0,0.3,0,0.6,0,1l0,0.6h-2.6v1c0,0.7,0.1,1.1,0.2,1.4c0.1,0.3,0.4,0.4,0.7,0.4c0.3,0,0.5-0.1,0.6-0.3 c0.2-0.2,0.2-0.5,0.2-1v-0.4h0.8v0.4c0,0.6-0.1,1.1-0.4,1.4C88.5,167.2,88.1,167.4,87.5,167.4z M86.6,163.5h1.8V163 c0-0.2,0-0.4,0-0.6c0-0.1,0-0.3-0.1-0.4c0-0.1-0.1-0.3-0.1-0.3c-0.1-0.1-0.1-0.1-0.3-0.2c-0.1-0.1-0.2-0.1-0.4-0.1 c-0.3,0-0.6,0.1-0.7,0.4c-0.1,0.2-0.2,0.7-0.2,1.4V163.5z" class="st7"/><path d="M91.7,167.4c-0.6,0-0.9-0.2-1.2-0.6c-0.2-0.4-0.4-1.1-0.4-2.1v-1.2c0-0.4,0-0.7,0-0.9c0-0.3,0.1-0.5,0.1-0.8 c0.1-0.2,0.2-0.4,0.3-0.6c0.1-0.1,0.3-0.3,0.4-0.3c0.2-0.1,0.4-0.1,0.6-0.1c0.4,0,0.8,0.2,1.1,0.6v-3h0.8v9h-0.8v-0.5 C92.5,167.2,92.1,167.4,91.7,167.4z M91.8,166.7c0.3,0,0.6-0.1,0.9-0.4v-4.4c-0.3-0.3-0.6-0.5-1-0.5c-0.3,0-0.6,0.1-0.7,0.4 c-0.1,0.3-0.2,0.8-0.2,1.4v1.5c0,0.7,0.1,1.2,0.2,1.5C91.3,166.6,91.5,166.7,91.8,166.7z" class="st7"/><path d="M98.5,167.4c-0.6,0-0.9-0.2-1.2-0.6c-0.2-0.4-0.4-1.1-0.4-2.1v-1.2c0-0.4,0-0.7,0-0.9c0-0.3,0.1-0.5,0.1-0.8 c0.1-0.2,0.2-0.4,0.3-0.6c0.1-0.1,0.3-0.3,0.4-0.3c0.2-0.1,0.4-0.1,0.6-0.1c0.4,0,0.8,0.2,1.1,0.6v-3h0.8v9h-0.8v-0.5 C99.3,167.2,98.9,167.4,98.5,167.4z M98.7,166.7c0.3,0,0.6-0.1,0.9-0.4v-4.4c-0.3-0.3-0.6-0.5-1-0.5c-0.3,0-0.6,0.1-0.7,0.4 c-0.1,0.3-0.2,0.8-0.2,1.4v1.5c0,0.7,0.1,1.2,0.2,1.5C98.1,166.6,98.3,166.7,98.7,166.7z" class="st7"/><path d="M104.1,167.2c-0.2,0.1-0.5,0.2-0.8,0.2c-0.3,0-0.6-0.1-0.8-0.2c-0.2-0.1-0.4-0.3-0.5-0.5 c-0.1-0.2-0.2-0.5-0.3-0.7c-0.1-0.3-0.1-0.6-0.1-1v-1.8c0-0.8,0.1-1.4,0.4-1.8c0.3-0.4,0.7-0.6,1.3-0.6c0.6,0,1.1,0.2,1.3,0.6 c0.3,0.4,0.4,1,0.4,1.8v1.8c0,0.4,0,0.7-0.1,1c-0.1,0.3-0.1,0.5-0.3,0.7C104.5,167,104.3,167.1,104.1,167.2z M103.2,166.8 c0.2,0,0.3,0,0.4-0.1c0.1-0.1,0.2-0.1,0.3-0.2c0.1-0.1,0.1-0.2,0.1-0.4c0-0.2,0.1-0.3,0.1-0.5s0-0.3,0-0.6v-1.9c0-0.2,0-0.4,0-0.6 c0-0.2,0-0.3-0.1-0.5c0-0.2-0.1-0.3-0.1-0.4c-0.1-0.1-0.2-0.2-0.3-0.2c-0.1-0.1-0.2-0.1-0.4-0.1c-0.1,0-0.3,0-0.4,0.1 c-0.1,0-0.2,0.1-0.2,0.2c-0.1,0.1-0.1,0.2-0.2,0.3c0,0.1-0.1,0.2-0.1,0.4c0,0.1,0,0.3,0,0.4c0,0.1,0,0.3,0,0.5v1.9 c0,0.2,0,0.4,0,0.5c0,0.1,0,0.3,0,0.4c0,0.1,0,0.3,0.1,0.4c0,0.1,0.1,0.2,0.2,0.3c0.1,0.1,0.1,0.1,0.2,0.2 C103,166.7,103.1,166.8,103.2,166.8z" class="st7"/><path d="M109.9,167.4c-0.6,0-1.1-0.2-1.3-0.6c-0.3-0.4-0.4-1-0.4-1.9v-1.6c0-0.6,0.1-1.1,0.2-1.5 c0.1-0.4,0.3-0.6,0.6-0.8c0.2-0.1,0.6-0.2,1-0.2c0.3,0,0.5,0,0.7,0.1c0.2,0.1,0.3,0.2,0.5,0.3c0.1,0.1,0.2,0.3,0.3,0.5 c0.1,0.2,0.1,0.5,0.2,0.7c0,0.3,0,0.6,0,1l0,0.6H109v1c0,0.7,0.1,1.1,0.2,1.4c0.1,0.3,0.4,0.4,0.7,0.4c0.3,0,0.5-0.1,0.7-0.3 c0.2-0.2,0.2-0.5,0.2-1v-0.4h0.8v0.4c0,0.6-0.1,1.1-0.4,1.4C111,167.2,110.5,167.4,109.9,167.4z M109,163.5h1.8V163 c0-0.2,0-0.4,0-0.6c0-0.1,0-0.3-0.1-0.4c0-0.1-0.1-0.3-0.1-0.3c-0.1-0.1-0.1-0.1-0.3-0.2c-0.1-0.1-0.2-0.1-0.4-0.1 c-0.3,0-0.6,0.1-0.7,0.4c-0.1,0.2-0.2,0.7-0.2,1.4V163.5z" class="st7"/><path d="M112.8,160v-1.1h0.8v1.1H112.8z M112.8,167.3v-6.4h0.8v6.4H112.8z" class="st7"/><path d="M115.9,167.4c-0.3,0-0.6-0.1-0.7-0.4c-0.2-0.2-0.3-0.6-0.3-1v-5.1h0.8v5c0,0.3,0,0.6,0.1,0.7 c0.1,0.1,0.3,0.2,0.5,0.2c0.4,0,0.7-0.2,1.1-0.6v-5.2h0.8v6.4h-0.8v-0.7C117,167.1,116.5,167.4,115.9,167.4z" class="st7"/><path d="M121,167.4c-0.5,0-0.9-0.2-1.2-0.5c-0.3-0.3-0.5-0.8-0.5-1.3l0.7-0.2c0,0.5,0.2,0.8,0.3,1.1 c0.2,0.2,0.4,0.3,0.8,0.3c0.3,0,0.5-0.1,0.7-0.2c0.2-0.2,0.2-0.4,0.2-0.6c0,0,0,0,0,0c0-0.4-0.3-0.9-0.8-1.3l-0.9-0.7 c-0.3-0.3-0.5-0.5-0.7-0.8c-0.1-0.2-0.2-0.5-0.2-0.8c0-0.5,0.1-0.8,0.4-1.1c0.3-0.3,0.6-0.4,1.1-0.4c0.5,0,0.8,0.2,1.1,0.5 c0.3,0.3,0.4,0.7,0.4,1.2l-0.6,0.2c0-0.4-0.1-0.7-0.3-1c-0.2-0.2-0.4-0.3-0.6-0.3c-0.3,0-0.5,0.1-0.6,0.2c-0.1,0.1-0.2,0.3-0.2,0.6 c0,0.2,0,0.4,0.1,0.5c0.1,0.2,0.2,0.3,0.4,0.5l0.9,0.8c0.2,0.1,0.3,0.3,0.4,0.4c0.1,0.1,0.2,0.2,0.3,0.4c0.1,0.2,0.2,0.3,0.3,0.5 c0.1,0.2,0.1,0.4,0.1,0.6c0,0.5-0.1,0.9-0.4,1.1C121.9,167.2,121.5,167.4,121,167.4z" class="st7"/><path d="M123.5,167.3v-6.4h0.8v0.6c0.4-0.5,0.9-0.8,1.5-0.8c0.5,0,0.9,0.3,1,0.8c0.4-0.6,1-0.8,1.6-0.8 c0.3,0,0.6,0.1,0.8,0.3c0.2,0.2,0.3,0.6,0.3,1.1v5.1h-0.8v-5c0-0.3-0.1-0.6-0.2-0.7c-0.1-0.1-0.3-0.2-0.5-0.2 c-0.4,0-0.8,0.2-1.2,0.7c0,0.1,0,0.2,0,0.2v5.1h-0.8v-5c0-0.3-0.1-0.6-0.2-0.7c-0.1-0.1-0.3-0.2-0.5-0.2c-0.4,0-0.8,0.2-1.2,0.7 v5.3H123.5z" class="st7"/><path d="M133.1,167.2c-0.2,0.1-0.5,0.2-0.8,0.2c-0.3,0-0.6-0.1-0.8-0.2c-0.2-0.1-0.4-0.3-0.5-0.5 c-0.1-0.2-0.2-0.5-0.3-0.7c-0.1-0.3-0.1-0.6-0.1-1v-1.8c0-0.8,0.1-1.4,0.4-1.8c0.3-0.4,0.7-0.6,1.3-0.6c0.6,0,1.1,0.2,1.3,0.6 c0.3,0.4,0.4,1,0.4,1.8v1.8c0,0.4,0,0.7-0.1,1c-0.1,0.3-0.1,0.5-0.3,0.7C133.5,167,133.3,167.1,133.1,167.2z M132.3,166.8 c0.2,0,0.3,0,0.4-0.1c0.1-0.1,0.2-0.1,0.3-0.2c0.1-0.1,0.1-0.2,0.1-0.4c0-0.2,0.1-0.3,0.1-0.5c0-0.2,0-0.3,0-0.6v-1.9 c0-0.2,0-0.4,0-0.6c0-0.2,0-0.3-0.1-0.5c0-0.2-0.1-0.3-0.1-0.4c-0.1-0.1-0.2-0.2-0.3-0.2c-0.1-0.1-0.2-0.1-0.4-0.1 c-0.1,0-0.3,0-0.4,0.1c-0.1,0-0.2,0.1-0.2,0.2c-0.1,0.1-0.1,0.2-0.2,0.3c0,0.1-0.1,0.2-0.1,0.4c0,0.1,0,0.3,0,0.4 c0,0.1,0,0.3,0,0.5v1.9c0,0.2,0,0.4,0,0.5c0,0.1,0,0.3,0,0.4c0,0.1,0,0.3,0.1,0.4c0,0.1,0.1,0.2,0.2,0.3c0.1,0.1,0.1,0.1,0.2,0.2 C132,166.7,132.1,166.8,132.3,166.8z" class="st7"/><path d="M136.5,167.4c-0.6,0-0.9-0.2-1.2-0.6c-0.2-0.4-0.4-1.1-0.4-2.1v-1.2c0-0.4,0-0.7,0-0.9c0-0.3,0.1-0.5,0.1-0.8 c0.1-0.2,0.2-0.4,0.3-0.6c0.1-0.1,0.3-0.3,0.4-0.3c0.2-0.1,0.4-0.1,0.6-0.1c0.4,0,0.8,0.2,1.1,0.6v-3h0.8v9h-0.8v-0.5 C137.3,167.2,136.9,167.4,136.5,167.4z M136.7,166.7c0.3,0,0.6-0.1,0.9-0.4v-4.4c-0.3-0.3-0.6-0.5-1-0.5c-0.3,0-0.6,0.1-0.7,0.4 c-0.1,0.3-0.2,0.8-0.2,1.4v1.5c0,0.7,0.1,1.2,0.2,1.5C136.1,166.6,136.3,166.7,136.7,166.7z" class="st7"/><path d="M143.4,167.4c-0.4,0-0.7-0.1-0.9-0.4c-0.2-0.2-0.3-0.6-0.3-1.1v-4.5h-0.8v-0.5h0.8v-2h0.8v2h1.1v0.5h-1.1v4.5 c0,0.3,0,0.5,0.1,0.7c0.1,0.1,0.2,0.2,0.5,0.2c0.1,0,0.3,0,0.5,0v0.6C143.9,167.3,143.7,167.4,143.4,167.4z" class="st7"/><path d="M146.6,167.4c-0.6,0-1.1-0.2-1.3-0.6c-0.3-0.4-0.4-1-0.4-1.9v-1.6c0-0.6,0.1-1.1,0.2-1.5 c0.1-0.4,0.3-0.6,0.6-0.8c0.2-0.1,0.6-0.2,1-0.2c0.3,0,0.5,0,0.7,0.1c0.2,0.1,0.3,0.2,0.5,0.3c0.1,0.1,0.2,0.3,0.3,0.5 c0.1,0.2,0.1,0.5,0.2,0.7c0,0.3,0,0.6,0,1l0,0.6h-2.6v1c0,0.7,0.1,1.1,0.2,1.4c0.1,0.3,0.4,0.4,0.7,0.4c0.3,0,0.5-0.1,0.6-0.3 c0.2-0.2,0.2-0.5,0.2-1v-0.4h0.8v0.4c0,0.6-0.1,1.1-0.4,1.4C147.7,167.2,147.2,167.4,146.6,167.4z M145.7,163.5h1.8V163 c0-0.2,0-0.4,0-0.6c0-0.1,0-0.3-0.1-0.4c0-0.1-0.1-0.3-0.1-0.3c-0.1-0.1-0.1-0.1-0.3-0.2c-0.1-0.1-0.2-0.1-0.4-0.1 c-0.3,0-0.6,0.1-0.7,0.4c-0.1,0.2-0.2,0.7-0.2,1.4V163.5z" class="st7"/><path d="M149.4,167.3v-6.4h0.8v0.6c0.4-0.5,0.9-0.8,1.5-0.8c0.5,0,0.9,0.3,1,0.8c0.4-0.6,1-0.8,1.6-0.8 c0.3,0,0.6,0.1,0.8,0.3c0.2,0.2,0.3,0.6,0.3,1.1v5.1h-0.8v-5c0-0.3-0.1-0.6-0.2-0.7c-0.1-0.1-0.3-0.2-0.5-0.2 c-0.4,0-0.8,0.2-1.2,0.7c0,0.1,0,0.2,0,0.2v5.1H152v-5c0-0.3-0.1-0.6-0.2-0.7c-0.1-0.1-0.3-0.2-0.5-0.2c-0.4,0-0.8,0.2-1.2,0.7v5.3 H149.4z" class="st7"/><path d="M156.5,169.4v-8.5h0.8v0.5c0.3-0.4,0.8-0.6,1.2-0.6c0.2,0,0.4,0,0.6,0.1c0.2,0.1,0.3,0.2,0.4,0.4 c0.1,0.2,0.2,0.3,0.2,0.6c0.1,0.2,0.1,0.5,0.1,0.7c0,0.2,0,0.5,0,0.8v1.4c0,0.3,0,0.6,0,0.9s-0.1,0.5-0.2,0.7 c-0.1,0.2-0.2,0.4-0.3,0.6c-0.1,0.1-0.3,0.3-0.4,0.4c-0.2,0.1-0.4,0.1-0.6,0.1c-0.4,0-0.8-0.2-1.1-0.6v2.6H156.5z M158.4,166.7 c0.1,0,0.3,0,0.4-0.1c0.1-0.1,0.2-0.1,0.2-0.2c0.1-0.1,0.1-0.2,0.1-0.4c0-0.2,0.1-0.4,0.1-0.6c0-0.2,0-0.4,0-0.7v-1.4 c0-0.7-0.1-1.2-0.2-1.5c-0.1-0.3-0.3-0.4-0.7-0.4c-0.3,0-0.7,0.2-1,0.5v4.4C157.6,166.6,158,166.7,158.4,166.7z" class="st7"/><path d="M163.6,167.2c-0.2,0.1-0.5,0.2-0.8,0.2c-0.3,0-0.6-0.1-0.8-0.2c-0.2-0.1-0.4-0.3-0.5-0.5 c-0.1-0.2-0.2-0.5-0.3-0.7c-0.1-0.3-0.1-0.6-0.1-1v-1.8c0-0.8,0.1-1.4,0.4-1.8c0.3-0.4,0.7-0.6,1.3-0.6c0.6,0,1.1,0.2,1.3,0.6 c0.3,0.4,0.4,1,0.4,1.8v1.8c0,0.4,0,0.7-0.1,1c-0.1,0.3-0.1,0.5-0.3,0.7C164,167,163.8,167.1,163.6,167.2z M162.7,166.8 c0.2,0,0.3,0,0.4-0.1c0.1-0.1,0.2-0.1,0.3-0.2c0.1-0.1,0.1-0.2,0.1-0.4c0-0.2,0.1-0.3,0.1-0.5c0-0.2,0-0.3,0-0.6v-1.9 c0-0.2,0-0.4,0-0.6c0-0.2,0-0.3-0.1-0.5c0-0.2-0.1-0.3-0.1-0.4c-0.1-0.1-0.2-0.2-0.3-0.2c-0.1-0.1-0.2-0.1-0.4-0.1 c-0.1,0-0.3,0-0.4,0.1c-0.1,0-0.2,0.1-0.2,0.2c-0.1,0.1-0.1,0.2-0.2,0.3c0,0.1-0.1,0.2-0.1,0.4c0,0.1,0,0.3,0,0.4 c0,0.1,0,0.3,0,0.5v1.9c0,0.2,0,0.4,0,0.5c0,0.1,0,0.3,0,0.4c0,0.1,0,0.3,0.1,0.4c0,0.1,0.1,0.2,0.2,0.3c0.1,0.1,0.1,0.1,0.2,0.2 C162.5,166.7,162.6,166.8,162.7,166.8z" class="st7"/><path d="M165.6,167.3v-6.4h0.8v0.9c0.2-0.3,0.4-0.6,0.7-0.7c0.3-0.2,0.5-0.2,0.8-0.2c0.1,0,0.1,0,0.1,0v0.9 c-0.1,0-0.2-0.1-0.4-0.1c-0.5,0-0.9,0.2-1.2,0.7v4.9H165.6z" class="st7"/></g><path d="M537.7,0c-3.4,17.1,1.9,35.5,15.6,48.1c13.1,12.1,30.7,16.1,46.8,12.4V0H537.7z" class="st0"/><g><defs><rect id="SVGID_1_" width="888.9" height="676.8" x="-183.8" y="-113.4"/></defs><clipPath id="SVGID_2_"><use overflow="visible" xlink:href="#SVGID_1_"/></clipPath><g class="st8"><path d="M360.8,471.7L63.5,321.6c-8.4-4.2-7.4-11.7,2.4-16.6l202.4-102.2c9.7-4.9,24.4-5.4,32.8-1.2l297.3,150.1 c8.4,4.2,7.4,11.7-2.4,16.6L393.6,470.5C383.9,475.4,369.2,475.9,360.8,471.7z" class="st9"/><path d="M681.6,61.8L372.3-94.3c-3.6-1.8-7.2-2.1-10.5-1.1l0,0l-0.6,0.2c0,0-0.1,0-0.1,0L350-91.5l10,4.3 c0,0.2-0.1,0.3-0.1,0.5l-50.4,200.5c-2.5,10,2.5,21.8,11.3,26.2l301.9,152.4l-1.1,11.2l12.2-4.1c4.1-1.7,7.4-5.5,8.7-10.9 L692.9,88C695.4,77.9,690.4,66.2,681.6,61.8z" class="st10"/><path d="M681.6,61.8L372.3-94.3c-3.6-1.8-7.2-2.1-10.5-1.1l0,0l-0.6,0.2c0,0-0.1,0-0.1,0L350-91.5l10,4.3 c0,0.2-0.1,0.3-0.1,0.5L326.7,45.4L478,148.5l213.4-75.9C689.4,67.9,686,64,681.6,61.8z" class="st11"/><path d="M670,92.6l23.5-8.8c0.4-8-3.3-16.2-9.5-20.6L646.7,77L670,92.6z" class="st12"/><path d="M610.8,302.5L301.5,146.3c-8.8-4.4-13.8-16.1-11.3-26.2l50.4-200.5c2.5-10,11.7-14.6,20.4-10.2L670.3,65.6 c8.8,4.4,13.8,16.1,11.3,26.2l-50.4,200.5C628.7,302.3,619.6,306.9,610.8,302.5z" class="st13"/><path d="M673.3,64.6L364-91.5c-4.2-2.1-8.6-2.1-12.2-0.5c2.9-0.6,6.1-0.2,9.2,1.4L670.3,65.6 c8.8,4.4,13.8,16.1,11.3,26.2l-50.4,200.5c-1.3,5.2-4.4,8.9-8.2,10.6c5.2-1,9.6-5.1,11.2-11.6l50.4-200.5 C687.1,80.8,682.1,69.1,673.3,64.6z" class="st4"/><path d="M604.1,287.5L313.2,140.8c-8-4-12.6-14.8-10.3-23.9L349-66.7c2.3-9.2,10.7-13.4,18.7-9.3L658.6,70.8 c8,4,12.6,14.8,10.3,23.9l-46.1,183.5C620.5,287.4,612.1,291.6,604.1,287.5z" class="st4"/><path d="M604.1,287.5L313.2,140.8c-8-4-12.6-14.8-10.3-23.9L349-66.7c2.3-9.2,10.7-13.4,18.7-9.3L658.6,70.8 c8,4,12.6,14.8,10.3,23.9l-46.1,183.5C620.5,287.4,612.1,291.6,604.1,287.5z" class="st10"/><path d="M606.7,286.6L315.7,139.9c-8-4-12.6-14.8-10.3-23.9l46.1-183.5c1.2-4.6,3.9-8,7.3-9.7 c-4.6,1-8.4,4.8-9.9,10.6l-46.1,183.5c-2.3,9.2,2.3,19.9,10.3,23.9l290.9,146.8c4,2,8,2,11.3,0.4 C612.7,288.5,609.7,288.2,606.7,286.6z" class="st14"/><path d="M615.1,309.3l-42.3-4.9l-273-137.8c-8.8-4.4-24-3.9-34.1,1.2L72.3,265.4l-25.6-3v12.7l0,0 c-0.2,2.9,1.7,5.8,5.9,7.8L362,439.2c8.8,4.4,24,3.9,34.1-1.2l210.6-106.3c5.7-2.9,8.5-6.6,8.4-10l0,0V309.3z" class="st10"/><path d="M410,222.2l-19.4-9.8H177.4l-105.1,53l-25.6-3v12.7l0,0c-0.2,2.9,1.7,5.8,5.9,7.8L362,439.2 c4.6,2.3,11.1,3.3,17.6,2.9L410,222.2z" class="st11"/><path d="M58.1,263.8l-11.3-1.3v12.7l0,0c-0.2,2.9,1.7,5.8,5.9,7.8l5.5,2.8V263.8z" class="st14"/><path d="M365.1,440.4c8.3,2.8,20.2,2.2,29-1.6v-28.3h-29V440.4z" class="st12"/><path d="M362,426.5L52.6,270.3c-8.8-4.4-7.7-12.1,2.5-17.2l210.6-106.3c10.1-5.1,25.4-5.7,34.1-1.2l309.3,156.2 c8.8,4.4,7.7,12.1-2.5,17.2L396.1,425.2C386,430.3,370.7,430.9,362,426.5z" class="st13"/><path d="M606.7,314.3L396.1,420.6c-10.1,5.1-25.4,5.7-34.1,1.2L52.6,265.7c-2.9-1.4-4.7-3.3-5.4-5.2 c-1.4,3.6,0.4,7.3,5.4,9.8L362,426.5c8.8,4.4,24,3.9,34.1-1.2L606.7,319c6.8-3.4,9.5-8,7.9-12C613.6,309.6,611,312.2,606.7,314.3z" class="st4"/><g><path d="M184.2,218.6l-14-7.1c-1.1-0.6-1-1.6,0.3-2.2L187,201c1.3-0.7,3.3-0.7,4.4-0.2l14,7.1 c1.1,0.6,1,1.6-0.3,2.2l-16.5,8.3C187.3,219.1,185.3,219.2,184.2,218.6z" class="st14"/><path d="M205.8,229.5l-14-7.1c-1.1-0.6-1-1.6,0.3-2.2l16.5-8.3c1.3-0.7,3.3-0.7,4.4-0.2l14,7.1 c1.1,0.6,1,1.6-0.3,2.2l-16.5,8.3C208.9,230,206.9,230.1,205.8,229.5z" class="st14"/><path d="M227.4,240.5l-14-7.1c-1.1-0.6-1-1.6,0.3-2.2l16.5-8.3c1.3-0.7,3.3-0.7,4.4-0.2l14,7.1 c1.1,0.6,1,1.6-0.3,2.2l-16.5,8.3C230.5,241,228.6,241,227.4,240.5z" class="st14"/><path d="M257.3,231.4l-14-7.1c-1.1-0.6-1-1.6,0.3-2.2l13.9-7c1.3-0.7,3.3-0.7,4.4-0.2l14,7.1c1.1,0.6,1,1.6-0.3,2.2 l-13.9,7C260.4,231.9,258.4,232,257.3,231.4z" class="st14"/><path d="M278.9,242.4l-14-7.1c-1.1-0.6-1-1.6,0.3-2.2l13.9-7c1.3-0.7,3.3-0.7,4.4-0.2l14,7.1c1.1,0.6,1,1.6-0.3,2.2 l-13.9,7C282,242.9,280.1,242.9,278.9,242.4z" class="st14"/><path d="M300.6,253.3l-14-7.1c-1.1-0.6-1-1.6,0.3-2.2l13.9-7c1.3-0.7,3.3-0.7,4.4-0.2l14,7.1c1.1,0.6,1,1.6-0.3,2.2 l-13.9,7C303.6,253.8,301.7,253.8,300.6,253.3z" class="st14"/><path d="M322.2,264.2l-14-7.1c-1.1-0.6-1-1.6,0.3-2.2l13.9-7c1.3-0.7,3.3-0.7,4.4-0.2l14,7.1c1.1,0.6,1,1.6-0.3,2.2 l-13.9,7C325.3,264.7,323.3,264.7,322.2,264.2z" class="st14"/><path d="M343.8,275.1l-14-7.1c-1.1-0.6-1-1.6,0.3-2.2l13.9-7c1.3-0.7,3.3-0.7,4.4-0.2l14,7.1c1.1,0.6,1,1.6-0.3,2.2 l-13.9,7C346.9,275.6,344.9,275.7,343.8,275.1z" class="st14"/><path d="M365.4,286l-14-7.1c-1.1-0.6-1-1.6,0.3-2.2l13.9-7c1.3-0.7,3.3-0.7,4.4-0.2l14,7.1c1.1,0.6,1,1.6-0.3,2.2 l-13.9,7C368.5,286.5,366.5,286.6,365.4,286z" class="st14"/><path d="M387,296.9l-14-7.1c-1.1-0.6-1-1.6,0.3-2.2l13.9-7c1.3-0.7,3.3-0.7,4.4-0.2l14,7.1c1.1,0.6,1,1.6-0.3,2.2 l-13.9,7C390.1,297.4,388.1,297.5,387,296.9z" class="st14"/><path d="M408.6,307.8l-14-7.1c-1.1-0.6-1-1.6,0.3-2.2l13.9-7c1.3-0.7,3.3-0.7,4.4-0.2l14,7.1c1.1,0.6,1,1.6-0.3,2.2 l-13.9,7C411.7,308.3,409.7,308.4,408.6,307.8z" class="st14"/><path d="M430.2,318.7l-14-7.1c-1.1-0.6-1-1.6,0.3-2.2l13.9-7c1.3-0.7,3.3-0.7,4.4-0.2l14,7.1c1.1,0.6,1,1.6-0.3,2.2 l-13.9,7C433.3,319.2,431.4,319.3,430.2,318.7z" class="st14"/><path d="M451.9,329.6l-14-7.1c-1.1-0.6-1-1.6,0.3-2.2l13.9-7c1.3-0.7,3.3-0.7,4.4-0.2l14,7.1c1.1,0.6,1,1.6-0.3,2.2 l-13.9,7C454.9,330.1,453,330.2,451.9,329.6z" class="st14"/><path d="M289.2,226.3l-14-7.1c-1.1-0.6-1-1.6,0.3-2.2l13.9-7c1.3-0.7,3.3-0.7,4.4-0.2l14,7.1c1.1,0.6,1,1.6-0.3,2.2 l-13.9,7C292.3,226.8,290.3,226.8,289.2,226.3z" class="st14"/><path d="M267.2,215.2l-14-7.1c-1.1-0.6-1-1.6,0.3-2.2l13.9-7c1.3-0.7,3.3-0.7,4.4-0.2l14,7.1c1.1,0.6,1,1.6-0.3,2.2 l-13.9,7C270.3,215.7,268.4,215.8,267.2,215.2z" class="st14"/><path d="M245.3,204.1l-30.1-15.2c-1.1-0.6-1-1.6,0.3-2.2l13.9-7c1.3-0.7,3.3-0.7,4.4-0.2l30.1,15.2 c1.1,0.6,1,1.6-0.3,2.2l-13.9,7C248.3,204.6,246.4,204.7,245.3,204.1z" class="st14"/><path d="M260.6,190.6l-24.5-12.3c-1.1-0.6-1-1.6,0.3-2.2l13.9-7c1.3-0.7,3.3-0.7,4.4-0.2l24.5,12.3 c1.1,0.6,1,1.6-0.3,2.2l-13.9,7C263.7,191.1,261.7,191.2,260.6,190.6z" class="st14"/><path d="M310.8,237.2l-14-7.1c-1.1-0.6-1-1.6,0.3-2.2l13.9-7c1.3-0.7,3.3-0.7,4.4-0.2l14,7.1c1.1,0.6,1,1.6-0.3,2.2 l-13.9,7C313.9,237.7,311.9,237.8,310.8,237.2z" class="st14"/><path d="M332.4,248.1l-14-7.1c-1.1-0.6-1-1.6,0.3-2.2l13.9-7c1.3-0.7,3.3-0.7,4.4-0.2l14,7.1c1.1,0.6,1,1.6-0.3,2.2 l-13.9,7C335.5,248.6,333.5,248.7,332.4,248.1z" class="st14"/><path d="M354,259l-14-7.1c-1.1-0.6-1-1.6,0.3-2.2l13.9-7c1.3-0.7,3.3-0.7,4.4-0.2l14,7.1c1.1,0.6,1,1.6-0.3,2.2 l-13.9,7C357.1,259.5,355.1,259.6,354,259z" class="st14"/><path d="M375.6,269.9l-14-7.1c-1.1-0.6-1-1.6,0.3-2.2l13.9-7c1.3-0.7,3.3-0.7,4.4-0.2l14,7.1c1.1,0.6,1,1.6-0.3,2.2 l-13.9,7C378.7,270.4,376.8,270.5,375.6,269.9z" class="st14"/><path d="M397.2,280.8l-14-7.1c-1.1-0.6-1-1.6,0.3-2.2l13.9-7c1.3-0.7,3.3-0.7,4.4-0.2l14,7.1c1.1,0.6,1,1.6-0.3,2.2 l-13.9,7C400.3,281.3,398.4,281.4,397.2,280.8z" class="st14"/><path d="M418.9,291.7l-14-7.1c-1.1-0.6-1-1.6,0.3-2.2l13.9-7c1.3-0.7,3.3-0.7,4.4-0.2l14,7.1c1.1,0.6,1,1.6-0.3,2.2 l-13.9,7C421.9,292.2,420,292.3,418.9,291.7z" class="st14"/><path d="M440.5,302.7l-14-7.1c-1.1-0.6-1-1.6,0.3-2.2l13.9-7c1.3-0.7,3.3-0.7,4.4-0.2l14,7.1c1.1,0.6,1,1.6-0.3,2.2 l-13.9,7C443.6,303.2,441.6,303.2,440.5,302.7z" class="st14"/><path d="M462.1,313.6l-14-7.1c-1.1-0.6-1-1.6,0.3-2.2l13.9-7c1.3-0.7,3.3-0.7,4.4-0.2l14,7.1c1.1,0.6,1,1.6-0.3,2.2 l-13.9,7C465.2,314.1,463.2,314.1,462.1,313.6z" class="st14"/><path d="M483.7,324.5l-14-7.1c-1.1-0.6-1-1.6,0.3-2.2l13.9-7c1.3-0.7,3.3-0.7,4.4-0.2l14,7.1c1.1,0.6,1,1.6-0.3,2.2 l-13.9,7C486.8,325,484.8,325,483.7,324.5z" class="st14"/><path d="M522.1,343.9l-30.5-15.4c-1.1-0.6-1-1.6,0.3-2.2l13.9-7c1.3-0.7,3.3-0.7,4.4-0.2l30.5,15.4 c1.1,0.6,1,1.6-0.3,2.2l-13.9,7C525.2,344.4,523.2,344.4,522.1,343.9z" class="st14"/><path d="M564.2,322.6l-25.8-13c-1.1-0.6-1-1.6,0.3-2.2l13.9-7c1.3-0.7,3.3-0.7,4.4-0.2l25.8,13 c1.1,0.6,1,1.6-0.3,2.2l-13.9,7C567.3,323.1,565.3,323.2,564.2,322.6z" class="st14"/><path d="M348.6,235.1l-14-7.1c-1.1-0.6-1-1.6,0.3-2.2l13.9-7c1.3-0.7,3.3-0.7,4.4-0.2l14,7.1c1.1,0.6,1,1.6-0.3,2.2 l-13.9,7C351.7,235.6,349.8,235.6,348.6,235.1z" class="st14"/><path d="M326.5,223.9l-14-7.1c-1.1-0.6-1-1.6,0.3-2.2l13.9-7c1.3-0.7,3.3-0.7,4.4-0.2l14,7.1c1.1,0.6,1,1.6-0.3,2.2 l-13.9,7C329.6,224.4,327.6,224.4,326.5,223.9z" class="st14"/><path d="M304.3,212.7l-14-7.1c-1.1-0.6-1-1.6,0.3-2.2l13.9-7c1.3-0.7,3.3-0.7,4.4-0.2l14,7.1c1.1,0.6,1,1.6-0.3,2.2 l-13.9,7C307.4,213.2,305.5,213.3,304.3,212.7z" class="st14"/><path d="M282.2,201.5l-14-7.1c-1.1-0.6-1-1.6,0.3-2.2l13.9-7c1.3-0.7,3.3-0.7,4.4-0.2l14,7.1c1.1,0.6,1,1.6-0.3,2.2 l-13.9,7C285.3,202,283.3,202.1,282.2,201.5z" class="st14"/><path d="M370.2,246l-14-7.1c-1.1-0.6-1-1.6,0.3-2.2l13.9-7c1.3-0.7,3.3-0.7,4.4-0.2l14,7.1c1.1,0.6,1,1.6-0.3,2.2 l-13.9,7C373.3,246.5,371.4,246.5,370.2,246z" class="st14"/><path d="M391.9,256.9l-14-7.1c-1.1-0.6-1-1.6,0.3-2.2l13.9-7c1.3-0.7,3.3-0.7,4.4-0.2l14,7.1c1.1,0.6,1,1.6-0.3,2.2 l-13.9,7C394.9,257.4,393,257.4,391.9,256.9z" class="st14"/><path d="M413.5,267.8l-14-7.1c-1.1-0.6-1-1.6,0.3-2.2l13.9-7c1.3-0.7,3.3-0.7,4.4-0.2l14,7.1c1.1,0.6,1,1.6-0.3,2.2 l-13.9,7C416.6,268.3,414.6,268.4,413.5,267.8z" class="st14"/><path d="M435.1,278.7l-14-7.1c-1.1-0.6-1-1.6,0.3-2.2l13.9-7c1.3-0.7,3.3-0.7,4.4-0.2l14,7.1c1.1,0.6,1,1.6-0.3,2.2 l-13.9,7C438.2,279.2,436.2,279.3,435.1,278.7z" class="st14"/><path d="M456.7,289.6l-14-7.1c-1.1-0.6-1-1.6,0.3-2.2l13.9-7c1.3-0.7,3.3-0.7,4.4-0.2l14,7.1c1.1,0.6,1,1.6-0.3,2.2 l-13.9,7C459.8,290.1,457.8,290.2,456.7,289.6z" class="st14"/><path d="M478.3,300.5l-14-7.1c-1.1-0.6-1-1.6,0.3-2.2l13.9-7c1.3-0.7,3.3-0.7,4.4-0.2l14,7.1c1.1,0.6,1,1.6-0.3,2.2 l-13.9,7C481.4,301,479.4,301.1,478.3,300.5z" class="st14"/><path d="M499.9,311.4l-14-7.1c-1.1-0.6-1-1.6,0.3-2.2l13.9-7c1.3-0.7,3.3-0.7,4.4-0.2l14,7.1c1.1,0.6,1,1.6-0.3,2.2 l-13.9,7C503,311.9,501.1,312,499.9,311.4z" class="st14"/><path d="M521.5,322.3l-14-7.1c-1.1-0.6-1-1.6,0.3-2.2l13.9-7c1.3-0.7,3.3-0.7,4.4-0.2l14,7.1c1.1,0.6,1,1.6-0.3,2.2 l-13.9,7C524.6,322.8,522.7,322.9,521.5,322.3z" class="st14"/><path d="M543.2,333.3l-14-7.1c-1.1-0.6-1-1.6,0.3-2.2l13.9-7c1.3-0.7,3.3-0.7,4.4-0.2l14,7.1c1.1,0.6,1,1.6-0.3,2.2 l-13.9,7C546.2,333.8,544.3,333.8,543.2,333.3z" class="st14"/><path d="M337.3,208.1l-14-7.1c-1.1-0.6-1-1.6,0.3-2.2l13.9-7c1.3-0.7,3.3-0.7,4.4-0.2l14,7.1c1.1,0.6,1,1.6-0.3,2.2 l-13.9,7C340.3,208.6,338.4,208.6,337.3,208.1z" class="st14"/><path d="M315.7,197.2l-14-7.1c-1.1-0.6-1-1.6,0.3-2.2l13.9-7c1.3-0.7,3.3-0.7,4.4-0.2l14,7.1c1.1,0.6,1,1.6-0.3,2.2 l-13.9,7C318.8,197.7,316.9,197.8,315.7,197.2z" class="st14"/><path d="M294.2,186.4l-14-7.1c-1.1-0.6-1-1.6,0.3-2.2l13.9-7c1.3-0.7,3.3-0.7,4.4-0.2l14,7.1c1.1,0.6,1,1.6-0.3,2.2 l-13.9,7C297.3,186.9,295.4,186.9,294.2,186.4z" class="st14"/><path d="M272.7,175.5l-14-7.1c-1.1-0.6-1-1.6,0.3-2.2l13.9-7c1.3-0.7,3.3-0.7,4.4-0.2l14,7.1c1.1,0.6,1,1.6-0.3,2.2 l-13.9,7C275.8,176,273.9,176.1,272.7,175.5z" class="st14"/><path d="M294.8,164.3l-14-7.1c-1.1-0.6-1-1.6,0.3-2.2l4.6-2.3c1.3-0.7,3.3-0.7,4.4-0.2l14,7.1 c1.1,0.6,1,1.6-0.3,2.2l-4.6,2.3C297.9,164.8,296,164.9,294.8,164.3z" class="st14"/><path d="M322.9,178.5l-14-7.1c-1.1-0.6-1-1.6,0.3-2.2l4.6-2.3c1.3-0.7,3.3-0.7,4.4-0.2l14,7.1 c1.1,0.6,1,1.6-0.3,2.2l-4.6,2.3C326,179,324,179.1,322.9,178.5z" class="st14"/><path d="M344.3,189.3l-14-7.1c-1.1-0.6-1-1.6,0.3-2.2l4.6-2.3c1.3-0.7,3.3-0.7,4.4-0.2l14,7.1 c1.1,0.6,1,1.6-0.3,2.2l-4.6,2.3C347.4,189.8,345.5,189.9,344.3,189.3z" class="st14"/><path d="M365.7,200.1l-14-7.1c-1.1-0.6-1-1.6,0.3-2.2l4.6-2.3c1.3-0.7,3.3-0.7,4.4-0.2l14,7.1 c1.1,0.6,1,1.6-0.3,2.2l-4.6,2.3C368.8,200.6,366.9,200.7,365.7,200.1z" class="st14"/><path d="M387.2,210.9l-14-7.1c-1.1-0.6-1-1.6,0.3-2.2l4.6-2.3c1.3-0.7,3.3-0.7,4.4-0.2l14,7.1 c1.1,0.6,1,1.6-0.3,2.2l-4.6,2.3C390.3,211.4,388.3,211.5,387.2,210.9z" class="st14"/><path d="M506.7,271.3l-14-7.1c-1.1-0.6-1-1.6,0.3-2.2l4.6-2.3c1.3-0.7,3.3-0.7,4.4-0.2l14,7.1 c1.1,0.6,1,1.6-0.3,2.2l-4.6,2.3C509.8,271.8,507.9,271.9,506.7,271.3z" class="st14"/><path d="M528.2,282.1l-14-7.1c-1.1-0.6-1-1.6,0.3-2.2l4.6-2.3c1.3-0.7,3.3-0.7,4.4-0.2l14,7.1 c1.1,0.6,1,1.6-0.3,2.2l-4.6,2.3C531.2,282.6,529.3,282.7,528.2,282.1z" class="st14"/><path d="M549.6,292.9l-14-7.1c-1.1-0.6-1-1.6,0.3-2.2l4.6-2.3c1.3-0.7,3.3-0.7,4.4-0.2l14,7.1 c1.1,0.6,1,1.6-0.3,2.2l-4.6,2.3C552.7,293.4,550.7,293.5,549.6,292.9z" class="st14"/><path d="M571,303.7l-14-7.1c-1.1-0.6-1-1.6,0.3-2.2l4.6-2.3c1.3-0.7,3.3-0.7,4.4-0.2l14,7.1c1.1,0.6,1,1.6-0.3,2.2 l-4.6,2.3C574.1,304.2,572.1,304.3,571,303.7z" class="st14"/><path d="M358.9,219l-14-7.1c-1.1-0.6-1-1.6,0.3-2.2l13.9-7c1.3-0.7,3.3-0.7,4.4-0.2l14,7.1c1.1,0.6,1,1.6-0.3,2.2 l-13.9,7C362,219.5,360,219.5,358.9,219z" class="st14"/><path d="M380.5,229.9l-14-7.1c-1.1-0.6-1-1.6,0.3-2.2l13.9-7c1.3-0.7,3.3-0.7,4.4-0.2l14,7.1c1.1,0.6,1,1.6-0.3,2.2 l-13.9,7C383.6,230.4,381.6,230.5,380.5,229.9z" class="st14"/><path d="M402.1,240.8l-14-7.1c-1.1-0.6-1-1.6,0.3-2.2l13.9-7c1.3-0.7,3.3-0.7,4.4-0.2l14,7.1c1.1,0.6,1,1.6-0.3,2.2 l-13.9,7C405.2,241.3,403.2,241.4,402.1,240.8z" class="st14"/><path d="M423.7,251.7l-14-7.1c-1.1-0.6-1-1.6,0.3-2.2l13.9-7c1.3-0.7,3.3-0.7,4.4-0.2l14,7.1c1.1,0.6,1,1.6-0.3,2.2 l-13.9,7C426.8,252.2,424.8,252.3,423.7,251.7z" class="st14"/><path d="M445.3,262.6l-14-7.1c-1.1-0.6-1-1.6,0.3-2.2l13.9-7c1.3-0.7,3.3-0.7,4.4-0.2l14,7.1c1.1,0.6,1,1.6-0.3,2.2 l-13.9,7C448.4,263.1,446.4,263.2,445.3,262.6z" class="st14"/><path d="M466.9,273.5l-14-7.1c-1.1-0.6-1-1.6,0.3-2.2l13.9-7c1.3-0.7,3.3-0.7,4.4-0.2l14,7.1c1.1,0.6,1,1.6-0.3,2.2 l-13.9,7C470,274,468.1,274.1,466.9,273.5z" class="st14"/><path d="M488.6,284.4l-14-7.1c-1.1-0.6-1-1.6,0.3-2.2l13.9-7c1.3-0.7,3.3-0.7,4.4-0.2l14,7.1c1.1,0.6,1,1.6-0.3,2.2 l-13.9,7C491.6,284.9,489.7,285,488.6,284.4z" class="st14"/><path d="M510.2,295.4l-14-7.1c-1.1-0.6-1-1.6,0.3-2.2l13.9-7c1.3-0.7,3.3-0.7,4.4-0.2l14,7.1c1.1,0.6,1,1.6-0.3,2.2 l-13.9,7C513.3,295.9,511.3,295.9,510.2,295.4z" class="st14"/><path d="M531.8,306.3l-14-7.1c-1.1-0.6-1-1.6,0.3-2.2l13.9-7c1.3-0.7,3.3-0.7,4.4-0.2l14,7.1c1.1,0.6,1,1.6-0.3,2.2 l-13.9,7C534.9,306.8,532.9,306.8,531.8,306.3z" class="st14"/><path d="M235.3,220.3l-41.2-20.8c-1.1-0.6-1-1.6,0.3-2.2l13.9-7c1.3-0.7,3.3-0.7,4.4-0.2l41.2,20.8 c1.1,0.6,1,1.6-0.3,2.2l-13.9,7C238.4,220.8,236.4,220.9,235.3,220.3z" class="st14"/><path d="M500.8,354.4l-41.2-20.8c-1.1-0.6-1-1.6,0.3-2.2l13.9-7c1.3-0.7,3.3-0.7,4.4-0.2l41.2,20.8 c1.1,0.6,1,1.6-0.3,2.2l-13.9,7C503.9,354.9,502,354.9,500.8,354.4z" class="st14"/><path d="M414.4,334.8l-14-7.1c-1.1-0.6-1-1.6,0.3-2.2l16.5-8.3c1.3-0.7,3.3-0.7,4.4-0.2l14,7.1 c1.1,0.6,1,1.6-0.3,2.2l-16.5,8.3C417.5,335.3,415.5,335.4,414.4,334.8z" class="st14"/><path d="M257.4,255.6L235,244.3c-1.1-0.6-1-1.6,0.3-2.2l16.5-8.3c1.3-0.7,3.3-0.7,4.4-0.2l22.4,11.3 c1.1,0.6,1,1.6-0.3,2.2l-16.5,8.3C260.5,256.1,258.6,256.2,257.4,255.6z" class="st14"/><path d="M393.6,324.3L371.2,313c-1.1-0.6-1-1.6,0.3-2.2l16.5-8.3c1.3-0.7,3.3-0.7,4.4-0.2l22.4,11.3 c1.1,0.6,1,1.6-0.3,2.2l-16.5,8.3C396.7,324.8,394.7,324.9,393.6,324.3z" class="st14"/><path d="M288.6,271.3L266.2,260c-1.1-0.6-1-1.6,0.3-2.2l16.5-8.3c1.3-0.7,3.3-0.7,4.4-0.2l22.4,11.3 c1.1,0.6,1,1.6-0.3,2.2l-16.5,8.3C291.7,271.8,289.7,271.9,288.6,271.3z" class="st14"/><path d="M287.6,249.4l97.3,49.1c1.2,0.6,1.2,1.6,0,2.2l-16.8,8.5c-1.2,0.6-3.2,0.6-4.4,0l-97.3-49.1L287.6,249.4z" class="st14"/><path d="M474.8,354.6l15.6,7.9c0.9,0.5,0.8,1.3-0.3,1.8l-6.8,3.4c-1.1,0.5-2.7,0.6-3.6,0.1l-15.6-7.9 c-0.9-0.5-0.8-1.3,0.3-1.8l6.8-3.4C472.3,354.2,473.9,354.2,474.8,354.6z" class="st14"/><path d="M453,343.6l15.6,7.9c0.9,0.5,0.8,1.3-0.3,1.8l-6.8,3.4c-1.1,0.5-2.7,0.6-3.6,0.1l-15.6-7.9 c-0.9-0.5-0.8-1.3,0.3-1.8l6.8-3.4C450.5,343.2,452.1,343.2,453,343.6z" class="st14"/><path d="M431.4,332.7l15.6,7.9c0.9,0.5,0.8,1.3-0.3,1.8l-6.8,3.4c-1.1,0.5-2.7,0.6-3.6,0.1l-15.6-7.9 c-0.9-0.5-0.8-1.3,0.3-1.8l6.8-3.4C428.9,332.3,430.5,332.2,431.4,332.7z" class="st14"/><path d="M464.9,337.6l15.6,7.9c0.9,0.5,0.8,1.3-0.3,1.8l-6.8,3.4c-1.1,0.5-2.7,0.6-3.6,0.1l-15.6-7.9 c-0.9-0.5-0.8-1.3,0.3-1.8l6.8-3.4C462.4,337.2,464,337.1,464.9,337.6z" class="st14"/></g><g><polygon points="550.3 124.7 433.9 65.9 435.4 59.3 551.8 118.1" class="st13"/><polygon points="508.6 135.9 427.4 94.8 428.9 88.2 510.1 129.2" class="st13"/><polygon points="500.9 115.9 430.6 80.4 432.1 73.8 502.4 109.3" class="st4"/><polygon points="547.1 139.2 511.9 121.4 513.4 114.8 548.5 132.5" class="st15"/><polygon points="421.5 8.2 386.3 -9.6 387.8 -16.2 423 1.6" class="st13"/><polygon points="417.7 23.6 382.5 5.8 384 -.8 419.2 16.9" class="st4"/><polygon points="590.2 236.9 555.1 219.1 556.6 212.5 591.7 230.3" class="st13"/><polygon points="410.1 54.3 374.9 36.6 376.4 30 411.6 47.7" class="st13"/></g><g><path d="M486,59.1c-1.1,2.1-4,2.9-6.3,1.7s-3.4-3.9-2.3-6c1.1-2.1,4-2.9,6.3-1.7C486.1,54.2,487.1,57,486,59.1z" class="st15"/><path d="M501.2,66.7c-1.1,2.1-4,2.9-6.3,1.7c-2.4-1.2-3.4-3.9-2.3-6c1.1-2.1,3.9-2.9,6.3-1.7 C501.3,61.9,502.3,64.6,501.2,66.7z" class="st4"/><path d="M516.3,74.4c-1.1,2.1-4,2.9-6.3,1.7s-3.4-3.9-2.3-6c1.1-2.1,3.9-2.9,6.3-1.7 C516.4,69.5,517.4,72.2,516.3,74.4z" class="st13"/><path d="M531.4,82c-1.1,2.1-4,2.9-6.3,1.7c-2.4-1.2-3.4-3.9-2.3-6c1.1-2.1,4-2.9,6.3-1.7 C531.5,77.2,532.6,79.9,531.4,82z" class="st15"/></g><path d="M279.8,357.5l-96.5-48.7c-2.8-1.4-2.5-3.9,0.8-5.5l58.2-29.4c3.2-1.6,8.2-1.8,11-0.4l96.5,48.7 c2.8,1.4,2.5,3.9-0.8,5.5l-58.2,29.4C287.5,358.7,282.6,358.9,279.8,357.5z" class="st4"/></g><g class="st16"><defs><path id="SVGID_3_" d="M541.8,239.6l47.3-169L410.3-22.1l103.3-41.6l132.8,44.8c0,0,0.8,204.6,0,206.7 c-0.8,2.1-49.2,70.7-49.2,70.7L541.8,239.6z" class="st17"/></defs><clipPath id="SVGID_4_"><use overflow="visible" xlink:href="#SVGID_3_"/></clipPath><g class="st18"><g><g><path d="M489.2,138.1c6.6,3.4,6.6,8.8,0,12.2l-113,57c-1.8,0.9-4.8,0.9-6.6,0c-1.8-0.9-1.8-2.4,0-3.3l113-57 c3-1.5,3-4,0-5.5l-11-5.5c1.2-1.6,2.3-3.3,3.4-5L489.2,138.1z" class="st13"/><path d="M329.1,183.5l113-57c6.6-3.4,17.5-3.4,24.1,0l8.8,4.4c-1.1,1.7-2.2,3.4-3.4,5l-12-6 c-3-1.5-7.9-1.5-10.9,0l-113,57c-1.8,0.9-4.8,0.9-6.6,0C327.3,186,327.3,184.5,329.1,183.5z" class="st14"/></g><polygon points="327.8 185.3 327.8 46.4 446.2 -11.3 462.8 -12.3 478.8 -3.2 488.6 4.3 373.2 164.2 335.6 183.7" class="st14"/><polygon points="371.6 202.9 336.2 185 336.2 50.7 372.7 65.6" class="st19"/><polygon points="494.2 5.3 494.2 144.1 369.9 206.2 368.2 205.6 368.2 66.7" class="st13"/><g><path d="M424.3,6.5L449-5.9c3-1.2,7.4-1.1,10.2,0.3l22.9,11.6c1.8,0.9,2.5,2.1,2.2,3.3l-62.4,32.6l-50.2,26.9 l-35.5-18L424.3,6.5z" class="st4"/></g><path d="M372.7,64.5v137.8v2.9v2.7c-1.1,0-2.2-0.2-3.1-0.7c-0.9-0.5-1.3-1-1.4-1.6l0,0v0v0V66.7L372.7,64.5z" class="st14"/><polygon points="327.8 48.1 327.8 46.4 328.4 46.4 328.6 47.6" class="st4"/><polygon points="368.2 68.5 368.2 66.8 368.8 67.5" class="st4"/><g><path d="M376.2,68.4l113-57c6.6-3.4,6.6-8.8,0-12.2l-22.9-11.6c-6.6-3.4-17.5-3.4-24.1,0l-113,57 c-1.8,0.9-1.8,2.4,0,3.3c1.8,0.9,4.8,0.9,6.6,0l113-57c3-1.5,7.9-1.5,10.9,0l22.9,11.6c3,1.5,3,4,0,5.5l-113,57 c-1.8,0.9-1.8,2.4,0,3.3C371.4,69.3,374.4,69.3,376.2,68.4z" class="st13"/></g><polygon points="405.6 134.1 464.4 104.5 464.4 53 405.6 82.7" class="st4"/><g><path d="M329.1,48c1.8,0.9,4.8,0.9,6.6,0l113-57c3-1.5,7.9-1.5,10.9,0l22.9,11.6c2,1,2.6,2.4,2,3.7 c-0.3-0.7-1-1.3-2-1.8L459.7-7.3c-3-1.5-7.9-1.5-10.9,0l-113,57c-1.8,0.9-4.8,0.9-6.6,0c-1.4-0.7-1.7-1.7-1-2.6 C328.4,47.5,328.7,47.7,329.1,48z" class="st4"/><path d="M369.6,68.4c1.8,0.9,4.8,0.9,6.6,0l113-57c2.9-1.4,4.5-3.3,4.9-5.2c0.5,2.5-1.1,5.1-4.9,7l-113,57 c-1.8,0.9-4.8,0.9-6.6,0c-1.4-0.7-1.7-1.7-1-2.6C368.8,67.9,369.1,68.1,369.6,68.4z" class="st4"/></g></g><g><g><path d="M541.2,165c6.6,3.4,6.6,8.8,0,12.2l-113,57c-1.8,0.9-4.8,0.9-6.6,0c-1.8-0.9-1.8-2.4,0-3.3l113-57 c3-1.5,3-4,0-5.5l-11-5.5c1.2-1.6,2.3-3.3,3.4-5L541.2,165z" class="st15"/><path d="M381.1,210.4l113-57c6.6-3.4,17.5-3.4,24.1,0l8.8,4.4c-1.1,1.7-2.2,3.4-3.4,5l-12-6 c-3-1.5-7.9-1.5-10.9,0l-113,57c-1.8,0.9-4.8,0.9-6.6,0C379.3,212.9,379.3,211.4,381.1,210.4z" class="st20"/></g><polygon points="379.7 212.2 379.7 73.3 498.2 15.6 514.7 14.6 530.7 23.7 540.6 31.2 425.2 191.1 387.5 210.6" class="st20"/><polygon points="423.5 229.8 388.1 211.9 388.1 77.6 424.6 92.5" class="st21"/><polygon points="546.1 32.2 546.1 170.9 421.8 233.1 420.2 232.5 420.2 93.6" class="st15"/><g><path d="M476.2,33.4L500.9,21c3-1.2,7.4-1.1,10.2,0.3l22.9,11.6c1.8,0.9,2.5,2.1,2.2,3.3l-62.4,32.6l-50.2,26.9 l-35.5-18L476.2,33.4z" class="st4"/></g><path d="M424.6,91.4v137.8v2.9v2.7c-1.1,0-2.2-0.2-3.1-0.7c-0.9-0.5-1.3-1-1.4-1.6l0,0v0v0V93.6L424.6,91.4z" class="st20"/><polygon points="379.7 75 379.7 73.3 380.4 73.3 380.6 74.5" class="st4"/><polygon points="420.2 95.4 420.2 93.6 420.8 94.4" class="st4"/><g><path d="M428.1,95.3l113-57c6.6-3.4,6.6-8.8,0-12.2l-22.9-11.6c-6.6-3.4-17.5-3.4-24.1,0l-113,57 c-1.8,0.9-1.8,2.4,0,3.3c1.8,0.9,4.8,0.9,6.6,0l113-57c3-1.5,7.9-1.5,10.9,0l22.9,11.6c3,1.5,3,4,0,5.5l-113,57 c-1.8,0.9-1.8,2.4,0,3.3C423.4,96.2,426.3,96.2,428.1,95.3z" class="st15"/></g><polygon points="457.6 161 516.3 131.4 516.3 79.9 457.6 109.6" class="st4"/><g><path d="M381.1,74.9c1.8,0.9,4.8,0.9,6.6,0l113-57c3-1.5,7.9-1.5,10.9,0l22.9,11.6c2,1,2.6,2.4,2,3.7 c-0.3-0.7-1-1.3-2-1.8l-22.9-11.6c-3-1.5-7.9-1.5-10.9,0l-113,57c-1.8,0.9-4.8,0.9-6.6,0c-1.4-0.7-1.7-1.7-1-2.6 C380.3,74.4,380.7,74.6,381.1,74.9z" class="st4"/><path d="M421.5,95.3c1.8,0.9,4.8,0.9,6.6,0l113-57c2.9-1.4,4.5-3.3,4.9-5.2c0.5,2.5-1.1,5.1-4.9,7l-113,57 c-1.8,0.9-4.8,0.9-6.6,0c-1.4-0.7-1.7-1.7-1-2.6C420.8,94.8,421.1,95,421.5,95.3z" class="st4"/></g></g><g><g><path d="M594.5,193.7c6.6,3.4,6.6,8.8,0,12.2l-113,57c-1.8,0.9-4.8,0.9-6.6,0c-1.8-0.9-1.8-2.4,0-3.3l113-57 c3-1.5,3-4,0-5.5l-11-5.5c1.2-1.6,2.3-3.3,3.4-5L594.5,193.7z" class="st13"/><path d="M434.5,239.2l113-57c6.6-3.4,17.5-3.4,24.1,0l8.8,4.4c-1.1,1.7-2.2,3.4-3.4,5l-12-6 c-3-1.5-7.9-1.5-10.9,0l-113,57c-1.8,0.9-4.8,0.9-6.6,0C432.7,241.6,432.7,240.1,434.5,239.2z" class="st14"/></g><polygon points="433.1 241 433.1 102 551.5 44.3 568.1 43.3 584.1 52.4 594 59.9 478.6 219.9 440.9 239.3" class="st14"/><polygon points="476.9 258.5 441.5 240.6 441.5 106.4 478 121.2" class="st19"/><polygon points="599.5 61 599.5 199.7 475.2 261.9 473.5 261.3 473.5 122.4" class="st13"/><g><path d="M529.6,62.1l24.7-12.4c3-1.2,7.4-1.1,10.2,0.3l22.9,11.6c1.8,0.9,2.5,2.1,2.2,3.3l-62.4,32.6L477,124.4 l-35.5-18L529.6,62.1z" class="st4"/></g><path d="M478,120.2V258v2.9v2.7c-1.1,0-2.2-0.2-3.1-0.7c-0.9-0.5-1.3-1-1.4-1.6l0,0v0v0V122.4L478,120.2z" class="st14"/><polygon points="433.1 103.8 433.1 102 433.7 102 433.9 103.2" class="st4"/><polygon points="473.5 124.2 473.5 122.4 474.2 123.1" class="st4"/><g><path d="M481.5,124l113-57c6.6-3.4,6.6-8.8,0-12.2l-22.9-11.6c-6.6-3.4-17.5-3.4-24.1,0l-113,57 c-1.8,0.9-1.8,2.4,0,3.3c1.8,0.9,4.8,0.9,6.6,0l113-57c3-1.5,7.9-1.5,10.9,0l22.9,11.6c3,1.5,3,4,0,5.5l-113,57 c-1.8,0.9-1.8,2.4,0,3.3C476.7,124.9,479.7,124.9,481.5,124z" class="st13"/></g><polygon points="511 189.8 569.7 160.1 569.7 108.7 511 138.3" class="st4"/><g><path d="M434.5,103.6c1.8,0.9,4.8,0.9,6.6,0l113-57c3-1.5,7.9-1.5,10.9,0l22.9,11.6c2,1,2.6,2.4,2,3.7 c-0.3-0.7-1-1.3-2-1.8L565,48.4c-3-1.5-7.9-1.5-10.9,0l-113,57c-1.8,0.9-4.8,0.9-6.6,0c-1.4-0.7-1.7-1.7-1-2.6 C433.7,103.1,434,103.4,434.5,103.6z" class="st4"/><path d="M474.9,124c1.8,0.9,4.8,0.9,6.6,0l113-57c2.9-1.4,4.5-3.3,4.9-5.2c0.5,2.5-1.1,5.1-4.9,7l-113,57 c-1.8,0.9-4.8,0.9-6.6,0c-1.4-0.7-1.7-1.7-1-2.6C474.1,123.5,474.5,123.8,474.9,124z" class="st4"/></g></g></g></g><g class="st8"><defs><path id="SVGID_5_" d="M541.8,239.6l47.3-169L410.3-22.1L192.2,48.9l167.4,191c0,0,138.2,68.9,137.4,70.9 c-0.8,2.1,100.2-52.2,100.2-52.2L541.8,239.6z"/></defs><clipPath id="SVGID_6_"><use overflow="visible" xlink:href="#SVGID_5_"/></clipPath><g class="st22"><g><g><path d="M489.2,138.1c6.6,3.4,6.6,8.8,0,12.2l-113,57c-1.8,0.9-4.8,0.9-6.6,0c-1.8-0.9-1.8-2.4,0-3.3l113-57 c3-1.5,3-4,0-5.5l-11-5.5c1.2-1.6,2.3-3.3,3.4-5L489.2,138.1z" class="st13"/><path d="M329.1,183.5l113-57c6.6-3.4,17.5-3.4,24.1,0l8.8,4.4c-1.1,1.7-2.2,3.4-3.4,5l-12-6 c-3-1.5-7.9-1.5-10.9,0l-113,57c-1.8,0.9-4.8,0.9-6.6,0C327.3,186,327.3,184.5,329.1,183.5z" class="st14"/></g><polygon points="327.8 185.3 327.8 46.4 446.2 -11.3 462.8 -12.3 478.8 -3.2 488.6 4.3 373.2 164.2 335.6 183.7" class="st14"/><polygon points="371.6 202.9 336.2 185 336.2 50.7 372.7 65.6" class="st19"/><polygon points="494.2 5.3 494.2 144.1 369.9 206.2 368.2 205.6 368.2 66.7" class="st13"/><g><path d="M424.3,6.5L449-5.9c3-1.2,7.4-1.1,10.2,0.3l22.9,11.6c1.8,0.9,2.5,2.1,2.2,3.3l-62.4,32.6l-50.2,26.9 l-35.5-18L424.3,6.5z" class="st4"/></g><path d="M372.7,64.5v137.8v2.9v2.7c-1.1,0-2.2-0.2-3.1-0.7c-0.9-0.5-1.3-1-1.4-1.6l0,0v0v0V66.7L372.7,64.5z" class="st14"/><polygon points="327.8 48.1 327.8 46.4 328.4 46.4 328.6 47.6" class="st4"/><polygon points="368.2 68.5 368.2 66.8 368.8 67.5" class="st4"/><g><path d="M376.2,68.4l113-57c6.6-3.4,6.6-8.8,0-12.2l-22.9-11.6c-6.6-3.4-17.5-3.4-24.1,0l-113,57 c-1.8,0.9-1.8,2.4,0,3.3c1.8,0.9,4.8,0.9,6.6,0l113-57c3-1.5,7.9-1.5,10.9,0l22.9,11.6c3,1.5,3,4,0,5.5l-113,57 c-1.8,0.9-1.8,2.4,0,3.3C371.4,69.3,374.4,69.3,376.2,68.4z" class="st13"/></g><polygon points="405.6 134.1 464.4 104.5 464.4 53 405.6 82.7" class="st4"/><g><path d="M329.1,48c1.8,0.9,4.8,0.9,6.6,0l113-57c3-1.5,7.9-1.5,10.9,0l22.9,11.6c2,1,2.6,2.4,2,3.7 c-0.3-0.7-1-1.3-2-1.8L459.7-7.3c-3-1.5-7.9-1.5-10.9,0l-113,57c-1.8,0.9-4.8,0.9-6.6,0c-1.4-0.7-1.7-1.7-1-2.6 C328.4,47.5,328.7,47.7,329.1,48z" class="st4"/><path d="M369.6,68.4c1.8,0.9,4.8,0.9,6.6,0l113-57c2.9-1.4,4.5-3.3,4.9-5.2c0.5,2.5-1.1,5.1-4.9,7l-113,57 c-1.8,0.9-4.8,0.9-6.6,0c-1.4-0.7-1.7-1.7-1-2.6C368.8,67.9,369.1,68.1,369.6,68.4z" class="st4"/></g></g><g><g><path d="M541.2,165c6.6,3.4,6.6,8.8,0,12.2l-113,57c-1.8,0.9-4.8,0.9-6.6,0c-1.8-0.9-1.8-2.4,0-3.3l113-57 c3-1.5,3-4,0-5.5l-11-5.5c1.2-1.6,2.3-3.3,3.4-5L541.2,165z" class="st15"/><path d="M381.1,210.4l113-57c6.6-3.4,17.5-3.4,24.1,0l8.8,4.4c-1.1,1.7-2.2,3.4-3.4,5l-12-6 c-3-1.5-7.9-1.5-10.9,0l-113,57c-1.8,0.9-4.8,0.9-6.6,0C379.3,212.9,379.3,211.4,381.1,210.4z" class="st20"/></g><polygon points="379.7 212.2 379.7 73.3 498.2 15.6 514.7 14.6 530.7 23.7 540.6 31.2 425.2 191.1 387.5 210.6" class="st20"/><polygon points="423.5 229.8 388.1 211.9 388.1 77.6 424.6 92.5" class="st21"/><polygon points="546.1 32.2 546.1 170.9 421.8 233.1 420.2 232.5 420.2 93.6" class="st15"/><g><path d="M476.2,33.4L500.9,21c3-1.2,7.4-1.1,10.2,0.3l22.9,11.6c1.8,0.9,2.5,2.1,2.2,3.3l-62.4,32.6l-50.2,26.9 l-35.5-18L476.2,33.4z" class="st4"/></g><path d="M424.6,91.4v137.8v2.9v2.7c-1.1,0-2.2-0.2-3.1-0.7c-0.9-0.5-1.3-1-1.4-1.6l0,0v0v0V93.6L424.6,91.4z" class="st20"/><polygon points="379.7 75 379.7 73.3 380.4 73.3 380.6 74.5" class="st4"/><polygon points="420.2 95.4 420.2 93.6 420.8 94.4" class="st4"/><g><path d="M428.1,95.3l113-57c6.6-3.4,6.6-8.8,0-12.2l-22.9-11.6c-6.6-3.4-17.5-3.4-24.1,0l-113,57 c-1.8,0.9-1.8,2.4,0,3.3c1.8,0.9,4.8,0.9,6.6,0l113-57c3-1.5,7.9-1.5,10.9,0l22.9,11.6c3,1.5,3,4,0,5.5l-113,57 c-1.8,0.9-1.8,2.4,0,3.3C423.4,96.2,426.3,96.2,428.1,95.3z" class="st15"/></g><polygon points="457.6 161 516.3 131.4 516.3 79.9 457.6 109.6" class="st4"/><g><path d="M381.1,74.9c1.8,0.9,4.8,0.9,6.6,0l113-57c3-1.5,7.9-1.5,10.9,0l22.9,11.6c2,1,2.6,2.4,2,3.7 c-0.3-0.7-1-1.3-2-1.8l-22.9-11.6c-3-1.5-7.9-1.5-10.9,0l-113,57c-1.8,0.9-4.8,0.9-6.6,0c-1.4-0.7-1.7-1.7-1-2.6 C380.3,74.4,380.7,74.6,381.1,74.9z" class="st4"/><path d="M421.5,95.3c1.8,0.9,4.8,0.9,6.6,0l113-57c2.9-1.4,4.5-3.3,4.9-5.2c0.5,2.5-1.1,5.1-4.9,7l-113,57 c-1.8,0.9-4.8,0.9-6.6,0c-1.4-0.7-1.7-1.7-1-2.6C420.8,94.8,421.1,95,421.5,95.3z" class="st4"/></g></g><g><g><path d="M594.5,193.7c6.6,3.4,6.6,8.8,0,12.2l-113,57c-1.8,0.9-4.8,0.9-6.6,0c-1.8-0.9-1.8-2.4,0-3.3l113-57 c3-1.5,3-4,0-5.5l-11-5.5c1.2-1.6,2.3-3.3,3.4-5L594.5,193.7z" class="st13"/><path d="M434.5,239.2l113-57c6.6-3.4,17.5-3.4,24.1,0l8.8,4.4c-1.1,1.7-2.2,3.4-3.4,5l-12-6 c-3-1.5-7.9-1.5-10.9,0l-113,57c-1.8,0.9-4.8,0.9-6.6,0C432.7,241.6,432.7,240.1,434.5,239.2z" class="st14"/></g><polygon points="433.1 241 433.1 102 551.5 44.3 568.1 43.3 584.1 52.4 594 59.9 478.6 219.9 440.9 239.3" class="st14"/><polygon points="476.9 258.5 441.5 240.6 441.5 106.4 478 121.2" class="st19"/><polygon points="599.5 61 599.5 199.7 475.2 261.9 473.5 261.3 473.5 122.4" class="st13"/><g><path d="M529.6,62.1l24.7-12.4c3-1.2,7.4-1.1,10.2,0.3l22.9,11.6c1.8,0.9,2.5,2.1,2.2,3.3l-62.4,32.6L477,124.4 l-35.5-18L529.6,62.1z" class="st4"/></g><path d="M478,120.2V258v2.9v2.7c-1.1,0-2.2-0.2-3.1-0.7c-0.9-0.5-1.3-1-1.4-1.6l0,0v0v0V122.4L478,120.2z" class="st14"/><polygon points="433.1 103.8 433.1 102 433.7 102 433.9 103.2" class="st4"/><polygon points="473.5 124.2 473.5 122.4 474.2 123.1" class="st4"/><g><path d="M481.5,124l113-57c6.6-3.4,6.6-8.8,0-12.2l-22.9-11.6c-6.6-3.4-17.5-3.4-24.1,0l-113,57 c-1.8,0.9-1.8,2.4,0,3.3c1.8,0.9,4.8,0.9,6.6,0l113-57c3-1.5,7.9-1.5,10.9,0l22.9,11.6c3,1.5,3,4,0,5.5l-113,57 c-1.8,0.9-1.8,2.4,0,3.3C476.7,124.9,479.7,124.9,481.5,124z" class="st13"/></g><polygon points="511 189.8 569.7 160.1 569.7 108.7 511 138.3" class="st4"/><g><path d="M434.5,103.6c1.8,0.9,4.8,0.9,6.6,0l113-57c3-1.5,7.9-1.5,10.9,0l22.9,11.6c2,1,2.6,2.4,2,3.7 c-0.3-0.7-1-1.3-2-1.8L565,48.4c-3-1.5-7.9-1.5-10.9,0l-113,57c-1.8,0.9-4.8,0.9-6.6,0c-1.4-0.7-1.7-1.7-1-2.6 C433.7,103.1,434,103.4,434.5,103.6z" class="st4"/><path d="M474.9,124c1.8,0.9,4.8,0.9,6.6,0l113-57c2.9-1.4,4.5-3.3,4.9-5.2c0.5,2.5-1.1,5.1-4.9,7l-113,57 c-1.8,0.9-4.8,0.9-6.6,0c-1.4-0.7-1.7-1.7-1-2.6C474.1,123.5,474.5,123.8,474.9,124z" class="st4"/></g></g></g></g><g class="st8"><path d="M642.8,416.8c-4.5-2.3-11.7-2.3-16.2,0L417.9,522.2c-4.5,2.3-4.5,5.9,0,8.2c4.5,2.3,11.7,2.3,16.2,0 L642.8,425C647.3,422.7,647.3,419,642.8,416.8z" class="st9"/><g><g><path d="M678.5,359.7L678.5,359.7c-0.2-0.3-0.6-0.4-1-0.4l-12.6,2.4l5,7.4l8.5-8.5 C678.6,360.4,678.7,360,678.5,359.7z" class="st13"/><g><path d="M673.5,365.1c0-1.6-1.3-3.5-2.9-4.3c-0.7-0.4-1.4-0.4-1.9-0.2c-14.6-0.1-28.9,3.3-41.5,9.7l-0.9,0.5 l15.7,23.3l4.6-2.7c9.8-5.7,18.1-13.2,24.2-21.9l2-2.8C673.2,366.4,673.5,365.9,673.5,365.1z" class="st14"/><path d="M645.1,387.9c-0.1-6.1-5-13.5-11.1-16.5c-6.1-3-10.9-0.5-10.9,5.6c0.1,6.1,5,13.5,11.1,16.5 C640.3,396.5,645.1,394,645.1,387.9z" class="st13"/><polygon points="548.9 444.8 641.9 394.1 626.3 370.8 530.3 417.3" class="st13"/><path d="M552.6,437.5c-0.1-7.2-5.9-15.9-13.1-19.5c-7.2-3.6-12.9-0.6-12.9,6.6c0.1,7.2,5.9,15.9,13.1,19.5 C546.9,447.7,552.7,444.7,552.6,437.5z" class="st13"/></g><g><path d="M547.3,440.2c-0.1-7.2-5.9-15.9-13.1-19.5c-7.2-3.6-12.9-0.6-12.9,6.6c0.1,7.2,5.9,15.9,13.1,19.5 C541.6,450.4,547.3,447.4,547.3,440.2z" class="st13"/><polygon points="420.4 510.9 543.6 447.6 525 420 401.9 483.3" class="st13"/><path d="M424.1,503.5c-0.1-7.2-5.9-15.9-13.1-19.5c-7.2-3.6-12.9-0.6-12.9,6.6c0.1,7.2,5.9,15.9,13.1,19.5 C418.4,513.7,424.2,510.7,424.1,503.5z" class="st13"/><path d="M419.5,501.2c-0.3-4.3-4.2-9.6-8.9-11.8c-4.6-2.3-8.1-0.7-7.8,3.6c0.3,4.3,4.2,9.6,8.9,11.8 C416.3,507.1,419.8,505.5,419.5,501.2z" class="st11"/></g><g><path d="M553.5,437c-0.1-7.2-5.9-15.9-13.1-19.5c-2.9-1.4-5.5-1.8-7.7-1.3c2.3-2.1,6.1-2.4,10.5-0.2 c7.2,3.6,13,12.3,13.1,19.5c0,4.3-2,7.1-5.2,7.9C552.7,442,553.5,439.9,553.5,437z" class="st4"/><path d="M553.5,437c-0.1-7.2-5.9-15.9-13.1-19.5c-3.6-1.8-6.8-1.9-9.2-0.7l-7,3.6l3.3,4.9 c0.6,6.6,5.6,14,11.9,17.7l3.3,4.9l7-3.6l0,0C552.1,443.2,553.6,440.6,553.5,437z" class="st14"/><path d="M546.5,440.6c-0.1-7.2-5.9-15.9-13.1-19.5c-7.2-3.6-12.9-0.6-12.9,6.6s5.9,15.9,13.1,19.5 C540.8,450.8,546.6,447.8,546.5,440.6z" class="st13"/></g><g><path d="M413.7,504.4l-8-11.9l-26.1,13.4c-3.8,1.9-5,6.2-2.8,9.4l0,0c2.2,3.3,7,4.4,10.8,2.5L413.7,504.4z" class="st15"/><path d="M415.3,501.2c0-3.1-2.6-6.9-5.7-8.4c-3.1-1.5-5.6-0.3-5.6,2.9c0,3.1,2.6,6.9,5.7,8.4 C412.8,505.6,415.3,504.4,415.3,501.2z" class="st15"/></g><g><path d="M444.3,459.3l-3.9-1.9c-2.2-1.1-5.2-0.8-8.4,0.8l-13.4,6.9c-2.5,1.3-4.6,4.4-4.6,7l0.1,5.9 c0,1-0.5,2.1-1.3,2.9l0.5,2.7l-3.3-1.7l0,0c-0.5-0.2-0.8-0.7-0.8-1.4l-0.1-5.9c0-5.4,4.2-11.9,9.5-14.6l13.4-6.9 c4.5-2.3,8.7-2.7,11.9-1.1l3.9,1.9c2.2,1.1,5.2,0.8,8.4-0.8l54.1-27.8c0.7-0.4,1.3-0.4,1.8-0.2l0,0l3.3,1.7l-2.9,1 c-0.4,1.1-1.2,2.1-2.2,2.6l-54.1,27.8C451.7,460.5,447.5,460.9,444.3,459.3z" class="st14"/><path d="M443.8,459c-2.2-1.1-5.2-0.8-8.4,0.8l-13.4,6.9c-2.5,1.3-4.6,4.4-4.6,7l0.1,5.9c0,1.4-1.1,3.1-2.5,3.8 c-1.4,0.7-2.5,0.1-2.5-1.2l-0.1-5.9c0-5.4,4.2-11.9,9.5-14.6l13.4-6.9c4.5-2.3,8.7-2.7,11.9-1.1l3.9,1.9 c2.2,1.1,5.2,0.8,8.4-0.8l54.1-27.8c1.4-0.7,2.5-0.1,2.5,1.2c0,1.4-1.1,3.1-2.5,3.8l-54.1,27.8c-4.5,2.3-8.7,2.7-11.9,1.1 L443.8,459z" class="st14"/><g><path d="M417.3,474.7l0.1,5.9c0,0,0,0.1,0,0.1c0.1-0.4,0.2-0.7,0.2-1.1l-0.1-5.9c0-0.2,0-0.3,0-0.5 C417.4,473.7,417.3,474.2,417.3,474.7z" class="st4"/></g></g></g></g></g><g class="st8"><g><ellipse cx="370.4" cy="359.5" class="st9" rx="42.4" ry="21.4"/><path d="M418.7,341.1v-11.9h-2.6c-2.3-3.5-6.1-6.7-11.6-9.5c-18.9-9.5-49.4-9.5-68.3,0c-5.5,2.8-9.3,6-11.6,9.5 h-2.6v11.8h0c0,6.3,4.7,12.5,14.1,17.3c18.9,9.5,49.4,9.5,68.3,0C414,353.6,418.7,347.4,418.7,341.1z" class="st15"/><ellipse cx="370.4" cy="329.3" class="st15" rx="48.3" ry="24.4"/><path d="M404.6,346.5c-18.9,9.5-49.4,9.5-68.3,0c-9-4.6-13.7-10.5-14.1-16.5c-0.4,6.5,4.3,13.1,14.1,18 c18.9,9.5,49.4,9.5,68.3,0c9.8-5,14.5-11.5,14.1-18C418.3,336,413.6,342,404.6,346.5z" class="st4"/></g><g><path d="M347.1,337.3c-0.8-0.4-1.3-1-1.3-1.6l0-15.9c0-1.2,2-2.2,4.4-2.2c2.4,0,4.3,1,4.3,2.2l0,13.2l43.7-4.7 c2.4-0.3,4.7,0.5,5.2,1.7c0.5,1.2-1,2.4-3.3,2.6l-49,5.2c-1.3,0.1-2.6,0-3.6-0.4C347.4,337.5,347.3,337.4,347.1,337.3z" class="st4"/></g></g><g class="st8"><g><polygon points="120.8 206.2 85 188.1 120.8 170 156.7 188.1" class="st9"/><polygon points="156.7 165.1 120.8 183.2 120.8 147 156.7 128.9" class="st20"/><polygon points="120.8 147 85 128.9 120.8 110.7 156.7 128.9" class="st15"/><polygon points="120.8 183.2 85 165.1 85 128.9 120.8 147" class="st15"/></g><polygon points="107.9 163.6 97.9 158.6 97.9 148.4 107.9 153.5" class="st4"/></g><g class="st8"><g><polygon points="-102.4 530.9 -139.7 512.1 -102.4 493.2 -65 512.1" class="st9"/><polygon points="-65 488.1 -102.4 507 -102.4 469.3 -65 450.4" class="st10"/><polygon points="-102.4 469.3 -139.7 450.4 -102.4 431.6 -65 450.4" class="st13"/><polygon points="-102.4 507 -139.7 488.1 -139.7 450.4 -102.4 469.3" class="st14"/></g><polygon points="-115.8 486.6 -126.3 481.3 -126.3 470.8 -115.8 476.1" class="st4"/></g><path d="M33.5,486.9l-139.2-70.3c-3.1-1.6-3.1-5.5,0-7.1l132.4-66.8l148.1,74.8c3.1,1.6,3.1,5.5,0,7.1L51.3,486.9 C45.8,489.7,39,489.7,33.5,486.9z" class="st23"/><g class="st8"><g><path d="M29.5,294c0-7.7-6.2-10.9-13.9-7l-130.2,65.6c-2.1,1.1-3.8,3.6-3.8,5.8c0,2.1,1.7,3,3.8,1.9l130.2-65.6 c3.5-1.7,6.3-0.3,6.3,3.2l0,12.7c2.5-0.1,5.1-0.1,7.6-0.1L29.5,294z" class="st15"/><path d="M-114.7,383.2l130.2-41.5c7.7-3.9,13.9-13.3,13.9-21l0-10.2c-2.6,0-5.1,0-7.6,0.1l0,13.9 c0,3.5-2.8,7.7-6.3,9.5l-130.2,41.5c-2.1,1.1-3.8,3.6-3.8,5.8C-118.5,383.4-116.8,384.2-114.7,383.2z" class="st20"/></g><polygon points="-117.5 383.3 40.9 463.5 175 393.5 185.6 379.7 184.5 384.6 181.6 371.7 -67.2 380 -111.1 377.5" class="st20"/><polygon points="-112.2 359.2 -112.3 376.2 40.8 453.6 44.9 437.4" class="st21"/><polygon points="183.6 366.2 25.5 286.2 -117 358.7 -117.3 360.5 41 440.6" class="st15"/><g><path d="M133.2,407.3l37.2-19.3c3.1-1.9,5.6-5.8,5.6-9.1l0-2.6c0-2.1-1-3.4-2.5-3.8l-73.2,35.6l-59.6,28.2l0.1,17.2 L133.2,407.3z" class="st4"/></g><path d="M46.1,438L-111,358.5l-3.3-1.7l-3-1.5c-0.6,1-1,2.1-1,3.1c0,1,0.4,1.8,1.1,2.1l0,0l0,0l0,0L41,440.6 L46.1,438z" class="st20"/><polygon points="38.9 462.5 40.9 463.5 41.3 462.9 40 462.1" class="st4"/><polygon points="39 439.6 41 440.6 40.5 439.6" class="st4"/><g><path d="M43.8,432.7l130.2-65.6c7.7-3.9,13.9-0.7,13.9,7l0,2.6c0,7.7-6.2,17.2-13.9,21L43.7,463.3 c-2.1,1.1-3.8,0.2-3.8-1.9c0-2.1,1.7-4.7,3.8-5.8L173.9,390c3.5-1.7,6.3-6,6.3-9.5l0-2.6c0-3.5-2.8-4.9-6.3-3.2L43.7,440.4 c-2.1,1.1-3.8,0.2-3.8-1.9C39.9,436.3,41.6,433.8,43.8,432.7z" class="st15"/></g><g><path d="M39.9,461.4c0-2.1,1.7-4.7,3.8-5.8L173.9,390c3.5-1.7,6.3-6,6.3-9.5l0-2.6c0-2.3-1.2-3.7-3-3.9 c0.6,0.7,0.9,1.6,0.9,2.8l0,2.6c0,3.5-2.8,7.7-6.3,9.5L41.6,454.5c-2.1,1.1-3.8,3.6-3.8,5.8c0,1.6,1,2.5,2.4,2.4 C40,462.3,39.9,461.9,39.9,461.4z" class="st4"/><path d="M39.9,438.5c0-2.1,1.7-4.7,3.8-5.8l130.2-65.6c3.3-1.7,6.3-2,8.7-1.3c-2.5-1.9-6.4-2-10.8,0.2L41.7,431.6 c-2.1,1.1-3.8,3.6-3.8,5.8c0,1.6,1,2.5,2.4,2.4C40,439.4,39.9,439,39.9,438.5z" class="st4"/></g><polygon points="-20.3 367.8 51.6 331.6 113.8 363.1 42 399.3" class="st4"/></g><g class="st8"><path d="M157.4,542.8c28.8,14.5,75.4,14.5,104.1,0c28.8-14.5,28.8-38.1,0-52.6c-28.8-14.5-75.4-14.5-104.1,0 C128.6,504.8,128.6,528.3,157.4,542.8z M185.5,504.4c13.2-6.7,34.6-6.7,47.9,0c13.2,6.7,13.2,17.5,0,24.2 c-13.2,6.7-34.6,6.7-47.9,0C172.3,521.9,172.3,511.1,185.5,504.4z" class="st9"/><g><g><path d="M272.4,481.6l-26.3,0.4c-1.9-2.2-4.7-4.3-8.3-6.1c-14.4-7.3-37.2-7.9-52.9-1.7l-15.6-12.8l-24,0.3 c1.2-0.7,2.4-1.3,3.7-2c33.4-16.9,87.5-16.9,120.9,0c6.1,3.1,11.1,6.6,15,10.2L272.4,481.6z" class="st24"/><polygon points="145.3 428.3 145.3 461.7 169.3 461.4 169.3 428" class="st20"/><polygon points="184.9 440.8 184.9 474.2 169.3 461.4 169.3 428" class="st24"/><path d="M246.1,448.6V482l-34.6-24.6l-26.6,16.8v-33.4l24.5-10.4c0,0,33.8,9,35.5,9.4 C246.7,440.2,246.1,448.6,246.1,448.6z" class="st24"/><polygon points="272.4 448.3 272.4 481.6 246.1 482 246.1 448.6" class="st24"/><polygon points="284.9 436.6 284.9 469.9 272.4 481.6 272.4 448.3" class="st20"/><path d="M272.4,448.3l-26.3,0.4c-1.9-2.2-4.7-4.3-8.3-6.1c-14.4-7.3-37.2-7.9-52.9-1.7L169.3,428l-24,0.3 c1.2-0.7,2.4-1.3,3.7-2c33.4-16.9,87.5-16.9,120.9,0c6.1,3.1,11.1,6.6,15,10.2L272.4,448.3z" class="st15"/></g><g><path d="M177,445v30.7l-22.7-4.8c0,0,1.3-17.9,1.8-18.4C156.6,451.9,177,445,177,445z" class="st14"/><g><path d="M194.2,475.6V509l-2.5,2.3l-16-8.1c0,0,2.5-25.5,2.8-26C178.8,476.7,194.2,475.6,194.2,475.6z" class="st10"/><path d="M163.2,467l13.7,11.3c-11.5,7.9-10.1,19.1,4.1,26.2c3.9,2,8.4,3.4,13.1,4.4L180,522.2l12.6,10.4 c-16-1.6-31.2-5.5-43.6-11.8c-28.7-14.5-32.7-36.7-12.1-53.4L163.2,467z" class="st11"/><polygon points="192.6 499.2 192.6 532.5 161.4 522 123.9 490.7 124.1 455.3 163.7 482.8" class="st11"/><path d="M163.2,433.6L177,445c-11.5,7.9-10.1,19.1,4.1,26.2c3.9,2,8.4,3.4,13.1,4.4L180,488.8l12.6,10.4 c-16-1.6-31.2-5.5-43.6-11.8c-28.7-14.5-32.7-36.7-12.1-53.4L163.2,433.6z" class="st13"/></g></g><g><path d="M192.7,522l12.5-11.7c11.6,0.6,23.7-1.3,32.6-5.8c9.2-4.6,13-11,11.4-17l29.8-0.4l11.5-10.7 c10,15.1,3.2,32.3-20.6,44.3c-17.5,8.8-40.6,13-63.4,12.6L192.7,522z" class="st11"/><polygon points="206.5 500 206.5 533.4 294.9 490.5 294.9 457.1 282 461.7" class="st11"/><polygon points="192.7 488.7 192.7 522 206.5 533.4 206.5 500" class="st10"/><path d="M192.7,488.7l12.5-11.7c11.6,0.6,23.7-1.3,32.6-5.8c9.2-4.6,13-11,11.4-17l29.8-0.4l11.5-10.7 c10,15.1,3.2,32.3-20.6,44.3c-17.5,8.8-40.6,13-63.4,12.6L192.7,488.7z" class="st14"/></g></g></g></g></svg>