<svg xmlns="http://www.w3.org/2000/svg" xmlns:xlink="http://www.w3.org/1999/xlink" id="Layer_1" x="0" y="0" enable-background="new 0 0 120 85" version="1.1" viewBox="0 0 120 85" xml:space="preserve"><style type="text/css">.st0{fill:url(#SVGID_1_)}.st0,.st1{opacity:.54}.st2{fill:#bf3000}.st3{fill:#74b3bf}.st4{display:none;fill:url(#SVGID_2_)}.st5{fill:url(#SVGID_3_)}.st5,.st6,.st7{display:none}.st6{fill:url(#SVGID_4_)}.st7{fill:url(#SVGID_5_)}</style><radialGradient id="SVGID_1_" cx="6.605" cy="2.56" r="112.147" gradientTransform="matrix(1.0042 0 0 1.0043 -0.5794 -0.4226)" gradientUnits="userSpaceOnUse"><stop offset="0" stop-color="#454249"/><stop offset="1" stop-color="#16131B"/></radialGradient><rect width="120" height="85" class="st0"/><g class="st1"><polygon points="110.3 85 110.2 79.4 111.6 85 111.7 85 110.2 79.1 110.1 79.1 110.2 85" class="st2"/><polygon points="108.6 85 110.1 79.3 110.2 85 110.3 85 110.2 79.1 110.1 79.1 108.6 85" class="st2"/><polygon points="89.7 85 93.4 83.6 93 85 93.1 85 93.4 83.6 93.4 83.5 89.5 85" class="st2"/><polygon points="94.3 85 93.5 83.6 96.4 85 96.5 85 93.3 83.5 94.3 85" class="st2"/><polygon points="48.7 85 49 84.4 48.9 85 49 85 49.1 84.2 49 84.2 48.6 85" class="st2"/><polygon points="49 85 49.1 84.3 50.1 85 50.2 85 49.1 84.2 49 84.2 48.9 85" class="st2"/><path d="M93.4,83.6l-20.5-8.1l0,0l13.8-10.3l0,0L93.4,83.6z M73.1,75.5l20.3,8l-6.6-18.2L73.1,75.5z" class="st2"/><path d="M93.4,83.6l-6.7-18.4l0,0l16.4-0.5l0,0L93.4,83.6z M86.8,65.3l6.6,18.2l9.6-18.8L86.8,65.3z" class="st2"/><polygon points="45.1 85 49 84.3 48.6 85 48.7 85 49.1 84.2 49.1 84.2 44.8 85" class="st2"/><polygon points="76.5 85 73.1 75.5 93.3 83.6 89.5 85 89.7 85 93.5 83.6 73 75.4 73 75.4 76.4 85" class="st2"/><polygon points="50.2 85 49.2 84.3 51.6 85 51.8 85 49 84.2 49 84.2 50.1 85" class="st2"/><polygon points="64.7 85 66.6 71.7 73 75.5 66.6 85 66.7 85 73 75.5 66.6 71.6 64.7 85" class="st2"/><path d="M86.7,65.3l13.4-10.8l0,0l3,10.2l0,0L86.7,65.3z M100,54.5L86.8,65.2l16.2-0.5L100,54.5z" class="st2"/><polygon points="28.9 85 31.7 71.4 39.7 85 39.8 85 31.7 71.2 28.8 85" class="st2"/><path d="M49.1,84.2L49.1,84.2l1.8-19.6l0,0l7,5.2l0,0L49.1,84.2z M50.9,64.7l-1.8,19.4l8.7-14.3L50.9,64.7z" class="st2"/><path d="M49.1,84.3L49.1,84.3l-17.5-13l19.3-6.7l0,0L49.1,84.3z M31.7,71.3L49,84.2l1.8-19.5L31.7,71.3z" class="st2"/><path d="M73.1,75.5l-6.5-3.9l0,0l1-11.4l0.1,0L73.1,75.5z M66.6,71.6l6.3,3.8l-5.3-15L66.6,71.6z" class="st2"/><path d="M31.6,71.4l4.3-9.5l15,2.8L31.6,71.4z M36,61.9l-4.3,9.3l19.1-6.6L36,61.9z" class="st2"/><path d="M82.4,61.7L67.6,46.8l10.1-4.1l0,0L82.4,61.7z M67.7,46.8l14.6,14.7l-4.6-18.7L67.7,46.8z" class="st2"/><path d="M82.3,61.7L82.3,61.7l-4.7-19l18.7-2.1l0,0.1L82.3,61.7z M77.7,42.7l4.6,18.8l13.9-20.9L77.7,42.7z" class="st2"/><path d="M21.3,81.8l-6-20.7l16.5,10.1l0,0L21.3,81.8z M15.3,61.3l6,20.4l10.3-10.4L15.3,61.3z" class="st2"/><path d="M50.9,64.8l-4.1-9.5l5.8-2.1l0,0L50.9,64.8z M46.8,55.3l4,9.2l1.6-11.3L46.8,55.3z" class="st2"/><path d="M15.3,61.3l-1.8-7.8l0,0l9.6-8.6l0,0L15.3,61.3z M13.6,53.6l1.7,7.6l7.8-16.1L13.6,53.6z" class="st2"/><path d="M77.6,42.8L86.8,26l0,0l9.5,14.6L77.6,42.8z M86.8,26.1l-9.1,16.5l18.5-2.1L86.8,26.1z" class="st2"/><path d="M36,61.9L36,61.9l-20.8-0.7l0,0l7.9-16.3L36,61.9z M15.3,61.2l20.6,0.6L23.2,45L15.3,61.2z" class="st2"/><path d="M77.7,42.8l-13.6-7.6l0,0L80,26.8l0,0.1L77.7,42.8z M64.3,35.2l13.4,7.5l2.2-15.8L64.3,35.2z" class="st2"/><g><polygon points="120 84.8 110.2 67.4 120 70 120 69.9 110.1 67.3 120 84.9" class="st2"/></g><g><polygon points="120 64.2 110.2 67.3 120 51.8 120 51.7 110.1 67.4 110.1 67.4 120 64.2" class="st2"/></g><g><path d="M79.5,79.4L79.5,79.4L84.2,54l26.1,13.4L79.5,79.4z M84.2,54.1l-4.6,25.2l30.5-11.9L84.2,54.1z" class="st2"/></g><g><path d="M110.2,67.4L110.2,67.4L84.1,54.1l0,0l17.4-17.3l0,0L110.2,67.4z M84.2,54.1l25.9,13.3l-8.6-30.5L84.2,54.1z" class="st2"/></g><g><polygon points="90.8 85 79.7 79.3 110.1 67.4 101.4 85 101.4 85 110.2 67.4 110.2 67.3 79.6 79.3 79.5 79.3 90.6 85" class="st2"/></g><g><polygon points="71 85 68.7 81.7 79.6 79.3 80.5 85 80.5 85 79.6 79.3 79.6 79.3 68.7 81.6 68.6 81.6 71 85" class="st2"/></g><g><path d="M79.6,79.3L79.6,79.3l-4-24.7l8.6-0.5l0,0L79.6,79.3z M75.7,54.6l3.9,24.5l4.6-25L75.7,54.6z" class="st2"/></g><g><path d="M58.1,68.2L58.1,68.2L44.4,53.3l0.1,0l31.3,1.2L58.1,68.2z M44.5,53.4l13.6,14.7l17.5-13.5L44.5,53.4z" class="st2"/></g><g><path d="M75.8,54.6l-31.4-1.2l0,0l6.9-14.7l0,0L75.8,54.6z M44.5,53.3l31.1,1.2L51.3,38.7L44.5,53.3z" class="st2"/></g><g><path d="M75.7,54.7L75.7,54.7l-24.4-16l0,0l18.3-21.3L75.7,54.7z M51.3,38.7l24.3,15.9l-6.1-37.1L51.3,38.7z" class="st2"/></g><g><path d="M34.4,75.9L34.4,75.9l10.1-22.6l13.7,14.8l0,0L34.4,75.9z M44.5,53.4l-10,22.3L58,68.1L44.5,53.4z" class="st2"/></g><g><polygon points="32.8 85 30.3 83.9 34.4 75.9 40.8 85 40.9 85 34.4 75.8 30.3 83.9 30.2 84 32.7 85" class="st2"/></g><g><path d="M34.5,75.9l-18.6-9.2l0.1,0l28.6-13.3l0,0.1L34.5,75.9z M16,66.7l18.5,9.1l10-22.3L16,66.7z" class="st2"/></g><g><path d="M51.3,38.7L37.5,19l0,0l6.8-7.9l0,0.1L51.3,38.7L51.3,38.7z M37.6,19l13.6,19.5l-6.9-27.3L37.6,19z" class="st2"/></g><g><path d="M28.8,44.2L28.8,44.2l8.7-25.3l0,0l13.8,19.7L28.8,44.2z M37.6,19.1l-8.7,25.1l22.4-5.5L37.6,19.1z" class="st2"/></g><path d="M110.5,79.5c-0.2,0.2-0.5,0.2-0.7,0c-0.2-0.2-0.2-0.5,0-0.7c0.2-0.2,0.5-0.2,0.7,0 C110.7,79,110.7,79.3,110.5,79.5z" class="st2"/><path d="M110.4,79.4c-0.1,0.1-0.4,0.1-0.5,0c-0.1-0.1-0.1-0.4,0-0.5c0.1-0.1,0.4-0.1,0.5,0 C110.5,79,110.5,79.2,110.4,79.4z" class="st2"/><path d="M94,84.2c-0.4,0.3-0.9,0.3-1.3-0.1c-0.3-0.4-0.3-0.9,0.1-1.3c0.4-0.3,0.9-0.3,1.3,0.1 C94.4,83.3,94.4,83.9,94,84.2z" class="st2"/><path d="M93.7,83.9c-0.2,0.2-0.5,0.2-0.7,0c-0.2-0.2-0.2-0.5,0-0.7c0.2-0.2,0.5-0.2,0.7,0C94,83.4,94,83.8,93.7,83.9z" class="st2"/><path d="M93.7,83.9c-0.2,0.2-0.4,0.1-0.6,0c-0.2-0.2-0.1-0.4,0-0.6c0.2-0.2,0.4-0.1,0.6,0 C93.9,83.5,93.9,83.7,93.7,83.9z" class="st2"/><path d="M49.3,84.5c-0.1,0.1-0.3,0.1-0.5,0c-0.1-0.1-0.1-0.3,0-0.5c0.1-0.1,0.3-0.1,0.5,0 C49.4,84.1,49.4,84.3,49.3,84.5z" class="st2"/><path d="M93.6,83.8c-0.1,0.1-0.4,0.1-0.5,0c-0.1-0.1-0.1-0.4,0-0.5c0.1-0.1,0.4-0.1,0.5,0 C93.8,83.5,93.8,83.7,93.6,83.8z" class="st2"/><path d="M73.3,75.8c-0.2,0.2-0.4,0.1-0.6,0c-0.1-0.2-0.1-0.4,0-0.6c0.2-0.2,0.4-0.1,0.6,0 C73.5,75.4,73.4,75.6,73.3,75.8z" class="st2"/><path d="M93.6,83.8c-0.1,0.1-0.3,0.1-0.4,0c-0.1-0.1-0.1-0.3,0-0.4c0.1-0.1,0.3-0.1,0.4,0 C93.7,83.5,93.7,83.7,93.6,83.8z" class="st2"/><path d="M87,65.5c-0.1,0.1-0.4,0.1-0.5,0s-0.1-0.4,0-0.5c0.1-0.1,0.4-0.1,0.5,0C87.1,65.1,87.1,65.4,87,65.5z" class="st2"/><path d="M49.4,84.6c-0.2,0.2-0.5,0.2-0.7,0c-0.2-0.2-0.2-0.5,0-0.7c0.2-0.2,0.5-0.2,0.7,0 C49.6,84.1,49.6,84.4,49.4,84.6z" class="st2"/><path d="M93.6,83.8c-0.1,0.1-0.3,0.1-0.4,0c-0.1-0.1-0.1-0.3,0-0.4c0.1-0.1,0.3-0.1,0.4,0 C93.7,83.5,93.7,83.7,93.6,83.8z" class="st2"/><path d="M49.1,84.3c-0.1,0.1-0.2,0-0.2,0c-0.1-0.1,0-0.2,0-0.2c0.1-0.1,0.2,0,0.2,0C49.2,84.2,49.2,84.3,49.1,84.3z" class="st2"/><path d="M58.1,70c-0.1,0.1-0.3,0.1-0.4,0c-0.1-0.1-0.1-0.3,0-0.4c0.1-0.1,0.3-0.1,0.4,0C58.2,69.7,58.2,69.9,58.1,70z" class="st2"/><path d="M66.7,71.8c-0.1,0.1-0.2,0.1-0.3,0c-0.1-0.1-0.1-0.2,0-0.3c0.1-0.1,0.2-0.1,0.3,0 C66.8,71.6,66.8,71.7,66.7,71.8z" class="st2"/><path d="M86.9,65.4c-0.1,0.1-0.2,0.1-0.3,0c-0.1-0.1-0.1-0.2,0-0.3c0.1-0.1,0.2-0.1,0.3,0C87,65.2,87,65.3,86.9,65.4z" class="st2"/><path d="M21.7,82.2c-0.2,0.2-0.6,0.2-0.8,0c-0.2-0.2-0.2-0.6,0-0.8c0.2-0.2,0.6-0.2,0.8,0C21.9,81.6,21.9,82,21.7,82.2 z" class="st2"/><path d="M67.7,60.4c-0.1,0.1-0.2,0.1-0.2,0c-0.1-0.1-0.1-0.2,0-0.2c0.1-0.1,0.2-0.1,0.2,0 C67.8,60.2,67.8,60.3,67.7,60.4z" class="st2"/><path d="M87.1,65.6c-0.2,0.2-0.5,0.2-0.7,0c-0.2-0.2-0.2-0.5,0-0.7c0.2-0.2,0.5-0.2,0.7,0 C87.3,65.1,87.3,65.4,87.1,65.6z" class="st2"/><path d="M48.7,85h0.7c0.1,0,0.1-0.1,0.2-0.1c0.4-0.3,0.4-0.9,0.1-1.2c-0.3-0.4-0.9-0.4-1.2-0.1 c-0.4,0.3-0.4,0.9-0.1,1.2C48.5,84.9,48.6,85,48.7,85z" class="st2"/><path d="M51.6,65.4c-0.4,0.4-1,0.3-1.4-0.1c-0.4-0.4-0.3-1,0.1-1.4c0.4-0.4,1-0.3,1.4,0.1C52,64.4,52,65,51.6,65.4z" class="st2"/><path d="M58.1,70.1c-0.1,0.1-0.4,0.1-0.5,0c-0.1-0.1-0.1-0.4,0-0.5c0.1-0.1,0.4-0.1,0.5,0 C58.2,69.7,58.2,69.9,58.1,70.1z" class="st2"/><path d="M32,71.7c-0.2,0.2-0.6,0.2-0.8,0c-0.2-0.2-0.2-0.6,0-0.8c0.2-0.2,0.6-0.2,0.8,0C32.3,71.2,32.2,71.5,32,71.7z" class="st2"/><path d="M32.3,72c-0.4,0.3-0.9,0.3-1.2-0.1c-0.3-0.4-0.3-0.9,0.1-1.2c0.4-0.3,0.9-0.3,1.2,0.1 C32.6,71.1,32.6,71.6,32.3,72z" class="st2"/><path d="M67,72.1c-0.2,0.2-0.6,0.2-0.8,0c-0.2-0.2-0.2-0.6,0-0.8c0.2-0.2,0.6-0.2,0.8,0C67.3,71.5,67.2,71.9,67,72.1z" class="st2"/><path d="M36.2,62.1c-0.1,0.1-0.4,0.1-0.5,0c-0.1-0.1-0.1-0.4,0-0.5c0.1-0.1,0.4-0.1,0.5,0C36.4,61.8,36.4,62,36.2,62.1 z" class="st2"/><path d="M51.3,65.1c-0.2,0.2-0.6,0.2-0.8,0c-0.2-0.2-0.2-0.6,0-0.8c0.2-0.2,0.6-0.2,0.8,0 C51.5,64.5,51.5,64.9,51.3,65.1z" class="st2"/><path d="M14,82.2c-0.1,0.1-0.3,0.1-0.3,0c-0.1-0.1-0.1-0.3,0-0.3c0.1-0.1,0.3-0.1,0.3,0C14.1,82,14.1,82.1,14,82.2z" class="st2"/><path d="M67.7,60.4c-0.1,0.1-0.2,0.1-0.3,0c-0.1-0.1-0.1-0.2,0-0.3c0.1-0.1,0.2-0.1,0.3,0 C67.8,60.2,67.8,60.3,67.7,60.4z" class="st2"/><path d="M82.6,61.9c-0.2,0.2-0.4,0.1-0.6,0c-0.2-0.2-0.1-0.4,0-0.6c0.2-0.2,0.4-0.1,0.6,0 C82.8,61.5,82.8,61.8,82.6,61.9z" class="st2"/><path d="M51.1,64.9c-0.1,0.1-0.3,0.1-0.4,0c-0.1-0.1-0.1-0.3,0-0.4c0.1-0.1,0.3-0.1,0.4,0 C51.2,64.6,51.2,64.8,51.1,64.9z" class="st2"/><path d="M67.9,60.6c-0.2,0.2-0.5,0.2-0.7,0c-0.2-0.2-0.2-0.5,0-0.7c0.2-0.2,0.5-0.2,0.7,0 C68.2,60.1,68.2,60.4,67.9,60.6z" class="st2"/><path d="M21.6,82.2c-0.2,0.2-0.5,0.2-0.7,0c-0.2-0.2-0.2-0.5,0-0.7c0.2-0.2,0.5-0.2,0.7,0C21.9,81.7,21.9,82,21.6,82.2 z" class="st2"/><path d="M15.8,61.7c-0.3,0.3-0.7,0.2-1,0c-0.3-0.3-0.2-0.7,0-1c0.3-0.3,0.7-0.2,1,0C16.1,61,16,61.5,15.8,61.7z" class="st2"/><path d="M14.2,82.4c-0.2,0.2-0.6,0.2-0.8,0c-0.2-0.2-0.2-0.6,0-0.8c0.2-0.2,0.6-0.2,0.8,0 C14.5,81.9,14.4,82.2,14.2,82.4z" class="st2"/><path d="M36.2,62.1c-0.1,0.1-0.3,0.1-0.5,0c-0.1-0.1-0.1-0.3,0-0.5c0.1-0.1,0.3-0.1,0.5,0C36.3,61.8,36.3,62,36.2,62.1 z" class="st2"/><path d="M15.6,61.5c-0.2,0.2-0.4,0.1-0.6,0c-0.2-0.2-0.1-0.4,0-0.6c0.2-0.2,0.4-0.1,0.6,0 C15.8,61.1,15.8,61.4,15.6,61.5z" class="st2"/><path d="M36.5,62.5c-0.3,0.3-0.8,0.3-1.1-0.1c-0.3-0.3-0.3-0.8,0.1-1.1c0.3-0.3,0.8-0.3,1.1,0.1S36.8,62.2,36.5,62.5z" class="st2"/><path d="M67.9,60.6c-0.2,0.2-0.5,0.2-0.7,0c-0.2-0.2-0.2-0.5,0-0.7c0.2-0.2,0.5-0.2,0.7,0 C68.2,60.1,68.1,60.4,67.9,60.6z" class="st2"/><path d="M51.2,65c-0.2,0.2-0.4,0.1-0.6,0c-0.2-0.2-0.1-0.4,0-0.6c0.2-0.2,0.4-0.1,0.6,0C51.4,64.5,51.4,64.8,51.2,65z" class="st2"/><path d="M52.8,53.5c-0.2,0.2-0.5,0.1-0.6,0c-0.2-0.2-0.1-0.5,0-0.6c0.2-0.2,0.5-0.1,0.6,0C53,53.1,53,53.4,52.8,53.5z" class="st2"/><path d="M23.5,45.3c-0.2,0.2-0.5,0.2-0.7,0c-0.2-0.2-0.2-0.5,0-0.7c0.2-0.2,0.5-0.2,0.7,0 C23.7,44.8,23.7,45.1,23.5,45.3z" class="st2"/><path d="M96.6,41c-0.2,0.2-0.5,0.2-0.7,0c-0.2-0.2-0.2-0.5,0-0.7c0.2-0.2,0.5-0.2,0.7,0C96.8,40.5,96.8,40.8,96.6,41z" class="st2"/><path d="M77.9,43c-0.2,0.1-0.4,0.1-0.6,0c-0.1-0.2-0.1-0.4,0-0.6c0.2-0.1,0.4-0.1,0.6,0C78.1,42.6,78.1,42.9,77.9,43z" class="st2"/><path d="M23.4,45.2c-0.2,0.1-0.4,0.1-0.6,0c-0.1-0.2-0.1-0.4,0-0.6c0.2-0.1,0.4-0.1,0.6,0 C23.6,44.8,23.6,45.1,23.4,45.2z" class="st2"/><path d="M80.3,27.2c-0.2,0.2-0.5,0.2-0.7,0c-0.2-0.2-0.2-0.5,0-0.7c0.2-0.2,0.5-0.2,0.7,0C80.5,26.7,80.5,27,80.3,27.2 z" class="st2"/><path d="M87.1,26.4c-0.1,0.1-0.4,0.1-0.5,0c-0.1-0.1-0.1-0.4,0-0.5c0.1-0.1,0.4-0.1,0.5,0C87.2,26,87.2,26.2,87.1,26.4 z" class="st2"/><path d="M47.8,40.4c-0.1,0.1-0.2,0.1-0.3,0c-0.1-0.1-0.1-0.2,0-0.3c0.1-0.1,0.2-0.1,0.3,0 C47.9,40.2,47.9,40.4,47.8,40.4z" class="st2"/><path d="M68,47.2c-0.2,0.2-0.6,0.2-0.8,0c-0.2-0.2-0.2-0.6,0-0.8c0.2-0.2,0.6-0.2,0.8,0C68.3,46.6,68.3,47,68,47.2z" class="st2"/><path d="M52.8,53.5c-0.1,0.1-0.4,0.1-0.5,0c-0.1-0.1-0.1-0.4,0-0.5c0.1-0.1,0.4-0.1,0.5,0 C52.9,53.1,52.9,53.3,52.8,53.5z" class="st2"/><path d="M15.6,61.6c-0.2,0.2-0.5,0.2-0.7,0c-0.2-0.2-0.2-0.5,0-0.7c0.2-0.2,0.5-0.2,0.7,0 C15.9,61.1,15.9,61.4,15.6,61.6z" class="st2"/><path d="M4.8,63.7c-0.2,0.2-0.5,0.2-0.6,0C4,63.4,4,63.2,4.2,63c0.2-0.2,0.5-0.2,0.6,0C5,63.2,5,63.5,4.8,63.7z" class="st2"/><path d="M13.9,53.9c-0.2,0.2-0.5,0.2-0.7,0c-0.2-0.2-0.2-0.5,0-0.7c0.2-0.2,0.5-0.2,0.7,0 C14.1,53.4,14.1,53.7,13.9,53.9z" class="st2"/><path d="M64.7,35.7c-0.3,0.3-0.8,0.2-1-0.1c-0.3-0.3-0.2-0.8,0.1-1c0.3-0.3,0.8-0.2,1,0.1C65,35,65,35.5,64.7,35.7z" class="st2"/><path d="M110.7,67.9c-0.3,0.3-0.8,0.3-1.1-0.1c-0.3-0.3-0.3-0.8,0.1-1.1c0.3-0.3,0.8-0.3,1.1,0.1 C111,67.2,111,67.6,110.7,67.9z" class="st2"/><path d="M110.4,67.7c-0.2,0.1-0.4,0.1-0.6,0c-0.1-0.2-0.1-0.4,0-0.6c0.2-0.1,0.4-0.1,0.6,0 C110.6,67.3,110.6,67.5,110.4,67.7z" class="st2"/><path d="M110.6,67.8c-0.3,0.2-0.7,0.2-0.9,0c-0.2-0.3-0.2-0.7,0-0.9c0.3-0.2,0.7-0.2,0.9,0 C110.9,67.2,110.9,67.6,110.6,67.8z" class="st2"/><path d="M79.9,79.7c-0.2,0.2-0.5,0.2-0.7,0c-0.2-0.2-0.2-0.5,0-0.7c0.2-0.2,0.5-0.2,0.7,0S80.1,79.5,79.9,79.7z" class="st2"/><path d="M110.6,67.9c-0.3,0.2-0.7,0.2-0.9,0c-0.2-0.3-0.2-0.7,0-0.9c0.3-0.2,0.7-0.2,0.9,0 C110.9,67.2,110.9,67.6,110.6,67.9z" class="st2"/><path d="M84.3,54.2c-0.1,0.1-0.2,0.1-0.3,0c-0.1-0.1-0.1-0.2,0-0.3c0.1-0.1,0.2-0.1,0.3,0C84.4,54,84.4,54.1,84.3,54.2 z" class="st2"/><path d="M80,79.8c-0.3,0.2-0.7,0.2-0.9,0c-0.2-0.3-0.2-0.7,0-0.9c0.3-0.2,0.7-0.2,0.9,0C80.3,79.1,80.3,79.6,80,79.8z" class="st2"/><path d="M68.8,81.8c-0.1,0.1-0.3,0.1-0.4,0c-0.1-0.1-0.1-0.3,0-0.4c0.1-0.1,0.3-0.1,0.4,0C69,81.6,68.9,81.8,68.8,81.8 z" class="st2"/><path d="M68.9,82c-0.2,0.2-0.4,0.1-0.6,0c-0.2-0.2-0.1-0.4,0-0.6c0.2-0.2,0.4-0.1,0.6,0C69.1,81.6,69.1,81.8,68.9,82z" class="st2"/><path d="M79.8,79.5c-0.1,0.1-0.3,0.1-0.4,0c-0.1-0.1-0.1-0.3,0-0.4c0.1-0.1,0.3-0.1,0.4,0 C79.9,79.2,79.9,79.4,79.8,79.5z" class="st2"/><path d="M84.3,54.2c-0.1,0.1-0.2,0.1-0.3,0c-0.1-0.1-0.1-0.2,0-0.3c0.1-0.1,0.2-0.1,0.3,0C84.4,54,84.4,54.1,84.3,54.2 z" class="st2"/><path d="M88,29c-0.1,0.1-0.3,0.1-0.4,0c-0.1-0.1-0.1-0.3,0-0.4c0.1-0.1,0.3-0.1,0.4,0C88.1,28.7,88.1,28.8,88,29z" class="st2"/><path d="M80,79.7c-0.2,0.2-0.6,0.2-0.8,0c-0.2-0.2-0.2-0.6,0-0.8c0.2-0.2,0.6-0.2,0.8,0C80.2,79.2,80.2,79.5,80,79.7z" class="st2"/><path d="M84.7,54.6c-0.3,0.3-0.8,0.3-1.1-0.1c-0.3-0.3-0.3-0.8,0.1-1.1c0.3-0.3,0.8-0.3,1.1,0.1 C85,53.9,85,54.3,84.7,54.6z" class="st2"/><path d="M80,79.8c-0.3,0.3-0.7,0.2-1,0c-0.3-0.3-0.2-0.7,0-1c0.3-0.3,0.7-0.2,1,0C80.4,79.1,80.3,79.6,80,79.8z" class="st2"/><path d="M68.8,81.8c-0.1,0.1-0.2,0.1-0.3,0c-0.1-0.1-0.1-0.2,0-0.3c0.1-0.1,0.2-0.1,0.3,0 C68.9,81.6,68.9,81.7,68.8,81.8z" class="st2"/><path d="M88.2,29.1c-0.2,0.2-0.5,0.2-0.7,0c-0.2-0.2-0.2-0.5,0-0.7c0.2-0.2,0.5-0.2,0.7,0 C88.4,28.6,88.4,28.9,88.2,29.1z" class="st2"/><path d="M68.9,81.9c-0.1,0.1-0.4,0.1-0.5,0c-0.1-0.1-0.1-0.4,0-0.5c0.1-0.1,0.4-0.1,0.5,0 C69.1,81.6,69.1,81.8,68.9,81.9z" class="st2"/><path d="M75.9,54.8c-0.1,0.1-0.3,0.1-0.4,0c-0.1-0.1-0.1-0.3,0-0.4c0.1-0.1,0.3-0.1,0.4,0C76,54.5,76,54.7,75.9,54.8z" class="st2"/><path d="M58.3,68.4c-0.1,0.1-0.3,0.1-0.4,0c-0.1-0.1-0.1-0.3,0-0.4c0.1-0.1,0.3-0.1,0.4,0 C58.4,68.1,58.4,68.2,58.3,68.4z" class="st2"/><path d="M44.8,53.7c-0.2,0.2-0.5,0.2-0.7,0c-0.2-0.2-0.2-0.5,0-0.7c0.2-0.2,0.5-0.2,0.7,0C45,53.2,45,53.5,44.8,53.7z" class="st2"/><path d="M75.9,54.8c-0.1,0.1-0.3,0.1-0.4,0c-0.1-0.1-0.1-0.3,0-0.4c0.1-0.1,0.3-0.1,0.4,0C76,54.5,76,54.7,75.9,54.8z" class="st2"/><path d="M51.5,38.9c-0.2,0.1-0.4,0.1-0.5,0c-0.1-0.2-0.1-0.4,0-0.5c0.2-0.1,0.4-0.1,0.5,0 C51.7,38.6,51.7,38.8,51.5,38.9z" class="st2"/><path d="M51.5,38.9c-0.1,0.1-0.3,0.1-0.5,0c-0.1-0.1-0.1-0.3,0-0.5c0.1-0.1,0.3-0.1,0.5,0 C51.7,38.6,51.7,38.8,51.5,38.9z" class="st2"/><path d="M69.8,17.7c-0.2,0.1-0.4,0.1-0.5,0c-0.1-0.2-0.1-0.4,0-0.5c0.2-0.1,0.4-0.1,0.5,0C70,17.3,70,17.5,69.8,17.7z" class="st2"/><path d="M34.6,76c-0.1,0.1-0.2,0.1-0.3,0c-0.1-0.1-0.1-0.2,0-0.3c0.1-0.1,0.2-0.1,0.3,0C34.7,75.8,34.7,75.9,34.6,76z" class="st2"/><path d="M30.7,84.4c-0.2,0.2-0.6,0.2-0.8,0c-0.2-0.2-0.2-0.6,0-0.8c0.2-0.2,0.6-0.2,0.8,0 C30.9,83.8,30.9,84.1,30.7,84.4z" class="st2"/><path d="M34.9,76.3c-0.3,0.2-0.7,0.2-0.9,0c-0.2-0.3-0.2-0.7,0-0.9c0.3-0.2,0.7-0.2,0.9,0C35.1,75.6,35.1,76,34.9,76.3 z" class="st2"/><path d="M30.5,84.2c-0.1,0.1-0.4,0.1-0.5,0c-0.1-0.1-0.1-0.4,0-0.5c0.1-0.1,0.4-0.1,0.5,0 C30.7,83.8,30.7,84.1,30.5,84.2z" class="st2"/><path d="M34.6,76c-0.1,0.1-0.3,0.1-0.4,0c-0.1-0.1-0.1-0.3,0-0.4c0.1-0.1,0.3-0.1,0.4,0C34.8,75.7,34.8,75.9,34.6,76z" class="st2"/><path d="M70,17.8c-0.3,0.2-0.6,0.2-0.9,0c-0.2-0.3-0.2-0.6,0-0.9c0.3-0.2,0.6-0.2,0.9,0C70.3,17.2,70.2,17.6,70,17.8z" class="st2"/><path d="M51.5,38.9c-0.1,0.1-0.4,0.1-0.5,0c-0.1-0.1-0.1-0.4,0-0.5c0.1-0.1,0.4-0.1,0.5,0 C51.7,38.6,51.7,38.8,51.5,38.9z" class="st2"/><path d="M37.9,19.3c-0.2,0.2-0.5,0.2-0.6,0c-0.2-0.2-0.2-0.5,0-0.6c0.2-0.2,0.5-0.2,0.6,0C38,18.9,38,19.2,37.9,19.3z" class="st2"/><path d="M29.3,44.7c-0.3,0.3-0.7,0.2-1-0.1c-0.3-0.3-0.2-0.7,0.1-1c0.3-0.3,0.7-0.2,1,0.1C29.6,44,29.6,44.4,29.3,44.7 z" class="st2"/><path d="M44.7,53.6c-0.2,0.1-0.4,0.1-0.5,0c-0.1-0.2-0.1-0.4,0-0.5c0.2-0.1,0.4-0.1,0.5,0 C44.9,53.3,44.9,53.5,44.7,53.6z" class="st2"/><path d="M30.6,84.3c-0.2,0.2-0.5,0.1-0.6,0c-0.2-0.2-0.1-0.5,0-0.6c0.2-0.2,0.5-0.1,0.6,0 C30.8,83.8,30.7,84.1,30.6,84.3z" class="st2"/><path d="M51.4,38.8c-0.1,0.1-0.2,0.1-0.3,0c-0.1-0.1-0.1-0.2,0-0.3c0.1-0.1,0.2-0.1,0.3,0 C51.5,38.6,51.5,38.7,51.4,38.8z" class="st2"/></g><g class="st1"><g><polygon points="120 81.2 107.3 79.6 86.6 61.6 120 79.1 120 79.1 86.4 61.4 86.3 61.5 107.3 79.6 107.3 79.6 120 81.2" class="st3"/></g><g><polygon points="120 81.2 120 81.2 107.3 79.6 107.2 79.5 107.3 85 107.4 85 107.3 79.6" class="st3"/></g><g><path d="M107.3,79.6l-13-6.1l0,0l-7.9-12.1l0.1,0L107.3,79.6L107.3,79.6z M94.3,73.4l12.7,6L86.5,61.6L94.3,73.4z" class="st3"/></g><g><polygon points="92.4 85 90.9 83.6 107.3 79.6 107.3 85 107.4 85 107.3 79.6 107.3 79.5 90.7 83.6 92.2 85" class="st3"/></g><g><polygon points="90.5 85 90.8 83.7 92.2 85 92.4 85 90.8 83.5 90.4 85" class="st3"/></g><g><path d="M90.7,83.6l3.5-10.2l0,0l13.1,6.2l-0.1,0L90.7,83.6z M94.3,73.5l-3.5,10l16.3-3.9L94.3,73.5z" class="st3"/></g><g><polygon points="79 85 76.3 81.1 90.8 83.6 90.4 85 90.5 85 90.8 83.6 90.8 83.5 76.2 81.1 76.2 81 78.9 85" class="st3"/></g><g><polygon points="74.7 85 76.2 81.2 78.9 85 78.9 85 76.3 81.1 76.2 81 74.7 85" class="st3"/></g><g><path d="M90.8,83.6L90.8,83.6l-14.7-2.5l18.3-7.7L90.8,83.6z M76.4,81.1l14.4,2.5l3.5-10L76.4,81.1z" class="st3"/></g><g><path d="M76.2,81.2L76.2,81.2l10.2-19.8l0,0.1l8,12.1l0,0L76.2,81.2z M86.4,61.5L76.3,81l17.9-7.6L86.4,61.5z" class="st3"/></g><g><polygon points="52 85 53.2 71.7 76.1 81.1 68.2 85 68.4 85 76.3 81.1 76.3 81.1 53.2 71.7 53.1 71.6 51.9 85" class="st3"/></g><g><path d="M76.3,81.2L76.3,81.2l-23.2-9.5l0,0l13.5-16L76.3,81.2z M53.2,71.7L76.2,81l-9.5-25.2L53.2,71.7z" class="st3"/></g><g><polygon points="68.4 85 76.2 81.2 74.7 85 74.7 85 76.3 81.1 76.3 81 68.2 85" class="st3"/></g><g><path d="M53.1,71.8l0-0.1l1.2-21.8l0.1,0l12.3,5.9L53.1,71.8z M54.4,50l-1.2,21.6l13.4-15.8L54.4,50z" class="st3"/></g><g><polygon points="32.7 85 45.9 72.8 49 85 49 85 46 72.7 32.6 85" class="st3"/></g><g><polygon points="49 85 46 72.8 53.1 71.7 51.9 85 52 85 53.2 71.6 46 72.7 45.9 72.7 49 85" class="st3"/></g><g><path d="M45.9,72.8l8.5-22.9l0.1,0l-1.2,21.8l0,0L45.9,72.8z M54.3,50.1L46,72.7l7.1-1.1L54.3,50.1z" class="st3"/></g><g><polygon points="31.5 85 19.5 74 45.9 72.8 32.6 85 32.7 85 46 72.8 46.1 72.7 19.4 74 19.3 74 31.4 85" class="st3"/></g><g><path d="M19.3,74L24.1,61l0,0l22,11.8l-0.1,0L19.3,74z M24.1,61.1L19.4,74l26.4-1.2L24.1,61.1z" class="st3"/></g><g><path d="M46,72.8L46,72.8L24,61l0,0l14-19.5L46,72.8z M24.1,61l21.8,11.7l-7.9-31L24.1,61z" class="st3"/></g><g><polygon points="15.6 85 19.4 74.1 31.4 85 31.5 85 19.4 74 19.3 73.9 15.5 85" class="st3"/></g><g><polygon points=".3 85 19.3 74.1 15.5 85 15.6 85 19.4 73.9 .2 85" class="st3"/></g><g><path d="M24.1,61.1L24.1,61.1l-8-23l22,3.5L24.1,61.1z M16.2,38.2l7.9,22.8L38,41.6L16.2,38.2z" class="st3"/></g><g><path d="M24.1,61L10.9,45.3l5.3-7.3l0,0.1L24.1,61L24.1,61z M11,45.3l13,15.5l-7.8-22.6L11,45.3z" class="st3"/></g><g><polygon points="5.4 67.3 5.4 67.3 0 78.9 0 79 5.4 67.4 19.3 74 .2 85 .3 85 19.4 74 19.4 74" class="st3"/></g><g><path d="M19.4,74.1L19.4,74.1L5.3,67.3L24.2,61l0,0.1L19.4,74.1z M5.5,67.3L19.3,74L24,61.1L5.5,67.3z" class="st3"/></g><g><path d="M5.4,67.4L5.4,67.4l5.6-22.2l0,0.1L24.2,61l-0.1,0L5.4,67.4z M11,45.4L5.5,67.3L24,61L11,45.4z" class="st3"/></g><g><g><polygon points="120 9.1 107.7 18 66.6 19.4 120 4.8 120 4.8 66.3 19.4 66.3 19.5 107.7 18 107.8 18 120 9.2" class="st3"/></g><g><polygon points="120 30.6 107.8 18 120 9.2 120 9.1 107.7 18 107.7 18 120 30.7" class="st3"/></g><g><path d="M87.3,24.6L87.3,24.6l-21-5.1l0-0.1l41.5-1.5l0,0.1L87.3,24.6z M66.6,19.5l20.7,5l20.2-6.5L66.6,19.5z" class="st3"/></g><g><polygon points="120 67.4 103.7 57.7 120 45.7 120 45.7 103.6 57.7 103.6 57.7 120 67.5" class="st3"/></g><g><polygon points="120 39.4 93.8 39.2 107.7 18.1 120 30.7 120 30.6 107.8 18 107.7 17.9 93.7 39.2 93.7 39.2 120 39.4" class="st3"/></g><g><polygon points="120 45.7 103.6 57.7 93.8 39.2 120 39.4 120 39.4 93.8 39.2 93.7 39.2 103.6 57.7 103.6 57.8 120 45.7" class="st3"/></g><g><polygon points="120 71.6 109.5 85 109.6 85 120 71.8" class="st3"/></g><g><path d="M93.7,39.3L93.7,39.3l-6.5-14.7l20.6-6.6l-0.1,0.1L93.7,39.3z M87.3,24.6l6.4,14.5l13.9-21L87.3,24.6z" class="st3"/></g><g><polygon points="120 67.5 120 67.4 103.7 57.7 103.6 57.7 109.1 85 109.2 85 103.7 57.8" class="st3"/><polygon points="120 71.6 109.5 85 109.6 85 120 71.8" class="st3"/></g><g><polygon points="107.5 85 86.8 80.5 103.6 57.8 109.1 85 109.2 85 103.7 57.7 103.7 57.6 86.7 80.5 86.7 80.6 107.1 85" class="st3"/></g><g><path d="M103.7,57.8L103.7,57.8l-28.6-6.4l0.1,0l18.5-12.2l0,0L103.7,57.8z M75.3,51.3l28.2,6.4l-9.8-18.4L75.3,51.3 z" class="st3"/></g><g><path d="M86.7,80.6L86.7,80.6L75.2,51.3l0.1,0l28.4,6.4l0,0L86.7,80.6z M75.3,51.4l11.5,29.1l16.8-22.7L75.3,51.4z" class="st3"/></g><g><polygon points="86.7 85 86.8 80.6 107.1 85 107.5 85 86.8 80.5 86.7 80.5 86.6 85" class="st3"/></g><g><path d="M75.2,51.4l0.1-0.1l12.1-26.8l6.5,14.7l0,0L75.2,51.4z M87.3,24.7L75.3,51.2l18.4-12L87.3,24.7z" class="st3"/></g><g><path d="M75.2,51.4l0-0.1l-9-31.9l21.1,5.1l0,0L75.2,51.4z M66.3,19.5l8.9,31.7l12-26.6L66.3,19.5z" class="st3"/></g><g><polygon points="56.2 85 40.5 64.6 75.2 51.4 62.4 85 62.5 85 75.3 51.3 75.3 51.3 40.4 64.5 40.3 64.5 56.1 85" class="st3"/></g><g><path d="M40.4,64.6L40.4,64.6l-1.5-31.3l0.1,0l36.5,18L40.4,64.6z M38.9,33.4l1.5,31.1l34.7-13.2L38.9,33.4z" class="st3"/></g><g><polygon points="62.5 85 75.3 51.4 86.7 80.5 74.9 85 75.1 85 86.8 80.6 86.8 80.6 75.2 51.2 62.4 85" class="st3"/></g><g><polygon points="75.1 85 86.7 80.6 86.6 85 86.7 85 86.8 80.5 86.8 80.5 74.9 85" class="st3"/></g><g><path d="M40.4,64.7L40.4,64.7l-21-25.3l0.1,0l19.4-6.1l0,0L40.4,64.7z M19.6,39.5l20.8,25l-1.5-31.1L19.6,39.5z" class="st3"/></g><g><polygon points="32.7 85 33.6 73.2 51.8 85 52 85 33.6 73.1 33.6 73 32.6 85" class="st3"/></g><g><polygon points="52 85 33.7 73.1 40.4 64.6 56.1 85 56.2 85 40.4 64.5 33.6 73.1 33.6 73.1 51.8 85" class="st3"/></g><g><path d="M33.6,73.2L33.6,73.2L19.5,39.5l0.1,0l20.9,25.2l0,0L33.6,73.2z M19.6,39.7l14,33.4l6.7-8.5L19.6,39.7z" class="st3"/></g><g><polygon points="22 85 33.6 73.2 32.6 85 32.7 85 33.6 73.1 33.7 73 21.9 85" class="st3"/></g><g><polygon points="0 81.9 0 82 33.5 73.2 21.9 85 22 85 33.6 73.1 33.7 73" class="st3"/></g><g><polygon points="0 51.4 0 51.5 33.5 73.1 0 81.9 0 82 33.6 73.1 33.7 73.1" class="st3"/></g></g><g><path d="M107.6,79.6c0,0.2-0.2,0.4-0.4,0.4c-0.2,0-0.4-0.2-0.4-0.4c0-0.2,0.2-0.4,0.4-0.4 C107.5,79.2,107.6,79.4,107.6,79.6z" class="st3"/><circle cx="86.4" cy="61.4" r=".6" class="st3"/><path d="M108.1,79.6c0,0.4-0.3,0.8-0.8,0.8c-0.4,0-0.8-0.3-0.8-0.8c0-0.4,0.3-0.8,0.8-0.8 C107.7,78.8,108.1,79.2,108.1,79.6z" class="st3"/><path d="M108.1,79.6c0,0.4-0.4,0.8-0.8,0.8c-0.4,0-0.8-0.4-0.8-0.8c0-0.4,0.4-0.8,0.8-0.8 C107.7,78.8,108.1,79.1,108.1,79.6z" class="st3"/><path d="M94.9,73.5c0,0.3-0.3,0.6-0.6,0.6c-0.3,0-0.6-0.3-0.6-0.6c0-0.3,0.3-0.6,0.6-0.6 C94.6,72.9,94.9,73.2,94.9,73.5z" class="st3"/><path d="M86.8,61.4c0,0.2-0.2,0.4-0.4,0.4c-0.2,0-0.4-0.2-0.4-0.4c0-0.2,0.2-0.4,0.4-0.4C86.6,61,86.8,61.2,86.8,61.4 z" class="st3"/><path d="M91.1,83.6c0,0.2-0.1,0.3-0.3,0.3c-0.2,0-0.3-0.1-0.3-0.3c0-0.2,0.1-0.3,0.3-0.3C91,83.3,91.1,83.4,91.1,83.6 z" class="st3"/><path d="M107.9,79.6c0,0.3-0.3,0.6-0.6,0.6c-0.3,0-0.6-0.3-0.6-0.6c0-0.3,0.3-0.6,0.6-0.6 C107.6,79,107.9,79.3,107.9,79.6z" class="st3"/><path d="M91.9,83.6c0,0.6-0.5,1.1-1.1,1.1s-1.1-0.5-1.1-1.1s0.5-1.1,1.1-1.1S91.9,83,91.9,83.6z" class="st3"/><path d="M108,79.6c0,0.4-0.3,0.8-0.8,0.8c-0.4,0-0.8-0.3-0.8-0.8c0-0.4,0.3-0.8,0.8-0.8C107.7,78.8,108,79.2,108,79.6 z" class="st3"/><path d="M91.4,83.6c0,0.3-0.3,0.6-0.6,0.6c-0.3,0-0.6-0.3-0.6-0.6c0-0.3,0.3-0.6,0.6-0.6C91.1,83,91.4,83.2,91.4,83.6 z" class="st3"/><path d="M95,73.5c0,0.4-0.3,0.7-0.7,0.7c-0.4,0-0.7-0.3-0.7-0.7s0.3-0.7,0.7-0.7C94.7,72.8,95,73.1,95,73.5z" class="st3"/><path d="M77.4,81.1c0,0.6-0.5,1.1-1.1,1.1c-0.6,0-1.1-0.5-1.1-1.1s0.5-1.1,1.1-1.1C76.9,80,77.4,80.5,77.4,81.1z" class="st3"/><path d="M91.5,83.6c0,0.4-0.3,0.7-0.7,0.7c-0.4,0-0.7-0.3-0.7-0.7s0.3-0.7,0.7-0.7C91.2,82.9,91.5,83.2,91.5,83.6z" class="st3"/><path d="M76.9,81.1c0,0.3-0.3,0.6-0.6,0.6c-0.3,0-0.6-0.3-0.6-0.6c0-0.3,0.3-0.6,0.6-0.6 C76.6,80.5,76.9,80.7,76.9,81.1z" class="st3"/><path d="M91.7,83.6c0,0.5-0.4,0.9-0.9,0.9c-0.5,0-0.9-0.4-0.9-0.9c0-0.5,0.4-0.9,0.9-0.9 C91.3,82.7,91.7,83.1,91.7,83.6z" class="st3"/><path d="M76.9,81.1c0,0.4-0.3,0.7-0.7,0.7c-0.4,0-0.7-0.3-0.7-0.7c0-0.4,0.3-0.7,0.7-0.7 C76.6,80.4,76.9,80.7,76.9,81.1z" class="st3"/><path d="M94.5,73.5c0,0.1-0.1,0.2-0.2,0.2c-0.1,0-0.2-0.1-0.2-0.2c0-0.1,0.1-0.2,0.2-0.2 C94.4,73.2,94.5,73.3,94.5,73.5z" class="st3"/><path d="M94.6,73.5c0,0.2-0.1,0.3-0.3,0.3c-0.2,0-0.3-0.1-0.3-0.3s0.1-0.3,0.3-0.3C94.5,73.2,94.6,73.3,94.6,73.5z" class="st3"/><circle cx="76.2" cy="81.1" r=".5" class="st3"/><path d="M86.8,61.4c0,0.3-0.2,0.5-0.5,0.5s-0.5-0.2-0.5-0.5c0-0.3,0.2-0.5,0.5-0.5S86.8,61.2,86.8,61.4z" class="st3"/><path d="M76.7,81.1c0,0.3-0.2,0.5-0.5,0.5c-0.3,0-0.5-0.2-0.5-0.5c0-0.3,0.2-0.5,0.5-0.5 C76.5,80.6,76.7,80.8,76.7,81.1z" class="st3"/><path d="M53.5,71.7c0,0.2-0.2,0.3-0.3,0.3c-0.2,0-0.3-0.2-0.3-0.3s0.2-0.3,0.3-0.3C53.4,71.3,53.5,71.5,53.5,71.7z" class="st3"/><path d="M76.6,81.1c0,0.2-0.2,0.4-0.4,0.4c-0.2,0-0.4-0.2-0.4-0.4c0-0.2,0.2-0.4,0.4-0.4 C76.4,80.7,76.6,80.9,76.6,81.1z" class="st3"/><circle cx="53.2" cy="71.7" r=".5" class="st3"/><path d="M67.1,55.7c0,0.2-0.2,0.4-0.4,0.4c-0.2,0-0.4-0.2-0.4-0.4c0-0.2,0.2-0.4,0.4-0.4 C66.9,55.3,67.1,55.5,67.1,55.7z" class="st3"/><path d="M76.6,81.1c0,0.2-0.2,0.3-0.3,0.3c-0.2,0-0.3-0.2-0.3-0.3c0-0.2,0.2-0.3,0.3-0.3 C76.4,80.7,76.6,80.9,76.6,81.1z" class="st3"/><path d="M67.5,55.7c0,0.5-0.4,0.9-0.9,0.9c-0.5,0-0.9-0.4-0.9-0.9c0-0.5,0.4-0.9,0.9-0.9 C67.1,54.8,67.5,55.2,67.5,55.7z" class="st3"/><path d="M53.5,71.7c0,0.2-0.1,0.3-0.3,0.3c-0.2,0-0.3-0.1-0.3-0.3s0.1-0.3,0.3-0.3C53.3,71.4,53.5,71.5,53.5,71.7z" class="st3"/><path d="M54.7,49.9c0,0.2-0.1,0.3-0.3,0.3c-0.2,0-0.3-0.1-0.3-0.3c0-0.2,0.1-0.3,0.3-0.3 C54.6,49.6,54.7,49.7,54.7,49.9z" class="st3"/><path d="M46.8,72.8c0,0.5-0.4,0.8-0.8,0.8c-0.5,0-0.8-0.4-0.8-0.8c0-0.5,0.4-0.8,0.8-0.8 C46.4,71.9,46.8,72.3,46.8,72.8z" class="st3"/><path d="M47,72.8c0,0.6-0.4,1-1,1c-0.6,0-1-0.4-1-1c0-0.6,0.4-1,1-1C46.5,71.8,47,72.2,47,72.8z" class="st3"/><path d="M53.8,71.7c0,0.3-0.3,0.6-0.6,0.6c-0.3,0-0.6-0.3-0.6-0.6s0.3-0.6,0.6-0.6C53.5,71.1,53.8,71.3,53.8,71.7z" class="st3"/><path d="M53.6,71.7c0,0.2-0.2,0.4-0.4,0.4s-0.4-0.2-0.4-0.4s0.2-0.4,0.4-0.4S53.6,71.5,53.6,71.7z" class="st3"/><path d="M46.7,72.8c0,0.4-0.3,0.7-0.7,0.7c-0.4,0-0.7-0.3-0.7-0.7c0-0.4,0.3-0.7,0.7-0.7 C46.3,72.1,46.7,72.4,46.7,72.8z" class="st3"/><path d="M55,49.9c0,0.3-0.3,0.6-0.6,0.6c-0.3,0-0.6-0.3-0.6-0.6s0.3-0.6,0.6-0.6C54.7,49.3,55,49.5,55,49.9z" class="st3"/><path d="M46.9,72.8c0,0.5-0.4,0.9-0.9,0.9c-0.5,0-0.9-0.4-0.9-0.9c0-0.5,0.4-0.9,0.9-0.9 C46.5,71.9,46.9,72.3,46.9,72.8z" class="st3"/><path d="M20.1,74c0,0.4-0.3,0.8-0.8,0.8c-0.4,0-0.8-0.3-0.8-0.8c0-0.4,0.3-0.8,0.8-0.8C19.8,73.2,20.1,73.6,20.1,74z" class="st3"/><path d="M46.5,72.8c0,0.3-0.2,0.5-0.5,0.5c-0.3,0-0.5-0.2-0.5-0.5c0-0.3,0.2-0.5,0.5-0.5 C46.3,72.2,46.5,72.5,46.5,72.8z" class="st3"/><path d="M19.7,74c0,0.2-0.2,0.4-0.4,0.4c-0.2,0-0.4-0.2-0.4-0.4c0-0.2,0.2-0.4,0.4-0.4C19.6,73.6,19.7,73.8,19.7,74z" class="st3"/><path d="M24.4,61c0,0.2-0.1,0.3-0.3,0.3c-0.2,0-0.3-0.2-0.3-0.3c0-0.2,0.2-0.3,0.3-0.3C24.3,60.7,24.4,60.8,24.4,61z" class="st3"/><path d="M47,72.8c0,0.6-0.5,1-1,1c-0.6,0-1-0.5-1-1c0-0.6,0.5-1,1-1C46.5,71.7,47,72.2,47,72.8z" class="st3"/><path d="M24.3,61c0,0.1-0.1,0.2-0.2,0.2c-0.1,0-0.2-0.1-0.2-0.2c0-0.1,0.1-0.2,0.2-0.2C24.2,60.8,24.3,60.9,24.3,61z" class="st3"/><path d="M38.5,41.6c0,0.2-0.2,0.4-0.4,0.4c-0.2,0-0.4-0.2-0.4-0.4c0-0.2,0.2-0.4,0.4-0.4 C38.3,41.1,38.5,41.3,38.5,41.6z" class="st3"/><path d="M32.4,85c-0.1-0.1-0.2-0.1-0.3-0.1c-0.1,0-0.2,0-0.4,0.1H32.4z" class="st3"/><path d="M32.4,85c-0.1-0.1-0.2-0.1-0.3-0.1c-0.1,0-0.2,0-0.3,0.1H32.4z" class="st3"/><path d="M20,74c0,0.4-0.3,0.6-0.6,0.6c-0.4,0-0.6-0.3-0.6-0.6c0-0.4,0.3-0.6,0.6-0.6C19.7,73.4,20,73.7,20,74z" class="st3"/><path d="M19.7,74c0,0.2-0.1,0.3-0.3,0.3c-0.2,0-0.3-0.1-0.3-0.3c0-0.2,0.1-0.3,0.3-0.3C19.5,73.7,19.7,73.8,19.7,74z" class="st3"/><path d="M38.7,41.6c0,0.3-0.3,0.6-0.6,0.6c-0.3,0-0.6-0.3-0.6-0.6s0.3-0.6,0.6-0.6C38.4,41,38.7,41.3,38.7,41.6z" class="st3"/><path d="M24.6,61c0,0.3-0.2,0.5-0.5,0.5c-0.3,0-0.5-0.2-0.5-0.5c0-0.3,0.2-0.5,0.5-0.5C24.4,60.5,24.6,60.7,24.6,61z" class="st3"/><path d="M16.6,38.1c0,0.2-0.2,0.4-0.4,0.4c-0.2,0-0.4-0.2-0.4-0.4c0-0.2,0.2-0.4,0.4-0.4 C16.4,37.7,16.6,37.9,16.6,38.1z" class="st3"/><path d="M24.4,61c0,0.2-0.2,0.3-0.3,0.3c-0.2,0-0.3-0.2-0.3-0.3c0-0.2,0.2-0.3,0.3-0.3C24.3,60.7,24.4,60.8,24.4,61z" class="st3"/><path d="M11.6,45.3c0,0.3-0.3,0.6-0.6,0.6c-0.3,0-0.6-0.3-0.6-0.6s0.3-0.6,0.6-0.6C11.3,44.7,11.6,45,11.6,45.3z" class="st3"/><path d="M16.6,38.1c0,0.3-0.2,0.5-0.5,0.5c-0.3,0-0.5-0.2-0.5-0.5c0-0.3,0.2-0.5,0.5-0.5 C16.4,37.6,16.6,37.9,16.6,38.1z" class="st3"/><path d="M19.8,74c0,0.2-0.2,0.4-0.4,0.4c-0.2,0-0.4-0.2-0.4-0.4c0-0.2,0.2-0.4,0.4-0.4C19.6,73.6,19.8,73.8,19.8,74z" class="st3"/><path d="M6.2,67.3c0,0.4-0.4,0.8-0.8,0.8s-0.8-0.4-0.8-0.8c0-0.4,0.4-0.8,0.8-0.8S6.2,66.9,6.2,67.3z" class="st3"/><path d="M20.1,74c0,0.4-0.3,0.7-0.7,0.7c-0.4,0-0.7-0.3-0.7-0.7c0-0.4,0.3-0.7,0.7-0.7C19.8,73.3,20.1,73.6,20.1,74z" class="st3"/><path d="M6,67.3c0,0.3-0.2,0.5-0.5,0.5c-0.3,0-0.5-0.2-0.5-0.5c0-0.3,0.2-0.5,0.5-0.5C5.7,66.8,6,67,6,67.3z" class="st3"/><path d="M24.5,61c0,0.2-0.2,0.4-0.4,0.4s-0.4-0.2-0.4-0.4c0-0.2,0.2-0.4,0.4-0.4S24.5,60.8,24.5,61z" class="st3"/><circle cx="24.1" cy="61" r=".6" class="st3"/><path d="M6.3,67.3c0,0.5-0.4,0.9-0.9,0.9c-0.5,0-0.9-0.4-0.9-0.9c0-0.5,0.4-0.9,0.9-0.9C5.9,66.4,6.3,66.8,6.3,67.3z" class="st3"/><path d="M11.4,45.3c0,0.2-0.2,0.4-0.4,0.4c-0.2,0-0.4-0.2-0.4-0.4c0-0.2,0.2-0.4,0.4-0.4 C11.2,44.9,11.4,45.1,11.4,45.3z" class="st3"/><path d="M108.3,18c0,0.3-0.3,0.6-0.6,0.6c-0.3,0-0.6-0.3-0.6-0.6s0.3-0.6,0.6-0.6C108.1,17.4,108.3,17.7,108.3,18z" class="st3"/><circle cx="66.3" cy="19.5" r=".6" class="st3"/><path d="M108.4,18c0,0.4-0.3,0.6-0.6,0.6c-0.4,0-0.6-0.3-0.6-0.6s0.3-0.6,0.6-0.6C108.1,17.4,108.4,17.6,108.4,18z" class="st3"/><path d="M108.2,18c0,0.3-0.2,0.5-0.5,0.5c-0.3,0-0.5-0.2-0.5-0.5c0-0.3,0.2-0.5,0.5-0.5C108,17.5,108.2,17.7,108.2,18 z" class="st3"/><path d="M87.9,24.6c0,0.4-0.3,0.7-0.7,0.7c-0.4,0-0.7-0.3-0.7-0.7c0-0.4,0.3-0.7,0.7-0.7 C87.6,23.9,87.9,24.2,87.9,24.6z" class="st3"/><path d="M66.9,19.5c0,0.4-0.3,0.6-0.6,0.6c-0.4,0-0.6-0.3-0.6-0.6c0-0.4,0.3-0.6,0.6-0.6 C66.6,18.8,66.9,19.1,66.9,19.5z" class="st3"/><path d="M104.2,57.7c0,0.3-0.3,0.6-0.6,0.6c-0.3,0-0.6-0.3-0.6-0.6c0-0.3,0.3-0.6,0.6-0.6 C104,57.2,104.2,57.4,104.2,57.7z" class="st3"/><path d="M94,39.2c0,0.1-0.1,0.3-0.3,0.3c-0.1,0-0.3-0.1-0.3-0.3c0-0.1,0.1-0.3,0.3-0.3C93.9,38.9,94,39,94,39.2z" class="st3"/><circle cx="107.7" cy="18" r=".6" class="st3"/><path d="M104.2,57.7c0,0.3-0.3,0.6-0.6,0.6c-0.3,0-0.6-0.3-0.6-0.6c0-0.3,0.3-0.6,0.6-0.6 C104,57.1,104.2,57.4,104.2,57.7z" class="st3"/><path d="M94.1,39.2c0,0.2-0.2,0.3-0.3,0.3c-0.2,0-0.3-0.2-0.3-0.3c0-0.2,0.2-0.3,0.3-0.3C93.9,38.8,94.1,39,94.1,39.2 z" class="st3"/><path d="M109.4,85c-0.1,0-0.1,0-0.2,0c-0.1,0-0.1,0-0.2,0H109.4z" class="st3"/><path d="M108.5,18c0,0.4-0.3,0.8-0.8,0.8c-0.4,0-0.8-0.3-0.8-0.8c0-0.4,0.3-0.8,0.8-0.8 C108.2,17.2,108.5,17.6,108.5,18z" class="st3"/><path d="M94.7,39.2c0,0.5-0.4,1-1,1c-0.5,0-1-0.4-1-1c0-0.5,0.4-1,1-1C94.3,38.2,94.7,38.7,94.7,39.2z" class="st3"/><path d="M87.5,24.6c0,0.1-0.1,0.2-0.2,0.2c-0.1,0-0.2-0.1-0.2-0.2c0-0.1,0.1-0.2,0.2-0.2 C87.4,24.3,87.5,24.4,87.5,24.6z" class="st3"/><path d="M104.2,57.7c0,0.3-0.3,0.6-0.6,0.6c-0.3,0-0.6-0.3-0.6-0.6c0-0.3,0.3-0.6,0.6-0.6 C104,57.1,104.2,57.4,104.2,57.7z" class="st3"/><circle cx="103.6" cy="57.7" r=".7" class="st3"/><path d="M109.7,85c-0.1-0.1-0.3-0.2-0.5-0.2c-0.2,0-0.3,0.1-0.5,0.2H109.7z" class="st3"/><path d="M87,80.5c0,0.1-0.1,0.3-0.3,0.3c-0.2,0-0.3-0.1-0.3-0.3c0-0.1,0.1-0.3,0.3-0.3C86.9,80.3,87,80.4,87,80.5z" class="st3"/><path d="M104.6,57.7c0,0.5-0.4,1-1,1c-0.5,0-1-0.4-1-1c0-0.5,0.4-1,1-1C104.2,56.8,104.6,57.2,104.6,57.7z" class="st3"/><path d="M76.2,51.3c0,0.5-0.4,1-1,1c-0.5,0-1-0.4-1-1c0-0.5,0.4-1,1-1C75.8,50.4,76.2,50.8,76.2,51.3z" class="st3"/><path d="M94.4,39.2c0,0.4-0.3,0.6-0.6,0.6c-0.4,0-0.6-0.3-0.6-0.6c0-0.4,0.3-0.6,0.6-0.6 C94.1,38.6,94.4,38.8,94.4,39.2z" class="st3"/><path d="M104.2,57.7c0,0.3-0.3,0.6-0.6,0.6c-0.3,0-0.6-0.3-0.6-0.6c0-0.3,0.3-0.6,0.6-0.6 C104,57.1,104.2,57.4,104.2,57.7z" class="st3"/><path d="M87.6,80.5c0,0.4-0.4,0.8-0.8,0.8c-0.4,0-0.8-0.4-0.8-0.8c0-0.4,0.4-0.8,0.8-0.8 C87.2,79.7,87.6,80.1,87.6,80.5z" class="st3"/><path d="M75.6,51.3c0,0.2-0.2,0.4-0.4,0.4c-0.2,0-0.4-0.2-0.4-0.4c0-0.2,0.2-0.4,0.4-0.4C75.4,51,75.6,51.1,75.6,51.3 z" class="st3"/><path d="M110.2,85c-0.2-0.4-0.6-0.7-1-0.7c-0.5,0-0.8,0.3-1,0.7H110.2z" class="st3"/><path d="M87.5,80.5c0,0.4-0.3,0.7-0.7,0.7c-0.4,0-0.7-0.3-0.7-0.7c0-0.4,0.3-0.7,0.7-0.7 C87.2,79.8,87.5,80.1,87.5,80.5z" class="st3"/><path d="M94.4,39.2c0,0.3-0.3,0.6-0.6,0.6c-0.3,0-0.6-0.3-0.6-0.6c0-0.3,0.3-0.6,0.6-0.6 C94.1,38.6,94.4,38.8,94.4,39.2z" class="st3"/><circle cx="75.3" cy="51.3" r=".5" class="st3"/><path d="M87.7,24.6c0,0.2-0.2,0.4-0.4,0.4c-0.2,0-0.4-0.2-0.4-0.4c0-0.2,0.2-0.4,0.4-0.4 C87.5,24.2,87.7,24.3,87.7,24.6z" class="st3"/><path d="M87.5,24.6c0,0.1-0.1,0.2-0.2,0.2s-0.2-0.1-0.2-0.2c0-0.1,0.1-0.2,0.2-0.2S87.5,24.5,87.5,24.6z" class="st3"/><path d="M76.1,51.3c0,0.5-0.4,0.8-0.8,0.8c-0.5,0-0.8-0.4-0.8-0.8c0-0.5,0.4-0.8,0.8-0.8 C75.7,50.5,76.1,50.9,76.1,51.3z" class="st3"/><path d="M67.1,19.5c0,0.5-0.4,0.8-0.8,0.8c-0.5,0-0.8-0.4-0.8-0.8c0-0.5,0.4-0.8,0.8-0.8C66.7,18.6,67.1,19,67.1,19.5 z" class="st3"/><path d="M75.6,51.3c0,0.2-0.2,0.4-0.4,0.4c-0.2,0-0.4-0.2-0.4-0.4c0-0.2,0.2-0.4,0.4-0.4C75.5,51,75.6,51.1,75.6,51.3 z" class="st3"/><path d="M40.9,64.6c0,0.3-0.2,0.5-0.5,0.5c-0.3,0-0.5-0.2-0.5-0.5c0-0.3,0.2-0.5,0.5-0.5C40.7,64,40.9,64.3,40.9,64.6 z" class="st3"/><path d="M76.1,51.3c0,0.5-0.4,0.9-0.9,0.9c-0.5,0-0.9-0.4-0.9-0.9c0-0.5,0.4-0.9,0.9-0.9 C75.7,50.5,76.1,50.9,76.1,51.3z" class="st3"/><path d="M40.7,64.6c0,0.1-0.1,0.3-0.3,0.3c-0.1,0-0.3-0.1-0.3-0.3c0-0.1,0.1-0.3,0.3-0.3 C40.5,64.3,40.7,64.4,40.7,64.6z" class="st3"/><path d="M39.5,33.3c0,0.4-0.3,0.7-0.7,0.7c-0.4,0-0.7-0.3-0.7-0.7c0-0.4,0.3-0.7,0.7-0.7C39.2,32.7,39.5,33,39.5,33.3 z" class="st3"/><path d="M87.9,80.5c0,0.6-0.5,1.2-1.2,1.2c-0.6,0-1.2-0.5-1.2-1.2c0-0.6,0.5-1.2,1.2-1.2 C87.4,79.4,87.9,79.9,87.9,80.5z" class="st3"/><path d="M75.9,51.3c0,0.3-0.3,0.6-0.6,0.6c-0.3,0-0.6-0.3-0.6-0.6c0-0.3,0.3-0.6,0.6-0.6C75.6,50.7,75.9,51,75.9,51.3 z" class="st3"/><path d="M87.2,80.5c0,0.3-0.2,0.5-0.5,0.5c-0.3,0-0.5-0.2-0.5-0.5c0-0.3,0.2-0.5,0.5-0.5C87,80.1,87.2,80.3,87.2,80.5 z" class="st3"/><path d="M39.5,33.3c0,0.3-0.3,0.6-0.6,0.6c-0.3,0-0.6-0.3-0.6-0.6s0.3-0.6,0.6-0.6C39.2,32.7,39.5,33,39.5,33.3z" class="st3"/><path d="M40.6,64.6c0,0.1-0.1,0.2-0.2,0.2c-0.1,0-0.2-0.1-0.2-0.2c0-0.1,0.1-0.2,0.2-0.2 C40.5,64.3,40.6,64.4,40.6,64.6z" class="st3"/><circle cx="19.5" cy="39.4" r=".4" class="st3"/><path d="M34.2,73.1c0,0.3-0.2,0.6-0.6,0.6c-0.3,0-0.6-0.2-0.6-0.6c0-0.3,0.2-0.6,0.6-0.6 C33.9,72.5,34.2,72.8,34.2,73.1z" class="st3"/><path d="M34.1,73.1c0,0.2-0.2,0.5-0.5,0.5c-0.2,0-0.5-0.2-0.5-0.5s0.2-0.5,0.5-0.5C33.9,72.6,34.1,72.9,34.1,73.1z" class="st3"/><path d="M41.4,64.6c0,0.5-0.4,1-1,1c-0.5,0-1-0.4-1-1c0-0.5,0.4-1,1-1C40.9,63.6,41.4,64,41.4,64.6z" class="st3"/><path d="M41.3,64.6c0,0.5-0.4,0.9-0.9,0.9c-0.5,0-0.9-0.4-0.9-0.9c0-0.5,0.4-0.9,0.9-0.9 C40.9,63.7,41.3,64.1,41.3,64.6z" class="st3"/><path d="M33.9,73.1c0,0.2-0.1,0.3-0.3,0.3c-0.2,0-0.3-0.1-0.3-0.3c0-0.2,0.1-0.3,0.3-0.3 C33.8,72.8,33.9,72.9,33.9,73.1z" class="st3"/><path d="M20.2,39.4c0,0.4-0.3,0.7-0.7,0.7c-0.4,0-0.7-0.3-0.7-0.7c0-0.4,0.3-0.7,0.7-0.7 C19.9,38.8,20.2,39.1,20.2,39.4z" class="st3"/><path d="M34,73.1c0,0.2-0.2,0.4-0.4,0.4c-0.2,0-0.4-0.2-0.4-0.4c0-0.2,0.2-0.4,0.4-0.4C33.8,72.7,34,72.9,34,73.1z" class="st3"/><path d="M34,73.1c0,0.2-0.2,0.4-0.4,0.4c-0.2,0-0.4-0.2-0.4-0.4c0-0.2,0.2-0.4,0.4-0.4C33.8,72.7,34,72.9,34,73.1z" class="st3"/><path d="M34.2,73.1c0,0.3-0.3,0.6-0.6,0.6c-0.3,0-0.6-0.3-0.6-0.6c0-0.3,0.3-0.6,0.6-0.6 C33.9,72.5,34.2,72.8,34.2,73.1z" class="st3"/></g></g><radialGradient id="SVGID_2_" cx="54.651" cy="50.045" r="7.614" gradientTransform="matrix(1.0042 0 0 1.0043 -0.5794 -0.4226)" gradientUnits="userSpaceOnUse"><stop offset="0" stop-color="#737175"/><stop offset=".021" stop-color="#6D6B6E"/><stop offset=".141" stop-color="#4B4A4D"/><stop offset=".271" stop-color="#302F31"/><stop offset=".41" stop-color="#1B1A1B"/><stop offset=".563" stop-color="#0C0B0C"/><stop offset=".74" stop-color="#030303"/><stop offset="1" stop-color="#000"/></radialGradient><path d="M61.9,49.8c0,4.2-3.4,7.6-7.6,7.6c-4.2,0-7.6-3.4-7.6-7.6c0-4.2,3.4-7.6,7.6-7.6C58.5,42.2,61.9,45.6,61.9,49.8	z" class="st4"/><radialGradient id="SVGID_3_" cx="75.258" cy="51.574" r="7.614" gradientTransform="matrix(1.0042 0 0 1.0043 -0.5794 -0.4226)" gradientUnits="userSpaceOnUse"><stop offset="0" stop-color="#27AAE1"/><stop offset=".056" stop-color="#2398C9"/><stop offset=".192" stop-color="#1A7094"/><stop offset=".329" stop-color="#124E67"/><stop offset=".466" stop-color="#0B3242"/><stop offset=".602" stop-color="#061C25"/><stop offset=".737" stop-color="#030C10"/><stop offset=".87" stop-color="#010304"/><stop offset="1" stop-color="#000"/></radialGradient><path d="M82.6,51.4c0,4.2-3.4,7.6-7.6,7.6c-4.2,0-7.6-3.4-7.6-7.6c0-4.2,3.4-7.6,7.6-7.6C79.2,43.7,82.6,47.2,82.6,51.4	z" class="st5"/><radialGradient id="SVGID_4_" cx="24.511" cy="61.2" r="7.615" gradientTransform="matrix(1.0042 0 0 1.0043 -0.5794 -0.4226)" gradientUnits="userSpaceOnUse"><stop offset="0" stop-color="#27AAE1"/><stop offset=".056" stop-color="#2398C9"/><stop offset=".192" stop-color="#1A7094"/><stop offset=".329" stop-color="#124E67"/><stop offset=".466" stop-color="#0B3242"/><stop offset=".602" stop-color="#061C25"/><stop offset=".737" stop-color="#030C10"/><stop offset=".87" stop-color="#010304"/><stop offset="1" stop-color="#000"/></radialGradient><circle cx="24" cy="61" r="7.6" class="st6"/><radialGradient id="SVGID_5_" cx="16.639" cy="38.407" r="7.614" gradientTransform="matrix(1.0042 0 0 1.0043 -0.5794 -0.4226)" gradientUnits="userSpaceOnUse"><stop offset="0" stop-color="#27AAE1"/><stop offset=".01" stop-color="#25A3D8"/><stop offset=".069" stop-color="#1E81AB"/><stop offset=".134" stop-color="#176382"/><stop offset=".203" stop-color="#10485F"/><stop offset=".278" stop-color="#0B3141"/><stop offset=".361" stop-color="#071F29"/><stop offset=".454" stop-color="#041117"/><stop offset=".563" stop-color="#02070A"/><stop offset=".705" stop-color="#000202"/><stop offset="1" stop-color="#000"/></radialGradient><circle cx="16.1" cy="38.1" r="7.6" class="st7"/></svg>