<?xml version="1.0" encoding="utf-8"?>
<!-- Generator: Adobe Illustrator 23.0.0, SVG Export Plug-In . SVG Version: 6.00 Build 0)  -->
<svg version="1.1" id="Layer_1" xmlns="http://www.w3.org/2000/svg" xmlns:xlink="http://www.w3.org/1999/xlink" x="0px" y="0px"
	 viewBox="0 0 512.5 512.5" style="enable-background:new 0 0 512.5 512.5;" xml:space="preserve">
<style type="text/css">
	.st0{display:none;fill:#FF757C;}
	.st1{display:none;}
	.st2{display:inline;fill:#666666;}
	.st3{display:none;fill:#F0B97D;}
	.st4{display:none;fill:#FED198;}
	.st5{display:none;fill:#FFBA1B;}
	.st6{display:none;fill:#807D7D;}
	.st7{display:inline;fill:#FFFFFF;}
	.st8{clip-path:url(#SVGID_2_);}
	.st9{clip-path:url(#SVGID_4_);}
	.st10{fill:#363DC2;}
	.st11{fill:none;stroke:#363DC2;stroke-width:3;stroke-miterlimit:10;}
	.st12{fill:#FFFFFF;}
</style>
<path class="st0" d="M256.3,512.5c141.2,0,256.3-115.1,256.3-256.3C512.5,115.1,397.4,0,256.3,0C115.1,0,0,115.1,0,256.3
	C0,397.4,115.1,512.5,256.3,512.5z"/>
<g class="st1">
	<path class="st2" d="M365.6,224.8l65.9,29.9l62-28.1l-65.9-29.9L365.6,224.8z"/>
	<path class="st2" d="M384,328.8c6.5-10.9,16.7-23.5,6.3-42.7c-15.3-66.7,55-80.2,65.7-52.7c17.3,6.5,16.8,42.4,7.9,61.2
		c-0.4,7.7-8.4,14.5,6.1,34.4l1-0.2l0,0C452.2,334.2,403.9,331.7,384,328.8L384,328.8z"/>
</g>
<path class="st3" d="M416.3,314.7c-0.6,11.9-4.9,16.5-10.8,19.6c-3,2.6-29.2,5.8-32.8,15.4c-1,2.7-4.6,112.2-7.2,138.4
	c52.5-24.8,95.3-67,120.8-119.1c-0.4-12.2-0.7-20.4-0.9-20.7c-6-9.3-30.6-11.3-33.3-13.6c-5.8-3.2-9.9-7.9-10.5-19.9
	c0,0-8.6,6.7-13.9,5.6C422.4,319.3,416.3,314.7,416.3,314.7L416.3,314.7z"/>
<path class="st4" d="M402.5,295.1c5.3,11.4,7.3,15.8,13.8,20.9c0,0,6.1,4.7,11.4,5.8c5.3,1,13.9-5.8,13.9-5.8
	c6.6-5.1,8.5-9.5,13.8-20.9c1.3,0.7,2.7,1.6,3.7,0.4c1.1-1.2,6.1-16.9,5.2-19s-1.8-0.8-3.1,0.2c0.1-0.5-1.1,5.7-1,4.7
	c0.1-7.4-5.1-8.6-6.7-28.2c-24,23.8-46.5,12.9-54.3,14.5c-2.3,0.5-2.9,6.3-2.5,9c-8.5-6.1,1.8,18.6,2,18.8
	C399.8,296.7,401.2,295.8,402.5,295.1L402.5,295.1z"/>
<path class="st5" d="M405.6,334.3c-9.9,4.2-25.4,4.3-33.1,14.5c-2,2.6-14.3,129.1-18.2,143.1c0.4,0.3,0.8,0.5,1.2,0.8
	C413.7,468.2,461,422.8,488,365.9c-1.3-10.5-2.2-17.4-2.4-17.7c-7.7-10.8-25.1-9.7-33.2-14l-22.5,46.1L405.6,334.3z"/>
<path class="st6" d="M393.1,227.8c17-11.4,58.3-10.9,73.4,0.6l1.6,19c-26.4-6.9-49.7-6.5-76.7,0.4L393.1,227.8z"/>
<g class="st1">
	<path class="st7" d="M416.2,354.4c7,2.5,18.9,2.5,26.3,0l-12.7,25.9L416.2,354.4L416.2,354.4z"/>
	<path class="st7" d="M380.4,218.3l0.1,32.4v1h-1.9v-1v-31.8C378.7,217.1,380.3,216.8,380.4,218.3L380.4,218.3z"/>
</g>
<path class="st5" d="M376,256.7c0,8.8-1.8,16.3-1.9,16.8s1.7,2.2,2,0.5s0,0,1.5,0.1s1.9-0.7,1.9-0.7s0.3,0.8,1.9,0.7
	c1.6-0.1,1.2-1.8,1.5-0.1c0.3,1.7,2.1,0,2-0.5s-1.9-8-1.9-16.8c-0.1-3.4-1.4-4.9-3.5-5.4C377.4,251.7,376.1,253.3,376,256.7
	L376,256.7z"/>
<path class="st6" d="M379.5,251.2c3.4,0,3.5,2.2,3.4,4.2c-0.8-0.7-2-1.1-3.4-1.1s-2.6,0.4-3.4,1.1
	C376,253.1,376.1,251.2,379.5,251.2z"/>
<g class="st1">
	<path class="st2" d="M19.7,224.8l65.9,29.9l62-28.1l-65.9-29.9L19.7,224.8z"/>
	<path class="st2" d="M38.1,328.8c6.5-10.9,16.7-23.5,6.3-42.7c-15.3-66.7,55-80.2,65.7-52.7c17.3,6.5,16.8,42.4,7.9,61.2
		c-0.4,7.7-8.4,14.5,6.1,34.4l1-0.2l0,0C106.3,334.2,58,331.7,38.1,328.8L38.1,328.8z"/>
</g>
<path class="st3" d="M70.4,314.7c-0.6,11.9-4.9,16.5-10.8,19.6c-3,2.6-29.2,5.8-32.8,15.4c-0.2,0.7-0.6,7.8-1.2,18.5
	c25.2,51.7,67.2,93.7,118.9,118.8c-2.2-27-4.1-137.4-5-138.7c-6-9.3-30.6-11.3-33.3-13.6c-5.8-3.2-9.9-7.9-10.5-19.9
	c0,0-8.6,6.7-13.9,5.6C76.5,319.3,70.4,314.7,70.4,314.7L70.4,314.7L70.4,314.7z"/>
<path class="st4" d="M56.5,295.1c5.3,11.4,7.3,15.8,13.8,20.9c0,0,6.1,4.7,11.4,5.8c5.3,1,13.9-5.8,13.9-5.8
	c6.6-5.1,8.5-9.5,13.8-20.9c1.3,0.7,2.7,1.6,3.7,0.4c1.1-1.2,6.1-16.9,5.2-19s-1.8-0.8-3.1,0.2c0.1-0.5-1.1,5.7-1,4.7
	c0.1-7.4-5.1-8.6-6.7-28.2c-24,23.8-46.5,12.9-54.3,14.5c-2.3,0.5-2.9,6.3-2.5,9c-8.5-6.1,1.8,18.6,2,18.8
	C53.9,296.7,55.3,295.8,56.5,295.1z"/>
<path class="st5" d="M59.6,334.3c-9.9,4.2-25.4,4.3-33.1,14.5c-0.4,0.6-1.3,6.7-2.5,16c26.5,56.7,73.2,102,130.8,126.9
	c1.2-0.7,2.4-1.5,3.5-2.3c-3.8-13.8-17.8-139.9-18.7-141.1c-7.7-10.8-25.1-9.7-33.2-14l-22.5,46.1L59.6,334.3L59.6,334.3z"/>
<path class="st6" d="M47.1,227.8c17-11.4,58.3-10.9,73.4,0.6l1.6,19c-26.4-6.9-49.7-6.5-76.7,0.4L47.1,227.8z"/>
<g class="st1">
	<path class="st7" d="M70.3,354.4c7,2.5,18.9,2.5,26.3,0l-12.7,25.9L70.3,354.4z"/>
	<path class="st7" d="M34.5,218.3l0.1,32.4v1h-1.9v-1v-31.8C32.7,217.1,34.4,216.8,34.5,218.3z"/>
</g>
<path class="st5" d="M30.1,256.7c0,8.8-1.8,16.3-1.9,16.8s1.7,2.2,2,0.5s0,0,1.5,0.1s1.9-0.7,1.9-0.7s0.3,0.8,1.9,0.7
	c1.6-0.1,1.2-1.8,1.5-0.1c0.3,1.7,2.1,0,2-0.5s-1.9-8-1.9-16.8c-0.1-3.4-1.4-4.9-3.5-5.4C31.5,251.7,30.2,253.3,30.1,256.7z"/>
<path class="st6" d="M33.6,251.2c3.4,0,3.5,2.2,3.4,4.2c-0.8-0.7-2-1.1-3.4-1.1s-2.6,0.4-3.4,1.1C30.1,253.1,30.1,251.2,33.6,251.2z
	"/>
<g>
	<g>
		<defs>
			<rect id="SVGID_1_" y="53.3" width="512.5" height="405.9"/>
		</defs>
		<clipPath id="SVGID_2_">
			<use xlink:href="#SVGID_1_"  style="overflow:visible;"/>
		</clipPath>
		<g class="st8">
			<g>
				<g>
					<g>
						<defs>
							<rect id="SVGID_3_" x="-14.9" y="-26.9" width="587.6" height="587.6"/>
						</defs>
						<clipPath id="SVGID_4_">
							<use xlink:href="#SVGID_3_"  style="overflow:visible;"/>
						</clipPath>
						<g class="st9">
							<g>
								<g>
									<g>
										<g>
											<g>
												<path class="st10" d="M11.3,207.6l44.5,5.5c1.2,0.2,2.2,0,3.4-0.3c1.4-0.5,2.7-1.4,3.6-2.6c1.7-2,2.2-4.9,1.4-7.5v-0.2
													c-1-2.9-3.6-4.9-6.5-5.5l-27.8-3.4l20.4-19.1c2.2-2,3.1-5.3,2-8.2v-0.2c-0.9-2.6-2.9-4.6-5.5-5.1
													c-1.5-0.3-2.9-0.3-4.4,0.2c-1,0.3-2,1-2.9,1.7L6.9,193.4c-2.2,2-3.1,5.3-2,8.2l0.2,0.5C5.7,205.2,8.3,207.2,11.3,207.6z
													"/>
											</g>
										</g>
										<g>
											<g>
												<path class="st10" d="M72.8,228c2,1.5,4.6,1.9,7,1.2H80c3.2-1,5.5-4.1,5.5-7.5l-0.2-87c0-2.6-1.2-4.9-3.2-6.3
													c-2-1.5-4.6-1.9-7-1.2h-0.2c-3.2,1-5.5,4.1-5.5,7.5l0.2,87C69.4,224.1,70.8,226.5,72.8,228z"/>
											</g>
										</g>
										<g>
											<g>
												<path class="st10" d="M90.7,154.1c1,2.9,3.6,4.9,6.5,5.5L125,163l-20.5,19c-2.2,2-3.1,5.3-2,8.2v0.2
													c0.9,2.6,2.9,4.4,5.5,5.1c1.5,0.3,3.1,0.3,4.4-0.2c1-0.3,2-0.9,2.9-1.7l32.7-30.5c2.2-2,3.1-5.3,2-8.2l-0.2-0.5
													c-1-2.9-3.6-4.9-6.5-5.5l-44.1-5.5c-1.2-0.2-2.2,0-3.4,0.3c-1.4,0.5-2.7,1.4-3.6,2.6c-1.7,2-2.2,4.9-1.4,7.5L90.7,154.1
													L90.7,154.1z"/>
											</g>
										</g>
									</g>
								</g>
							</g>
							<g>
								<ellipse class="st11" cx="257.4" cy="298.2" rx="148.7" ry="148.7"/>
								<path class="st11" d="M259.3,151.4c0,0-151.2,146.5-0.2,294"/>
								<path class="st11" d="M258.6,151.4c0,0,147.5,147.3,0.2,296.7"/>
								<path class="st11" d="M178.7,175.1c24.5,15.3,53.3,24.2,84.3,24.2c29.5,0,56.9-8,80.6-21.8c-24-16.4-53.1-25.9-84.3-25.9
									C229.7,151.4,202.1,160.2,178.7,175.1z"/>
								<path class="st11" d="M174.5,419.6c24.5-15.3,58.2-20.4,89.2-20.4c29.5,0,58.4,4.6,82.1,18.4c-24,16.4-54.5,29.3-85.7,29.3
									C230.4,446.7,197.8,434.4,174.5,419.6z"/>
								<line class="st11" x1="107.7" y1="297" x2="406.3" y2="297"/>
								<path class="st11" d="M118.1,246.1c0,0,67.4,11.8,141,11.1c64-0.7,137.6-11.1,137.6-11.1"/>
								<path class="st11" d="M118.1,348.6c0,0,67.4-11.8,141-11.1c64,0.7,137.6,11.1,137.6,11.1"/>
							</g>
							<path class="st10" d="M338.5,109.1c0-25.7-20.8-46.5-46.5-46.5s-46.5,20.8-46.5,46.5c0,1.2,0.2,2.4,0.2,3.6l0,0
								c2.2,34.2,47.3,84.5,47.3,84.5c45.5-48.5,45.5-84.8,45.5-84.8l0,0C338.5,111.2,338.5,110.2,338.5,109.1z M292.2,135.7
								c-15.2,0-27.6-12.4-27.6-27.6s12.3-27.6,27.6-27.6c15.2,0,27.6,12.3,27.6,27.6C319.8,123.3,307.5,135.7,292.2,135.7z"/>
							<g>
								<path class="st10" d="M445,233.8v-14.5l-27.4,15.8L390.1,251l27.4,15.8l27.4,15.8v-13.3c25,1.9,45.1,22.7,45.5,48.2
									c0.3,26.7-20.6,48.9-47.3,49.9l0,0c36.4-1.2,65.4-31.3,64.9-68C507.5,264.5,479.7,235.9,445,233.8z"/>
								<path class="st10" d="M386.9,381v11.9l23.3-13.1l23.3-13.1l-23.3-12.9l-23.3-12.9v10.9c-21.3-1.5-38.2-18.6-38.5-39.5
									c-0.3-22,17.5-40,40-40.9l0,0c-30.8,1-55.4,25.7-55,55.9C333.9,355.9,357.4,379.3,386.9,381z"/>
							</g>
						</g>
					</g>
				</g>
			</g>
		</g>
	</g>
</g>
<g>
	<rect x="102.9" y="359.4" class="st12" width="103.2" height="84.1"/>
	<g>
		<path class="st10" d="M120.2,352.6c0-10.1,8.3-18.4,18.4-18.4c10.1,0,18.4,8.3,18.4,18.4s-8.3,18.4-18.4,18.4
			S120.2,362.8,120.2,352.6z M147.5,383.5c0.1-4,1.6-7.8,3.8-10.7c-1.6-0.4-3.2-0.5-4.8-0.5h-15.7c-1.6,0-3.2,0.1-4.8,0.5
			c2.3,3.3,3.8,7.3,3.8,11.6c2.8-1.6,6.2-2.5,9.6-2.5C142.3,381.9,145,382.5,147.5,383.5z M150.6,385.2c5.3,3.3,9.1,9,9.8,15.6
			c2.2,1,4.6,1.6,7.2,1.6c9.4,0,16.9-7.7,16.9-16.9c0-9.4-7.7-16.9-16.9-16.9C158.2,368.6,150.7,376,150.6,385.2z M139.5,419.9
			c9.4,0,16.9-7.7,16.9-16.9c0-9.4-7.7-16.9-16.9-16.9c-9.4,0-16.9,7.7-16.9,16.9C122.5,412.4,130.1,419.9,139.5,419.9z
			 M146.7,421.2h-14.4c-12,0-21.7,9.8-21.7,21.7v17.7v0.2l1.2,0.4c11.5,3.6,21.4,4.8,29.5,4.8c15.9,0,25.2-4.6,25.8-4.8l1.1-0.6h0.1
			v-17.7C168.3,430.8,158.7,421.2,146.7,421.2z M174.8,403.6h-14.3c-0.1,5.7-2.6,10.9-6.4,14.6c10.6,3.2,18.4,13.1,18.4,24.7v5.4
			c14.1-0.5,22.2-4.6,22.7-4.8l1.1-0.6h0.1v-17.7C196.5,413.4,186.7,403.6,174.8,403.6z M178.6,368.2c5.3,3.3,9.1,9,9.8,15.6
			c2.2,1,4.6,1.6,7.2,1.6c9.4,0,16.9-7.7,16.9-16.9c0-9.4-7.7-16.9-16.9-16.9C186.2,351.4,178.7,358.9,178.6,368.2z M202.7,386.5
			h-14.2c-0.1,5.7-2.6,10.9-6.4,14.6c10.6,3.2,18.4,13.1,18.4,24.7v5.4c14.1-0.5,22.2-4.6,22.7-4.8l1.1-0.6h0.1v-17.7
			C224.4,396.2,214.6,386.5,202.7,386.5z M109.7,402.4c3.3,0,6.4-1,9-2.6c0.9-5.4,3.7-10.1,7.9-13.3c0-0.4,0-0.6,0-1
			c0-9.4-7.7-16.9-16.9-16.9c-9.4,0-16.9,7.7-16.9,16.9C92.8,394.9,100.3,402.4,109.7,402.4z M125,418.2c-3.8-3.7-6.3-8.8-6.4-14.4
			c-0.5,0-1.1-0.1-1.6-0.1h-14.4c-12,0-21.7,9.8-21.7,21.7V443v0.2l1.2,0.4c9.1,2.8,17.4,4.2,24.4,4.6v-5.3
			C106.5,431.2,114.3,421.3,125,418.2z"/>
	</g>
</g>
</svg>
