<?xml version="1.0" encoding="UTF-8"?>
<!DOCTYPE svg PUBLIC "-//W3C//DTD SVG 1.1//EN" "http://www.w3.org/Graphics/SVG/1.1/DTD/svg11.dtd">
<!-- Creator: CorelDRAW X8 -->
<svg xmlns="http://www.w3.org/2000/svg" xml:space="preserve" width="215.9mm" height="279.4mm" version="1.1" style="shape-rendering:geometricPrecision; text-rendering:geometricPrecision; image-rendering:optimizeQuality; fill-rule:evenodd; clip-rule:evenodd"
viewBox="0 0 21590 27940"
 xmlns:xlink="http://www.w3.org/1999/xlink">
 <defs>
  <style type="text/css">
   <![CDATA[
    .fil1 {fill:#0098DA}
    .fil0 {fill:#336699}
    .fil2 {fill:#0098DA;fill-rule:nonzero}
   ]]>
  </style>
 </defs>
 <g id="Layer_x0020_1">
  <metadata id="CorelCorpID_0Corel-Layer"/>
  <g id="_2413673844288">
   <path class="fil0" d="M10488 15365c-22,425 -28,819 -59,1245 168,15 358,30 538,4l-54 -1189 -9 -56c-137,5 -267,11 -416,-4l0 0zm-1051 -1194c-208,104 -513,261 -479,545 45,155 213,256 346,319 735,324 1711,335 2487,94 191,-74 449,-181 484,-416 -2,-194 -207,-316 -355,-390l0 -10c51,-20 111,-38 164,-44l0 -5c-260,-47 -511,-115 -763,-181 49,110 84,227 124,342 76,-25 153,-43 235,-54 133,52 323,126 342,292 14,155 -156,230 -263,294 -569,207 -1210,227 -1803,69 -164,-51 -401,-118 -421,-326 116,-275 417,-333 668,-399 -129,-84 -260,-157 -385,-250 -136,7 -259,67 -381,120l0 0zm1258 -1659l-74 237 -370 1058c93,10 207,0 298,10l0 8 -54 1198 10 12c118,12 265,18 386,-3l0 -18 -48 -1162 7 -39 325 -6c-162,-428 -319,-861 -471,-1295l-9 0 0 0z"/>
   <circle class="fil0" cx="8188" cy="10623" r="619"/>
   <circle class="fil0" cx="6926" cy="10624" r="391"/>
   <circle class="fil1" cx="3457" cy="14258" r="481"/>
   <circle class="fil0" cx="5833" cy="16535" r="619"/>
   <circle class="fil0" cx="4572" cy="16536" r="391"/>
   <path class="fil1" d="M13698 11520l650 -1c550,-8 550,-216 339,1380l636 3c31,-513 88,-962 94,-1486 7,-726 117,-432 -1094,-511l-623 -3 -1206 14c-221,180 -377,524 -605,732l-6632 -1c-113,-238 -356,-402 -637,-402 -389,0 -704,315 -704,704 0,389 315,704 704,704 263,0 492,-143 613,-356 89,-73 137,-44 420,-41l6575 0c83,-122 442,-626 576,-721l894 -15z"/>
   <path class="fil0" d="M13700 10902l623 3 -160 -1071c-289,-51 -3571,-5 -3953,-12 -300,-7 -438,-235 -575,-387 -244,-272 -225,-338 -676,-334 -654,7 -1367,20 -2019,-17 -119,-235 -363,-396 -645,-396 -398,0 -722,324 -722,723 0,399 324,722 722,722 287,0 535,-167 652,-409 566,-42 1252,-10 1828,-11 664,-1 626,705 1156,729 1039,47 2464,-43 3497,-7 46,2 85,3 131,11l111 34 30 422z"/>
   <path class="fil1" d="M6859 15032c-174,-50 -528,-56 -698,7 84,505 1163,1925 1420,2174 609,589 1134,1131 1980,1606 281,158 883,556 1233,395 432,-199 804,-410 1172,-650 398,-259 670,-500 990,-777 185,-160 687,-699 835,-961l-798 -12c-344,568 -2078,1838 -2490,1774 -165,-26 -789,-405 -948,-510 -932,-618 -2392,-2071 -2696,-3046z"/>
   <path class="fil1" d="M5951 14396l681 -2c4,-15 -18,-52 -19,-60l-240 -650c-90,-279 -111,-612 -246,-834 -955,-47 -2050,32 -2935,-2 -53,-2 -95,-8 -131,-17 -117,-246 -368,-416 -659,-416 -402,0 -729,327 -729,729 0,403 327,730 729,730 291,0 541,-170 659,-416l2613 1c77,293 233,674 277,937z"/>
   <polygon class="fil0" points="14348,11519 13698,11520 13594,12892 14217,12904 "/>
   <path id="ieee-1.svg" class="fil0" d="M12969 13433l766 0 0 2768 -766 0 0 -2768zm1168 2768l0 -2768 2109 0 0 537 -1342 0 0 571 1234 0 0 537 -1234 0 0 586 1342 0 0 537 -2109 0zm2538 0l0 -2768 2108 0 0 537 -1341 0 0 571 1234 0 0 537 -1234 0 0 586 1341 0 0 537 -2108 0zm2537 0l0 -2768 2109 0 0 537 -1342 0 0 571 1234 0 0 537 -1234 0 0 586 1342 0 0 537 -2109 0z"/>
   <path class="fil2" d="M15462 17388l211 -21c13,70 38,122 77,155 39,33 91,50 156,50 70,0 122,-15 157,-44 36,-30 53,-64 53,-104 0,-25 -7,-46 -22,-64 -15,-18 -41,-34 -78,-47 -25,-9 -82,-24 -172,-46 -115,-29 -196,-65 -243,-107 -66,-59 -98,-131 -98,-216 0,-55 15,-106 46,-154 31,-47 75,-84 133,-109 58,-25 128,-37 210,-37 134,0 235,30 303,89 68,60 103,139 107,239l-217 7c-9,-55 -29,-95 -59,-119 -31,-24 -76,-36 -136,-36 -63,0 -111,13 -147,39 -22,16 -34,38 -34,66 0,26 11,47 32,65 28,24 94,48 199,73 105,24 182,50 232,77 51,26 90,62 119,109 28,46 42,103 42,170 0,62 -17,119 -51,173 -34,53 -82,93 -145,119 -62,26 -140,39 -233,39 -135,0 -239,-31 -312,-93 -72,-63 -116,-154 -130,-273z"/>
   <path id="1" class="fil2" d="M16517 16663l429 0c85,0 148,4 190,11 41,7 79,22 112,44 32,23 60,52 82,89 22,38 33,79 33,126 0,49 -14,96 -41,137 -27,42 -63,73 -109,94 65,19 115,52 150,98 35,46 52,100 52,162 0,49 -11,96 -34,142 -22,46 -53,83 -93,111 -39,27 -87,44 -145,51 -36,3 -123,6 -261,7l-365 0 0 -1072zm217 179l0 246 142 0c84,0 136,-1 157,-3 37,-5 66,-17 87,-38 21,-22 32,-49 32,-84 0,-33 -9,-60 -28,-80 -18,-21 -45,-33 -81,-38 -21,-2 -83,-3 -185,-3l-124 0zm0 425l0 287 201 0c78,0 127,-2 148,-7 32,-6 59,-20 79,-43 20,-22 30,-53 30,-91 0,-32 -8,-59 -23,-82 -16,-22 -38,-39 -68,-49 -29,-10 -93,-15 -192,-15l-175 0z"/>
   <polygon id="2" class="fil2" points="18014,17735 18014,16663 18224,16663 18665,17382 18665,16663 18865,16663 18865,17735 18648,17735 18214,17031 18214,17735 "/>
   <polygon id="3" class="fil2" points="19087,17735 19087,16663 19304,16663 19304,17735 "/>
   <polygon id="4" class="fil2" points="19751,17735 19751,16845 19434,16845 19434,16663 20284,16663 20284,16845 19968,16845 19968,17735 "/>
   <path id="5" class="fil2" d="M20424 16663l395 0c89,0 157,7 203,21 63,18 117,51 162,99 44,47 78,105 102,173 23,69 35,153 35,253 0,89 -11,165 -33,228 -27,78 -65,142 -115,190 -37,36 -88,65 -151,85 -48,15 -112,23 -191,23l-407 0 0 -1072zm217 182l0 709 161 0c60,0 104,-4 130,-10 36,-9 64,-24 87,-45 24,-21 42,-55 57,-103 14,-48 22,-114 22,-197 0,-82 -8,-146 -22,-190 -15,-44 -35,-79 -61,-104 -27,-25 -60,-41 -100,-50 -30,-7 -89,-10 -177,-10l-97 0z"/>
   <path class="fil0" d="M6161 15039l698 -7c691,8 440,-39 769,460 659,1003 1444,1795 2513,2416 398,230 392,255 842,1 437,-248 1244,-821 1380,-1089 -1104,-54 -856,20 -1552,450 -397,245 -745,-144 -1282,-564 -766,-600 -1312,-1428 -1794,-2296l-1228 -18 -658 4c-1160,-7 -1075,-260 -1872,915 -342,1 -1938,57 -2312,-16 -114,-255 -370,-432 -666,-432 -403,0 -730,326 -730,729 0,403 327,729 730,729 261,0 491,-138 619,-345 54,-25 123,-41 216,-44 521,-13 2093,77 2447,-19 171,-87 568,-844 768,-881l1112 7z"/>
  </g>
 </g>
</svg>
